%TF.GenerationSoftware,KiCad,Pcbnew,7.0.5*%
%TF.CreationDate,2023-08-21T12:06:50+01:00*%
%TF.ProjectId,ESC_Control_Board_STM32G071_V2,4553435f-436f-46e7-9472-6f6c5f426f61,rev?*%
%TF.SameCoordinates,Original*%
%TF.FileFunction,Legend,Top*%
%TF.FilePolarity,Positive*%
%FSLAX46Y46*%
G04 Gerber Fmt 4.6, Leading zero omitted, Abs format (unit mm)*
G04 Created by KiCad (PCBNEW 7.0.5) date 2023-08-21 12:06:50*
%MOMM*%
%LPD*%
G01*
G04 APERTURE LIST*
%ADD10C,0.150000*%
%ADD11C,0.254000*%
%ADD12C,0.152400*%
%ADD13C,0.200000*%
%ADD14C,0.100000*%
%ADD15C,0.120000*%
G04 APERTURE END LIST*
D10*
X153302017Y-54423200D02*
X153402017Y-54456533D01*
X153402017Y-54456533D02*
X153568684Y-54456533D01*
X153568684Y-54456533D02*
X153635350Y-54423200D01*
X153635350Y-54423200D02*
X153668684Y-54389866D01*
X153668684Y-54389866D02*
X153702017Y-54323200D01*
X153702017Y-54323200D02*
X153702017Y-54256533D01*
X153702017Y-54256533D02*
X153668684Y-54189866D01*
X153668684Y-54189866D02*
X153635350Y-54156533D01*
X153635350Y-54156533D02*
X153568684Y-54123200D01*
X153568684Y-54123200D02*
X153435350Y-54089866D01*
X153435350Y-54089866D02*
X153368684Y-54056533D01*
X153368684Y-54056533D02*
X153335350Y-54023200D01*
X153335350Y-54023200D02*
X153302017Y-53956533D01*
X153302017Y-53956533D02*
X153302017Y-53889866D01*
X153302017Y-53889866D02*
X153335350Y-53823200D01*
X153335350Y-53823200D02*
X153368684Y-53789866D01*
X153368684Y-53789866D02*
X153435350Y-53756533D01*
X153435350Y-53756533D02*
X153602017Y-53756533D01*
X153602017Y-53756533D02*
X153702017Y-53789866D01*
X120625350Y-60746533D02*
X120625350Y-60046533D01*
X120792017Y-60813200D02*
X121325350Y-60813200D01*
X121458683Y-60713200D02*
X121558683Y-60746533D01*
X121558683Y-60746533D02*
X121725350Y-60746533D01*
X121725350Y-60746533D02*
X121792016Y-60713200D01*
X121792016Y-60713200D02*
X121825350Y-60679866D01*
X121825350Y-60679866D02*
X121858683Y-60613200D01*
X121858683Y-60613200D02*
X121858683Y-60546533D01*
X121858683Y-60546533D02*
X121825350Y-60479866D01*
X121825350Y-60479866D02*
X121792016Y-60446533D01*
X121792016Y-60446533D02*
X121725350Y-60413200D01*
X121725350Y-60413200D02*
X121592016Y-60379866D01*
X121592016Y-60379866D02*
X121525350Y-60346533D01*
X121525350Y-60346533D02*
X121492016Y-60313200D01*
X121492016Y-60313200D02*
X121458683Y-60246533D01*
X121458683Y-60246533D02*
X121458683Y-60179866D01*
X121458683Y-60179866D02*
X121492016Y-60113200D01*
X121492016Y-60113200D02*
X121525350Y-60079866D01*
X121525350Y-60079866D02*
X121592016Y-60046533D01*
X121592016Y-60046533D02*
X121758683Y-60046533D01*
X121758683Y-60046533D02*
X121858683Y-60079866D01*
X122158683Y-60379866D02*
X122392017Y-60379866D01*
X122492017Y-60746533D02*
X122158683Y-60746533D01*
X122158683Y-60746533D02*
X122158683Y-60046533D01*
X122158683Y-60046533D02*
X122492017Y-60046533D01*
X122792016Y-60746533D02*
X122792016Y-60046533D01*
X122792016Y-60046533D02*
X123192016Y-60746533D01*
X123192016Y-60746533D02*
X123192016Y-60046533D01*
X123492016Y-60713200D02*
X123592016Y-60746533D01*
X123592016Y-60746533D02*
X123758683Y-60746533D01*
X123758683Y-60746533D02*
X123825349Y-60713200D01*
X123825349Y-60713200D02*
X123858683Y-60679866D01*
X123858683Y-60679866D02*
X123892016Y-60613200D01*
X123892016Y-60613200D02*
X123892016Y-60546533D01*
X123892016Y-60546533D02*
X123858683Y-60479866D01*
X123858683Y-60479866D02*
X123825349Y-60446533D01*
X123825349Y-60446533D02*
X123758683Y-60413200D01*
X123758683Y-60413200D02*
X123625349Y-60379866D01*
X123625349Y-60379866D02*
X123558683Y-60346533D01*
X123558683Y-60346533D02*
X123525349Y-60313200D01*
X123525349Y-60313200D02*
X123492016Y-60246533D01*
X123492016Y-60246533D02*
X123492016Y-60179866D01*
X123492016Y-60179866D02*
X123525349Y-60113200D01*
X123525349Y-60113200D02*
X123558683Y-60079866D01*
X123558683Y-60079866D02*
X123625349Y-60046533D01*
X123625349Y-60046533D02*
X123792016Y-60046533D01*
X123792016Y-60046533D02*
X123892016Y-60079866D01*
X124192016Y-60379866D02*
X124425350Y-60379866D01*
X124525350Y-60746533D02*
X124192016Y-60746533D01*
X124192016Y-60746533D02*
X124192016Y-60046533D01*
X124192016Y-60046533D02*
X124525350Y-60046533D01*
X120225350Y-49299533D02*
X120225350Y-48599533D01*
X120225350Y-48599533D02*
X120458684Y-49099533D01*
X120458684Y-49099533D02*
X120692017Y-48599533D01*
X120692017Y-48599533D02*
X120692017Y-49299533D01*
X121325350Y-49299533D02*
X121325350Y-48932866D01*
X121325350Y-48932866D02*
X121292017Y-48866200D01*
X121292017Y-48866200D02*
X121225350Y-48832866D01*
X121225350Y-48832866D02*
X121092017Y-48832866D01*
X121092017Y-48832866D02*
X121025350Y-48866200D01*
X121325350Y-49266200D02*
X121258684Y-49299533D01*
X121258684Y-49299533D02*
X121092017Y-49299533D01*
X121092017Y-49299533D02*
X121025350Y-49266200D01*
X121025350Y-49266200D02*
X120992017Y-49199533D01*
X120992017Y-49199533D02*
X120992017Y-49132866D01*
X120992017Y-49132866D02*
X121025350Y-49066200D01*
X121025350Y-49066200D02*
X121092017Y-49032866D01*
X121092017Y-49032866D02*
X121258684Y-49032866D01*
X121258684Y-49032866D02*
X121325350Y-48999533D01*
X121758683Y-49299533D02*
X121692017Y-49266200D01*
X121692017Y-49266200D02*
X121658683Y-49199533D01*
X121658683Y-49199533D02*
X121658683Y-48599533D01*
X122125350Y-49299533D02*
X122058684Y-49266200D01*
X122058684Y-49266200D02*
X122025350Y-49199533D01*
X122025350Y-49199533D02*
X122025350Y-48599533D01*
X122492017Y-49299533D02*
X122425351Y-49266200D01*
X122425351Y-49266200D02*
X122392017Y-49232866D01*
X122392017Y-49232866D02*
X122358684Y-49166200D01*
X122358684Y-49166200D02*
X122358684Y-48966200D01*
X122358684Y-48966200D02*
X122392017Y-48899533D01*
X122392017Y-48899533D02*
X122425351Y-48866200D01*
X122425351Y-48866200D02*
X122492017Y-48832866D01*
X122492017Y-48832866D02*
X122592017Y-48832866D01*
X122592017Y-48832866D02*
X122658684Y-48866200D01*
X122658684Y-48866200D02*
X122692017Y-48899533D01*
X122692017Y-48899533D02*
X122725351Y-48966200D01*
X122725351Y-48966200D02*
X122725351Y-49166200D01*
X122725351Y-49166200D02*
X122692017Y-49232866D01*
X122692017Y-49232866D02*
X122658684Y-49266200D01*
X122658684Y-49266200D02*
X122592017Y-49299533D01*
X122592017Y-49299533D02*
X122492017Y-49299533D01*
X122958684Y-48832866D02*
X123125350Y-49299533D01*
X123292017Y-48832866D02*
X123125350Y-49299533D01*
X123125350Y-49299533D02*
X123058684Y-49466200D01*
X123058684Y-49466200D02*
X123025350Y-49499533D01*
X123025350Y-49499533D02*
X122958684Y-49532866D01*
X124058683Y-49099533D02*
X124392016Y-49099533D01*
X123992016Y-49299533D02*
X124225350Y-48599533D01*
X124225350Y-48599533D02*
X124458683Y-49299533D01*
X124958683Y-49266200D02*
X124892016Y-49299533D01*
X124892016Y-49299533D02*
X124758683Y-49299533D01*
X124758683Y-49299533D02*
X124692016Y-49266200D01*
X124692016Y-49266200D02*
X124658683Y-49199533D01*
X124658683Y-49199533D02*
X124658683Y-48932866D01*
X124658683Y-48932866D02*
X124692016Y-48866200D01*
X124692016Y-48866200D02*
X124758683Y-48832866D01*
X124758683Y-48832866D02*
X124892016Y-48832866D01*
X124892016Y-48832866D02*
X124958683Y-48866200D01*
X124958683Y-48866200D02*
X124992016Y-48932866D01*
X124992016Y-48932866D02*
X124992016Y-48999533D01*
X124992016Y-48999533D02*
X124658683Y-49066200D01*
X125292016Y-49299533D02*
X125292016Y-48832866D01*
X125292016Y-48966200D02*
X125325350Y-48899533D01*
X125325350Y-48899533D02*
X125358683Y-48866200D01*
X125358683Y-48866200D02*
X125425350Y-48832866D01*
X125425350Y-48832866D02*
X125492016Y-48832866D01*
X125825349Y-49299533D02*
X125758683Y-49266200D01*
X125758683Y-49266200D02*
X125725349Y-49232866D01*
X125725349Y-49232866D02*
X125692016Y-49166200D01*
X125692016Y-49166200D02*
X125692016Y-48966200D01*
X125692016Y-48966200D02*
X125725349Y-48899533D01*
X125725349Y-48899533D02*
X125758683Y-48866200D01*
X125758683Y-48866200D02*
X125825349Y-48832866D01*
X125825349Y-48832866D02*
X125925349Y-48832866D01*
X125925349Y-48832866D02*
X125992016Y-48866200D01*
X125992016Y-48866200D02*
X126025349Y-48899533D01*
X126025349Y-48899533D02*
X126058683Y-48966200D01*
X126058683Y-48966200D02*
X126058683Y-49166200D01*
X126058683Y-49166200D02*
X126025349Y-49232866D01*
X126025349Y-49232866D02*
X125992016Y-49266200D01*
X125992016Y-49266200D02*
X125925349Y-49299533D01*
X125925349Y-49299533D02*
X125825349Y-49299533D01*
X126358682Y-48832866D02*
X126358682Y-49299533D01*
X126358682Y-48899533D02*
X126392016Y-48866200D01*
X126392016Y-48866200D02*
X126458682Y-48832866D01*
X126458682Y-48832866D02*
X126558682Y-48832866D01*
X126558682Y-48832866D02*
X126625349Y-48866200D01*
X126625349Y-48866200D02*
X126658682Y-48932866D01*
X126658682Y-48932866D02*
X126658682Y-49299533D01*
X127292015Y-49299533D02*
X127292015Y-48932866D01*
X127292015Y-48932866D02*
X127258682Y-48866200D01*
X127258682Y-48866200D02*
X127192015Y-48832866D01*
X127192015Y-48832866D02*
X127058682Y-48832866D01*
X127058682Y-48832866D02*
X126992015Y-48866200D01*
X127292015Y-49266200D02*
X127225349Y-49299533D01*
X127225349Y-49299533D02*
X127058682Y-49299533D01*
X127058682Y-49299533D02*
X126992015Y-49266200D01*
X126992015Y-49266200D02*
X126958682Y-49199533D01*
X126958682Y-49199533D02*
X126958682Y-49132866D01*
X126958682Y-49132866D02*
X126992015Y-49066200D01*
X126992015Y-49066200D02*
X127058682Y-49032866D01*
X127058682Y-49032866D02*
X127225349Y-49032866D01*
X127225349Y-49032866D02*
X127292015Y-48999533D01*
X127925348Y-48832866D02*
X127925348Y-49299533D01*
X127625348Y-48832866D02*
X127625348Y-49199533D01*
X127625348Y-49199533D02*
X127658682Y-49266200D01*
X127658682Y-49266200D02*
X127725348Y-49299533D01*
X127725348Y-49299533D02*
X127825348Y-49299533D01*
X127825348Y-49299533D02*
X127892015Y-49266200D01*
X127892015Y-49266200D02*
X127925348Y-49232866D01*
X128158681Y-48832866D02*
X128425348Y-48832866D01*
X128258681Y-48599533D02*
X128258681Y-49199533D01*
X128258681Y-49199533D02*
X128292015Y-49266200D01*
X128292015Y-49266200D02*
X128358681Y-49299533D01*
X128358681Y-49299533D02*
X128425348Y-49299533D01*
X128658681Y-49299533D02*
X128658681Y-48832866D01*
X128658681Y-48599533D02*
X128625348Y-48632866D01*
X128625348Y-48632866D02*
X128658681Y-48666200D01*
X128658681Y-48666200D02*
X128692015Y-48632866D01*
X128692015Y-48632866D02*
X128658681Y-48599533D01*
X128658681Y-48599533D02*
X128658681Y-48666200D01*
X129292014Y-49266200D02*
X129225348Y-49299533D01*
X129225348Y-49299533D02*
X129092014Y-49299533D01*
X129092014Y-49299533D02*
X129025348Y-49266200D01*
X129025348Y-49266200D02*
X128992014Y-49232866D01*
X128992014Y-49232866D02*
X128958681Y-49166200D01*
X128958681Y-49166200D02*
X128958681Y-48966200D01*
X128958681Y-48966200D02*
X128992014Y-48899533D01*
X128992014Y-48899533D02*
X129025348Y-48866200D01*
X129025348Y-48866200D02*
X129092014Y-48832866D01*
X129092014Y-48832866D02*
X129225348Y-48832866D01*
X129225348Y-48832866D02*
X129292014Y-48866200D01*
X129558681Y-49266200D02*
X129625348Y-49299533D01*
X129625348Y-49299533D02*
X129758681Y-49299533D01*
X129758681Y-49299533D02*
X129825348Y-49266200D01*
X129825348Y-49266200D02*
X129858681Y-49199533D01*
X129858681Y-49199533D02*
X129858681Y-49166200D01*
X129858681Y-49166200D02*
X129825348Y-49099533D01*
X129825348Y-49099533D02*
X129758681Y-49066200D01*
X129758681Y-49066200D02*
X129658681Y-49066200D01*
X129658681Y-49066200D02*
X129592014Y-49032866D01*
X129592014Y-49032866D02*
X129558681Y-48966200D01*
X129558681Y-48966200D02*
X129558681Y-48932866D01*
X129558681Y-48932866D02*
X129592014Y-48866200D01*
X129592014Y-48866200D02*
X129658681Y-48832866D01*
X129658681Y-48832866D02*
X129758681Y-48832866D01*
X129758681Y-48832866D02*
X129825348Y-48866200D01*
X120192017Y-50393200D02*
X120292017Y-50426533D01*
X120292017Y-50426533D02*
X120458684Y-50426533D01*
X120458684Y-50426533D02*
X120525350Y-50393200D01*
X120525350Y-50393200D02*
X120558684Y-50359866D01*
X120558684Y-50359866D02*
X120592017Y-50293200D01*
X120592017Y-50293200D02*
X120592017Y-50226533D01*
X120592017Y-50226533D02*
X120558684Y-50159866D01*
X120558684Y-50159866D02*
X120525350Y-50126533D01*
X120525350Y-50126533D02*
X120458684Y-50093200D01*
X120458684Y-50093200D02*
X120325350Y-50059866D01*
X120325350Y-50059866D02*
X120258684Y-50026533D01*
X120258684Y-50026533D02*
X120225350Y-49993200D01*
X120225350Y-49993200D02*
X120192017Y-49926533D01*
X120192017Y-49926533D02*
X120192017Y-49859866D01*
X120192017Y-49859866D02*
X120225350Y-49793200D01*
X120225350Y-49793200D02*
X120258684Y-49759866D01*
X120258684Y-49759866D02*
X120325350Y-49726533D01*
X120325350Y-49726533D02*
X120492017Y-49726533D01*
X120492017Y-49726533D02*
X120592017Y-49759866D01*
X120792017Y-49726533D02*
X121192017Y-49726533D01*
X120992017Y-50426533D02*
X120992017Y-49726533D01*
X121425350Y-50426533D02*
X121425350Y-49726533D01*
X121425350Y-49726533D02*
X121658684Y-50226533D01*
X121658684Y-50226533D02*
X121892017Y-49726533D01*
X121892017Y-49726533D02*
X121892017Y-50426533D01*
X122158684Y-49726533D02*
X122592017Y-49726533D01*
X122592017Y-49726533D02*
X122358684Y-49993200D01*
X122358684Y-49993200D02*
X122458684Y-49993200D01*
X122458684Y-49993200D02*
X122525350Y-50026533D01*
X122525350Y-50026533D02*
X122558684Y-50059866D01*
X122558684Y-50059866D02*
X122592017Y-50126533D01*
X122592017Y-50126533D02*
X122592017Y-50293200D01*
X122592017Y-50293200D02*
X122558684Y-50359866D01*
X122558684Y-50359866D02*
X122525350Y-50393200D01*
X122525350Y-50393200D02*
X122458684Y-50426533D01*
X122458684Y-50426533D02*
X122258684Y-50426533D01*
X122258684Y-50426533D02*
X122192017Y-50393200D01*
X122192017Y-50393200D02*
X122158684Y-50359866D01*
X122858684Y-49793200D02*
X122892017Y-49759866D01*
X122892017Y-49759866D02*
X122958684Y-49726533D01*
X122958684Y-49726533D02*
X123125351Y-49726533D01*
X123125351Y-49726533D02*
X123192017Y-49759866D01*
X123192017Y-49759866D02*
X123225351Y-49793200D01*
X123225351Y-49793200D02*
X123258684Y-49859866D01*
X123258684Y-49859866D02*
X123258684Y-49926533D01*
X123258684Y-49926533D02*
X123225351Y-50026533D01*
X123225351Y-50026533D02*
X122825351Y-50426533D01*
X122825351Y-50426533D02*
X123258684Y-50426533D01*
X123925351Y-49759866D02*
X123858684Y-49726533D01*
X123858684Y-49726533D02*
X123758684Y-49726533D01*
X123758684Y-49726533D02*
X123658684Y-49759866D01*
X123658684Y-49759866D02*
X123592018Y-49826533D01*
X123592018Y-49826533D02*
X123558684Y-49893200D01*
X123558684Y-49893200D02*
X123525351Y-50026533D01*
X123525351Y-50026533D02*
X123525351Y-50126533D01*
X123525351Y-50126533D02*
X123558684Y-50259866D01*
X123558684Y-50259866D02*
X123592018Y-50326533D01*
X123592018Y-50326533D02*
X123658684Y-50393200D01*
X123658684Y-50393200D02*
X123758684Y-50426533D01*
X123758684Y-50426533D02*
X123825351Y-50426533D01*
X123825351Y-50426533D02*
X123925351Y-50393200D01*
X123925351Y-50393200D02*
X123958684Y-50359866D01*
X123958684Y-50359866D02*
X123958684Y-50126533D01*
X123958684Y-50126533D02*
X123825351Y-50126533D01*
X124392018Y-49726533D02*
X124458684Y-49726533D01*
X124458684Y-49726533D02*
X124525351Y-49759866D01*
X124525351Y-49759866D02*
X124558684Y-49793200D01*
X124558684Y-49793200D02*
X124592018Y-49859866D01*
X124592018Y-49859866D02*
X124625351Y-49993200D01*
X124625351Y-49993200D02*
X124625351Y-50159866D01*
X124625351Y-50159866D02*
X124592018Y-50293200D01*
X124592018Y-50293200D02*
X124558684Y-50359866D01*
X124558684Y-50359866D02*
X124525351Y-50393200D01*
X124525351Y-50393200D02*
X124458684Y-50426533D01*
X124458684Y-50426533D02*
X124392018Y-50426533D01*
X124392018Y-50426533D02*
X124325351Y-50393200D01*
X124325351Y-50393200D02*
X124292018Y-50359866D01*
X124292018Y-50359866D02*
X124258684Y-50293200D01*
X124258684Y-50293200D02*
X124225351Y-50159866D01*
X124225351Y-50159866D02*
X124225351Y-49993200D01*
X124225351Y-49993200D02*
X124258684Y-49859866D01*
X124258684Y-49859866D02*
X124292018Y-49793200D01*
X124292018Y-49793200D02*
X124325351Y-49759866D01*
X124325351Y-49759866D02*
X124392018Y-49726533D01*
X124858685Y-49726533D02*
X125325351Y-49726533D01*
X125325351Y-49726533D02*
X125025351Y-50426533D01*
X125958685Y-50426533D02*
X125558685Y-50426533D01*
X125758685Y-50426533D02*
X125758685Y-49726533D01*
X125758685Y-49726533D02*
X125692018Y-49826533D01*
X125692018Y-49826533D02*
X125625352Y-49893200D01*
X125625352Y-49893200D02*
X125558685Y-49926533D01*
X127192018Y-50359866D02*
X127158685Y-50393200D01*
X127158685Y-50393200D02*
X127058685Y-50426533D01*
X127058685Y-50426533D02*
X126992018Y-50426533D01*
X126992018Y-50426533D02*
X126892018Y-50393200D01*
X126892018Y-50393200D02*
X126825352Y-50326533D01*
X126825352Y-50326533D02*
X126792018Y-50259866D01*
X126792018Y-50259866D02*
X126758685Y-50126533D01*
X126758685Y-50126533D02*
X126758685Y-50026533D01*
X126758685Y-50026533D02*
X126792018Y-49893200D01*
X126792018Y-49893200D02*
X126825352Y-49826533D01*
X126825352Y-49826533D02*
X126892018Y-49759866D01*
X126892018Y-49759866D02*
X126992018Y-49726533D01*
X126992018Y-49726533D02*
X127058685Y-49726533D01*
X127058685Y-49726533D02*
X127158685Y-49759866D01*
X127158685Y-49759866D02*
X127192018Y-49793200D01*
X127592018Y-50426533D02*
X127525352Y-50393200D01*
X127525352Y-50393200D02*
X127492018Y-50359866D01*
X127492018Y-50359866D02*
X127458685Y-50293200D01*
X127458685Y-50293200D02*
X127458685Y-50093200D01*
X127458685Y-50093200D02*
X127492018Y-50026533D01*
X127492018Y-50026533D02*
X127525352Y-49993200D01*
X127525352Y-49993200D02*
X127592018Y-49959866D01*
X127592018Y-49959866D02*
X127692018Y-49959866D01*
X127692018Y-49959866D02*
X127758685Y-49993200D01*
X127758685Y-49993200D02*
X127792018Y-50026533D01*
X127792018Y-50026533D02*
X127825352Y-50093200D01*
X127825352Y-50093200D02*
X127825352Y-50293200D01*
X127825352Y-50293200D02*
X127792018Y-50359866D01*
X127792018Y-50359866D02*
X127758685Y-50393200D01*
X127758685Y-50393200D02*
X127692018Y-50426533D01*
X127692018Y-50426533D02*
X127592018Y-50426533D01*
X128125351Y-49959866D02*
X128125351Y-50426533D01*
X128125351Y-50026533D02*
X128158685Y-49993200D01*
X128158685Y-49993200D02*
X128225351Y-49959866D01*
X128225351Y-49959866D02*
X128325351Y-49959866D01*
X128325351Y-49959866D02*
X128392018Y-49993200D01*
X128392018Y-49993200D02*
X128425351Y-50059866D01*
X128425351Y-50059866D02*
X128425351Y-50426533D01*
X128658684Y-49959866D02*
X128925351Y-49959866D01*
X128758684Y-49726533D02*
X128758684Y-50326533D01*
X128758684Y-50326533D02*
X128792018Y-50393200D01*
X128792018Y-50393200D02*
X128858684Y-50426533D01*
X128858684Y-50426533D02*
X128925351Y-50426533D01*
X129158684Y-50426533D02*
X129158684Y-49959866D01*
X129158684Y-50093200D02*
X129192018Y-50026533D01*
X129192018Y-50026533D02*
X129225351Y-49993200D01*
X129225351Y-49993200D02*
X129292018Y-49959866D01*
X129292018Y-49959866D02*
X129358684Y-49959866D01*
X129692017Y-50426533D02*
X129625351Y-50393200D01*
X129625351Y-50393200D02*
X129592017Y-50359866D01*
X129592017Y-50359866D02*
X129558684Y-50293200D01*
X129558684Y-50293200D02*
X129558684Y-50093200D01*
X129558684Y-50093200D02*
X129592017Y-50026533D01*
X129592017Y-50026533D02*
X129625351Y-49993200D01*
X129625351Y-49993200D02*
X129692017Y-49959866D01*
X129692017Y-49959866D02*
X129792017Y-49959866D01*
X129792017Y-49959866D02*
X129858684Y-49993200D01*
X129858684Y-49993200D02*
X129892017Y-50026533D01*
X129892017Y-50026533D02*
X129925351Y-50093200D01*
X129925351Y-50093200D02*
X129925351Y-50293200D01*
X129925351Y-50293200D02*
X129892017Y-50359866D01*
X129892017Y-50359866D02*
X129858684Y-50393200D01*
X129858684Y-50393200D02*
X129792017Y-50426533D01*
X129792017Y-50426533D02*
X129692017Y-50426533D01*
X130325350Y-50426533D02*
X130258684Y-50393200D01*
X130258684Y-50393200D02*
X130225350Y-50326533D01*
X130225350Y-50326533D02*
X130225350Y-49726533D01*
X131358684Y-50059866D02*
X131458684Y-50093200D01*
X131458684Y-50093200D02*
X131492017Y-50126533D01*
X131492017Y-50126533D02*
X131525350Y-50193200D01*
X131525350Y-50193200D02*
X131525350Y-50293200D01*
X131525350Y-50293200D02*
X131492017Y-50359866D01*
X131492017Y-50359866D02*
X131458684Y-50393200D01*
X131458684Y-50393200D02*
X131392017Y-50426533D01*
X131392017Y-50426533D02*
X131125350Y-50426533D01*
X131125350Y-50426533D02*
X131125350Y-49726533D01*
X131125350Y-49726533D02*
X131358684Y-49726533D01*
X131358684Y-49726533D02*
X131425350Y-49759866D01*
X131425350Y-49759866D02*
X131458684Y-49793200D01*
X131458684Y-49793200D02*
X131492017Y-49859866D01*
X131492017Y-49859866D02*
X131492017Y-49926533D01*
X131492017Y-49926533D02*
X131458684Y-49993200D01*
X131458684Y-49993200D02*
X131425350Y-50026533D01*
X131425350Y-50026533D02*
X131358684Y-50059866D01*
X131358684Y-50059866D02*
X131125350Y-50059866D01*
X131925350Y-50426533D02*
X131858684Y-50393200D01*
X131858684Y-50393200D02*
X131825350Y-50359866D01*
X131825350Y-50359866D02*
X131792017Y-50293200D01*
X131792017Y-50293200D02*
X131792017Y-50093200D01*
X131792017Y-50093200D02*
X131825350Y-50026533D01*
X131825350Y-50026533D02*
X131858684Y-49993200D01*
X131858684Y-49993200D02*
X131925350Y-49959866D01*
X131925350Y-49959866D02*
X132025350Y-49959866D01*
X132025350Y-49959866D02*
X132092017Y-49993200D01*
X132092017Y-49993200D02*
X132125350Y-50026533D01*
X132125350Y-50026533D02*
X132158684Y-50093200D01*
X132158684Y-50093200D02*
X132158684Y-50293200D01*
X132158684Y-50293200D02*
X132125350Y-50359866D01*
X132125350Y-50359866D02*
X132092017Y-50393200D01*
X132092017Y-50393200D02*
X132025350Y-50426533D01*
X132025350Y-50426533D02*
X131925350Y-50426533D01*
X132758683Y-50426533D02*
X132758683Y-50059866D01*
X132758683Y-50059866D02*
X132725350Y-49993200D01*
X132725350Y-49993200D02*
X132658683Y-49959866D01*
X132658683Y-49959866D02*
X132525350Y-49959866D01*
X132525350Y-49959866D02*
X132458683Y-49993200D01*
X132758683Y-50393200D02*
X132692017Y-50426533D01*
X132692017Y-50426533D02*
X132525350Y-50426533D01*
X132525350Y-50426533D02*
X132458683Y-50393200D01*
X132458683Y-50393200D02*
X132425350Y-50326533D01*
X132425350Y-50326533D02*
X132425350Y-50259866D01*
X132425350Y-50259866D02*
X132458683Y-50193200D01*
X132458683Y-50193200D02*
X132525350Y-50159866D01*
X132525350Y-50159866D02*
X132692017Y-50159866D01*
X132692017Y-50159866D02*
X132758683Y-50126533D01*
X133092016Y-50426533D02*
X133092016Y-49959866D01*
X133092016Y-50093200D02*
X133125350Y-50026533D01*
X133125350Y-50026533D02*
X133158683Y-49993200D01*
X133158683Y-49993200D02*
X133225350Y-49959866D01*
X133225350Y-49959866D02*
X133292016Y-49959866D01*
X133825349Y-50426533D02*
X133825349Y-49726533D01*
X133825349Y-50393200D02*
X133758683Y-50426533D01*
X133758683Y-50426533D02*
X133625349Y-50426533D01*
X133625349Y-50426533D02*
X133558683Y-50393200D01*
X133558683Y-50393200D02*
X133525349Y-50359866D01*
X133525349Y-50359866D02*
X133492016Y-50293200D01*
X133492016Y-50293200D02*
X133492016Y-50093200D01*
X133492016Y-50093200D02*
X133525349Y-50026533D01*
X133525349Y-50026533D02*
X133558683Y-49993200D01*
X133558683Y-49993200D02*
X133625349Y-49959866D01*
X133625349Y-49959866D02*
X133758683Y-49959866D01*
X133758683Y-49959866D02*
X133825349Y-49993200D01*
X134592015Y-49726533D02*
X134825349Y-50426533D01*
X134825349Y-50426533D02*
X135058682Y-49726533D01*
X135258682Y-49793200D02*
X135292015Y-49759866D01*
X135292015Y-49759866D02*
X135358682Y-49726533D01*
X135358682Y-49726533D02*
X135525349Y-49726533D01*
X135525349Y-49726533D02*
X135592015Y-49759866D01*
X135592015Y-49759866D02*
X135625349Y-49793200D01*
X135625349Y-49793200D02*
X135658682Y-49859866D01*
X135658682Y-49859866D02*
X135658682Y-49926533D01*
X135658682Y-49926533D02*
X135625349Y-50026533D01*
X135625349Y-50026533D02*
X135225349Y-50426533D01*
X135225349Y-50426533D02*
X135658682Y-50426533D01*
X135958682Y-50359866D02*
X135992016Y-50393200D01*
X135992016Y-50393200D02*
X135958682Y-50426533D01*
X135958682Y-50426533D02*
X135925349Y-50393200D01*
X135925349Y-50393200D02*
X135958682Y-50359866D01*
X135958682Y-50359866D02*
X135958682Y-50426533D01*
X136425349Y-49726533D02*
X136492015Y-49726533D01*
X136492015Y-49726533D02*
X136558682Y-49759866D01*
X136558682Y-49759866D02*
X136592015Y-49793200D01*
X136592015Y-49793200D02*
X136625349Y-49859866D01*
X136625349Y-49859866D02*
X136658682Y-49993200D01*
X136658682Y-49993200D02*
X136658682Y-50159866D01*
X136658682Y-50159866D02*
X136625349Y-50293200D01*
X136625349Y-50293200D02*
X136592015Y-50359866D01*
X136592015Y-50359866D02*
X136558682Y-50393200D01*
X136558682Y-50393200D02*
X136492015Y-50426533D01*
X136492015Y-50426533D02*
X136425349Y-50426533D01*
X136425349Y-50426533D02*
X136358682Y-50393200D01*
X136358682Y-50393200D02*
X136325349Y-50359866D01*
X136325349Y-50359866D02*
X136292015Y-50293200D01*
X136292015Y-50293200D02*
X136258682Y-50159866D01*
X136258682Y-50159866D02*
X136258682Y-49993200D01*
X136258682Y-49993200D02*
X136292015Y-49859866D01*
X136292015Y-49859866D02*
X136325349Y-49793200D01*
X136325349Y-49793200D02*
X136358682Y-49759866D01*
X136358682Y-49759866D02*
X136425349Y-49726533D01*
%TO.C,U11*%
X128853333Y-58216033D02*
X128853333Y-58782700D01*
X128853333Y-58782700D02*
X128886667Y-58849366D01*
X128886667Y-58849366D02*
X128920000Y-58882700D01*
X128920000Y-58882700D02*
X128986667Y-58916033D01*
X128986667Y-58916033D02*
X129120000Y-58916033D01*
X129120000Y-58916033D02*
X129186667Y-58882700D01*
X129186667Y-58882700D02*
X129220000Y-58849366D01*
X129220000Y-58849366D02*
X129253333Y-58782700D01*
X129253333Y-58782700D02*
X129253333Y-58216033D01*
X129953333Y-58916033D02*
X129553333Y-58916033D01*
X129753333Y-58916033D02*
X129753333Y-58216033D01*
X129753333Y-58216033D02*
X129686666Y-58316033D01*
X129686666Y-58316033D02*
X129620000Y-58382700D01*
X129620000Y-58382700D02*
X129553333Y-58416033D01*
X130620000Y-58916033D02*
X130220000Y-58916033D01*
X130420000Y-58916033D02*
X130420000Y-58216033D01*
X130420000Y-58216033D02*
X130353333Y-58316033D01*
X130353333Y-58316033D02*
X130286667Y-58382700D01*
X130286667Y-58382700D02*
X130220000Y-58416033D01*
X124535600Y-52598819D02*
X124535600Y-52836914D01*
X124297505Y-52741676D02*
X124535600Y-52836914D01*
X124535600Y-52836914D02*
X124773695Y-52741676D01*
X124392743Y-53027390D02*
X124535600Y-52836914D01*
X124535600Y-52836914D02*
X124678457Y-53027390D01*
X124535600Y-52598819D02*
X124535600Y-52836914D01*
X124297505Y-52741676D02*
X124535600Y-52836914D01*
X124535600Y-52836914D02*
X124773695Y-52741676D01*
X124392743Y-53027390D02*
X124535600Y-52836914D01*
X124535600Y-52836914D02*
X124678457Y-53027390D01*
D11*
%TO.C,IC5*%
X144460237Y-51474318D02*
X144460237Y-50204318D01*
X145790714Y-51353365D02*
X145730238Y-51413842D01*
X145730238Y-51413842D02*
X145548809Y-51474318D01*
X145548809Y-51474318D02*
X145427857Y-51474318D01*
X145427857Y-51474318D02*
X145246428Y-51413842D01*
X145246428Y-51413842D02*
X145125476Y-51292889D01*
X145125476Y-51292889D02*
X145064999Y-51171937D01*
X145064999Y-51171937D02*
X145004523Y-50930032D01*
X145004523Y-50930032D02*
X145004523Y-50748603D01*
X145004523Y-50748603D02*
X145064999Y-50506699D01*
X145064999Y-50506699D02*
X145125476Y-50385746D01*
X145125476Y-50385746D02*
X145246428Y-50264794D01*
X145246428Y-50264794D02*
X145427857Y-50204318D01*
X145427857Y-50204318D02*
X145548809Y-50204318D01*
X145548809Y-50204318D02*
X145730238Y-50264794D01*
X145730238Y-50264794D02*
X145790714Y-50325270D01*
X146939761Y-50204318D02*
X146334999Y-50204318D01*
X146334999Y-50204318D02*
X146274523Y-50809080D01*
X146274523Y-50809080D02*
X146334999Y-50748603D01*
X146334999Y-50748603D02*
X146455952Y-50688127D01*
X146455952Y-50688127D02*
X146758333Y-50688127D01*
X146758333Y-50688127D02*
X146879285Y-50748603D01*
X146879285Y-50748603D02*
X146939761Y-50809080D01*
X146939761Y-50809080D02*
X147000238Y-50930032D01*
X147000238Y-50930032D02*
X147000238Y-51232413D01*
X147000238Y-51232413D02*
X146939761Y-51353365D01*
X146939761Y-51353365D02*
X146879285Y-51413842D01*
X146879285Y-51413842D02*
X146758333Y-51474318D01*
X146758333Y-51474318D02*
X146455952Y-51474318D01*
X146455952Y-51474318D02*
X146334999Y-51413842D01*
X146334999Y-51413842D02*
X146274523Y-51353365D01*
%TO.C,IC4*%
X112374318Y-69139762D02*
X111104318Y-69139762D01*
X112253365Y-67809285D02*
X112313842Y-67869761D01*
X112313842Y-67869761D02*
X112374318Y-68051190D01*
X112374318Y-68051190D02*
X112374318Y-68172142D01*
X112374318Y-68172142D02*
X112313842Y-68353571D01*
X112313842Y-68353571D02*
X112192889Y-68474523D01*
X112192889Y-68474523D02*
X112071937Y-68535000D01*
X112071937Y-68535000D02*
X111830032Y-68595476D01*
X111830032Y-68595476D02*
X111648603Y-68595476D01*
X111648603Y-68595476D02*
X111406699Y-68535000D01*
X111406699Y-68535000D02*
X111285746Y-68474523D01*
X111285746Y-68474523D02*
X111164794Y-68353571D01*
X111164794Y-68353571D02*
X111104318Y-68172142D01*
X111104318Y-68172142D02*
X111104318Y-68051190D01*
X111104318Y-68051190D02*
X111164794Y-67869761D01*
X111164794Y-67869761D02*
X111225270Y-67809285D01*
X111527651Y-66720714D02*
X112374318Y-66720714D01*
X111043842Y-67023095D02*
X111950984Y-67325476D01*
X111950984Y-67325476D02*
X111950984Y-66539285D01*
%TO.C,U10*%
X152727618Y-70404318D02*
X152727618Y-71432413D01*
X152727618Y-71432413D02*
X152788095Y-71553365D01*
X152788095Y-71553365D02*
X152848571Y-71613842D01*
X152848571Y-71613842D02*
X152969523Y-71674318D01*
X152969523Y-71674318D02*
X153211428Y-71674318D01*
X153211428Y-71674318D02*
X153332380Y-71613842D01*
X153332380Y-71613842D02*
X153392857Y-71553365D01*
X153392857Y-71553365D02*
X153453333Y-71432413D01*
X153453333Y-71432413D02*
X153453333Y-70404318D01*
X154723333Y-71674318D02*
X153997618Y-71674318D01*
X154360475Y-71674318D02*
X154360475Y-70404318D01*
X154360475Y-70404318D02*
X154239523Y-70585746D01*
X154239523Y-70585746D02*
X154118571Y-70706699D01*
X154118571Y-70706699D02*
X153997618Y-70767175D01*
X155509523Y-70404318D02*
X155630476Y-70404318D01*
X155630476Y-70404318D02*
X155751428Y-70464794D01*
X155751428Y-70464794D02*
X155811904Y-70525270D01*
X155811904Y-70525270D02*
X155872380Y-70646222D01*
X155872380Y-70646222D02*
X155932857Y-70888127D01*
X155932857Y-70888127D02*
X155932857Y-71190508D01*
X155932857Y-71190508D02*
X155872380Y-71432413D01*
X155872380Y-71432413D02*
X155811904Y-71553365D01*
X155811904Y-71553365D02*
X155751428Y-71613842D01*
X155751428Y-71613842D02*
X155630476Y-71674318D01*
X155630476Y-71674318D02*
X155509523Y-71674318D01*
X155509523Y-71674318D02*
X155388571Y-71613842D01*
X155388571Y-71613842D02*
X155328095Y-71553365D01*
X155328095Y-71553365D02*
X155267618Y-71432413D01*
X155267618Y-71432413D02*
X155207142Y-71190508D01*
X155207142Y-71190508D02*
X155207142Y-70888127D01*
X155207142Y-70888127D02*
X155267618Y-70646222D01*
X155267618Y-70646222D02*
X155328095Y-70525270D01*
X155328095Y-70525270D02*
X155388571Y-70464794D01*
X155388571Y-70464794D02*
X155509523Y-70404318D01*
D10*
%TO.C,J1*%
X138043333Y-60252295D02*
X138043333Y-60823723D01*
X138043333Y-60823723D02*
X138005238Y-60938009D01*
X138005238Y-60938009D02*
X137929047Y-61014200D01*
X137929047Y-61014200D02*
X137814762Y-61052295D01*
X137814762Y-61052295D02*
X137738571Y-61052295D01*
X138843333Y-61052295D02*
X138386190Y-61052295D01*
X138614762Y-61052295D02*
X138614762Y-60252295D01*
X138614762Y-60252295D02*
X138538571Y-60366580D01*
X138538571Y-60366580D02*
X138462381Y-60442771D01*
X138462381Y-60442771D02*
X138386190Y-60480866D01*
%TO.C,C11*%
X153785714Y-79286104D02*
X153747618Y-79324200D01*
X153747618Y-79324200D02*
X153633333Y-79362295D01*
X153633333Y-79362295D02*
X153557142Y-79362295D01*
X153557142Y-79362295D02*
X153442856Y-79324200D01*
X153442856Y-79324200D02*
X153366666Y-79248009D01*
X153366666Y-79248009D02*
X153328571Y-79171819D01*
X153328571Y-79171819D02*
X153290475Y-79019438D01*
X153290475Y-79019438D02*
X153290475Y-78905152D01*
X153290475Y-78905152D02*
X153328571Y-78752771D01*
X153328571Y-78752771D02*
X153366666Y-78676580D01*
X153366666Y-78676580D02*
X153442856Y-78600390D01*
X153442856Y-78600390D02*
X153557142Y-78562295D01*
X153557142Y-78562295D02*
X153633333Y-78562295D01*
X153633333Y-78562295D02*
X153747618Y-78600390D01*
X153747618Y-78600390D02*
X153785714Y-78638485D01*
X154547618Y-79362295D02*
X154090475Y-79362295D01*
X154319047Y-79362295D02*
X154319047Y-78562295D01*
X154319047Y-78562295D02*
X154242856Y-78676580D01*
X154242856Y-78676580D02*
X154166666Y-78752771D01*
X154166666Y-78752771D02*
X154090475Y-78790866D01*
X155309523Y-79362295D02*
X154852380Y-79362295D01*
X155080952Y-79362295D02*
X155080952Y-78562295D01*
X155080952Y-78562295D02*
X155004761Y-78676580D01*
X155004761Y-78676580D02*
X154928571Y-78752771D01*
X154928571Y-78752771D02*
X154852380Y-78790866D01*
%TO.C,D7*%
X156509524Y-79462295D02*
X156509524Y-78662295D01*
X156509524Y-78662295D02*
X156700000Y-78662295D01*
X156700000Y-78662295D02*
X156814286Y-78700390D01*
X156814286Y-78700390D02*
X156890476Y-78776580D01*
X156890476Y-78776580D02*
X156928571Y-78852771D01*
X156928571Y-78852771D02*
X156966667Y-79005152D01*
X156966667Y-79005152D02*
X156966667Y-79119438D01*
X156966667Y-79119438D02*
X156928571Y-79271819D01*
X156928571Y-79271819D02*
X156890476Y-79348009D01*
X156890476Y-79348009D02*
X156814286Y-79424200D01*
X156814286Y-79424200D02*
X156700000Y-79462295D01*
X156700000Y-79462295D02*
X156509524Y-79462295D01*
X157233333Y-78662295D02*
X157766667Y-78662295D01*
X157766667Y-78662295D02*
X157423809Y-79462295D01*
%TO.C,R23*%
X150742295Y-54614285D02*
X150361342Y-54880952D01*
X150742295Y-55071428D02*
X149942295Y-55071428D01*
X149942295Y-55071428D02*
X149942295Y-54766666D01*
X149942295Y-54766666D02*
X149980390Y-54690476D01*
X149980390Y-54690476D02*
X150018485Y-54652381D01*
X150018485Y-54652381D02*
X150094676Y-54614285D01*
X150094676Y-54614285D02*
X150208961Y-54614285D01*
X150208961Y-54614285D02*
X150285152Y-54652381D01*
X150285152Y-54652381D02*
X150323247Y-54690476D01*
X150323247Y-54690476D02*
X150361342Y-54766666D01*
X150361342Y-54766666D02*
X150361342Y-55071428D01*
X150018485Y-54309524D02*
X149980390Y-54271428D01*
X149980390Y-54271428D02*
X149942295Y-54195238D01*
X149942295Y-54195238D02*
X149942295Y-54004762D01*
X149942295Y-54004762D02*
X149980390Y-53928571D01*
X149980390Y-53928571D02*
X150018485Y-53890476D01*
X150018485Y-53890476D02*
X150094676Y-53852381D01*
X150094676Y-53852381D02*
X150170866Y-53852381D01*
X150170866Y-53852381D02*
X150285152Y-53890476D01*
X150285152Y-53890476D02*
X150742295Y-54347619D01*
X150742295Y-54347619D02*
X150742295Y-53852381D01*
X149942295Y-53585714D02*
X149942295Y-53090476D01*
X149942295Y-53090476D02*
X150247057Y-53357142D01*
X150247057Y-53357142D02*
X150247057Y-53242857D01*
X150247057Y-53242857D02*
X150285152Y-53166666D01*
X150285152Y-53166666D02*
X150323247Y-53128571D01*
X150323247Y-53128571D02*
X150399438Y-53090476D01*
X150399438Y-53090476D02*
X150589914Y-53090476D01*
X150589914Y-53090476D02*
X150666104Y-53128571D01*
X150666104Y-53128571D02*
X150704200Y-53166666D01*
X150704200Y-53166666D02*
X150742295Y-53242857D01*
X150742295Y-53242857D02*
X150742295Y-53471428D01*
X150742295Y-53471428D02*
X150704200Y-53547619D01*
X150704200Y-53547619D02*
X150666104Y-53585714D01*
%TO.C,R14*%
X113615714Y-58502295D02*
X113349047Y-58121342D01*
X113158571Y-58502295D02*
X113158571Y-57702295D01*
X113158571Y-57702295D02*
X113463333Y-57702295D01*
X113463333Y-57702295D02*
X113539523Y-57740390D01*
X113539523Y-57740390D02*
X113577618Y-57778485D01*
X113577618Y-57778485D02*
X113615714Y-57854676D01*
X113615714Y-57854676D02*
X113615714Y-57968961D01*
X113615714Y-57968961D02*
X113577618Y-58045152D01*
X113577618Y-58045152D02*
X113539523Y-58083247D01*
X113539523Y-58083247D02*
X113463333Y-58121342D01*
X113463333Y-58121342D02*
X113158571Y-58121342D01*
X114377618Y-58502295D02*
X113920475Y-58502295D01*
X114149047Y-58502295D02*
X114149047Y-57702295D01*
X114149047Y-57702295D02*
X114072856Y-57816580D01*
X114072856Y-57816580D02*
X113996666Y-57892771D01*
X113996666Y-57892771D02*
X113920475Y-57930866D01*
X115063333Y-57968961D02*
X115063333Y-58502295D01*
X114872857Y-57664200D02*
X114682380Y-58235628D01*
X114682380Y-58235628D02*
X115177619Y-58235628D01*
%TO.C,C7*%
X132566667Y-72286104D02*
X132528571Y-72324200D01*
X132528571Y-72324200D02*
X132414286Y-72362295D01*
X132414286Y-72362295D02*
X132338095Y-72362295D01*
X132338095Y-72362295D02*
X132223809Y-72324200D01*
X132223809Y-72324200D02*
X132147619Y-72248009D01*
X132147619Y-72248009D02*
X132109524Y-72171819D01*
X132109524Y-72171819D02*
X132071428Y-72019438D01*
X132071428Y-72019438D02*
X132071428Y-71905152D01*
X132071428Y-71905152D02*
X132109524Y-71752771D01*
X132109524Y-71752771D02*
X132147619Y-71676580D01*
X132147619Y-71676580D02*
X132223809Y-71600390D01*
X132223809Y-71600390D02*
X132338095Y-71562295D01*
X132338095Y-71562295D02*
X132414286Y-71562295D01*
X132414286Y-71562295D02*
X132528571Y-71600390D01*
X132528571Y-71600390D02*
X132566667Y-71638485D01*
X132833333Y-71562295D02*
X133366667Y-71562295D01*
X133366667Y-71562295D02*
X133023809Y-72362295D01*
%TO.C,R20*%
X113555714Y-55262295D02*
X113289047Y-54881342D01*
X113098571Y-55262295D02*
X113098571Y-54462295D01*
X113098571Y-54462295D02*
X113403333Y-54462295D01*
X113403333Y-54462295D02*
X113479523Y-54500390D01*
X113479523Y-54500390D02*
X113517618Y-54538485D01*
X113517618Y-54538485D02*
X113555714Y-54614676D01*
X113555714Y-54614676D02*
X113555714Y-54728961D01*
X113555714Y-54728961D02*
X113517618Y-54805152D01*
X113517618Y-54805152D02*
X113479523Y-54843247D01*
X113479523Y-54843247D02*
X113403333Y-54881342D01*
X113403333Y-54881342D02*
X113098571Y-54881342D01*
X113860475Y-54538485D02*
X113898571Y-54500390D01*
X113898571Y-54500390D02*
X113974761Y-54462295D01*
X113974761Y-54462295D02*
X114165237Y-54462295D01*
X114165237Y-54462295D02*
X114241428Y-54500390D01*
X114241428Y-54500390D02*
X114279523Y-54538485D01*
X114279523Y-54538485D02*
X114317618Y-54614676D01*
X114317618Y-54614676D02*
X114317618Y-54690866D01*
X114317618Y-54690866D02*
X114279523Y-54805152D01*
X114279523Y-54805152D02*
X113822380Y-55262295D01*
X113822380Y-55262295D02*
X114317618Y-55262295D01*
X114812857Y-54462295D02*
X114889047Y-54462295D01*
X114889047Y-54462295D02*
X114965238Y-54500390D01*
X114965238Y-54500390D02*
X115003333Y-54538485D01*
X115003333Y-54538485D02*
X115041428Y-54614676D01*
X115041428Y-54614676D02*
X115079523Y-54767057D01*
X115079523Y-54767057D02*
X115079523Y-54957533D01*
X115079523Y-54957533D02*
X115041428Y-55109914D01*
X115041428Y-55109914D02*
X115003333Y-55186104D01*
X115003333Y-55186104D02*
X114965238Y-55224200D01*
X114965238Y-55224200D02*
X114889047Y-55262295D01*
X114889047Y-55262295D02*
X114812857Y-55262295D01*
X114812857Y-55262295D02*
X114736666Y-55224200D01*
X114736666Y-55224200D02*
X114698571Y-55186104D01*
X114698571Y-55186104D02*
X114660476Y-55109914D01*
X114660476Y-55109914D02*
X114622380Y-54957533D01*
X114622380Y-54957533D02*
X114622380Y-54767057D01*
X114622380Y-54767057D02*
X114660476Y-54614676D01*
X114660476Y-54614676D02*
X114698571Y-54538485D01*
X114698571Y-54538485D02*
X114736666Y-54500390D01*
X114736666Y-54500390D02*
X114812857Y-54462295D01*
%TO.C,D8*%
X148462295Y-64490475D02*
X147662295Y-64490475D01*
X147662295Y-64490475D02*
X147662295Y-64299999D01*
X147662295Y-64299999D02*
X147700390Y-64185713D01*
X147700390Y-64185713D02*
X147776580Y-64109523D01*
X147776580Y-64109523D02*
X147852771Y-64071428D01*
X147852771Y-64071428D02*
X148005152Y-64033332D01*
X148005152Y-64033332D02*
X148119438Y-64033332D01*
X148119438Y-64033332D02*
X148271819Y-64071428D01*
X148271819Y-64071428D02*
X148348009Y-64109523D01*
X148348009Y-64109523D02*
X148424200Y-64185713D01*
X148424200Y-64185713D02*
X148462295Y-64299999D01*
X148462295Y-64299999D02*
X148462295Y-64490475D01*
X148005152Y-63576190D02*
X147967057Y-63652380D01*
X147967057Y-63652380D02*
X147928961Y-63690475D01*
X147928961Y-63690475D02*
X147852771Y-63728571D01*
X147852771Y-63728571D02*
X147814676Y-63728571D01*
X147814676Y-63728571D02*
X147738485Y-63690475D01*
X147738485Y-63690475D02*
X147700390Y-63652380D01*
X147700390Y-63652380D02*
X147662295Y-63576190D01*
X147662295Y-63576190D02*
X147662295Y-63423809D01*
X147662295Y-63423809D02*
X147700390Y-63347618D01*
X147700390Y-63347618D02*
X147738485Y-63309523D01*
X147738485Y-63309523D02*
X147814676Y-63271428D01*
X147814676Y-63271428D02*
X147852771Y-63271428D01*
X147852771Y-63271428D02*
X147928961Y-63309523D01*
X147928961Y-63309523D02*
X147967057Y-63347618D01*
X147967057Y-63347618D02*
X148005152Y-63423809D01*
X148005152Y-63423809D02*
X148005152Y-63576190D01*
X148005152Y-63576190D02*
X148043247Y-63652380D01*
X148043247Y-63652380D02*
X148081342Y-63690475D01*
X148081342Y-63690475D02*
X148157533Y-63728571D01*
X148157533Y-63728571D02*
X148309914Y-63728571D01*
X148309914Y-63728571D02*
X148386104Y-63690475D01*
X148386104Y-63690475D02*
X148424200Y-63652380D01*
X148424200Y-63652380D02*
X148462295Y-63576190D01*
X148462295Y-63576190D02*
X148462295Y-63423809D01*
X148462295Y-63423809D02*
X148424200Y-63347618D01*
X148424200Y-63347618D02*
X148386104Y-63309523D01*
X148386104Y-63309523D02*
X148309914Y-63271428D01*
X148309914Y-63271428D02*
X148157533Y-63271428D01*
X148157533Y-63271428D02*
X148081342Y-63309523D01*
X148081342Y-63309523D02*
X148043247Y-63347618D01*
X148043247Y-63347618D02*
X148005152Y-63423809D01*
%TO.C,R18*%
X115495714Y-63332295D02*
X115229047Y-62951342D01*
X115038571Y-63332295D02*
X115038571Y-62532295D01*
X115038571Y-62532295D02*
X115343333Y-62532295D01*
X115343333Y-62532295D02*
X115419523Y-62570390D01*
X115419523Y-62570390D02*
X115457618Y-62608485D01*
X115457618Y-62608485D02*
X115495714Y-62684676D01*
X115495714Y-62684676D02*
X115495714Y-62798961D01*
X115495714Y-62798961D02*
X115457618Y-62875152D01*
X115457618Y-62875152D02*
X115419523Y-62913247D01*
X115419523Y-62913247D02*
X115343333Y-62951342D01*
X115343333Y-62951342D02*
X115038571Y-62951342D01*
X116257618Y-63332295D02*
X115800475Y-63332295D01*
X116029047Y-63332295D02*
X116029047Y-62532295D01*
X116029047Y-62532295D02*
X115952856Y-62646580D01*
X115952856Y-62646580D02*
X115876666Y-62722771D01*
X115876666Y-62722771D02*
X115800475Y-62760866D01*
X116714761Y-62875152D02*
X116638571Y-62837057D01*
X116638571Y-62837057D02*
X116600476Y-62798961D01*
X116600476Y-62798961D02*
X116562380Y-62722771D01*
X116562380Y-62722771D02*
X116562380Y-62684676D01*
X116562380Y-62684676D02*
X116600476Y-62608485D01*
X116600476Y-62608485D02*
X116638571Y-62570390D01*
X116638571Y-62570390D02*
X116714761Y-62532295D01*
X116714761Y-62532295D02*
X116867142Y-62532295D01*
X116867142Y-62532295D02*
X116943333Y-62570390D01*
X116943333Y-62570390D02*
X116981428Y-62608485D01*
X116981428Y-62608485D02*
X117019523Y-62684676D01*
X117019523Y-62684676D02*
X117019523Y-62722771D01*
X117019523Y-62722771D02*
X116981428Y-62798961D01*
X116981428Y-62798961D02*
X116943333Y-62837057D01*
X116943333Y-62837057D02*
X116867142Y-62875152D01*
X116867142Y-62875152D02*
X116714761Y-62875152D01*
X116714761Y-62875152D02*
X116638571Y-62913247D01*
X116638571Y-62913247D02*
X116600476Y-62951342D01*
X116600476Y-62951342D02*
X116562380Y-63027533D01*
X116562380Y-63027533D02*
X116562380Y-63179914D01*
X116562380Y-63179914D02*
X116600476Y-63256104D01*
X116600476Y-63256104D02*
X116638571Y-63294200D01*
X116638571Y-63294200D02*
X116714761Y-63332295D01*
X116714761Y-63332295D02*
X116867142Y-63332295D01*
X116867142Y-63332295D02*
X116943333Y-63294200D01*
X116943333Y-63294200D02*
X116981428Y-63256104D01*
X116981428Y-63256104D02*
X117019523Y-63179914D01*
X117019523Y-63179914D02*
X117019523Y-63027533D01*
X117019523Y-63027533D02*
X116981428Y-62951342D01*
X116981428Y-62951342D02*
X116943333Y-62913247D01*
X116943333Y-62913247D02*
X116867142Y-62875152D01*
%TO.C,D3*%
X123762295Y-64090475D02*
X122962295Y-64090475D01*
X122962295Y-64090475D02*
X122962295Y-63899999D01*
X122962295Y-63899999D02*
X123000390Y-63785713D01*
X123000390Y-63785713D02*
X123076580Y-63709523D01*
X123076580Y-63709523D02*
X123152771Y-63671428D01*
X123152771Y-63671428D02*
X123305152Y-63633332D01*
X123305152Y-63633332D02*
X123419438Y-63633332D01*
X123419438Y-63633332D02*
X123571819Y-63671428D01*
X123571819Y-63671428D02*
X123648009Y-63709523D01*
X123648009Y-63709523D02*
X123724200Y-63785713D01*
X123724200Y-63785713D02*
X123762295Y-63899999D01*
X123762295Y-63899999D02*
X123762295Y-64090475D01*
X122962295Y-63366666D02*
X122962295Y-62871428D01*
X122962295Y-62871428D02*
X123267057Y-63138094D01*
X123267057Y-63138094D02*
X123267057Y-63023809D01*
X123267057Y-63023809D02*
X123305152Y-62947618D01*
X123305152Y-62947618D02*
X123343247Y-62909523D01*
X123343247Y-62909523D02*
X123419438Y-62871428D01*
X123419438Y-62871428D02*
X123609914Y-62871428D01*
X123609914Y-62871428D02*
X123686104Y-62909523D01*
X123686104Y-62909523D02*
X123724200Y-62947618D01*
X123724200Y-62947618D02*
X123762295Y-63023809D01*
X123762295Y-63023809D02*
X123762295Y-63252380D01*
X123762295Y-63252380D02*
X123724200Y-63328571D01*
X123724200Y-63328571D02*
X123686104Y-63366666D01*
%TO.C,C17*%
X154685714Y-64086104D02*
X154647618Y-64124200D01*
X154647618Y-64124200D02*
X154533333Y-64162295D01*
X154533333Y-64162295D02*
X154457142Y-64162295D01*
X154457142Y-64162295D02*
X154342856Y-64124200D01*
X154342856Y-64124200D02*
X154266666Y-64048009D01*
X154266666Y-64048009D02*
X154228571Y-63971819D01*
X154228571Y-63971819D02*
X154190475Y-63819438D01*
X154190475Y-63819438D02*
X154190475Y-63705152D01*
X154190475Y-63705152D02*
X154228571Y-63552771D01*
X154228571Y-63552771D02*
X154266666Y-63476580D01*
X154266666Y-63476580D02*
X154342856Y-63400390D01*
X154342856Y-63400390D02*
X154457142Y-63362295D01*
X154457142Y-63362295D02*
X154533333Y-63362295D01*
X154533333Y-63362295D02*
X154647618Y-63400390D01*
X154647618Y-63400390D02*
X154685714Y-63438485D01*
X155447618Y-64162295D02*
X154990475Y-64162295D01*
X155219047Y-64162295D02*
X155219047Y-63362295D01*
X155219047Y-63362295D02*
X155142856Y-63476580D01*
X155142856Y-63476580D02*
X155066666Y-63552771D01*
X155066666Y-63552771D02*
X154990475Y-63590866D01*
X155714285Y-63362295D02*
X156247619Y-63362295D01*
X156247619Y-63362295D02*
X155904761Y-64162295D01*
%TO.C,R5*%
X129866667Y-73792295D02*
X129600000Y-73411342D01*
X129409524Y-73792295D02*
X129409524Y-72992295D01*
X129409524Y-72992295D02*
X129714286Y-72992295D01*
X129714286Y-72992295D02*
X129790476Y-73030390D01*
X129790476Y-73030390D02*
X129828571Y-73068485D01*
X129828571Y-73068485D02*
X129866667Y-73144676D01*
X129866667Y-73144676D02*
X129866667Y-73258961D01*
X129866667Y-73258961D02*
X129828571Y-73335152D01*
X129828571Y-73335152D02*
X129790476Y-73373247D01*
X129790476Y-73373247D02*
X129714286Y-73411342D01*
X129714286Y-73411342D02*
X129409524Y-73411342D01*
X130590476Y-72992295D02*
X130209524Y-72992295D01*
X130209524Y-72992295D02*
X130171428Y-73373247D01*
X130171428Y-73373247D02*
X130209524Y-73335152D01*
X130209524Y-73335152D02*
X130285714Y-73297057D01*
X130285714Y-73297057D02*
X130476190Y-73297057D01*
X130476190Y-73297057D02*
X130552381Y-73335152D01*
X130552381Y-73335152D02*
X130590476Y-73373247D01*
X130590476Y-73373247D02*
X130628571Y-73449438D01*
X130628571Y-73449438D02*
X130628571Y-73639914D01*
X130628571Y-73639914D02*
X130590476Y-73716104D01*
X130590476Y-73716104D02*
X130552381Y-73754200D01*
X130552381Y-73754200D02*
X130476190Y-73792295D01*
X130476190Y-73792295D02*
X130285714Y-73792295D01*
X130285714Y-73792295D02*
X130209524Y-73754200D01*
X130209524Y-73754200D02*
X130171428Y-73716104D01*
%TO.C,R10*%
X127285714Y-75412295D02*
X127019047Y-75031342D01*
X126828571Y-75412295D02*
X126828571Y-74612295D01*
X126828571Y-74612295D02*
X127133333Y-74612295D01*
X127133333Y-74612295D02*
X127209523Y-74650390D01*
X127209523Y-74650390D02*
X127247618Y-74688485D01*
X127247618Y-74688485D02*
X127285714Y-74764676D01*
X127285714Y-74764676D02*
X127285714Y-74878961D01*
X127285714Y-74878961D02*
X127247618Y-74955152D01*
X127247618Y-74955152D02*
X127209523Y-74993247D01*
X127209523Y-74993247D02*
X127133333Y-75031342D01*
X127133333Y-75031342D02*
X126828571Y-75031342D01*
X128047618Y-75412295D02*
X127590475Y-75412295D01*
X127819047Y-75412295D02*
X127819047Y-74612295D01*
X127819047Y-74612295D02*
X127742856Y-74726580D01*
X127742856Y-74726580D02*
X127666666Y-74802771D01*
X127666666Y-74802771D02*
X127590475Y-74840866D01*
X128542857Y-74612295D02*
X128619047Y-74612295D01*
X128619047Y-74612295D02*
X128695238Y-74650390D01*
X128695238Y-74650390D02*
X128733333Y-74688485D01*
X128733333Y-74688485D02*
X128771428Y-74764676D01*
X128771428Y-74764676D02*
X128809523Y-74917057D01*
X128809523Y-74917057D02*
X128809523Y-75107533D01*
X128809523Y-75107533D02*
X128771428Y-75259914D01*
X128771428Y-75259914D02*
X128733333Y-75336104D01*
X128733333Y-75336104D02*
X128695238Y-75374200D01*
X128695238Y-75374200D02*
X128619047Y-75412295D01*
X128619047Y-75412295D02*
X128542857Y-75412295D01*
X128542857Y-75412295D02*
X128466666Y-75374200D01*
X128466666Y-75374200D02*
X128428571Y-75336104D01*
X128428571Y-75336104D02*
X128390476Y-75259914D01*
X128390476Y-75259914D02*
X128352380Y-75107533D01*
X128352380Y-75107533D02*
X128352380Y-74917057D01*
X128352380Y-74917057D02*
X128390476Y-74764676D01*
X128390476Y-74764676D02*
X128428571Y-74688485D01*
X128428571Y-74688485D02*
X128466666Y-74650390D01*
X128466666Y-74650390D02*
X128542857Y-74612295D01*
%TO.C,C12*%
X113515714Y-56826104D02*
X113477618Y-56864200D01*
X113477618Y-56864200D02*
X113363333Y-56902295D01*
X113363333Y-56902295D02*
X113287142Y-56902295D01*
X113287142Y-56902295D02*
X113172856Y-56864200D01*
X113172856Y-56864200D02*
X113096666Y-56788009D01*
X113096666Y-56788009D02*
X113058571Y-56711819D01*
X113058571Y-56711819D02*
X113020475Y-56559438D01*
X113020475Y-56559438D02*
X113020475Y-56445152D01*
X113020475Y-56445152D02*
X113058571Y-56292771D01*
X113058571Y-56292771D02*
X113096666Y-56216580D01*
X113096666Y-56216580D02*
X113172856Y-56140390D01*
X113172856Y-56140390D02*
X113287142Y-56102295D01*
X113287142Y-56102295D02*
X113363333Y-56102295D01*
X113363333Y-56102295D02*
X113477618Y-56140390D01*
X113477618Y-56140390D02*
X113515714Y-56178485D01*
X114277618Y-56902295D02*
X113820475Y-56902295D01*
X114049047Y-56902295D02*
X114049047Y-56102295D01*
X114049047Y-56102295D02*
X113972856Y-56216580D01*
X113972856Y-56216580D02*
X113896666Y-56292771D01*
X113896666Y-56292771D02*
X113820475Y-56330866D01*
X114582380Y-56178485D02*
X114620476Y-56140390D01*
X114620476Y-56140390D02*
X114696666Y-56102295D01*
X114696666Y-56102295D02*
X114887142Y-56102295D01*
X114887142Y-56102295D02*
X114963333Y-56140390D01*
X114963333Y-56140390D02*
X115001428Y-56178485D01*
X115001428Y-56178485D02*
X115039523Y-56254676D01*
X115039523Y-56254676D02*
X115039523Y-56330866D01*
X115039523Y-56330866D02*
X115001428Y-56445152D01*
X115001428Y-56445152D02*
X114544285Y-56902295D01*
X114544285Y-56902295D02*
X115039523Y-56902295D01*
%TO.C,D2*%
X134662295Y-64090475D02*
X133862295Y-64090475D01*
X133862295Y-64090475D02*
X133862295Y-63899999D01*
X133862295Y-63899999D02*
X133900390Y-63785713D01*
X133900390Y-63785713D02*
X133976580Y-63709523D01*
X133976580Y-63709523D02*
X134052771Y-63671428D01*
X134052771Y-63671428D02*
X134205152Y-63633332D01*
X134205152Y-63633332D02*
X134319438Y-63633332D01*
X134319438Y-63633332D02*
X134471819Y-63671428D01*
X134471819Y-63671428D02*
X134548009Y-63709523D01*
X134548009Y-63709523D02*
X134624200Y-63785713D01*
X134624200Y-63785713D02*
X134662295Y-63899999D01*
X134662295Y-63899999D02*
X134662295Y-64090475D01*
X133938485Y-63328571D02*
X133900390Y-63290475D01*
X133900390Y-63290475D02*
X133862295Y-63214285D01*
X133862295Y-63214285D02*
X133862295Y-63023809D01*
X133862295Y-63023809D02*
X133900390Y-62947618D01*
X133900390Y-62947618D02*
X133938485Y-62909523D01*
X133938485Y-62909523D02*
X134014676Y-62871428D01*
X134014676Y-62871428D02*
X134090866Y-62871428D01*
X134090866Y-62871428D02*
X134205152Y-62909523D01*
X134205152Y-62909523D02*
X134662295Y-63366666D01*
X134662295Y-63366666D02*
X134662295Y-62871428D01*
%TO.C,R15*%
X157562295Y-66514285D02*
X157181342Y-66780952D01*
X157562295Y-66971428D02*
X156762295Y-66971428D01*
X156762295Y-66971428D02*
X156762295Y-66666666D01*
X156762295Y-66666666D02*
X156800390Y-66590476D01*
X156800390Y-66590476D02*
X156838485Y-66552381D01*
X156838485Y-66552381D02*
X156914676Y-66514285D01*
X156914676Y-66514285D02*
X157028961Y-66514285D01*
X157028961Y-66514285D02*
X157105152Y-66552381D01*
X157105152Y-66552381D02*
X157143247Y-66590476D01*
X157143247Y-66590476D02*
X157181342Y-66666666D01*
X157181342Y-66666666D02*
X157181342Y-66971428D01*
X157562295Y-65752381D02*
X157562295Y-66209524D01*
X157562295Y-65980952D02*
X156762295Y-65980952D01*
X156762295Y-65980952D02*
X156876580Y-66057143D01*
X156876580Y-66057143D02*
X156952771Y-66133333D01*
X156952771Y-66133333D02*
X156990866Y-66209524D01*
X156762295Y-65028571D02*
X156762295Y-65409523D01*
X156762295Y-65409523D02*
X157143247Y-65447619D01*
X157143247Y-65447619D02*
X157105152Y-65409523D01*
X157105152Y-65409523D02*
X157067057Y-65333333D01*
X157067057Y-65333333D02*
X157067057Y-65142857D01*
X157067057Y-65142857D02*
X157105152Y-65066666D01*
X157105152Y-65066666D02*
X157143247Y-65028571D01*
X157143247Y-65028571D02*
X157219438Y-64990476D01*
X157219438Y-64990476D02*
X157409914Y-64990476D01*
X157409914Y-64990476D02*
X157486104Y-65028571D01*
X157486104Y-65028571D02*
X157524200Y-65066666D01*
X157524200Y-65066666D02*
X157562295Y-65142857D01*
X157562295Y-65142857D02*
X157562295Y-65333333D01*
X157562295Y-65333333D02*
X157524200Y-65409523D01*
X157524200Y-65409523D02*
X157486104Y-65447619D01*
%TO.C,C18*%
X151785714Y-64086104D02*
X151747618Y-64124200D01*
X151747618Y-64124200D02*
X151633333Y-64162295D01*
X151633333Y-64162295D02*
X151557142Y-64162295D01*
X151557142Y-64162295D02*
X151442856Y-64124200D01*
X151442856Y-64124200D02*
X151366666Y-64048009D01*
X151366666Y-64048009D02*
X151328571Y-63971819D01*
X151328571Y-63971819D02*
X151290475Y-63819438D01*
X151290475Y-63819438D02*
X151290475Y-63705152D01*
X151290475Y-63705152D02*
X151328571Y-63552771D01*
X151328571Y-63552771D02*
X151366666Y-63476580D01*
X151366666Y-63476580D02*
X151442856Y-63400390D01*
X151442856Y-63400390D02*
X151557142Y-63362295D01*
X151557142Y-63362295D02*
X151633333Y-63362295D01*
X151633333Y-63362295D02*
X151747618Y-63400390D01*
X151747618Y-63400390D02*
X151785714Y-63438485D01*
X152547618Y-64162295D02*
X152090475Y-64162295D01*
X152319047Y-64162295D02*
X152319047Y-63362295D01*
X152319047Y-63362295D02*
X152242856Y-63476580D01*
X152242856Y-63476580D02*
X152166666Y-63552771D01*
X152166666Y-63552771D02*
X152090475Y-63590866D01*
X153004761Y-63705152D02*
X152928571Y-63667057D01*
X152928571Y-63667057D02*
X152890476Y-63628961D01*
X152890476Y-63628961D02*
X152852380Y-63552771D01*
X152852380Y-63552771D02*
X152852380Y-63514676D01*
X152852380Y-63514676D02*
X152890476Y-63438485D01*
X152890476Y-63438485D02*
X152928571Y-63400390D01*
X152928571Y-63400390D02*
X153004761Y-63362295D01*
X153004761Y-63362295D02*
X153157142Y-63362295D01*
X153157142Y-63362295D02*
X153233333Y-63400390D01*
X153233333Y-63400390D02*
X153271428Y-63438485D01*
X153271428Y-63438485D02*
X153309523Y-63514676D01*
X153309523Y-63514676D02*
X153309523Y-63552771D01*
X153309523Y-63552771D02*
X153271428Y-63628961D01*
X153271428Y-63628961D02*
X153233333Y-63667057D01*
X153233333Y-63667057D02*
X153157142Y-63705152D01*
X153157142Y-63705152D02*
X153004761Y-63705152D01*
X153004761Y-63705152D02*
X152928571Y-63743247D01*
X152928571Y-63743247D02*
X152890476Y-63781342D01*
X152890476Y-63781342D02*
X152852380Y-63857533D01*
X152852380Y-63857533D02*
X152852380Y-64009914D01*
X152852380Y-64009914D02*
X152890476Y-64086104D01*
X152890476Y-64086104D02*
X152928571Y-64124200D01*
X152928571Y-64124200D02*
X153004761Y-64162295D01*
X153004761Y-64162295D02*
X153157142Y-64162295D01*
X153157142Y-64162295D02*
X153233333Y-64124200D01*
X153233333Y-64124200D02*
X153271428Y-64086104D01*
X153271428Y-64086104D02*
X153309523Y-64009914D01*
X153309523Y-64009914D02*
X153309523Y-63857533D01*
X153309523Y-63857533D02*
X153271428Y-63781342D01*
X153271428Y-63781342D02*
X153233333Y-63743247D01*
X153233333Y-63743247D02*
X153157142Y-63705152D01*
%TO.C,C8*%
X121766667Y-72086104D02*
X121728571Y-72124200D01*
X121728571Y-72124200D02*
X121614286Y-72162295D01*
X121614286Y-72162295D02*
X121538095Y-72162295D01*
X121538095Y-72162295D02*
X121423809Y-72124200D01*
X121423809Y-72124200D02*
X121347619Y-72048009D01*
X121347619Y-72048009D02*
X121309524Y-71971819D01*
X121309524Y-71971819D02*
X121271428Y-71819438D01*
X121271428Y-71819438D02*
X121271428Y-71705152D01*
X121271428Y-71705152D02*
X121309524Y-71552771D01*
X121309524Y-71552771D02*
X121347619Y-71476580D01*
X121347619Y-71476580D02*
X121423809Y-71400390D01*
X121423809Y-71400390D02*
X121538095Y-71362295D01*
X121538095Y-71362295D02*
X121614286Y-71362295D01*
X121614286Y-71362295D02*
X121728571Y-71400390D01*
X121728571Y-71400390D02*
X121766667Y-71438485D01*
X122223809Y-71705152D02*
X122147619Y-71667057D01*
X122147619Y-71667057D02*
X122109524Y-71628961D01*
X122109524Y-71628961D02*
X122071428Y-71552771D01*
X122071428Y-71552771D02*
X122071428Y-71514676D01*
X122071428Y-71514676D02*
X122109524Y-71438485D01*
X122109524Y-71438485D02*
X122147619Y-71400390D01*
X122147619Y-71400390D02*
X122223809Y-71362295D01*
X122223809Y-71362295D02*
X122376190Y-71362295D01*
X122376190Y-71362295D02*
X122452381Y-71400390D01*
X122452381Y-71400390D02*
X122490476Y-71438485D01*
X122490476Y-71438485D02*
X122528571Y-71514676D01*
X122528571Y-71514676D02*
X122528571Y-71552771D01*
X122528571Y-71552771D02*
X122490476Y-71628961D01*
X122490476Y-71628961D02*
X122452381Y-71667057D01*
X122452381Y-71667057D02*
X122376190Y-71705152D01*
X122376190Y-71705152D02*
X122223809Y-71705152D01*
X122223809Y-71705152D02*
X122147619Y-71743247D01*
X122147619Y-71743247D02*
X122109524Y-71781342D01*
X122109524Y-71781342D02*
X122071428Y-71857533D01*
X122071428Y-71857533D02*
X122071428Y-72009914D01*
X122071428Y-72009914D02*
X122109524Y-72086104D01*
X122109524Y-72086104D02*
X122147619Y-72124200D01*
X122147619Y-72124200D02*
X122223809Y-72162295D01*
X122223809Y-72162295D02*
X122376190Y-72162295D01*
X122376190Y-72162295D02*
X122452381Y-72124200D01*
X122452381Y-72124200D02*
X122490476Y-72086104D01*
X122490476Y-72086104D02*
X122528571Y-72009914D01*
X122528571Y-72009914D02*
X122528571Y-71857533D01*
X122528571Y-71857533D02*
X122490476Y-71781342D01*
X122490476Y-71781342D02*
X122452381Y-71743247D01*
X122452381Y-71743247D02*
X122376190Y-71705152D01*
%TO.C,R21*%
X147062295Y-64314285D02*
X146681342Y-64580952D01*
X147062295Y-64771428D02*
X146262295Y-64771428D01*
X146262295Y-64771428D02*
X146262295Y-64466666D01*
X146262295Y-64466666D02*
X146300390Y-64390476D01*
X146300390Y-64390476D02*
X146338485Y-64352381D01*
X146338485Y-64352381D02*
X146414676Y-64314285D01*
X146414676Y-64314285D02*
X146528961Y-64314285D01*
X146528961Y-64314285D02*
X146605152Y-64352381D01*
X146605152Y-64352381D02*
X146643247Y-64390476D01*
X146643247Y-64390476D02*
X146681342Y-64466666D01*
X146681342Y-64466666D02*
X146681342Y-64771428D01*
X146338485Y-64009524D02*
X146300390Y-63971428D01*
X146300390Y-63971428D02*
X146262295Y-63895238D01*
X146262295Y-63895238D02*
X146262295Y-63704762D01*
X146262295Y-63704762D02*
X146300390Y-63628571D01*
X146300390Y-63628571D02*
X146338485Y-63590476D01*
X146338485Y-63590476D02*
X146414676Y-63552381D01*
X146414676Y-63552381D02*
X146490866Y-63552381D01*
X146490866Y-63552381D02*
X146605152Y-63590476D01*
X146605152Y-63590476D02*
X147062295Y-64047619D01*
X147062295Y-64047619D02*
X147062295Y-63552381D01*
X147062295Y-62790476D02*
X147062295Y-63247619D01*
X147062295Y-63019047D02*
X146262295Y-63019047D01*
X146262295Y-63019047D02*
X146376580Y-63095238D01*
X146376580Y-63095238D02*
X146452771Y-63171428D01*
X146452771Y-63171428D02*
X146490866Y-63247619D01*
%TO.C,U5*%
X138990476Y-73262295D02*
X138990476Y-73909914D01*
X138990476Y-73909914D02*
X139028571Y-73986104D01*
X139028571Y-73986104D02*
X139066666Y-74024200D01*
X139066666Y-74024200D02*
X139142857Y-74062295D01*
X139142857Y-74062295D02*
X139295238Y-74062295D01*
X139295238Y-74062295D02*
X139371428Y-74024200D01*
X139371428Y-74024200D02*
X139409523Y-73986104D01*
X139409523Y-73986104D02*
X139447619Y-73909914D01*
X139447619Y-73909914D02*
X139447619Y-73262295D01*
X140209523Y-73262295D02*
X139828571Y-73262295D01*
X139828571Y-73262295D02*
X139790475Y-73643247D01*
X139790475Y-73643247D02*
X139828571Y-73605152D01*
X139828571Y-73605152D02*
X139904761Y-73567057D01*
X139904761Y-73567057D02*
X140095237Y-73567057D01*
X140095237Y-73567057D02*
X140171428Y-73605152D01*
X140171428Y-73605152D02*
X140209523Y-73643247D01*
X140209523Y-73643247D02*
X140247618Y-73719438D01*
X140247618Y-73719438D02*
X140247618Y-73909914D01*
X140247618Y-73909914D02*
X140209523Y-73986104D01*
X140209523Y-73986104D02*
X140171428Y-74024200D01*
X140171428Y-74024200D02*
X140095237Y-74062295D01*
X140095237Y-74062295D02*
X139904761Y-74062295D01*
X139904761Y-74062295D02*
X139828571Y-74024200D01*
X139828571Y-74024200D02*
X139790475Y-73986104D01*
%TO.C,C24*%
X147185714Y-53286104D02*
X147147618Y-53324200D01*
X147147618Y-53324200D02*
X147033333Y-53362295D01*
X147033333Y-53362295D02*
X146957142Y-53362295D01*
X146957142Y-53362295D02*
X146842856Y-53324200D01*
X146842856Y-53324200D02*
X146766666Y-53248009D01*
X146766666Y-53248009D02*
X146728571Y-53171819D01*
X146728571Y-53171819D02*
X146690475Y-53019438D01*
X146690475Y-53019438D02*
X146690475Y-52905152D01*
X146690475Y-52905152D02*
X146728571Y-52752771D01*
X146728571Y-52752771D02*
X146766666Y-52676580D01*
X146766666Y-52676580D02*
X146842856Y-52600390D01*
X146842856Y-52600390D02*
X146957142Y-52562295D01*
X146957142Y-52562295D02*
X147033333Y-52562295D01*
X147033333Y-52562295D02*
X147147618Y-52600390D01*
X147147618Y-52600390D02*
X147185714Y-52638485D01*
X147490475Y-52638485D02*
X147528571Y-52600390D01*
X147528571Y-52600390D02*
X147604761Y-52562295D01*
X147604761Y-52562295D02*
X147795237Y-52562295D01*
X147795237Y-52562295D02*
X147871428Y-52600390D01*
X147871428Y-52600390D02*
X147909523Y-52638485D01*
X147909523Y-52638485D02*
X147947618Y-52714676D01*
X147947618Y-52714676D02*
X147947618Y-52790866D01*
X147947618Y-52790866D02*
X147909523Y-52905152D01*
X147909523Y-52905152D02*
X147452380Y-53362295D01*
X147452380Y-53362295D02*
X147947618Y-53362295D01*
X148633333Y-52828961D02*
X148633333Y-53362295D01*
X148442857Y-52524200D02*
X148252380Y-53095628D01*
X148252380Y-53095628D02*
X148747619Y-53095628D01*
%TO.C,R17*%
X125962295Y-64114285D02*
X125581342Y-64380952D01*
X125962295Y-64571428D02*
X125162295Y-64571428D01*
X125162295Y-64571428D02*
X125162295Y-64266666D01*
X125162295Y-64266666D02*
X125200390Y-64190476D01*
X125200390Y-64190476D02*
X125238485Y-64152381D01*
X125238485Y-64152381D02*
X125314676Y-64114285D01*
X125314676Y-64114285D02*
X125428961Y-64114285D01*
X125428961Y-64114285D02*
X125505152Y-64152381D01*
X125505152Y-64152381D02*
X125543247Y-64190476D01*
X125543247Y-64190476D02*
X125581342Y-64266666D01*
X125581342Y-64266666D02*
X125581342Y-64571428D01*
X125962295Y-63352381D02*
X125962295Y-63809524D01*
X125962295Y-63580952D02*
X125162295Y-63580952D01*
X125162295Y-63580952D02*
X125276580Y-63657143D01*
X125276580Y-63657143D02*
X125352771Y-63733333D01*
X125352771Y-63733333D02*
X125390866Y-63809524D01*
X125162295Y-63085714D02*
X125162295Y-62552380D01*
X125162295Y-62552380D02*
X125962295Y-62895238D01*
%TO.C,D4*%
X147609524Y-70762295D02*
X147609524Y-69962295D01*
X147609524Y-69962295D02*
X147800000Y-69962295D01*
X147800000Y-69962295D02*
X147914286Y-70000390D01*
X147914286Y-70000390D02*
X147990476Y-70076580D01*
X147990476Y-70076580D02*
X148028571Y-70152771D01*
X148028571Y-70152771D02*
X148066667Y-70305152D01*
X148066667Y-70305152D02*
X148066667Y-70419438D01*
X148066667Y-70419438D02*
X148028571Y-70571819D01*
X148028571Y-70571819D02*
X147990476Y-70648009D01*
X147990476Y-70648009D02*
X147914286Y-70724200D01*
X147914286Y-70724200D02*
X147800000Y-70762295D01*
X147800000Y-70762295D02*
X147609524Y-70762295D01*
X148752381Y-70228961D02*
X148752381Y-70762295D01*
X148561905Y-69924200D02*
X148371428Y-70495628D01*
X148371428Y-70495628D02*
X148866667Y-70495628D01*
%TO.C,R16*%
X150062295Y-72914285D02*
X149681342Y-73180952D01*
X150062295Y-73371428D02*
X149262295Y-73371428D01*
X149262295Y-73371428D02*
X149262295Y-73066666D01*
X149262295Y-73066666D02*
X149300390Y-72990476D01*
X149300390Y-72990476D02*
X149338485Y-72952381D01*
X149338485Y-72952381D02*
X149414676Y-72914285D01*
X149414676Y-72914285D02*
X149528961Y-72914285D01*
X149528961Y-72914285D02*
X149605152Y-72952381D01*
X149605152Y-72952381D02*
X149643247Y-72990476D01*
X149643247Y-72990476D02*
X149681342Y-73066666D01*
X149681342Y-73066666D02*
X149681342Y-73371428D01*
X150062295Y-72152381D02*
X150062295Y-72609524D01*
X150062295Y-72380952D02*
X149262295Y-72380952D01*
X149262295Y-72380952D02*
X149376580Y-72457143D01*
X149376580Y-72457143D02*
X149452771Y-72533333D01*
X149452771Y-72533333D02*
X149490866Y-72609524D01*
X149262295Y-71466666D02*
X149262295Y-71619047D01*
X149262295Y-71619047D02*
X149300390Y-71695238D01*
X149300390Y-71695238D02*
X149338485Y-71733333D01*
X149338485Y-71733333D02*
X149452771Y-71809523D01*
X149452771Y-71809523D02*
X149605152Y-71847619D01*
X149605152Y-71847619D02*
X149909914Y-71847619D01*
X149909914Y-71847619D02*
X149986104Y-71809523D01*
X149986104Y-71809523D02*
X150024200Y-71771428D01*
X150024200Y-71771428D02*
X150062295Y-71695238D01*
X150062295Y-71695238D02*
X150062295Y-71542857D01*
X150062295Y-71542857D02*
X150024200Y-71466666D01*
X150024200Y-71466666D02*
X149986104Y-71428571D01*
X149986104Y-71428571D02*
X149909914Y-71390476D01*
X149909914Y-71390476D02*
X149719438Y-71390476D01*
X149719438Y-71390476D02*
X149643247Y-71428571D01*
X149643247Y-71428571D02*
X149605152Y-71466666D01*
X149605152Y-71466666D02*
X149567057Y-71542857D01*
X149567057Y-71542857D02*
X149567057Y-71695238D01*
X149567057Y-71695238D02*
X149605152Y-71771428D01*
X149605152Y-71771428D02*
X149643247Y-71809523D01*
X149643247Y-71809523D02*
X149719438Y-71847619D01*
%TO.C,U6*%
X131790476Y-73062295D02*
X131790476Y-73709914D01*
X131790476Y-73709914D02*
X131828571Y-73786104D01*
X131828571Y-73786104D02*
X131866666Y-73824200D01*
X131866666Y-73824200D02*
X131942857Y-73862295D01*
X131942857Y-73862295D02*
X132095238Y-73862295D01*
X132095238Y-73862295D02*
X132171428Y-73824200D01*
X132171428Y-73824200D02*
X132209523Y-73786104D01*
X132209523Y-73786104D02*
X132247619Y-73709914D01*
X132247619Y-73709914D02*
X132247619Y-73062295D01*
X132971428Y-73062295D02*
X132819047Y-73062295D01*
X132819047Y-73062295D02*
X132742856Y-73100390D01*
X132742856Y-73100390D02*
X132704761Y-73138485D01*
X132704761Y-73138485D02*
X132628571Y-73252771D01*
X132628571Y-73252771D02*
X132590475Y-73405152D01*
X132590475Y-73405152D02*
X132590475Y-73709914D01*
X132590475Y-73709914D02*
X132628571Y-73786104D01*
X132628571Y-73786104D02*
X132666666Y-73824200D01*
X132666666Y-73824200D02*
X132742856Y-73862295D01*
X132742856Y-73862295D02*
X132895237Y-73862295D01*
X132895237Y-73862295D02*
X132971428Y-73824200D01*
X132971428Y-73824200D02*
X133009523Y-73786104D01*
X133009523Y-73786104D02*
X133047618Y-73709914D01*
X133047618Y-73709914D02*
X133047618Y-73519438D01*
X133047618Y-73519438D02*
X133009523Y-73443247D01*
X133009523Y-73443247D02*
X132971428Y-73405152D01*
X132971428Y-73405152D02*
X132895237Y-73367057D01*
X132895237Y-73367057D02*
X132742856Y-73367057D01*
X132742856Y-73367057D02*
X132666666Y-73405152D01*
X132666666Y-73405152D02*
X132628571Y-73443247D01*
X132628571Y-73443247D02*
X132590475Y-73519438D01*
%TO.C,C21*%
X114645714Y-59866104D02*
X114607618Y-59904200D01*
X114607618Y-59904200D02*
X114493333Y-59942295D01*
X114493333Y-59942295D02*
X114417142Y-59942295D01*
X114417142Y-59942295D02*
X114302856Y-59904200D01*
X114302856Y-59904200D02*
X114226666Y-59828009D01*
X114226666Y-59828009D02*
X114188571Y-59751819D01*
X114188571Y-59751819D02*
X114150475Y-59599438D01*
X114150475Y-59599438D02*
X114150475Y-59485152D01*
X114150475Y-59485152D02*
X114188571Y-59332771D01*
X114188571Y-59332771D02*
X114226666Y-59256580D01*
X114226666Y-59256580D02*
X114302856Y-59180390D01*
X114302856Y-59180390D02*
X114417142Y-59142295D01*
X114417142Y-59142295D02*
X114493333Y-59142295D01*
X114493333Y-59142295D02*
X114607618Y-59180390D01*
X114607618Y-59180390D02*
X114645714Y-59218485D01*
X114950475Y-59218485D02*
X114988571Y-59180390D01*
X114988571Y-59180390D02*
X115064761Y-59142295D01*
X115064761Y-59142295D02*
X115255237Y-59142295D01*
X115255237Y-59142295D02*
X115331428Y-59180390D01*
X115331428Y-59180390D02*
X115369523Y-59218485D01*
X115369523Y-59218485D02*
X115407618Y-59294676D01*
X115407618Y-59294676D02*
X115407618Y-59370866D01*
X115407618Y-59370866D02*
X115369523Y-59485152D01*
X115369523Y-59485152D02*
X114912380Y-59942295D01*
X114912380Y-59942295D02*
X115407618Y-59942295D01*
X116169523Y-59942295D02*
X115712380Y-59942295D01*
X115940952Y-59942295D02*
X115940952Y-59142295D01*
X115940952Y-59142295D02*
X115864761Y-59256580D01*
X115864761Y-59256580D02*
X115788571Y-59332771D01*
X115788571Y-59332771D02*
X115712380Y-59370866D01*
%TO.C,R3*%
X116666667Y-73762295D02*
X116400000Y-73381342D01*
X116209524Y-73762295D02*
X116209524Y-72962295D01*
X116209524Y-72962295D02*
X116514286Y-72962295D01*
X116514286Y-72962295D02*
X116590476Y-73000390D01*
X116590476Y-73000390D02*
X116628571Y-73038485D01*
X116628571Y-73038485D02*
X116666667Y-73114676D01*
X116666667Y-73114676D02*
X116666667Y-73228961D01*
X116666667Y-73228961D02*
X116628571Y-73305152D01*
X116628571Y-73305152D02*
X116590476Y-73343247D01*
X116590476Y-73343247D02*
X116514286Y-73381342D01*
X116514286Y-73381342D02*
X116209524Y-73381342D01*
X116933333Y-72962295D02*
X117428571Y-72962295D01*
X117428571Y-72962295D02*
X117161905Y-73267057D01*
X117161905Y-73267057D02*
X117276190Y-73267057D01*
X117276190Y-73267057D02*
X117352381Y-73305152D01*
X117352381Y-73305152D02*
X117390476Y-73343247D01*
X117390476Y-73343247D02*
X117428571Y-73419438D01*
X117428571Y-73419438D02*
X117428571Y-73609914D01*
X117428571Y-73609914D02*
X117390476Y-73686104D01*
X117390476Y-73686104D02*
X117352381Y-73724200D01*
X117352381Y-73724200D02*
X117276190Y-73762295D01*
X117276190Y-73762295D02*
X117047619Y-73762295D01*
X117047619Y-73762295D02*
X116971428Y-73724200D01*
X116971428Y-73724200D02*
X116933333Y-73686104D01*
%TO.C,U3*%
X115562295Y-67609523D02*
X116209914Y-67609523D01*
X116209914Y-67609523D02*
X116286104Y-67571428D01*
X116286104Y-67571428D02*
X116324200Y-67533333D01*
X116324200Y-67533333D02*
X116362295Y-67457142D01*
X116362295Y-67457142D02*
X116362295Y-67304761D01*
X116362295Y-67304761D02*
X116324200Y-67228571D01*
X116324200Y-67228571D02*
X116286104Y-67190476D01*
X116286104Y-67190476D02*
X116209914Y-67152380D01*
X116209914Y-67152380D02*
X115562295Y-67152380D01*
X115562295Y-66847619D02*
X115562295Y-66352381D01*
X115562295Y-66352381D02*
X115867057Y-66619047D01*
X115867057Y-66619047D02*
X115867057Y-66504762D01*
X115867057Y-66504762D02*
X115905152Y-66428571D01*
X115905152Y-66428571D02*
X115943247Y-66390476D01*
X115943247Y-66390476D02*
X116019438Y-66352381D01*
X116019438Y-66352381D02*
X116209914Y-66352381D01*
X116209914Y-66352381D02*
X116286104Y-66390476D01*
X116286104Y-66390476D02*
X116324200Y-66428571D01*
X116324200Y-66428571D02*
X116362295Y-66504762D01*
X116362295Y-66504762D02*
X116362295Y-66733333D01*
X116362295Y-66733333D02*
X116324200Y-66809524D01*
X116324200Y-66809524D02*
X116286104Y-66847619D01*
%TO.C,C16*%
X112075714Y-60076104D02*
X112037618Y-60114200D01*
X112037618Y-60114200D02*
X111923333Y-60152295D01*
X111923333Y-60152295D02*
X111847142Y-60152295D01*
X111847142Y-60152295D02*
X111732856Y-60114200D01*
X111732856Y-60114200D02*
X111656666Y-60038009D01*
X111656666Y-60038009D02*
X111618571Y-59961819D01*
X111618571Y-59961819D02*
X111580475Y-59809438D01*
X111580475Y-59809438D02*
X111580475Y-59695152D01*
X111580475Y-59695152D02*
X111618571Y-59542771D01*
X111618571Y-59542771D02*
X111656666Y-59466580D01*
X111656666Y-59466580D02*
X111732856Y-59390390D01*
X111732856Y-59390390D02*
X111847142Y-59352295D01*
X111847142Y-59352295D02*
X111923333Y-59352295D01*
X111923333Y-59352295D02*
X112037618Y-59390390D01*
X112037618Y-59390390D02*
X112075714Y-59428485D01*
X112837618Y-60152295D02*
X112380475Y-60152295D01*
X112609047Y-60152295D02*
X112609047Y-59352295D01*
X112609047Y-59352295D02*
X112532856Y-59466580D01*
X112532856Y-59466580D02*
X112456666Y-59542771D01*
X112456666Y-59542771D02*
X112380475Y-59580866D01*
X113523333Y-59352295D02*
X113370952Y-59352295D01*
X113370952Y-59352295D02*
X113294761Y-59390390D01*
X113294761Y-59390390D02*
X113256666Y-59428485D01*
X113256666Y-59428485D02*
X113180476Y-59542771D01*
X113180476Y-59542771D02*
X113142380Y-59695152D01*
X113142380Y-59695152D02*
X113142380Y-59999914D01*
X113142380Y-59999914D02*
X113180476Y-60076104D01*
X113180476Y-60076104D02*
X113218571Y-60114200D01*
X113218571Y-60114200D02*
X113294761Y-60152295D01*
X113294761Y-60152295D02*
X113447142Y-60152295D01*
X113447142Y-60152295D02*
X113523333Y-60114200D01*
X113523333Y-60114200D02*
X113561428Y-60076104D01*
X113561428Y-60076104D02*
X113599523Y-59999914D01*
X113599523Y-59999914D02*
X113599523Y-59809438D01*
X113599523Y-59809438D02*
X113561428Y-59733247D01*
X113561428Y-59733247D02*
X113523333Y-59695152D01*
X113523333Y-59695152D02*
X113447142Y-59657057D01*
X113447142Y-59657057D02*
X113294761Y-59657057D01*
X113294761Y-59657057D02*
X113218571Y-59695152D01*
X113218571Y-59695152D02*
X113180476Y-59733247D01*
X113180476Y-59733247D02*
X113142380Y-59809438D01*
%TO.C,U2*%
X126562295Y-67709523D02*
X127209914Y-67709523D01*
X127209914Y-67709523D02*
X127286104Y-67671428D01*
X127286104Y-67671428D02*
X127324200Y-67633333D01*
X127324200Y-67633333D02*
X127362295Y-67557142D01*
X127362295Y-67557142D02*
X127362295Y-67404761D01*
X127362295Y-67404761D02*
X127324200Y-67328571D01*
X127324200Y-67328571D02*
X127286104Y-67290476D01*
X127286104Y-67290476D02*
X127209914Y-67252380D01*
X127209914Y-67252380D02*
X126562295Y-67252380D01*
X126638485Y-66909524D02*
X126600390Y-66871428D01*
X126600390Y-66871428D02*
X126562295Y-66795238D01*
X126562295Y-66795238D02*
X126562295Y-66604762D01*
X126562295Y-66604762D02*
X126600390Y-66528571D01*
X126600390Y-66528571D02*
X126638485Y-66490476D01*
X126638485Y-66490476D02*
X126714676Y-66452381D01*
X126714676Y-66452381D02*
X126790866Y-66452381D01*
X126790866Y-66452381D02*
X126905152Y-66490476D01*
X126905152Y-66490476D02*
X127362295Y-66947619D01*
X127362295Y-66947619D02*
X127362295Y-66452381D01*
%TO.C,R6*%
X119666667Y-73792295D02*
X119400000Y-73411342D01*
X119209524Y-73792295D02*
X119209524Y-72992295D01*
X119209524Y-72992295D02*
X119514286Y-72992295D01*
X119514286Y-72992295D02*
X119590476Y-73030390D01*
X119590476Y-73030390D02*
X119628571Y-73068485D01*
X119628571Y-73068485D02*
X119666667Y-73144676D01*
X119666667Y-73144676D02*
X119666667Y-73258961D01*
X119666667Y-73258961D02*
X119628571Y-73335152D01*
X119628571Y-73335152D02*
X119590476Y-73373247D01*
X119590476Y-73373247D02*
X119514286Y-73411342D01*
X119514286Y-73411342D02*
X119209524Y-73411342D01*
X120352381Y-72992295D02*
X120200000Y-72992295D01*
X120200000Y-72992295D02*
X120123809Y-73030390D01*
X120123809Y-73030390D02*
X120085714Y-73068485D01*
X120085714Y-73068485D02*
X120009524Y-73182771D01*
X120009524Y-73182771D02*
X119971428Y-73335152D01*
X119971428Y-73335152D02*
X119971428Y-73639914D01*
X119971428Y-73639914D02*
X120009524Y-73716104D01*
X120009524Y-73716104D02*
X120047619Y-73754200D01*
X120047619Y-73754200D02*
X120123809Y-73792295D01*
X120123809Y-73792295D02*
X120276190Y-73792295D01*
X120276190Y-73792295D02*
X120352381Y-73754200D01*
X120352381Y-73754200D02*
X120390476Y-73716104D01*
X120390476Y-73716104D02*
X120428571Y-73639914D01*
X120428571Y-73639914D02*
X120428571Y-73449438D01*
X120428571Y-73449438D02*
X120390476Y-73373247D01*
X120390476Y-73373247D02*
X120352381Y-73335152D01*
X120352381Y-73335152D02*
X120276190Y-73297057D01*
X120276190Y-73297057D02*
X120123809Y-73297057D01*
X120123809Y-73297057D02*
X120047619Y-73335152D01*
X120047619Y-73335152D02*
X120009524Y-73373247D01*
X120009524Y-73373247D02*
X119971428Y-73449438D01*
%TO.C,C22*%
X113575714Y-53686104D02*
X113537618Y-53724200D01*
X113537618Y-53724200D02*
X113423333Y-53762295D01*
X113423333Y-53762295D02*
X113347142Y-53762295D01*
X113347142Y-53762295D02*
X113232856Y-53724200D01*
X113232856Y-53724200D02*
X113156666Y-53648009D01*
X113156666Y-53648009D02*
X113118571Y-53571819D01*
X113118571Y-53571819D02*
X113080475Y-53419438D01*
X113080475Y-53419438D02*
X113080475Y-53305152D01*
X113080475Y-53305152D02*
X113118571Y-53152771D01*
X113118571Y-53152771D02*
X113156666Y-53076580D01*
X113156666Y-53076580D02*
X113232856Y-53000390D01*
X113232856Y-53000390D02*
X113347142Y-52962295D01*
X113347142Y-52962295D02*
X113423333Y-52962295D01*
X113423333Y-52962295D02*
X113537618Y-53000390D01*
X113537618Y-53000390D02*
X113575714Y-53038485D01*
X113880475Y-53038485D02*
X113918571Y-53000390D01*
X113918571Y-53000390D02*
X113994761Y-52962295D01*
X113994761Y-52962295D02*
X114185237Y-52962295D01*
X114185237Y-52962295D02*
X114261428Y-53000390D01*
X114261428Y-53000390D02*
X114299523Y-53038485D01*
X114299523Y-53038485D02*
X114337618Y-53114676D01*
X114337618Y-53114676D02*
X114337618Y-53190866D01*
X114337618Y-53190866D02*
X114299523Y-53305152D01*
X114299523Y-53305152D02*
X113842380Y-53762295D01*
X113842380Y-53762295D02*
X114337618Y-53762295D01*
X114642380Y-53038485D02*
X114680476Y-53000390D01*
X114680476Y-53000390D02*
X114756666Y-52962295D01*
X114756666Y-52962295D02*
X114947142Y-52962295D01*
X114947142Y-52962295D02*
X115023333Y-53000390D01*
X115023333Y-53000390D02*
X115061428Y-53038485D01*
X115061428Y-53038485D02*
X115099523Y-53114676D01*
X115099523Y-53114676D02*
X115099523Y-53190866D01*
X115099523Y-53190866D02*
X115061428Y-53305152D01*
X115061428Y-53305152D02*
X114604285Y-53762295D01*
X114604285Y-53762295D02*
X115099523Y-53762295D01*
%TO.C,R13*%
X151512295Y-76589285D02*
X151131342Y-76855952D01*
X151512295Y-77046428D02*
X150712295Y-77046428D01*
X150712295Y-77046428D02*
X150712295Y-76741666D01*
X150712295Y-76741666D02*
X150750390Y-76665476D01*
X150750390Y-76665476D02*
X150788485Y-76627381D01*
X150788485Y-76627381D02*
X150864676Y-76589285D01*
X150864676Y-76589285D02*
X150978961Y-76589285D01*
X150978961Y-76589285D02*
X151055152Y-76627381D01*
X151055152Y-76627381D02*
X151093247Y-76665476D01*
X151093247Y-76665476D02*
X151131342Y-76741666D01*
X151131342Y-76741666D02*
X151131342Y-77046428D01*
X151512295Y-75827381D02*
X151512295Y-76284524D01*
X151512295Y-76055952D02*
X150712295Y-76055952D01*
X150712295Y-76055952D02*
X150826580Y-76132143D01*
X150826580Y-76132143D02*
X150902771Y-76208333D01*
X150902771Y-76208333D02*
X150940866Y-76284524D01*
X150712295Y-75560714D02*
X150712295Y-75065476D01*
X150712295Y-75065476D02*
X151017057Y-75332142D01*
X151017057Y-75332142D02*
X151017057Y-75217857D01*
X151017057Y-75217857D02*
X151055152Y-75141666D01*
X151055152Y-75141666D02*
X151093247Y-75103571D01*
X151093247Y-75103571D02*
X151169438Y-75065476D01*
X151169438Y-75065476D02*
X151359914Y-75065476D01*
X151359914Y-75065476D02*
X151436104Y-75103571D01*
X151436104Y-75103571D02*
X151474200Y-75141666D01*
X151474200Y-75141666D02*
X151512295Y-75217857D01*
X151512295Y-75217857D02*
X151512295Y-75446428D01*
X151512295Y-75446428D02*
X151474200Y-75522619D01*
X151474200Y-75522619D02*
X151436104Y-75560714D01*
%TO.C,C14*%
X113215714Y-64826104D02*
X113177618Y-64864200D01*
X113177618Y-64864200D02*
X113063333Y-64902295D01*
X113063333Y-64902295D02*
X112987142Y-64902295D01*
X112987142Y-64902295D02*
X112872856Y-64864200D01*
X112872856Y-64864200D02*
X112796666Y-64788009D01*
X112796666Y-64788009D02*
X112758571Y-64711819D01*
X112758571Y-64711819D02*
X112720475Y-64559438D01*
X112720475Y-64559438D02*
X112720475Y-64445152D01*
X112720475Y-64445152D02*
X112758571Y-64292771D01*
X112758571Y-64292771D02*
X112796666Y-64216580D01*
X112796666Y-64216580D02*
X112872856Y-64140390D01*
X112872856Y-64140390D02*
X112987142Y-64102295D01*
X112987142Y-64102295D02*
X113063333Y-64102295D01*
X113063333Y-64102295D02*
X113177618Y-64140390D01*
X113177618Y-64140390D02*
X113215714Y-64178485D01*
X113977618Y-64902295D02*
X113520475Y-64902295D01*
X113749047Y-64902295D02*
X113749047Y-64102295D01*
X113749047Y-64102295D02*
X113672856Y-64216580D01*
X113672856Y-64216580D02*
X113596666Y-64292771D01*
X113596666Y-64292771D02*
X113520475Y-64330866D01*
X114663333Y-64368961D02*
X114663333Y-64902295D01*
X114472857Y-64064200D02*
X114282380Y-64635628D01*
X114282380Y-64635628D02*
X114777619Y-64635628D01*
%TO.C,R22*%
X115025714Y-52032295D02*
X114759047Y-51651342D01*
X114568571Y-52032295D02*
X114568571Y-51232295D01*
X114568571Y-51232295D02*
X114873333Y-51232295D01*
X114873333Y-51232295D02*
X114949523Y-51270390D01*
X114949523Y-51270390D02*
X114987618Y-51308485D01*
X114987618Y-51308485D02*
X115025714Y-51384676D01*
X115025714Y-51384676D02*
X115025714Y-51498961D01*
X115025714Y-51498961D02*
X114987618Y-51575152D01*
X114987618Y-51575152D02*
X114949523Y-51613247D01*
X114949523Y-51613247D02*
X114873333Y-51651342D01*
X114873333Y-51651342D02*
X114568571Y-51651342D01*
X115330475Y-51308485D02*
X115368571Y-51270390D01*
X115368571Y-51270390D02*
X115444761Y-51232295D01*
X115444761Y-51232295D02*
X115635237Y-51232295D01*
X115635237Y-51232295D02*
X115711428Y-51270390D01*
X115711428Y-51270390D02*
X115749523Y-51308485D01*
X115749523Y-51308485D02*
X115787618Y-51384676D01*
X115787618Y-51384676D02*
X115787618Y-51460866D01*
X115787618Y-51460866D02*
X115749523Y-51575152D01*
X115749523Y-51575152D02*
X115292380Y-52032295D01*
X115292380Y-52032295D02*
X115787618Y-52032295D01*
X116092380Y-51308485D02*
X116130476Y-51270390D01*
X116130476Y-51270390D02*
X116206666Y-51232295D01*
X116206666Y-51232295D02*
X116397142Y-51232295D01*
X116397142Y-51232295D02*
X116473333Y-51270390D01*
X116473333Y-51270390D02*
X116511428Y-51308485D01*
X116511428Y-51308485D02*
X116549523Y-51384676D01*
X116549523Y-51384676D02*
X116549523Y-51460866D01*
X116549523Y-51460866D02*
X116511428Y-51575152D01*
X116511428Y-51575152D02*
X116054285Y-52032295D01*
X116054285Y-52032295D02*
X116549523Y-52032295D01*
%TO.C,C23*%
X115025714Y-50516104D02*
X114987618Y-50554200D01*
X114987618Y-50554200D02*
X114873333Y-50592295D01*
X114873333Y-50592295D02*
X114797142Y-50592295D01*
X114797142Y-50592295D02*
X114682856Y-50554200D01*
X114682856Y-50554200D02*
X114606666Y-50478009D01*
X114606666Y-50478009D02*
X114568571Y-50401819D01*
X114568571Y-50401819D02*
X114530475Y-50249438D01*
X114530475Y-50249438D02*
X114530475Y-50135152D01*
X114530475Y-50135152D02*
X114568571Y-49982771D01*
X114568571Y-49982771D02*
X114606666Y-49906580D01*
X114606666Y-49906580D02*
X114682856Y-49830390D01*
X114682856Y-49830390D02*
X114797142Y-49792295D01*
X114797142Y-49792295D02*
X114873333Y-49792295D01*
X114873333Y-49792295D02*
X114987618Y-49830390D01*
X114987618Y-49830390D02*
X115025714Y-49868485D01*
X115330475Y-49868485D02*
X115368571Y-49830390D01*
X115368571Y-49830390D02*
X115444761Y-49792295D01*
X115444761Y-49792295D02*
X115635237Y-49792295D01*
X115635237Y-49792295D02*
X115711428Y-49830390D01*
X115711428Y-49830390D02*
X115749523Y-49868485D01*
X115749523Y-49868485D02*
X115787618Y-49944676D01*
X115787618Y-49944676D02*
X115787618Y-50020866D01*
X115787618Y-50020866D02*
X115749523Y-50135152D01*
X115749523Y-50135152D02*
X115292380Y-50592295D01*
X115292380Y-50592295D02*
X115787618Y-50592295D01*
X116054285Y-49792295D02*
X116549523Y-49792295D01*
X116549523Y-49792295D02*
X116282857Y-50097057D01*
X116282857Y-50097057D02*
X116397142Y-50097057D01*
X116397142Y-50097057D02*
X116473333Y-50135152D01*
X116473333Y-50135152D02*
X116511428Y-50173247D01*
X116511428Y-50173247D02*
X116549523Y-50249438D01*
X116549523Y-50249438D02*
X116549523Y-50439914D01*
X116549523Y-50439914D02*
X116511428Y-50516104D01*
X116511428Y-50516104D02*
X116473333Y-50554200D01*
X116473333Y-50554200D02*
X116397142Y-50592295D01*
X116397142Y-50592295D02*
X116168571Y-50592295D01*
X116168571Y-50592295D02*
X116092380Y-50554200D01*
X116092380Y-50554200D02*
X116054285Y-50516104D01*
%TO.C,R8*%
X138362295Y-74333332D02*
X137981342Y-74599999D01*
X138362295Y-74790475D02*
X137562295Y-74790475D01*
X137562295Y-74790475D02*
X137562295Y-74485713D01*
X137562295Y-74485713D02*
X137600390Y-74409523D01*
X137600390Y-74409523D02*
X137638485Y-74371428D01*
X137638485Y-74371428D02*
X137714676Y-74333332D01*
X137714676Y-74333332D02*
X137828961Y-74333332D01*
X137828961Y-74333332D02*
X137905152Y-74371428D01*
X137905152Y-74371428D02*
X137943247Y-74409523D01*
X137943247Y-74409523D02*
X137981342Y-74485713D01*
X137981342Y-74485713D02*
X137981342Y-74790475D01*
X137905152Y-73876190D02*
X137867057Y-73952380D01*
X137867057Y-73952380D02*
X137828961Y-73990475D01*
X137828961Y-73990475D02*
X137752771Y-74028571D01*
X137752771Y-74028571D02*
X137714676Y-74028571D01*
X137714676Y-74028571D02*
X137638485Y-73990475D01*
X137638485Y-73990475D02*
X137600390Y-73952380D01*
X137600390Y-73952380D02*
X137562295Y-73876190D01*
X137562295Y-73876190D02*
X137562295Y-73723809D01*
X137562295Y-73723809D02*
X137600390Y-73647618D01*
X137600390Y-73647618D02*
X137638485Y-73609523D01*
X137638485Y-73609523D02*
X137714676Y-73571428D01*
X137714676Y-73571428D02*
X137752771Y-73571428D01*
X137752771Y-73571428D02*
X137828961Y-73609523D01*
X137828961Y-73609523D02*
X137867057Y-73647618D01*
X137867057Y-73647618D02*
X137905152Y-73723809D01*
X137905152Y-73723809D02*
X137905152Y-73876190D01*
X137905152Y-73876190D02*
X137943247Y-73952380D01*
X137943247Y-73952380D02*
X137981342Y-73990475D01*
X137981342Y-73990475D02*
X138057533Y-74028571D01*
X138057533Y-74028571D02*
X138209914Y-74028571D01*
X138209914Y-74028571D02*
X138286104Y-73990475D01*
X138286104Y-73990475D02*
X138324200Y-73952380D01*
X138324200Y-73952380D02*
X138362295Y-73876190D01*
X138362295Y-73876190D02*
X138362295Y-73723809D01*
X138362295Y-73723809D02*
X138324200Y-73647618D01*
X138324200Y-73647618D02*
X138286104Y-73609523D01*
X138286104Y-73609523D02*
X138209914Y-73571428D01*
X138209914Y-73571428D02*
X138057533Y-73571428D01*
X138057533Y-73571428D02*
X137981342Y-73609523D01*
X137981342Y-73609523D02*
X137943247Y-73647618D01*
X137943247Y-73647618D02*
X137905152Y-73723809D01*
%TO.C,R1*%
X136966667Y-72262295D02*
X136700000Y-71881342D01*
X136509524Y-72262295D02*
X136509524Y-71462295D01*
X136509524Y-71462295D02*
X136814286Y-71462295D01*
X136814286Y-71462295D02*
X136890476Y-71500390D01*
X136890476Y-71500390D02*
X136928571Y-71538485D01*
X136928571Y-71538485D02*
X136966667Y-71614676D01*
X136966667Y-71614676D02*
X136966667Y-71728961D01*
X136966667Y-71728961D02*
X136928571Y-71805152D01*
X136928571Y-71805152D02*
X136890476Y-71843247D01*
X136890476Y-71843247D02*
X136814286Y-71881342D01*
X136814286Y-71881342D02*
X136509524Y-71881342D01*
X137728571Y-72262295D02*
X137271428Y-72262295D01*
X137500000Y-72262295D02*
X137500000Y-71462295D01*
X137500000Y-71462295D02*
X137423809Y-71576580D01*
X137423809Y-71576580D02*
X137347619Y-71652771D01*
X137347619Y-71652771D02*
X137271428Y-71690866D01*
%TO.C,D5*%
X136409524Y-70862295D02*
X136409524Y-70062295D01*
X136409524Y-70062295D02*
X136600000Y-70062295D01*
X136600000Y-70062295D02*
X136714286Y-70100390D01*
X136714286Y-70100390D02*
X136790476Y-70176580D01*
X136790476Y-70176580D02*
X136828571Y-70252771D01*
X136828571Y-70252771D02*
X136866667Y-70405152D01*
X136866667Y-70405152D02*
X136866667Y-70519438D01*
X136866667Y-70519438D02*
X136828571Y-70671819D01*
X136828571Y-70671819D02*
X136790476Y-70748009D01*
X136790476Y-70748009D02*
X136714286Y-70824200D01*
X136714286Y-70824200D02*
X136600000Y-70862295D01*
X136600000Y-70862295D02*
X136409524Y-70862295D01*
X137590476Y-70062295D02*
X137209524Y-70062295D01*
X137209524Y-70062295D02*
X137171428Y-70443247D01*
X137171428Y-70443247D02*
X137209524Y-70405152D01*
X137209524Y-70405152D02*
X137285714Y-70367057D01*
X137285714Y-70367057D02*
X137476190Y-70367057D01*
X137476190Y-70367057D02*
X137552381Y-70405152D01*
X137552381Y-70405152D02*
X137590476Y-70443247D01*
X137590476Y-70443247D02*
X137628571Y-70519438D01*
X137628571Y-70519438D02*
X137628571Y-70709914D01*
X137628571Y-70709914D02*
X137590476Y-70786104D01*
X137590476Y-70786104D02*
X137552381Y-70824200D01*
X137552381Y-70824200D02*
X137476190Y-70862295D01*
X137476190Y-70862295D02*
X137285714Y-70862295D01*
X137285714Y-70862295D02*
X137209524Y-70824200D01*
X137209524Y-70824200D02*
X137171428Y-70786104D01*
%TO.C,U9*%
X110462295Y-75309523D02*
X111109914Y-75309523D01*
X111109914Y-75309523D02*
X111186104Y-75271428D01*
X111186104Y-75271428D02*
X111224200Y-75233333D01*
X111224200Y-75233333D02*
X111262295Y-75157142D01*
X111262295Y-75157142D02*
X111262295Y-75004761D01*
X111262295Y-75004761D02*
X111224200Y-74928571D01*
X111224200Y-74928571D02*
X111186104Y-74890476D01*
X111186104Y-74890476D02*
X111109914Y-74852380D01*
X111109914Y-74852380D02*
X110462295Y-74852380D01*
X111262295Y-74433333D02*
X111262295Y-74280952D01*
X111262295Y-74280952D02*
X111224200Y-74204762D01*
X111224200Y-74204762D02*
X111186104Y-74166666D01*
X111186104Y-74166666D02*
X111071819Y-74090476D01*
X111071819Y-74090476D02*
X110919438Y-74052381D01*
X110919438Y-74052381D02*
X110614676Y-74052381D01*
X110614676Y-74052381D02*
X110538485Y-74090476D01*
X110538485Y-74090476D02*
X110500390Y-74128571D01*
X110500390Y-74128571D02*
X110462295Y-74204762D01*
X110462295Y-74204762D02*
X110462295Y-74357143D01*
X110462295Y-74357143D02*
X110500390Y-74433333D01*
X110500390Y-74433333D02*
X110538485Y-74471428D01*
X110538485Y-74471428D02*
X110614676Y-74509524D01*
X110614676Y-74509524D02*
X110805152Y-74509524D01*
X110805152Y-74509524D02*
X110881342Y-74471428D01*
X110881342Y-74471428D02*
X110919438Y-74433333D01*
X110919438Y-74433333D02*
X110957533Y-74357143D01*
X110957533Y-74357143D02*
X110957533Y-74204762D01*
X110957533Y-74204762D02*
X110919438Y-74128571D01*
X110919438Y-74128571D02*
X110881342Y-74090476D01*
X110881342Y-74090476D02*
X110805152Y-74052381D01*
%TO.C,R9*%
X135662295Y-74333332D02*
X135281342Y-74599999D01*
X135662295Y-74790475D02*
X134862295Y-74790475D01*
X134862295Y-74790475D02*
X134862295Y-74485713D01*
X134862295Y-74485713D02*
X134900390Y-74409523D01*
X134900390Y-74409523D02*
X134938485Y-74371428D01*
X134938485Y-74371428D02*
X135014676Y-74333332D01*
X135014676Y-74333332D02*
X135128961Y-74333332D01*
X135128961Y-74333332D02*
X135205152Y-74371428D01*
X135205152Y-74371428D02*
X135243247Y-74409523D01*
X135243247Y-74409523D02*
X135281342Y-74485713D01*
X135281342Y-74485713D02*
X135281342Y-74790475D01*
X135662295Y-73952380D02*
X135662295Y-73799999D01*
X135662295Y-73799999D02*
X135624200Y-73723809D01*
X135624200Y-73723809D02*
X135586104Y-73685713D01*
X135586104Y-73685713D02*
X135471819Y-73609523D01*
X135471819Y-73609523D02*
X135319438Y-73571428D01*
X135319438Y-73571428D02*
X135014676Y-73571428D01*
X135014676Y-73571428D02*
X134938485Y-73609523D01*
X134938485Y-73609523D02*
X134900390Y-73647618D01*
X134900390Y-73647618D02*
X134862295Y-73723809D01*
X134862295Y-73723809D02*
X134862295Y-73876190D01*
X134862295Y-73876190D02*
X134900390Y-73952380D01*
X134900390Y-73952380D02*
X134938485Y-73990475D01*
X134938485Y-73990475D02*
X135014676Y-74028571D01*
X135014676Y-74028571D02*
X135205152Y-74028571D01*
X135205152Y-74028571D02*
X135281342Y-73990475D01*
X135281342Y-73990475D02*
X135319438Y-73952380D01*
X135319438Y-73952380D02*
X135357533Y-73876190D01*
X135357533Y-73876190D02*
X135357533Y-73723809D01*
X135357533Y-73723809D02*
X135319438Y-73647618D01*
X135319438Y-73647618D02*
X135281342Y-73609523D01*
X135281342Y-73609523D02*
X135205152Y-73571428D01*
%TO.C,C6*%
X146056667Y-73556104D02*
X146018571Y-73594200D01*
X146018571Y-73594200D02*
X145904286Y-73632295D01*
X145904286Y-73632295D02*
X145828095Y-73632295D01*
X145828095Y-73632295D02*
X145713809Y-73594200D01*
X145713809Y-73594200D02*
X145637619Y-73518009D01*
X145637619Y-73518009D02*
X145599524Y-73441819D01*
X145599524Y-73441819D02*
X145561428Y-73289438D01*
X145561428Y-73289438D02*
X145561428Y-73175152D01*
X145561428Y-73175152D02*
X145599524Y-73022771D01*
X145599524Y-73022771D02*
X145637619Y-72946580D01*
X145637619Y-72946580D02*
X145713809Y-72870390D01*
X145713809Y-72870390D02*
X145828095Y-72832295D01*
X145828095Y-72832295D02*
X145904286Y-72832295D01*
X145904286Y-72832295D02*
X146018571Y-72870390D01*
X146018571Y-72870390D02*
X146056667Y-72908485D01*
X146742381Y-72832295D02*
X146590000Y-72832295D01*
X146590000Y-72832295D02*
X146513809Y-72870390D01*
X146513809Y-72870390D02*
X146475714Y-72908485D01*
X146475714Y-72908485D02*
X146399524Y-73022771D01*
X146399524Y-73022771D02*
X146361428Y-73175152D01*
X146361428Y-73175152D02*
X146361428Y-73479914D01*
X146361428Y-73479914D02*
X146399524Y-73556104D01*
X146399524Y-73556104D02*
X146437619Y-73594200D01*
X146437619Y-73594200D02*
X146513809Y-73632295D01*
X146513809Y-73632295D02*
X146666190Y-73632295D01*
X146666190Y-73632295D02*
X146742381Y-73594200D01*
X146742381Y-73594200D02*
X146780476Y-73556104D01*
X146780476Y-73556104D02*
X146818571Y-73479914D01*
X146818571Y-73479914D02*
X146818571Y-73289438D01*
X146818571Y-73289438D02*
X146780476Y-73213247D01*
X146780476Y-73213247D02*
X146742381Y-73175152D01*
X146742381Y-73175152D02*
X146666190Y-73137057D01*
X146666190Y-73137057D02*
X146513809Y-73137057D01*
X146513809Y-73137057D02*
X146437619Y-73175152D01*
X146437619Y-73175152D02*
X146399524Y-73213247D01*
X146399524Y-73213247D02*
X146361428Y-73289438D01*
%TO.C,R7*%
X144962295Y-74133332D02*
X144581342Y-74399999D01*
X144962295Y-74590475D02*
X144162295Y-74590475D01*
X144162295Y-74590475D02*
X144162295Y-74285713D01*
X144162295Y-74285713D02*
X144200390Y-74209523D01*
X144200390Y-74209523D02*
X144238485Y-74171428D01*
X144238485Y-74171428D02*
X144314676Y-74133332D01*
X144314676Y-74133332D02*
X144428961Y-74133332D01*
X144428961Y-74133332D02*
X144505152Y-74171428D01*
X144505152Y-74171428D02*
X144543247Y-74209523D01*
X144543247Y-74209523D02*
X144581342Y-74285713D01*
X144581342Y-74285713D02*
X144581342Y-74590475D01*
X144162295Y-73866666D02*
X144162295Y-73333332D01*
X144162295Y-73333332D02*
X144962295Y-73676190D01*
%TO.C,R11*%
X120785714Y-78562295D02*
X120519047Y-78181342D01*
X120328571Y-78562295D02*
X120328571Y-77762295D01*
X120328571Y-77762295D02*
X120633333Y-77762295D01*
X120633333Y-77762295D02*
X120709523Y-77800390D01*
X120709523Y-77800390D02*
X120747618Y-77838485D01*
X120747618Y-77838485D02*
X120785714Y-77914676D01*
X120785714Y-77914676D02*
X120785714Y-78028961D01*
X120785714Y-78028961D02*
X120747618Y-78105152D01*
X120747618Y-78105152D02*
X120709523Y-78143247D01*
X120709523Y-78143247D02*
X120633333Y-78181342D01*
X120633333Y-78181342D02*
X120328571Y-78181342D01*
X121547618Y-78562295D02*
X121090475Y-78562295D01*
X121319047Y-78562295D02*
X121319047Y-77762295D01*
X121319047Y-77762295D02*
X121242856Y-77876580D01*
X121242856Y-77876580D02*
X121166666Y-77952771D01*
X121166666Y-77952771D02*
X121090475Y-77990866D01*
X122309523Y-78562295D02*
X121852380Y-78562295D01*
X122080952Y-78562295D02*
X122080952Y-77762295D01*
X122080952Y-77762295D02*
X122004761Y-77876580D01*
X122004761Y-77876580D02*
X121928571Y-77952771D01*
X121928571Y-77952771D02*
X121852380Y-77990866D01*
%TO.C,R4*%
X142766667Y-73762295D02*
X142500000Y-73381342D01*
X142309524Y-73762295D02*
X142309524Y-72962295D01*
X142309524Y-72962295D02*
X142614286Y-72962295D01*
X142614286Y-72962295D02*
X142690476Y-73000390D01*
X142690476Y-73000390D02*
X142728571Y-73038485D01*
X142728571Y-73038485D02*
X142766667Y-73114676D01*
X142766667Y-73114676D02*
X142766667Y-73228961D01*
X142766667Y-73228961D02*
X142728571Y-73305152D01*
X142728571Y-73305152D02*
X142690476Y-73343247D01*
X142690476Y-73343247D02*
X142614286Y-73381342D01*
X142614286Y-73381342D02*
X142309524Y-73381342D01*
X143452381Y-73228961D02*
X143452381Y-73762295D01*
X143261905Y-72924200D02*
X143071428Y-73495628D01*
X143071428Y-73495628D02*
X143566667Y-73495628D01*
%TO.C,R19*%
X136862295Y-64014285D02*
X136481342Y-64280952D01*
X136862295Y-64471428D02*
X136062295Y-64471428D01*
X136062295Y-64471428D02*
X136062295Y-64166666D01*
X136062295Y-64166666D02*
X136100390Y-64090476D01*
X136100390Y-64090476D02*
X136138485Y-64052381D01*
X136138485Y-64052381D02*
X136214676Y-64014285D01*
X136214676Y-64014285D02*
X136328961Y-64014285D01*
X136328961Y-64014285D02*
X136405152Y-64052381D01*
X136405152Y-64052381D02*
X136443247Y-64090476D01*
X136443247Y-64090476D02*
X136481342Y-64166666D01*
X136481342Y-64166666D02*
X136481342Y-64471428D01*
X136862295Y-63252381D02*
X136862295Y-63709524D01*
X136862295Y-63480952D02*
X136062295Y-63480952D01*
X136062295Y-63480952D02*
X136176580Y-63557143D01*
X136176580Y-63557143D02*
X136252771Y-63633333D01*
X136252771Y-63633333D02*
X136290866Y-63709524D01*
X136862295Y-62871428D02*
X136862295Y-62719047D01*
X136862295Y-62719047D02*
X136824200Y-62642857D01*
X136824200Y-62642857D02*
X136786104Y-62604761D01*
X136786104Y-62604761D02*
X136671819Y-62528571D01*
X136671819Y-62528571D02*
X136519438Y-62490476D01*
X136519438Y-62490476D02*
X136214676Y-62490476D01*
X136214676Y-62490476D02*
X136138485Y-62528571D01*
X136138485Y-62528571D02*
X136100390Y-62566666D01*
X136100390Y-62566666D02*
X136062295Y-62642857D01*
X136062295Y-62642857D02*
X136062295Y-62795238D01*
X136062295Y-62795238D02*
X136100390Y-62871428D01*
X136100390Y-62871428D02*
X136138485Y-62909523D01*
X136138485Y-62909523D02*
X136214676Y-62947619D01*
X136214676Y-62947619D02*
X136405152Y-62947619D01*
X136405152Y-62947619D02*
X136481342Y-62909523D01*
X136481342Y-62909523D02*
X136519438Y-62871428D01*
X136519438Y-62871428D02*
X136557533Y-62795238D01*
X136557533Y-62795238D02*
X136557533Y-62642857D01*
X136557533Y-62642857D02*
X136519438Y-62566666D01*
X136519438Y-62566666D02*
X136481342Y-62528571D01*
X136481342Y-62528571D02*
X136405152Y-62490476D01*
%TO.C,U4*%
X147450476Y-78302295D02*
X147450476Y-78949914D01*
X147450476Y-78949914D02*
X147488571Y-79026104D01*
X147488571Y-79026104D02*
X147526666Y-79064200D01*
X147526666Y-79064200D02*
X147602857Y-79102295D01*
X147602857Y-79102295D02*
X147755238Y-79102295D01*
X147755238Y-79102295D02*
X147831428Y-79064200D01*
X147831428Y-79064200D02*
X147869523Y-79026104D01*
X147869523Y-79026104D02*
X147907619Y-78949914D01*
X147907619Y-78949914D02*
X147907619Y-78302295D01*
X148631428Y-78568961D02*
X148631428Y-79102295D01*
X148440952Y-78264200D02*
X148250475Y-78835628D01*
X148250475Y-78835628D02*
X148745714Y-78835628D01*
%TO.C,C19*%
X142586104Y-58514285D02*
X142624200Y-58552381D01*
X142624200Y-58552381D02*
X142662295Y-58666666D01*
X142662295Y-58666666D02*
X142662295Y-58742857D01*
X142662295Y-58742857D02*
X142624200Y-58857143D01*
X142624200Y-58857143D02*
X142548009Y-58933333D01*
X142548009Y-58933333D02*
X142471819Y-58971428D01*
X142471819Y-58971428D02*
X142319438Y-59009524D01*
X142319438Y-59009524D02*
X142205152Y-59009524D01*
X142205152Y-59009524D02*
X142052771Y-58971428D01*
X142052771Y-58971428D02*
X141976580Y-58933333D01*
X141976580Y-58933333D02*
X141900390Y-58857143D01*
X141900390Y-58857143D02*
X141862295Y-58742857D01*
X141862295Y-58742857D02*
X141862295Y-58666666D01*
X141862295Y-58666666D02*
X141900390Y-58552381D01*
X141900390Y-58552381D02*
X141938485Y-58514285D01*
X142662295Y-57752381D02*
X142662295Y-58209524D01*
X142662295Y-57980952D02*
X141862295Y-57980952D01*
X141862295Y-57980952D02*
X141976580Y-58057143D01*
X141976580Y-58057143D02*
X142052771Y-58133333D01*
X142052771Y-58133333D02*
X142090866Y-58209524D01*
X142662295Y-57371428D02*
X142662295Y-57219047D01*
X142662295Y-57219047D02*
X142624200Y-57142857D01*
X142624200Y-57142857D02*
X142586104Y-57104761D01*
X142586104Y-57104761D02*
X142471819Y-57028571D01*
X142471819Y-57028571D02*
X142319438Y-56990476D01*
X142319438Y-56990476D02*
X142014676Y-56990476D01*
X142014676Y-56990476D02*
X141938485Y-57028571D01*
X141938485Y-57028571D02*
X141900390Y-57066666D01*
X141900390Y-57066666D02*
X141862295Y-57142857D01*
X141862295Y-57142857D02*
X141862295Y-57295238D01*
X141862295Y-57295238D02*
X141900390Y-57371428D01*
X141900390Y-57371428D02*
X141938485Y-57409523D01*
X141938485Y-57409523D02*
X142014676Y-57447619D01*
X142014676Y-57447619D02*
X142205152Y-57447619D01*
X142205152Y-57447619D02*
X142281342Y-57409523D01*
X142281342Y-57409523D02*
X142319438Y-57371428D01*
X142319438Y-57371428D02*
X142357533Y-57295238D01*
X142357533Y-57295238D02*
X142357533Y-57142857D01*
X142357533Y-57142857D02*
X142319438Y-57066666D01*
X142319438Y-57066666D02*
X142281342Y-57028571D01*
X142281342Y-57028571D02*
X142205152Y-56990476D01*
%TO.C,L1*%
X148966666Y-56462295D02*
X148585714Y-56462295D01*
X148585714Y-56462295D02*
X148585714Y-55662295D01*
X149652380Y-56462295D02*
X149195237Y-56462295D01*
X149423809Y-56462295D02*
X149423809Y-55662295D01*
X149423809Y-55662295D02*
X149347618Y-55776580D01*
X149347618Y-55776580D02*
X149271428Y-55852771D01*
X149271428Y-55852771D02*
X149195237Y-55890866D01*
%TO.C,R2*%
X128362295Y-72733332D02*
X127981342Y-72999999D01*
X128362295Y-73190475D02*
X127562295Y-73190475D01*
X127562295Y-73190475D02*
X127562295Y-72885713D01*
X127562295Y-72885713D02*
X127600390Y-72809523D01*
X127600390Y-72809523D02*
X127638485Y-72771428D01*
X127638485Y-72771428D02*
X127714676Y-72733332D01*
X127714676Y-72733332D02*
X127828961Y-72733332D01*
X127828961Y-72733332D02*
X127905152Y-72771428D01*
X127905152Y-72771428D02*
X127943247Y-72809523D01*
X127943247Y-72809523D02*
X127981342Y-72885713D01*
X127981342Y-72885713D02*
X127981342Y-73190475D01*
X127638485Y-72428571D02*
X127600390Y-72390475D01*
X127600390Y-72390475D02*
X127562295Y-72314285D01*
X127562295Y-72314285D02*
X127562295Y-72123809D01*
X127562295Y-72123809D02*
X127600390Y-72047618D01*
X127600390Y-72047618D02*
X127638485Y-72009523D01*
X127638485Y-72009523D02*
X127714676Y-71971428D01*
X127714676Y-71971428D02*
X127790866Y-71971428D01*
X127790866Y-71971428D02*
X127905152Y-72009523D01*
X127905152Y-72009523D02*
X128362295Y-72466666D01*
X128362295Y-72466666D02*
X128362295Y-71971428D01*
%TO.C,U8*%
X115190476Y-78062295D02*
X115190476Y-78709914D01*
X115190476Y-78709914D02*
X115228571Y-78786104D01*
X115228571Y-78786104D02*
X115266666Y-78824200D01*
X115266666Y-78824200D02*
X115342857Y-78862295D01*
X115342857Y-78862295D02*
X115495238Y-78862295D01*
X115495238Y-78862295D02*
X115571428Y-78824200D01*
X115571428Y-78824200D02*
X115609523Y-78786104D01*
X115609523Y-78786104D02*
X115647619Y-78709914D01*
X115647619Y-78709914D02*
X115647619Y-78062295D01*
X116142856Y-78405152D02*
X116066666Y-78367057D01*
X116066666Y-78367057D02*
X116028571Y-78328961D01*
X116028571Y-78328961D02*
X115990475Y-78252771D01*
X115990475Y-78252771D02*
X115990475Y-78214676D01*
X115990475Y-78214676D02*
X116028571Y-78138485D01*
X116028571Y-78138485D02*
X116066666Y-78100390D01*
X116066666Y-78100390D02*
X116142856Y-78062295D01*
X116142856Y-78062295D02*
X116295237Y-78062295D01*
X116295237Y-78062295D02*
X116371428Y-78100390D01*
X116371428Y-78100390D02*
X116409523Y-78138485D01*
X116409523Y-78138485D02*
X116447618Y-78214676D01*
X116447618Y-78214676D02*
X116447618Y-78252771D01*
X116447618Y-78252771D02*
X116409523Y-78328961D01*
X116409523Y-78328961D02*
X116371428Y-78367057D01*
X116371428Y-78367057D02*
X116295237Y-78405152D01*
X116295237Y-78405152D02*
X116142856Y-78405152D01*
X116142856Y-78405152D02*
X116066666Y-78443247D01*
X116066666Y-78443247D02*
X116028571Y-78481342D01*
X116028571Y-78481342D02*
X115990475Y-78557533D01*
X115990475Y-78557533D02*
X115990475Y-78709914D01*
X115990475Y-78709914D02*
X116028571Y-78786104D01*
X116028571Y-78786104D02*
X116066666Y-78824200D01*
X116066666Y-78824200D02*
X116142856Y-78862295D01*
X116142856Y-78862295D02*
X116295237Y-78862295D01*
X116295237Y-78862295D02*
X116371428Y-78824200D01*
X116371428Y-78824200D02*
X116409523Y-78786104D01*
X116409523Y-78786104D02*
X116447618Y-78709914D01*
X116447618Y-78709914D02*
X116447618Y-78557533D01*
X116447618Y-78557533D02*
X116409523Y-78481342D01*
X116409523Y-78481342D02*
X116371428Y-78443247D01*
X116371428Y-78443247D02*
X116295237Y-78405152D01*
%TO.C,U7*%
X123090476Y-73162295D02*
X123090476Y-73809914D01*
X123090476Y-73809914D02*
X123128571Y-73886104D01*
X123128571Y-73886104D02*
X123166666Y-73924200D01*
X123166666Y-73924200D02*
X123242857Y-73962295D01*
X123242857Y-73962295D02*
X123395238Y-73962295D01*
X123395238Y-73962295D02*
X123471428Y-73924200D01*
X123471428Y-73924200D02*
X123509523Y-73886104D01*
X123509523Y-73886104D02*
X123547619Y-73809914D01*
X123547619Y-73809914D02*
X123547619Y-73162295D01*
X123852380Y-73162295D02*
X124385714Y-73162295D01*
X124385714Y-73162295D02*
X124042856Y-73962295D01*
%TO.C,U1*%
X137662295Y-67809523D02*
X138309914Y-67809523D01*
X138309914Y-67809523D02*
X138386104Y-67771428D01*
X138386104Y-67771428D02*
X138424200Y-67733333D01*
X138424200Y-67733333D02*
X138462295Y-67657142D01*
X138462295Y-67657142D02*
X138462295Y-67504761D01*
X138462295Y-67504761D02*
X138424200Y-67428571D01*
X138424200Y-67428571D02*
X138386104Y-67390476D01*
X138386104Y-67390476D02*
X138309914Y-67352380D01*
X138309914Y-67352380D02*
X137662295Y-67352380D01*
X138462295Y-66552381D02*
X138462295Y-67009524D01*
X138462295Y-66780952D02*
X137662295Y-66780952D01*
X137662295Y-66780952D02*
X137776580Y-66857143D01*
X137776580Y-66857143D02*
X137852771Y-66933333D01*
X137852771Y-66933333D02*
X137890866Y-67009524D01*
%TO.C,R24*%
X142985714Y-56292295D02*
X142719047Y-55911342D01*
X142528571Y-56292295D02*
X142528571Y-55492295D01*
X142528571Y-55492295D02*
X142833333Y-55492295D01*
X142833333Y-55492295D02*
X142909523Y-55530390D01*
X142909523Y-55530390D02*
X142947618Y-55568485D01*
X142947618Y-55568485D02*
X142985714Y-55644676D01*
X142985714Y-55644676D02*
X142985714Y-55758961D01*
X142985714Y-55758961D02*
X142947618Y-55835152D01*
X142947618Y-55835152D02*
X142909523Y-55873247D01*
X142909523Y-55873247D02*
X142833333Y-55911342D01*
X142833333Y-55911342D02*
X142528571Y-55911342D01*
X143290475Y-55568485D02*
X143328571Y-55530390D01*
X143328571Y-55530390D02*
X143404761Y-55492295D01*
X143404761Y-55492295D02*
X143595237Y-55492295D01*
X143595237Y-55492295D02*
X143671428Y-55530390D01*
X143671428Y-55530390D02*
X143709523Y-55568485D01*
X143709523Y-55568485D02*
X143747618Y-55644676D01*
X143747618Y-55644676D02*
X143747618Y-55720866D01*
X143747618Y-55720866D02*
X143709523Y-55835152D01*
X143709523Y-55835152D02*
X143252380Y-56292295D01*
X143252380Y-56292295D02*
X143747618Y-56292295D01*
X144433333Y-55758961D02*
X144433333Y-56292295D01*
X144242857Y-55454200D02*
X144052380Y-56025628D01*
X144052380Y-56025628D02*
X144547619Y-56025628D01*
%TO.C,C20*%
X142586104Y-61714285D02*
X142624200Y-61752381D01*
X142624200Y-61752381D02*
X142662295Y-61866666D01*
X142662295Y-61866666D02*
X142662295Y-61942857D01*
X142662295Y-61942857D02*
X142624200Y-62057143D01*
X142624200Y-62057143D02*
X142548009Y-62133333D01*
X142548009Y-62133333D02*
X142471819Y-62171428D01*
X142471819Y-62171428D02*
X142319438Y-62209524D01*
X142319438Y-62209524D02*
X142205152Y-62209524D01*
X142205152Y-62209524D02*
X142052771Y-62171428D01*
X142052771Y-62171428D02*
X141976580Y-62133333D01*
X141976580Y-62133333D02*
X141900390Y-62057143D01*
X141900390Y-62057143D02*
X141862295Y-61942857D01*
X141862295Y-61942857D02*
X141862295Y-61866666D01*
X141862295Y-61866666D02*
X141900390Y-61752381D01*
X141900390Y-61752381D02*
X141938485Y-61714285D01*
X141938485Y-61409524D02*
X141900390Y-61371428D01*
X141900390Y-61371428D02*
X141862295Y-61295238D01*
X141862295Y-61295238D02*
X141862295Y-61104762D01*
X141862295Y-61104762D02*
X141900390Y-61028571D01*
X141900390Y-61028571D02*
X141938485Y-60990476D01*
X141938485Y-60990476D02*
X142014676Y-60952381D01*
X142014676Y-60952381D02*
X142090866Y-60952381D01*
X142090866Y-60952381D02*
X142205152Y-60990476D01*
X142205152Y-60990476D02*
X142662295Y-61447619D01*
X142662295Y-61447619D02*
X142662295Y-60952381D01*
X141862295Y-60457142D02*
X141862295Y-60380952D01*
X141862295Y-60380952D02*
X141900390Y-60304761D01*
X141900390Y-60304761D02*
X141938485Y-60266666D01*
X141938485Y-60266666D02*
X142014676Y-60228571D01*
X142014676Y-60228571D02*
X142167057Y-60190476D01*
X142167057Y-60190476D02*
X142357533Y-60190476D01*
X142357533Y-60190476D02*
X142509914Y-60228571D01*
X142509914Y-60228571D02*
X142586104Y-60266666D01*
X142586104Y-60266666D02*
X142624200Y-60304761D01*
X142624200Y-60304761D02*
X142662295Y-60380952D01*
X142662295Y-60380952D02*
X142662295Y-60457142D01*
X142662295Y-60457142D02*
X142624200Y-60533333D01*
X142624200Y-60533333D02*
X142586104Y-60571428D01*
X142586104Y-60571428D02*
X142509914Y-60609523D01*
X142509914Y-60609523D02*
X142357533Y-60647619D01*
X142357533Y-60647619D02*
X142167057Y-60647619D01*
X142167057Y-60647619D02*
X142014676Y-60609523D01*
X142014676Y-60609523D02*
X141938485Y-60571428D01*
X141938485Y-60571428D02*
X141900390Y-60533333D01*
X141900390Y-60533333D02*
X141862295Y-60457142D01*
%TO.C,R12*%
X109885714Y-78862295D02*
X109619047Y-78481342D01*
X109428571Y-78862295D02*
X109428571Y-78062295D01*
X109428571Y-78062295D02*
X109733333Y-78062295D01*
X109733333Y-78062295D02*
X109809523Y-78100390D01*
X109809523Y-78100390D02*
X109847618Y-78138485D01*
X109847618Y-78138485D02*
X109885714Y-78214676D01*
X109885714Y-78214676D02*
X109885714Y-78328961D01*
X109885714Y-78328961D02*
X109847618Y-78405152D01*
X109847618Y-78405152D02*
X109809523Y-78443247D01*
X109809523Y-78443247D02*
X109733333Y-78481342D01*
X109733333Y-78481342D02*
X109428571Y-78481342D01*
X110647618Y-78862295D02*
X110190475Y-78862295D01*
X110419047Y-78862295D02*
X110419047Y-78062295D01*
X110419047Y-78062295D02*
X110342856Y-78176580D01*
X110342856Y-78176580D02*
X110266666Y-78252771D01*
X110266666Y-78252771D02*
X110190475Y-78290866D01*
X110952380Y-78138485D02*
X110990476Y-78100390D01*
X110990476Y-78100390D02*
X111066666Y-78062295D01*
X111066666Y-78062295D02*
X111257142Y-78062295D01*
X111257142Y-78062295D02*
X111333333Y-78100390D01*
X111333333Y-78100390D02*
X111371428Y-78138485D01*
X111371428Y-78138485D02*
X111409523Y-78214676D01*
X111409523Y-78214676D02*
X111409523Y-78290866D01*
X111409523Y-78290866D02*
X111371428Y-78405152D01*
X111371428Y-78405152D02*
X110914285Y-78862295D01*
X110914285Y-78862295D02*
X111409523Y-78862295D01*
%TO.C,D1*%
X145562295Y-64190475D02*
X144762295Y-64190475D01*
X144762295Y-64190475D02*
X144762295Y-63999999D01*
X144762295Y-63999999D02*
X144800390Y-63885713D01*
X144800390Y-63885713D02*
X144876580Y-63809523D01*
X144876580Y-63809523D02*
X144952771Y-63771428D01*
X144952771Y-63771428D02*
X145105152Y-63733332D01*
X145105152Y-63733332D02*
X145219438Y-63733332D01*
X145219438Y-63733332D02*
X145371819Y-63771428D01*
X145371819Y-63771428D02*
X145448009Y-63809523D01*
X145448009Y-63809523D02*
X145524200Y-63885713D01*
X145524200Y-63885713D02*
X145562295Y-63999999D01*
X145562295Y-63999999D02*
X145562295Y-64190475D01*
X145562295Y-62971428D02*
X145562295Y-63428571D01*
X145562295Y-63199999D02*
X144762295Y-63199999D01*
X144762295Y-63199999D02*
X144876580Y-63276190D01*
X144876580Y-63276190D02*
X144952771Y-63352380D01*
X144952771Y-63352380D02*
X144990866Y-63428571D01*
%TO.C,D6*%
X125409524Y-70762295D02*
X125409524Y-69962295D01*
X125409524Y-69962295D02*
X125600000Y-69962295D01*
X125600000Y-69962295D02*
X125714286Y-70000390D01*
X125714286Y-70000390D02*
X125790476Y-70076580D01*
X125790476Y-70076580D02*
X125828571Y-70152771D01*
X125828571Y-70152771D02*
X125866667Y-70305152D01*
X125866667Y-70305152D02*
X125866667Y-70419438D01*
X125866667Y-70419438D02*
X125828571Y-70571819D01*
X125828571Y-70571819D02*
X125790476Y-70648009D01*
X125790476Y-70648009D02*
X125714286Y-70724200D01*
X125714286Y-70724200D02*
X125600000Y-70762295D01*
X125600000Y-70762295D02*
X125409524Y-70762295D01*
X126552381Y-69962295D02*
X126400000Y-69962295D01*
X126400000Y-69962295D02*
X126323809Y-70000390D01*
X126323809Y-70000390D02*
X126285714Y-70038485D01*
X126285714Y-70038485D02*
X126209524Y-70152771D01*
X126209524Y-70152771D02*
X126171428Y-70305152D01*
X126171428Y-70305152D02*
X126171428Y-70609914D01*
X126171428Y-70609914D02*
X126209524Y-70686104D01*
X126209524Y-70686104D02*
X126247619Y-70724200D01*
X126247619Y-70724200D02*
X126323809Y-70762295D01*
X126323809Y-70762295D02*
X126476190Y-70762295D01*
X126476190Y-70762295D02*
X126552381Y-70724200D01*
X126552381Y-70724200D02*
X126590476Y-70686104D01*
X126590476Y-70686104D02*
X126628571Y-70609914D01*
X126628571Y-70609914D02*
X126628571Y-70419438D01*
X126628571Y-70419438D02*
X126590476Y-70343247D01*
X126590476Y-70343247D02*
X126552381Y-70305152D01*
X126552381Y-70305152D02*
X126476190Y-70267057D01*
X126476190Y-70267057D02*
X126323809Y-70267057D01*
X126323809Y-70267057D02*
X126247619Y-70305152D01*
X126247619Y-70305152D02*
X126209524Y-70343247D01*
X126209524Y-70343247D02*
X126171428Y-70419438D01*
%TO.C,C10*%
X109785714Y-72986104D02*
X109747618Y-73024200D01*
X109747618Y-73024200D02*
X109633333Y-73062295D01*
X109633333Y-73062295D02*
X109557142Y-73062295D01*
X109557142Y-73062295D02*
X109442856Y-73024200D01*
X109442856Y-73024200D02*
X109366666Y-72948009D01*
X109366666Y-72948009D02*
X109328571Y-72871819D01*
X109328571Y-72871819D02*
X109290475Y-72719438D01*
X109290475Y-72719438D02*
X109290475Y-72605152D01*
X109290475Y-72605152D02*
X109328571Y-72452771D01*
X109328571Y-72452771D02*
X109366666Y-72376580D01*
X109366666Y-72376580D02*
X109442856Y-72300390D01*
X109442856Y-72300390D02*
X109557142Y-72262295D01*
X109557142Y-72262295D02*
X109633333Y-72262295D01*
X109633333Y-72262295D02*
X109747618Y-72300390D01*
X109747618Y-72300390D02*
X109785714Y-72338485D01*
X110547618Y-73062295D02*
X110090475Y-73062295D01*
X110319047Y-73062295D02*
X110319047Y-72262295D01*
X110319047Y-72262295D02*
X110242856Y-72376580D01*
X110242856Y-72376580D02*
X110166666Y-72452771D01*
X110166666Y-72452771D02*
X110090475Y-72490866D01*
X111042857Y-72262295D02*
X111119047Y-72262295D01*
X111119047Y-72262295D02*
X111195238Y-72300390D01*
X111195238Y-72300390D02*
X111233333Y-72338485D01*
X111233333Y-72338485D02*
X111271428Y-72414676D01*
X111271428Y-72414676D02*
X111309523Y-72567057D01*
X111309523Y-72567057D02*
X111309523Y-72757533D01*
X111309523Y-72757533D02*
X111271428Y-72909914D01*
X111271428Y-72909914D02*
X111233333Y-72986104D01*
X111233333Y-72986104D02*
X111195238Y-73024200D01*
X111195238Y-73024200D02*
X111119047Y-73062295D01*
X111119047Y-73062295D02*
X111042857Y-73062295D01*
X111042857Y-73062295D02*
X110966666Y-73024200D01*
X110966666Y-73024200D02*
X110928571Y-72986104D01*
X110928571Y-72986104D02*
X110890476Y-72909914D01*
X110890476Y-72909914D02*
X110852380Y-72757533D01*
X110852380Y-72757533D02*
X110852380Y-72567057D01*
X110852380Y-72567057D02*
X110890476Y-72414676D01*
X110890476Y-72414676D02*
X110928571Y-72338485D01*
X110928571Y-72338485D02*
X110966666Y-72300390D01*
X110966666Y-72300390D02*
X111042857Y-72262295D01*
%TO.C,C5*%
X122036104Y-54963332D02*
X122074200Y-55001428D01*
X122074200Y-55001428D02*
X122112295Y-55115713D01*
X122112295Y-55115713D02*
X122112295Y-55191904D01*
X122112295Y-55191904D02*
X122074200Y-55306190D01*
X122074200Y-55306190D02*
X121998009Y-55382380D01*
X121998009Y-55382380D02*
X121921819Y-55420475D01*
X121921819Y-55420475D02*
X121769438Y-55458571D01*
X121769438Y-55458571D02*
X121655152Y-55458571D01*
X121655152Y-55458571D02*
X121502771Y-55420475D01*
X121502771Y-55420475D02*
X121426580Y-55382380D01*
X121426580Y-55382380D02*
X121350390Y-55306190D01*
X121350390Y-55306190D02*
X121312295Y-55191904D01*
X121312295Y-55191904D02*
X121312295Y-55115713D01*
X121312295Y-55115713D02*
X121350390Y-55001428D01*
X121350390Y-55001428D02*
X121388485Y-54963332D01*
X121312295Y-54239523D02*
X121312295Y-54620475D01*
X121312295Y-54620475D02*
X121693247Y-54658571D01*
X121693247Y-54658571D02*
X121655152Y-54620475D01*
X121655152Y-54620475D02*
X121617057Y-54544285D01*
X121617057Y-54544285D02*
X121617057Y-54353809D01*
X121617057Y-54353809D02*
X121655152Y-54277618D01*
X121655152Y-54277618D02*
X121693247Y-54239523D01*
X121693247Y-54239523D02*
X121769438Y-54201428D01*
X121769438Y-54201428D02*
X121959914Y-54201428D01*
X121959914Y-54201428D02*
X122036104Y-54239523D01*
X122036104Y-54239523D02*
X122074200Y-54277618D01*
X122074200Y-54277618D02*
X122112295Y-54353809D01*
X122112295Y-54353809D02*
X122112295Y-54544285D01*
X122112295Y-54544285D02*
X122074200Y-54620475D01*
X122074200Y-54620475D02*
X122036104Y-54658571D01*
D12*
%TO.C,U11*%
X124899300Y-52849300D02*
X124899300Y-53471985D01*
X124899300Y-57078015D02*
X124899300Y-57700700D01*
X124899300Y-57700700D02*
X125521985Y-57700700D01*
X125521985Y-52849300D02*
X124899300Y-52849300D01*
X129128015Y-57700700D02*
X129750700Y-57700700D01*
X129750700Y-52849300D02*
X129128015Y-52849300D01*
X129750700Y-53471985D02*
X129750700Y-52849300D01*
X129750700Y-57700700D02*
X129750700Y-57078015D01*
D13*
%TO.C,IC5*%
X147300000Y-48450000D02*
X147300000Y-53350000D01*
X147300000Y-53350000D02*
X144100000Y-53350000D01*
X144100000Y-53350000D02*
X144100000Y-48450000D01*
X144100000Y-48450000D02*
X147300000Y-48450000D01*
X149150000Y-53480000D02*
X147650000Y-53480000D01*
D14*
%TO.C,IC4*%
X113194000Y-66400000D02*
X113194000Y-65650000D01*
D13*
X109394000Y-66300000D02*
X109394000Y-66300000D01*
D14*
X113194000Y-65650000D02*
X110744000Y-65650000D01*
X113194000Y-69400000D02*
X113194000Y-70150000D01*
D13*
X109394000Y-66500000D02*
X109394000Y-66500000D01*
D14*
X113194000Y-70150000D02*
X110744000Y-70150000D01*
D13*
X109394000Y-66500000D02*
G75*
G03*
X109394000Y-66300000I0J100000D01*
G01*
X109394000Y-66300000D02*
G75*
G03*
X109394000Y-66500000I0J-100000D01*
G01*
%TO.C,U10*%
X150850000Y-68520000D02*
X152350000Y-68520000D01*
X152700000Y-68650000D02*
X155900000Y-68650000D01*
X152700000Y-73550000D02*
X152700000Y-68650000D01*
X155900000Y-68650000D02*
X155900000Y-73550000D01*
X155900000Y-73550000D02*
X152700000Y-73550000D01*
D15*
%TO.C,J3*%
X124900000Y-61080000D02*
X124900000Y-59680000D01*
X126300000Y-59680000D02*
X126300000Y-61080000D01*
X124900000Y-59680000D02*
X126300000Y-59680000D01*
X126300000Y-61080000D02*
X124900000Y-61080000D01*
%TO.C,J1*%
X138950000Y-49720000D02*
X140350000Y-51700000D01*
X137650000Y-49720000D02*
X138950000Y-49720000D01*
X137030000Y-51625000D02*
X137665000Y-51625000D01*
X140350000Y-51700000D02*
X140350000Y-59280000D01*
X136250000Y-51700000D02*
X137650000Y-49720000D01*
X137030000Y-52260000D02*
X137030000Y-51625000D01*
X140350000Y-59280000D02*
X139750000Y-59880000D01*
X136250000Y-59280000D02*
X136250000Y-51700000D01*
X136250000Y-59280000D02*
X136850000Y-59880000D01*
X139750000Y-59880000D02*
X136850000Y-59880000D01*
%TO.C,C11*%
X155435000Y-75738748D02*
X155435000Y-76261252D01*
X153965000Y-75738748D02*
X153965000Y-76261252D01*
%TO.C,D7*%
X158000000Y-73900000D02*
X156000000Y-73900000D01*
X158000000Y-73900000D02*
X158000000Y-77750000D01*
X156000000Y-73900000D02*
X156000000Y-77750000D01*
%TO.C,R23*%
X149777500Y-51837258D02*
X149777500Y-51362742D01*
X150822500Y-51837258D02*
X150822500Y-51362742D01*
%TO.C,R14*%
X117777258Y-58632500D02*
X117302742Y-58632500D01*
X117777258Y-57587500D02*
X117302742Y-57587500D01*
%TO.C,C7*%
X134859420Y-71490000D02*
X135140580Y-71490000D01*
X134859420Y-72510000D02*
X135140580Y-72510000D01*
%TO.C,R20*%
X117777258Y-54397500D02*
X117302742Y-54397500D01*
X117777258Y-55442500D02*
X117302742Y-55442500D01*
%TO.C,D8*%
X148800000Y-67700000D02*
X150800000Y-67700000D01*
X148800000Y-67700000D02*
X148800000Y-63850000D01*
X150800000Y-67700000D02*
X150800000Y-63850000D01*
%TO.C,R18*%
X117777260Y-61327500D02*
X117302744Y-61327500D01*
X117777260Y-62372500D02*
X117302744Y-62372500D01*
%TO.C,D3*%
X122300000Y-69500000D02*
X124300000Y-69500000D01*
X122300000Y-69500000D02*
X122300000Y-65650000D01*
X124300000Y-69500000D02*
X124300000Y-65650000D01*
%TO.C,C17*%
X153590000Y-66340580D02*
X153590000Y-66059420D01*
X154610000Y-66340580D02*
X154610000Y-66059420D01*
%TO.C,R5*%
X130237258Y-72522500D02*
X129762742Y-72522500D01*
X130237258Y-71477500D02*
X129762742Y-71477500D01*
%TO.C,R10*%
X127572936Y-75965000D02*
X128027064Y-75965000D01*
X127572936Y-77435000D02*
X128027064Y-77435000D01*
%TO.C,C12*%
X117680578Y-57120000D02*
X117399418Y-57120000D01*
X117680578Y-56100000D02*
X117399418Y-56100000D01*
%TO.C,D2*%
X133300000Y-69600000D02*
X135300000Y-69600000D01*
X133300000Y-69600000D02*
X133300000Y-65750000D01*
X135300000Y-69600000D02*
X135300000Y-65750000D01*
%TO.C,R15*%
X155177500Y-66437258D02*
X155177500Y-65962742D01*
X156222500Y-66437258D02*
X156222500Y-65962742D01*
%TO.C,C18*%
X151990000Y-66340580D02*
X151990000Y-66059420D01*
X153010000Y-66340580D02*
X153010000Y-66059420D01*
%TO.C,C8*%
X123859420Y-71290000D02*
X124140580Y-71290000D01*
X123859420Y-72310000D02*
X124140580Y-72310000D01*
%TO.C,R21*%
X146865000Y-67627064D02*
X146865000Y-67172936D01*
X148335000Y-67627064D02*
X148335000Y-67172936D01*
D13*
%TO.C,U5*%
X143075000Y-77500000D02*
X141925000Y-77500000D01*
X141575000Y-77400000D02*
X140825000Y-77400000D01*
X141575000Y-74400000D02*
X141575000Y-77400000D01*
X140825000Y-77400000D02*
X140825000Y-74400000D01*
X140825000Y-74400000D02*
X141575000Y-74400000D01*
D15*
%TO.C,C24*%
X147840580Y-55010000D02*
X147559420Y-55010000D01*
X147840580Y-53990000D02*
X147559420Y-53990000D01*
%TO.C,R17*%
X124765000Y-67527064D02*
X124765000Y-67072936D01*
X126235000Y-67527064D02*
X126235000Y-67072936D01*
%TO.C,D4*%
X145050000Y-69800000D02*
X145050000Y-71000000D01*
X146900000Y-69800000D02*
X145050000Y-69800000D01*
X146900000Y-71000000D02*
X145050000Y-71000000D01*
%TO.C,R16*%
X149177500Y-69937258D02*
X149177500Y-69462742D01*
X150222500Y-69937258D02*
X150222500Y-69462742D01*
D13*
%TO.C,U6*%
X130025000Y-74400000D02*
X131175000Y-74400000D01*
X131525000Y-74500000D02*
X132275000Y-74500000D01*
X131525000Y-77500000D02*
X131525000Y-74500000D01*
X132275000Y-74500000D02*
X132275000Y-77500000D01*
X132275000Y-77500000D02*
X131525000Y-77500000D01*
D15*
%TO.C,C21*%
X117680580Y-59840000D02*
X117399420Y-59840000D01*
X117680580Y-60860000D02*
X117399420Y-60860000D01*
%TO.C,R3*%
X116837258Y-72522500D02*
X116362742Y-72522500D01*
X116837258Y-71477500D02*
X116362742Y-71477500D01*
D13*
%TO.C,U3*%
X121755000Y-63875000D02*
X121755000Y-65625000D01*
X121650000Y-65975000D02*
X121650000Y-68625000D01*
X116750000Y-65975000D02*
X121650000Y-65975000D01*
X121650000Y-68625000D02*
X116750000Y-68625000D01*
X116750000Y-68625000D02*
X116750000Y-65975000D01*
D15*
%TO.C,C16*%
X112511252Y-63360000D02*
X111088748Y-63360000D01*
X112511252Y-60640000D02*
X111088748Y-60640000D01*
D13*
%TO.C,U2*%
X132755000Y-63875000D02*
X132755000Y-65625000D01*
X132650000Y-65975000D02*
X132650000Y-68625000D01*
X127750000Y-65975000D02*
X132650000Y-65975000D01*
X132650000Y-68625000D02*
X127750000Y-68625000D01*
X127750000Y-68625000D02*
X127750000Y-65975000D01*
D15*
%TO.C,R6*%
X120037258Y-72522500D02*
X119562742Y-72522500D01*
X120037258Y-71477500D02*
X119562742Y-71477500D01*
%TO.C,C22*%
X117680583Y-52909999D02*
X117399423Y-52909999D01*
X117680583Y-53929999D02*
X117399423Y-53929999D01*
%TO.C,R13*%
X153485000Y-75747936D02*
X153485000Y-76202064D01*
X152015000Y-75747936D02*
X152015000Y-76202064D01*
%TO.C,C14*%
X111140580Y-65010000D02*
X110859420Y-65010000D01*
X111140580Y-63990000D02*
X110859420Y-63990000D01*
%TO.C,R22*%
X118567258Y-52262500D02*
X118092742Y-52262500D01*
X118567258Y-51217500D02*
X118092742Y-51217500D01*
%TO.C,C23*%
X118470579Y-50750001D02*
X118189419Y-50750001D01*
X118470579Y-49730001D02*
X118189419Y-49730001D01*
%TO.C,R8*%
X138435000Y-76472936D02*
X138435000Y-76927064D01*
X136965000Y-76472936D02*
X136965000Y-76927064D01*
%TO.C,R1*%
X138962742Y-71477500D02*
X139437258Y-71477500D01*
X138962742Y-72522500D02*
X139437258Y-72522500D01*
%TO.C,D5*%
X133850000Y-69900000D02*
X133850000Y-71100000D01*
X135700000Y-69900000D02*
X133850000Y-69900000D01*
X135700000Y-71100000D02*
X133850000Y-71100000D01*
D13*
%TO.C,U9*%
X114900000Y-72625000D02*
X114900000Y-73775000D01*
X114800000Y-74125000D02*
X114800000Y-74875000D01*
X111800000Y-74125000D02*
X114800000Y-74125000D01*
X114800000Y-74875000D02*
X111800000Y-74875000D01*
X111800000Y-74875000D02*
X111800000Y-74125000D01*
D15*
%TO.C,R9*%
X136035000Y-76472936D02*
X136035000Y-76927064D01*
X134565000Y-76472936D02*
X134565000Y-76927064D01*
%TO.C,C6*%
X146049420Y-71360000D02*
X146330580Y-71360000D01*
X146049420Y-72380000D02*
X146330580Y-72380000D01*
%TO.C,R7*%
X145135000Y-76472936D02*
X145135000Y-76927064D01*
X143665000Y-76472936D02*
X143665000Y-76927064D01*
%TO.C,R11*%
X121035000Y-75672936D02*
X121035000Y-76127064D01*
X119565000Y-75672936D02*
X119565000Y-76127064D01*
%TO.C,R4*%
X142562742Y-71477500D02*
X143037258Y-71477500D01*
X142562742Y-72522500D02*
X143037258Y-72522500D01*
%TO.C,R19*%
X135765000Y-67627064D02*
X135765000Y-67172936D01*
X137235000Y-67627064D02*
X137235000Y-67172936D01*
D13*
%TO.C,U4*%
X149435000Y-77540000D02*
X148285000Y-77540000D01*
X147935000Y-77440000D02*
X147185000Y-77440000D01*
X147935000Y-74440000D02*
X147935000Y-77440000D01*
X147185000Y-77440000D02*
X147185000Y-74440000D01*
X147185000Y-74440000D02*
X147935000Y-74440000D01*
D15*
%TO.C,C19*%
X145760000Y-58588748D02*
X145760000Y-60011252D01*
X143040000Y-58588748D02*
X143040000Y-60011252D01*
%TO.C,J6*%
X146760000Y-78840000D02*
X146760000Y-79900000D01*
X145700000Y-78840000D02*
X146760000Y-78840000D01*
X144700000Y-78840000D02*
X116640000Y-78840000D01*
X144700000Y-78840000D02*
X144700000Y-80960000D01*
X116640000Y-78840000D02*
X116640000Y-80960000D01*
X144700000Y-80960000D02*
X116640000Y-80960000D01*
%TO.C,L1*%
X157500000Y-62900000D02*
X150100000Y-62900000D01*
X157500000Y-60600000D02*
X157500000Y-62900000D01*
X157500000Y-55500000D02*
X157500000Y-57800000D01*
X150100000Y-62900000D02*
X150100000Y-60600000D01*
X150100000Y-57800000D02*
X150100000Y-55500000D01*
X150100000Y-55500000D02*
X157500000Y-55500000D01*
%TO.C,R2*%
X127322500Y-72362742D02*
X127322500Y-72837258D01*
X126277500Y-72362742D02*
X126277500Y-72837258D01*
D13*
%TO.C,U8*%
X118800000Y-74025000D02*
X118800000Y-75175000D01*
X118700000Y-75525000D02*
X118700000Y-76275000D01*
X115700000Y-75525000D02*
X118700000Y-75525000D01*
X118700000Y-76275000D02*
X115700000Y-76275000D01*
X115700000Y-76275000D02*
X115700000Y-75525000D01*
%TO.C,U7*%
X121825000Y-74500000D02*
X122975000Y-74500000D01*
X123325000Y-74600000D02*
X124075000Y-74600000D01*
X123325000Y-77600000D02*
X123325000Y-74600000D01*
X124075000Y-74600000D02*
X124075000Y-77600000D01*
X124075000Y-77600000D02*
X123325000Y-77600000D01*
%TO.C,U1*%
X143855000Y-63875000D02*
X143855000Y-65625000D01*
X143750000Y-65975000D02*
X143750000Y-68625000D01*
X138850000Y-65975000D02*
X143750000Y-65975000D01*
X143750000Y-68625000D02*
X138850000Y-68625000D01*
X138850000Y-68625000D02*
X138850000Y-65975000D01*
D15*
%TO.C,R24*%
X143737258Y-55022500D02*
X143262742Y-55022500D01*
X143737258Y-53977500D02*
X143262742Y-53977500D01*
%TO.C,C20*%
X149010000Y-58588748D02*
X149010000Y-60011252D01*
X146290000Y-58588748D02*
X146290000Y-60011252D01*
%TO.C,R12*%
X113072936Y-77765000D02*
X113527064Y-77765000D01*
X113072936Y-79235000D02*
X113527064Y-79235000D01*
%TO.C,D1*%
X144400000Y-69600000D02*
X146400000Y-69600000D01*
X144400000Y-69600000D02*
X144400000Y-65750000D01*
X146400000Y-69600000D02*
X146400000Y-65750000D01*
%TO.C,D6*%
X122850000Y-69700000D02*
X122850000Y-70900000D01*
X124700000Y-69700000D02*
X122850000Y-69700000D01*
X124700000Y-70900000D02*
X122850000Y-70900000D01*
%TO.C,C10*%
X110859420Y-70790000D02*
X111140580Y-70790000D01*
X110859420Y-71810000D02*
X111140580Y-71810000D01*
%TO.C,C5*%
X123485000Y-54734420D02*
X123485000Y-55015580D01*
X122465000Y-54734420D02*
X122465000Y-55015580D01*
%TD*%
M02*
