M48
; DRILL file {KiCad 7.0.5} date Mon Aug 21 12:07:07 2023
; FORMAT={-:-/ absolute / metric / decimal}
; #@! TF.CreationDate,2023-08-21T12:07:07+01:00
; #@! TF.GenerationSoftware,Kicad,Pcbnew,7.0.5
; #@! TF.FileFunction,Plated,1,6,PTH
FMAT,2
METRIC
; #@! TA.AperFunction,Plated,PTH,ViaDrill
T1C0.300
; #@! TA.AperFunction,Plated,PTH,ComponentDrill
T2C0.800
%
G90
G05
T1
X109.21Y-64.47
X109.24Y-66.37
X109.3Y-65.42
X109.46Y-59.82
X109.55Y-75.11
X109.9Y-70.3
X110.0Y-55.1
X110.0Y-58.1
X110.0Y-78.7
X110.33Y-59.81
X110.8Y-70.3
X111.19Y-59.83
X111.6Y-73.2
X112.4Y-66.3
X112.4Y-69.5
X112.53Y-56.53
X112.8Y-70.3
X112.8Y-71.3
X113.1Y-64.5
X113.2Y-66.3
X113.2Y-69.5
X114.0Y-69.5
X114.006Y-66.291
X114.6Y-61.0
X114.6Y-61.9
X114.6Y-62.8
X114.88Y-73.2
X115.31Y-48.99
X115.52Y-56.48
X115.57Y-60.2
X115.59Y-58.08
X115.61Y-53.41
X115.63Y-54.87
X115.66Y-61.81
X115.68Y-64.47
X116.27Y-73.41
X116.47Y-50.13
X116.47Y-51.78
X117.28Y-67.59
X117.28Y-68.31
X117.53Y-59.01
X117.54Y-62.77
X118.6Y-66.2
X119.32Y-78.43
X119.5Y-53.2
X120.04Y-78.42
X120.1Y-51.44
X120.9Y-61.42
X120.99Y-53.67
X121.77Y-55.64
X122.4Y-74.3
X122.6Y-62.77
X122.9Y-64.8
X122.975Y-53.125
X122.99Y-56.9
X123.51Y-77.97
X123.7Y-64.8
X124.06Y-56.92
X124.8Y-72.9
X124.9Y-78.4
X125.5Y-65.2
X125.7Y-78.1
X126.27Y-70.01
X126.325Y-58.799
X126.436Y-56.034
X126.45Y-54.33
X126.5Y-78.4
X127.24Y-60.56
X127.62Y-52.48
X127.8Y-74.7
X128.25Y-56.04
X128.295Y-67.51
X128.295Y-68.29
X128.3Y-54.29
X129.6Y-66.3
X130.45Y-51.7
X130.625Y-56.175
X130.77Y-54.1
X130.925Y-55.4
X131.2Y-78.3
X131.39Y-59.25
X132.0Y-78.3
X132.12Y-62.77
X132.56Y-51.7
X133.35Y-59.26
X133.9Y-64.8
X134.64Y-48.74
X134.7Y-64.8
X134.8Y-62.3
X135.775Y-73.001
X136.49Y-54.77
X136.5Y-57.34
X136.5Y-65.2
X136.6Y-53.5
X136.9Y-51.5
X137.1Y-74.4
X137.35Y-69.99
X139.395Y-67.52
X139.395Y-68.29
X139.44Y-78.29
X140.0Y-52.3
X140.0Y-54.8
X140.0Y-57.4
X140.13Y-53.57
X140.22Y-78.29
X140.67Y-62.61
X140.7Y-66.4
X140.74Y-48.64
X141.4Y-76.8
X142.5Y-57.4
X142.5Y-58.3
X142.5Y-74.2
X142.675Y-55.395
X143.6Y-59.2
X143.6Y-62.1
X144.3Y-49.0
X144.325Y-51.825
X144.4Y-58.9
X144.4Y-62.1
X145.0Y-64.9
X145.2Y-62.1
X145.3Y-59.2
X145.8Y-64.9
X146.9Y-59.2
X146.9Y-62.1
X147.6Y-65.3
X147.7Y-58.9
X147.7Y-62.1
X148.0Y-72.0
X148.5Y-59.2
X148.5Y-62.1
X148.65Y-78.675
X148.87Y-74.13
X149.75Y-78.675
X149.8Y-57.3
X149.8Y-61.1
X149.8Y-62.9
X149.91Y-71.84
X150.6Y-57.5
X150.6Y-60.9
X150.85Y-78.675
X151.4Y-57.3
X151.4Y-61.1
X153.125Y-78.05
X153.325Y-73.525
X154.225Y-73.525
X154.3Y-78.3
X154.8Y-70.92
X155.125Y-73.525
X155.3Y-78.3
X157.0Y-78.6
X157.33Y-54.58
T2
X117.7Y-79.9
X119.7Y-79.9
X121.7Y-79.9
X123.7Y-79.9
X125.7Y-79.9
X127.7Y-79.9
X129.7Y-79.9
X131.7Y-79.9
X133.7Y-79.9
X135.7Y-79.9
X137.7Y-79.9
X139.7Y-79.9
X141.7Y-79.9
X143.7Y-79.9
X145.7Y-79.9
T0
M30
