%TF.GenerationSoftware,KiCad,Pcbnew,7.0.5*%
%TF.CreationDate,2023-08-21T12:06:50+01:00*%
%TF.ProjectId,ESC_Control_Board_STM32G071_V2,4553435f-436f-46e7-9472-6f6c5f426f61,rev?*%
%TF.SameCoordinates,Original*%
%TF.FileFunction,Copper,L6,Bot*%
%TF.FilePolarity,Positive*%
%FSLAX46Y46*%
G04 Gerber Fmt 4.6, Leading zero omitted, Abs format (unit mm)*
G04 Created by KiCad (PCBNEW 7.0.5) date 2023-08-21 12:06:50*
%MOMM*%
%LPD*%
G01*
G04 APERTURE LIST*
%TA.AperFunction,ComponentPad*%
%ADD10R,1.350000X1.350000*%
%TD*%
%TA.AperFunction,ComponentPad*%
%ADD11O,1.350000X1.350000*%
%TD*%
%TA.AperFunction,ViaPad*%
%ADD12C,0.600000*%
%TD*%
%TA.AperFunction,Conductor*%
%ADD13C,0.500000*%
%TD*%
G04 APERTURE END LIST*
D10*
%TO.P,J6,1,Pin_1*%
%TO.N,VBATT*%
X145700000Y-79900000D03*
D11*
%TO.P,J6,2,Pin_2*%
%TO.N,unconnected-(J6-Pin_2-Pad2)*%
X143700000Y-79900000D03*
%TO.P,J6,3,Pin_3*%
%TO.N,/Gate_Drive/U_H*%
X141700000Y-79900000D03*
%TO.P,J6,4,Pin_4*%
%TO.N,/BEMF_Feedback/pU*%
X139700000Y-79900000D03*
%TO.P,J6,5,Pin_5*%
%TO.N,/Gate_Drive/U_L*%
X137700000Y-79900000D03*
%TO.P,J6,6,Pin_6*%
%TO.N,unconnected-(J6-Pin_6-Pad6)*%
X135700000Y-79900000D03*
%TO.P,J6,7,Pin_7*%
%TO.N,/Gate_Drive/V_H*%
X133700000Y-79900000D03*
%TO.P,J6,8,Pin_8*%
%TO.N,/BEMF_Feedback/pV*%
X131700000Y-79900000D03*
%TO.P,J6,9,Pin_9*%
%TO.N,/Gate_Drive/V_L*%
X129700000Y-79900000D03*
%TO.P,J6,10,Pin_10*%
%TO.N,unconnected-(J6-Pin_10-Pad10)*%
X127700000Y-79900000D03*
%TO.P,J6,11,Pin_11*%
%TO.N,GND*%
X125700000Y-79900000D03*
%TO.P,J6,12,Pin_12*%
%TO.N,unconnected-(J6-Pin_12-Pad12)*%
X123700000Y-79900000D03*
%TO.P,J6,13,Pin_13*%
%TO.N,/Gate_Drive/W_H*%
X121700000Y-79900000D03*
%TO.P,J6,14,Pin_14*%
%TO.N,/BEMF_Feedback/pW*%
X119700000Y-79900000D03*
%TO.P,J6,15,Pin_15*%
%TO.N,/Gate_Drive/W_L*%
X117700000Y-79900000D03*
%TD*%
D12*
%TO.N,GND*%
X137350000Y-69990000D03*
X126270000Y-70010000D03*
X154800000Y-70920000D03*
X127240000Y-60560000D03*
%TO.N,/BEMF_Feedback/pW*%
X116270000Y-73410000D03*
%TO.N,/BEMF_Feedback/pU*%
X148870000Y-74130000D03*
%TO.N,GND*%
X140740000Y-48640000D03*
X115680000Y-64470000D03*
X140670000Y-62610000D03*
X133350000Y-59260000D03*
X131390000Y-59250000D03*
X132560000Y-51700000D03*
X112530000Y-56530000D03*
X120990000Y-53670000D03*
X121770000Y-55640000D03*
X124900000Y-78400000D03*
X111600000Y-73200000D03*
X115310000Y-48990000D03*
X116470000Y-51780000D03*
X115660000Y-61810000D03*
X125700000Y-78100000D03*
X129600000Y-66300000D03*
X144400000Y-62100000D03*
X109460000Y-59820000D03*
X147700000Y-62100000D03*
X116470000Y-50130000D03*
X144300000Y-49000000D03*
X110000000Y-78700000D03*
X115630000Y-54870000D03*
X109300000Y-65420000D03*
X137100000Y-74400000D03*
X115590000Y-58080000D03*
X120900000Y-61420000D03*
X111190000Y-59830000D03*
X140700000Y-66399500D03*
X142500000Y-74199500D03*
X126435571Y-56033554D03*
X134800000Y-62300000D03*
X122990000Y-56900000D03*
X112800000Y-70300000D03*
X110000000Y-58100000D03*
X110330000Y-59810000D03*
X118600000Y-66200000D03*
X123510000Y-77970000D03*
X146900000Y-62100000D03*
X128250000Y-56040000D03*
X136490000Y-54770000D03*
X115520000Y-56480000D03*
X127800000Y-74700000D03*
X155300000Y-78300000D03*
X157000000Y-78600000D03*
X157330000Y-54580000D03*
X128300000Y-54290000D03*
X109210000Y-64470000D03*
X145200000Y-62100000D03*
X126450000Y-54330000D03*
X115610000Y-53410000D03*
X126500000Y-78400000D03*
X148500000Y-62100000D03*
X140130000Y-53570000D03*
X115570000Y-60200000D03*
X143600000Y-62100000D03*
X136500000Y-57340000D03*
X109240000Y-66370000D03*
X134640000Y-48740000D03*
X109550000Y-75110000D03*
X154300000Y-78300000D03*
X149910000Y-71840000D03*
X110000000Y-55100000D03*
X112800000Y-71300000D03*
%TO.N,/MCU/PA1*%
X117530000Y-59010000D03*
X153125000Y-78050000D03*
%TO.N,+3V3*%
X113200000Y-69500000D03*
X136900000Y-51500000D03*
X113100000Y-64500000D03*
X113200000Y-66300000D03*
X112400000Y-69500000D03*
X114000000Y-69500000D03*
X114600000Y-61900000D03*
X114006428Y-66291421D03*
X112400000Y-66300000D03*
X142675000Y-55395000D03*
X114600000Y-62800000D03*
X114600000Y-61000000D03*
X122975000Y-53125000D03*
%TO.N,/BEMF_Feedback/pU*%
X148000000Y-72000000D03*
X139440000Y-78290000D03*
X140220000Y-78290000D03*
%TO.N,/BEMF_Feedback/pV*%
X131200000Y-78300000D03*
X132000000Y-78300000D03*
X135775000Y-73000500D03*
%TO.N,/BEMF_Feedback/bW*%
X117540000Y-62770000D03*
X125500000Y-65200000D03*
%TO.N,/BEMF_Feedback/pW*%
X124800000Y-72900000D03*
X119320000Y-78430000D03*
X120040000Y-78420000D03*
%TO.N,+12V*%
X149800000Y-62900000D03*
X128295000Y-68290000D03*
X150600000Y-60900000D03*
X142500000Y-57400000D03*
X110800000Y-70300000D03*
X149800000Y-57300000D03*
X122900000Y-64800000D03*
X145300000Y-59200000D03*
X133900000Y-64800000D03*
X151400000Y-61100000D03*
X148500000Y-59200000D03*
X143600000Y-59200000D03*
X134700000Y-64800000D03*
X147700000Y-58900000D03*
X146900000Y-59200000D03*
X139395000Y-68290000D03*
X117280000Y-68310000D03*
X139395000Y-67520000D03*
X150600000Y-57500000D03*
X145000000Y-64900000D03*
X117280000Y-67590000D03*
X114880000Y-73200000D03*
X151400000Y-57300000D03*
X145800000Y-64900000D03*
X128295000Y-67510000D03*
X141400000Y-76800000D03*
X149800000Y-61100000D03*
X122400000Y-74300000D03*
X142500000Y-58300000D03*
X109900000Y-70300000D03*
X144400000Y-58900000D03*
X123700000Y-64800000D03*
%TO.N,/BEMF_Feedback/bV*%
X119500500Y-53200000D03*
X136500000Y-65200000D03*
%TO.N,/BEMF_Feedback/bU*%
X120100000Y-51440000D03*
X147600000Y-65300000D03*
%TO.N,/MCU/PB4*%
X127620000Y-52480000D03*
X144325000Y-51825000D03*
%TO.N,/Gate_Drive/V_HIN*%
X130925000Y-55400000D03*
X132120111Y-62770500D03*
%TO.N,/Gate_Drive/W_HIN*%
X130625000Y-56175500D03*
X122600000Y-62770500D03*
%TO.N,VBATT*%
X153325000Y-73525000D03*
X149750000Y-78675000D03*
X155125000Y-73525000D03*
X148650000Y-78675000D03*
X150850000Y-78675000D03*
X154225000Y-73525000D03*
%TO.N,/MCU/NRST*%
X140000000Y-52300000D03*
X124060000Y-56920000D03*
%TO.N,/MCU/SWO*%
X126325000Y-58799500D03*
X140000000Y-57400000D03*
%TO.N,/MCU/SWDIO*%
X136600000Y-53500000D03*
X130770000Y-54100000D03*
%TO.N,/MCU/TDI*%
X130450000Y-51700500D03*
X140000000Y-54800000D03*
%TD*%
D13*
%TO.N,/BEMF_Feedback/pU*%
X147750000Y-74130000D02*
X146430000Y-74130000D01*
X148000000Y-72000000D02*
X148000000Y-73880000D01*
X148000000Y-73880000D02*
X147750000Y-74130000D01*
%TO.N,/BEMF_Feedback/pW*%
X119020000Y-78420000D02*
X118700000Y-78100000D01*
X118700000Y-78100000D02*
X118700000Y-75200000D01*
X120040000Y-78420000D02*
X119020000Y-78420000D01*
X117010000Y-73410000D02*
X116270000Y-73410000D01*
X118600000Y-75000000D02*
X117010000Y-73410000D01*
%TO.N,/BEMF_Feedback/pU*%
X145922178Y-74130000D02*
X146430000Y-74130000D01*
X139440000Y-78290000D02*
X141762178Y-78290000D01*
X141762178Y-78290000D02*
X145922178Y-74130000D01*
X148870000Y-74130000D02*
X146430000Y-74130000D01*
%TO.N,+3V3*%
X113997849Y-66300000D02*
X114006428Y-66291421D01*
X114600000Y-61000000D02*
X114600000Y-62800000D01*
X114000000Y-69500000D02*
X112400000Y-69500000D01*
X112400000Y-66300000D02*
X113997849Y-66300000D01*
%TO.N,/BEMF_Feedback/pV*%
X132500000Y-78300000D02*
X132700000Y-78100000D01*
X132700000Y-78100000D02*
X132700000Y-76100000D01*
X135775000Y-73025000D02*
X135775000Y-73000500D01*
X131200000Y-78300000D02*
X132500000Y-78300000D01*
X132700000Y-76100000D02*
X135775000Y-73025000D01*
%TO.N,/BEMF_Feedback/pW*%
X124800000Y-72900000D02*
X120900000Y-72900000D01*
X120900000Y-72900000D02*
X118700000Y-75100000D01*
%TD*%
%TA.AperFunction,Conductor*%
%TO.N,GND*%
G36*
X153158691Y-47919407D02*
G01*
X153194655Y-47968907D01*
X153199500Y-47999500D01*
X153199500Y-50113263D01*
X153195953Y-50124510D01*
X153230583Y-50326856D01*
X153230585Y-50326867D01*
X153288472Y-50541487D01*
X153288991Y-50543591D01*
X153300447Y-50594902D01*
X153306555Y-50608527D01*
X153326631Y-50682963D01*
X153326634Y-50682972D01*
X153392636Y-50859616D01*
X153417036Y-50924917D01*
X153417645Y-50926644D01*
X153429189Y-50961410D01*
X153433504Y-50968993D01*
X153455730Y-51028476D01*
X153500324Y-51120391D01*
X153588580Y-51302297D01*
X153589213Y-51303654D01*
X153593701Y-51313665D01*
X153594969Y-51315466D01*
X153616729Y-51360317D01*
X153808195Y-51675537D01*
X153808206Y-51675555D01*
X153836362Y-51713373D01*
X154028463Y-51971398D01*
X154241188Y-52207144D01*
X154275557Y-52245233D01*
X154547293Y-52494628D01*
X154547306Y-52494638D01*
X154547311Y-52494642D01*
X154841262Y-52717376D01*
X154841267Y-52717379D01*
X155154877Y-52911511D01*
X155485346Y-53075308D01*
X155829747Y-53207317D01*
X155877764Y-53220704D01*
X155878798Y-53221390D01*
X155890389Y-53224247D01*
X155891830Y-53224626D01*
X156184920Y-53306340D01*
X156185031Y-53306371D01*
X156247526Y-53317599D01*
X156251890Y-53319937D01*
X156291959Y-53325616D01*
X156293733Y-53325900D01*
X156548053Y-53371592D01*
X156624893Y-53378033D01*
X156632742Y-53381331D01*
X156691840Y-53383692D01*
X156693971Y-53383824D01*
X156915598Y-53402403D01*
X157058752Y-53400924D01*
X157099935Y-53400500D01*
X157100005Y-53400500D01*
X158600500Y-53400500D01*
X158658691Y-53419407D01*
X158694655Y-53468907D01*
X158699500Y-53499500D01*
X158699500Y-79800500D01*
X158680593Y-79858691D01*
X158631093Y-79894655D01*
X158600500Y-79899500D01*
X154104500Y-79899500D01*
X154046309Y-79880593D01*
X154010345Y-79831093D01*
X154005500Y-79800500D01*
X154005500Y-78903573D01*
X154005500Y-78903557D01*
X154005443Y-78898492D01*
X154004817Y-78878404D01*
X153977106Y-78737218D01*
X153956897Y-78679466D01*
X153946590Y-78652506D01*
X153906858Y-78585696D01*
X153873047Y-78528841D01*
X153873046Y-78528840D01*
X153767642Y-78430906D01*
X153717348Y-78396062D01*
X153717336Y-78396054D01*
X153693147Y-78380298D01*
X153645092Y-78359644D01*
X153599096Y-78319295D01*
X153585602Y-78259616D01*
X153594132Y-78227562D01*
X153610165Y-78192457D01*
X153622954Y-78103509D01*
X153630647Y-78050002D01*
X153630647Y-78049997D01*
X153610166Y-77907545D01*
X153600105Y-77885516D01*
X153594438Y-77873107D01*
X153587463Y-77812324D01*
X153617549Y-77759046D01*
X153638287Y-77744426D01*
X153728719Y-77696711D01*
X153778219Y-77660747D01*
X153801083Y-77643116D01*
X153898371Y-77537112D01*
X153961853Y-77407994D01*
X153980760Y-77349803D01*
X153985024Y-77336014D01*
X153985385Y-77333496D01*
X154005500Y-77193603D01*
X154005500Y-76504500D01*
X154024407Y-76446309D01*
X154073907Y-76410345D01*
X154104500Y-76405500D01*
X155500994Y-76405500D01*
X155501000Y-76405500D01*
X155580070Y-76399278D01*
X155610663Y-76394433D01*
X155701467Y-76371257D01*
X155828719Y-76304113D01*
X155878219Y-76268149D01*
X155901083Y-76250518D01*
X155998371Y-76144514D01*
X156061853Y-76015396D01*
X156080760Y-75957205D01*
X156085024Y-75943416D01*
X156085385Y-75940898D01*
X156105500Y-75801005D01*
X156105500Y-72599006D01*
X156105500Y-72599000D01*
X156099278Y-72519930D01*
X156094433Y-72489337D01*
X156071257Y-72398533D01*
X156004113Y-72271281D01*
X155968149Y-72221781D01*
X155950518Y-72198917D01*
X155844514Y-72101629D01*
X155844513Y-72101628D01*
X155715399Y-72038148D01*
X155657181Y-72019232D01*
X155643416Y-72014976D01*
X155643402Y-72014973D01*
X155501005Y-71994500D01*
X155501000Y-71994500D01*
X152501636Y-71994500D01*
X152443445Y-71975593D01*
X152407481Y-71926093D01*
X152403644Y-71881408D01*
X152405500Y-71868501D01*
X152405500Y-62899000D01*
X152424407Y-62840809D01*
X152473907Y-62804845D01*
X152504500Y-62800000D01*
X155900000Y-62800000D01*
X156000000Y-55600000D01*
X152200000Y-55600000D01*
X152200000Y-55600001D01*
X152200000Y-56398363D01*
X152181093Y-56456554D01*
X152131593Y-56492518D01*
X152086914Y-56496356D01*
X152074002Y-56494500D01*
X152074000Y-56494500D01*
X141726000Y-56494500D01*
X141689599Y-56498413D01*
X141682318Y-56499196D01*
X141666865Y-56502557D01*
X141629977Y-56510582D01*
X141629957Y-56510586D01*
X141629961Y-56510586D01*
X141619795Y-56513070D01*
X141539085Y-56556078D01*
X141539081Y-56556081D01*
X141485430Y-56602569D01*
X141467474Y-56620163D01*
X141422826Y-56699982D01*
X141402823Y-56768105D01*
X141394500Y-56825994D01*
X141394500Y-57875474D01*
X141375593Y-57933665D01*
X141366131Y-57944844D01*
X137426600Y-61956004D01*
X137285176Y-62099999D01*
X136925707Y-62466005D01*
X136784283Y-62610000D01*
X136043533Y-63364217D01*
X135989269Y-63392485D01*
X135972397Y-63393846D01*
X132440613Y-63375827D01*
X132382519Y-63356623D01*
X132346809Y-63306940D01*
X132347121Y-63245755D01*
X132383337Y-63196439D01*
X132387557Y-63193568D01*
X132451239Y-63152643D01*
X132545488Y-63043873D01*
X132605276Y-62912957D01*
X132624121Y-62781886D01*
X132625758Y-62770502D01*
X132625758Y-62770497D01*
X132605276Y-62628043D01*
X132574248Y-62560102D01*
X132545488Y-62497127D01*
X132451239Y-62388357D01*
X132451238Y-62388356D01*
X132451237Y-62388355D01*
X132330168Y-62310549D01*
X132330165Y-62310547D01*
X132330164Y-62310547D01*
X132328468Y-62310049D01*
X132192075Y-62270000D01*
X132192072Y-62270000D01*
X132048150Y-62270000D01*
X132048146Y-62270000D01*
X131910060Y-62310546D01*
X131910053Y-62310549D01*
X131788984Y-62388355D01*
X131694733Y-62497128D01*
X131634945Y-62628043D01*
X131614464Y-62770497D01*
X131614464Y-62770502D01*
X131634945Y-62912956D01*
X131648418Y-62942457D01*
X131694734Y-63043873D01*
X131720296Y-63073373D01*
X131788984Y-63152644D01*
X131847488Y-63190242D01*
X131886219Y-63237608D01*
X131889713Y-63298693D01*
X131856633Y-63350166D01*
X131799617Y-63372365D01*
X131793460Y-63372525D01*
X126180366Y-63343887D01*
X122994102Y-63327630D01*
X122936009Y-63308427D01*
X122900299Y-63258744D01*
X122900611Y-63197559D01*
X122926808Y-63158268D01*
X122926491Y-63157994D01*
X122928662Y-63155487D01*
X122929784Y-63153806D01*
X122931117Y-63152649D01*
X122931128Y-63152643D01*
X123025377Y-63043873D01*
X123085165Y-62912957D01*
X123104010Y-62781886D01*
X123105647Y-62770502D01*
X123105647Y-62770497D01*
X123085165Y-62628043D01*
X123054137Y-62560102D01*
X123025377Y-62497127D01*
X122931128Y-62388357D01*
X122931127Y-62388356D01*
X122931126Y-62388355D01*
X122810057Y-62310549D01*
X122810054Y-62310547D01*
X122810053Y-62310547D01*
X122808357Y-62310049D01*
X122671964Y-62270000D01*
X122671961Y-62270000D01*
X122528039Y-62270000D01*
X122528035Y-62270000D01*
X122389949Y-62310546D01*
X122389942Y-62310549D01*
X122268873Y-62388355D01*
X122174622Y-62497128D01*
X122114834Y-62628043D01*
X122094353Y-62770497D01*
X122094353Y-62770502D01*
X122114834Y-62912956D01*
X122128307Y-62942457D01*
X122174623Y-63043873D01*
X122268872Y-63152643D01*
X122273509Y-63157994D01*
X122271538Y-63159701D01*
X122297141Y-63202147D01*
X122291912Y-63263108D01*
X122251849Y-63309354D01*
X122200211Y-63323580D01*
X117957606Y-63301934D01*
X117899512Y-63282730D01*
X117863802Y-63233047D01*
X117864114Y-63171862D01*
X117883290Y-63138106D01*
X117965377Y-63043373D01*
X118025165Y-62912457D01*
X118036267Y-62835240D01*
X118045647Y-62770002D01*
X118045647Y-62769997D01*
X118025165Y-62627543D01*
X118013148Y-62601229D01*
X117965377Y-62496627D01*
X117871128Y-62387857D01*
X117871127Y-62387856D01*
X117871126Y-62387855D01*
X117750057Y-62310049D01*
X117750054Y-62310047D01*
X117750053Y-62310047D01*
X117745755Y-62308785D01*
X117611964Y-62269500D01*
X117611961Y-62269500D01*
X117468039Y-62269500D01*
X117468035Y-62269500D01*
X117329949Y-62310046D01*
X117329942Y-62310049D01*
X117208873Y-62387855D01*
X117114622Y-62496628D01*
X117054834Y-62627543D01*
X117034353Y-62769997D01*
X117034353Y-62770002D01*
X117054834Y-62912456D01*
X117114623Y-63043373D01*
X117192994Y-63133819D01*
X117216812Y-63190178D01*
X117202953Y-63249774D01*
X117156712Y-63289841D01*
X117117670Y-63297648D01*
X116627690Y-63295149D01*
X116627689Y-63295149D01*
X116627688Y-63295149D01*
X116583470Y-63299731D01*
X116583462Y-63299733D01*
X116530513Y-63311109D01*
X116530499Y-63311112D01*
X116519796Y-63313714D01*
X116439085Y-63356722D01*
X116439081Y-63356725D01*
X116385430Y-63403213D01*
X116367474Y-63420807D01*
X116322826Y-63500626D01*
X116302823Y-63568750D01*
X116294500Y-63626639D01*
X116294500Y-68595500D01*
X116275593Y-68653691D01*
X116226093Y-68689655D01*
X116195500Y-68694500D01*
X114413861Y-68694500D01*
X114406534Y-68694762D01*
X114406522Y-68694762D01*
X114406518Y-68694763D01*
X114406511Y-68694763D01*
X114384959Y-68696303D01*
X114384949Y-68696305D01*
X114314253Y-68714344D01*
X114314249Y-68714345D01*
X114314248Y-68714346D01*
X114295676Y-68722826D01*
X114249660Y-68743837D01*
X114249658Y-68743838D01*
X114227480Y-68755655D01*
X114162153Y-68819654D01*
X114162151Y-68819656D01*
X114162151Y-68819657D01*
X114149666Y-68839082D01*
X114123760Y-68879386D01*
X114111487Y-68901322D01*
X114106646Y-68922533D01*
X114075262Y-68975056D01*
X114019000Y-68999102D01*
X114010129Y-68999500D01*
X113928035Y-68999500D01*
X113789943Y-69040048D01*
X113788838Y-69040553D01*
X113786468Y-69041068D01*
X113783153Y-69042042D01*
X113783083Y-69041804D01*
X113747712Y-69049500D01*
X113452288Y-69049500D01*
X113416916Y-69041804D01*
X113416847Y-69042042D01*
X113413531Y-69041068D01*
X113411162Y-69040553D01*
X113410056Y-69040048D01*
X113271964Y-68999500D01*
X113271961Y-68999500D01*
X113128039Y-68999500D01*
X113128035Y-68999500D01*
X112989943Y-69040048D01*
X112988838Y-69040553D01*
X112986468Y-69041068D01*
X112983153Y-69042042D01*
X112983083Y-69041804D01*
X112947712Y-69049500D01*
X112652288Y-69049500D01*
X112616916Y-69041804D01*
X112616847Y-69042042D01*
X112613531Y-69041068D01*
X112611162Y-69040553D01*
X112610056Y-69040048D01*
X112471964Y-68999500D01*
X112471961Y-68999500D01*
X112392507Y-68999500D01*
X112334316Y-68980593D01*
X112298352Y-68931093D01*
X112295559Y-68920553D01*
X112295403Y-68919797D01*
X112252394Y-68839084D01*
X112205901Y-68785428D01*
X112188308Y-68767473D01*
X112108490Y-68722826D01*
X112079351Y-68714270D01*
X112040366Y-68702823D01*
X111982477Y-68694500D01*
X111982473Y-68694500D01*
X110127408Y-68694500D01*
X110125033Y-68694762D01*
X110082617Y-68699440D01*
X110082615Y-68699441D01*
X110028984Y-68711420D01*
X110017733Y-68714270D01*
X109937503Y-68758174D01*
X109884363Y-68805264D01*
X109884355Y-68805271D01*
X109866610Y-68823049D01*
X109822851Y-68903362D01*
X109822851Y-68903363D01*
X109803608Y-68971700D01*
X109803607Y-68971703D01*
X109795929Y-69029681D01*
X109795929Y-69029683D01*
X109796064Y-69041804D01*
X109803726Y-69731426D01*
X109785466Y-69789823D01*
X109736369Y-69826335D01*
X109732624Y-69827516D01*
X109689947Y-69840047D01*
X109689942Y-69840049D01*
X109568873Y-69917855D01*
X109474622Y-70026628D01*
X109414834Y-70157543D01*
X109394353Y-70299997D01*
X109394353Y-70300002D01*
X109414834Y-70442456D01*
X109458785Y-70538693D01*
X109474623Y-70573373D01*
X109525535Y-70632129D01*
X109568873Y-70682144D01*
X109628040Y-70720168D01*
X109689947Y-70759953D01*
X109745274Y-70776198D01*
X109795781Y-70810733D01*
X109816343Y-70868360D01*
X109816377Y-70870088D01*
X109841189Y-73103087D01*
X109842266Y-73199999D01*
X109842291Y-73202283D01*
X109877813Y-76399277D01*
X109893129Y-77777683D01*
X109893130Y-77777699D01*
X109898056Y-77820182D01*
X109898059Y-77820203D01*
X109909426Y-77871095D01*
X109909447Y-77871183D01*
X109911675Y-77880196D01*
X109911678Y-77880203D01*
X109954686Y-77960915D01*
X109954689Y-77960918D01*
X110001176Y-78014568D01*
X110001180Y-78014572D01*
X110018773Y-78032527D01*
X110098591Y-78077174D01*
X110166712Y-78097176D01*
X110186010Y-78099950D01*
X110224604Y-78105500D01*
X110224608Y-78105500D01*
X117823495Y-78105500D01*
X117823500Y-78105500D01*
X117845559Y-78103128D01*
X117905435Y-78115707D01*
X117946485Y-78161079D01*
X117954763Y-78192932D01*
X117960000Y-78252795D01*
X117960299Y-78253697D01*
X117964649Y-78273316D01*
X117964758Y-78274255D01*
X117990775Y-78345739D01*
X117991247Y-78347097D01*
X118015184Y-78419332D01*
X118015682Y-78420139D01*
X118024437Y-78438222D01*
X118024762Y-78439116D01*
X118024763Y-78439118D01*
X118066581Y-78502701D01*
X118067355Y-78503915D01*
X118107285Y-78568652D01*
X118107286Y-78568653D01*
X118107288Y-78568656D01*
X118107293Y-78568661D01*
X118107957Y-78569326D01*
X118120654Y-78584913D01*
X118121167Y-78585693D01*
X118176500Y-78637897D01*
X118177532Y-78638900D01*
X118445556Y-78906923D01*
X118454963Y-78917809D01*
X118470385Y-78938525D01*
X118470390Y-78938530D01*
X118479134Y-78945867D01*
X118511558Y-78997755D01*
X118514499Y-79021706D01*
X118514499Y-79238276D01*
X118495592Y-79296467D01*
X118446092Y-79332431D01*
X118384906Y-79332431D01*
X118341927Y-79304519D01*
X118289054Y-79245796D01*
X118278704Y-79238276D01*
X118140161Y-79137619D01*
X118140157Y-79137617D01*
X118140154Y-79137615D01*
X117972036Y-79062765D01*
X117972034Y-79062764D01*
X117972031Y-79062763D01*
X117972030Y-79062763D01*
X117925135Y-79052795D01*
X117792019Y-79024500D01*
X117607981Y-79024500D01*
X117510797Y-79045157D01*
X117427969Y-79062763D01*
X117427963Y-79062765D01*
X117259845Y-79137615D01*
X117259842Y-79137617D01*
X117110948Y-79245794D01*
X116987803Y-79382562D01*
X116987803Y-79382563D01*
X116895790Y-79541931D01*
X116895784Y-79541945D01*
X116838916Y-79716965D01*
X116838915Y-79716969D01*
X116838915Y-79716971D01*
X116829048Y-79810849D01*
X116804162Y-79866744D01*
X116751174Y-79897337D01*
X116730591Y-79899500D01*
X108799500Y-79899500D01*
X108741309Y-79880593D01*
X108705345Y-79831093D01*
X108700500Y-79800500D01*
X108700500Y-66300002D01*
X111894353Y-66300002D01*
X111914834Y-66442456D01*
X111973716Y-66571387D01*
X111974623Y-66573373D01*
X112058871Y-66670601D01*
X112068873Y-66682144D01*
X112189942Y-66759950D01*
X112189947Y-66759953D01*
X112296403Y-66791211D01*
X112328035Y-66800499D01*
X112328036Y-66800499D01*
X112328039Y-66800500D01*
X112328041Y-66800500D01*
X112471959Y-66800500D01*
X112471961Y-66800500D01*
X112610053Y-66759953D01*
X112610056Y-66759950D01*
X112611162Y-66759447D01*
X112613531Y-66758931D01*
X112616847Y-66757958D01*
X112616916Y-66758195D01*
X112652288Y-66750500D01*
X112947712Y-66750500D01*
X112983083Y-66758195D01*
X112983153Y-66757958D01*
X112986468Y-66758931D01*
X112988838Y-66759447D01*
X112989943Y-66759951D01*
X112989944Y-66759951D01*
X112989947Y-66759953D01*
X113098818Y-66791920D01*
X113128035Y-66800499D01*
X113128036Y-66800499D01*
X113128039Y-66800500D01*
X113128041Y-66800500D01*
X113271959Y-66800500D01*
X113271961Y-66800500D01*
X113410053Y-66759953D01*
X113410056Y-66759950D01*
X113411162Y-66759447D01*
X113413531Y-66758931D01*
X113416847Y-66757958D01*
X113416916Y-66758195D01*
X113452288Y-66750500D01*
X113779165Y-66750500D01*
X113807054Y-66754509D01*
X113825583Y-66759950D01*
X113934463Y-66791920D01*
X113934464Y-66791920D01*
X113934467Y-66791921D01*
X113934469Y-66791921D01*
X114078387Y-66791921D01*
X114078389Y-66791921D01*
X114216481Y-66751374D01*
X114337556Y-66673564D01*
X114431805Y-66564794D01*
X114491593Y-66433878D01*
X114500796Y-66369871D01*
X114512075Y-66291423D01*
X114512075Y-66291418D01*
X114491593Y-66148964D01*
X114482989Y-66130125D01*
X114431805Y-66018048D01*
X114337556Y-65909278D01*
X114337555Y-65909277D01*
X114337554Y-65909276D01*
X114216485Y-65831470D01*
X114216482Y-65831468D01*
X114216481Y-65831468D01*
X114216478Y-65831467D01*
X114078392Y-65790921D01*
X114078389Y-65790921D01*
X113934467Y-65790921D01*
X113934463Y-65790921D01*
X113796377Y-65831467D01*
X113796369Y-65831471D01*
X113792772Y-65833783D01*
X113739248Y-65849500D01*
X113452288Y-65849500D01*
X113416916Y-65841804D01*
X113416847Y-65842042D01*
X113413531Y-65841068D01*
X113411162Y-65840553D01*
X113410056Y-65840048D01*
X113410049Y-65840046D01*
X113388720Y-65833783D01*
X113271964Y-65799500D01*
X113271961Y-65799500D01*
X113128039Y-65799500D01*
X113128035Y-65799500D01*
X112989943Y-65840048D01*
X112988838Y-65840553D01*
X112986468Y-65841068D01*
X112983153Y-65842042D01*
X112983083Y-65841804D01*
X112947712Y-65849500D01*
X112652288Y-65849500D01*
X112616916Y-65841804D01*
X112616847Y-65842042D01*
X112613531Y-65841068D01*
X112611162Y-65840553D01*
X112610056Y-65840048D01*
X112610049Y-65840046D01*
X112588720Y-65833783D01*
X112471964Y-65799500D01*
X112471961Y-65799500D01*
X112328039Y-65799500D01*
X112328035Y-65799500D01*
X112189949Y-65840046D01*
X112189942Y-65840049D01*
X112068873Y-65917855D01*
X111974622Y-66026628D01*
X111914834Y-66157543D01*
X111894353Y-66299997D01*
X111894353Y-66300002D01*
X108700500Y-66300002D01*
X108700500Y-64500002D01*
X112594353Y-64500002D01*
X112614834Y-64642456D01*
X112674622Y-64773371D01*
X112674623Y-64773373D01*
X112768872Y-64882143D01*
X112768873Y-64882144D01*
X112889942Y-64959950D01*
X112889947Y-64959953D01*
X112996403Y-64991211D01*
X113028035Y-65000499D01*
X113028036Y-65000499D01*
X113028039Y-65000500D01*
X113028041Y-65000500D01*
X113171959Y-65000500D01*
X113171961Y-65000500D01*
X113310053Y-64959953D01*
X113431128Y-64882143D01*
X113525377Y-64773373D01*
X113585165Y-64642457D01*
X113605647Y-64500000D01*
X113585165Y-64357543D01*
X113525377Y-64226627D01*
X113431128Y-64117857D01*
X113431127Y-64117856D01*
X113431126Y-64117855D01*
X113310057Y-64040049D01*
X113310054Y-64040047D01*
X113310053Y-64040047D01*
X113310050Y-64040046D01*
X113171964Y-63999500D01*
X113171961Y-63999500D01*
X113028039Y-63999500D01*
X113028035Y-63999500D01*
X112889949Y-64040046D01*
X112889942Y-64040049D01*
X112768873Y-64117855D01*
X112674622Y-64226628D01*
X112614834Y-64357543D01*
X112594353Y-64499997D01*
X112594353Y-64500002D01*
X108700500Y-64500002D01*
X108700500Y-62800000D01*
X114094353Y-62800000D01*
X114114834Y-62942456D01*
X114174622Y-63073371D01*
X114174623Y-63073373D01*
X114249426Y-63159701D01*
X114268873Y-63182144D01*
X114389942Y-63259950D01*
X114389947Y-63259953D01*
X114491737Y-63289841D01*
X114528035Y-63300499D01*
X114528036Y-63300499D01*
X114528039Y-63300500D01*
X114528041Y-63300500D01*
X114671959Y-63300500D01*
X114671961Y-63300500D01*
X114810053Y-63259953D01*
X114931128Y-63182143D01*
X115025377Y-63073373D01*
X115085165Y-62942457D01*
X115105647Y-62800000D01*
X115101496Y-62771130D01*
X115085165Y-62657543D01*
X115059447Y-62601229D01*
X115050500Y-62560102D01*
X115050500Y-62139897D01*
X115059446Y-62098771D01*
X115085165Y-62042457D01*
X115085165Y-62042455D01*
X115085166Y-62042454D01*
X115105647Y-61900002D01*
X115105647Y-61899997D01*
X115085165Y-61757543D01*
X115059447Y-61701229D01*
X115050500Y-61660102D01*
X115050500Y-61239897D01*
X115059446Y-61198771D01*
X115085165Y-61142457D01*
X115085165Y-61142455D01*
X115085166Y-61142454D01*
X115105647Y-61000002D01*
X115105647Y-60999997D01*
X115085165Y-60857543D01*
X115025377Y-60726628D01*
X115025377Y-60726627D01*
X114931128Y-60617857D01*
X114931127Y-60617856D01*
X114931126Y-60617855D01*
X114810057Y-60540049D01*
X114810054Y-60540047D01*
X114810053Y-60540047D01*
X114810050Y-60540046D01*
X114671964Y-60499500D01*
X114671961Y-60499500D01*
X114528039Y-60499500D01*
X114528035Y-60499500D01*
X114389949Y-60540046D01*
X114389942Y-60540049D01*
X114268873Y-60617855D01*
X114174622Y-60726628D01*
X114114834Y-60857543D01*
X114094353Y-60999997D01*
X114094353Y-61000002D01*
X114114833Y-61142454D01*
X114128286Y-61171911D01*
X114140553Y-61198771D01*
X114149500Y-61239897D01*
X114149500Y-61660102D01*
X114140553Y-61701229D01*
X114114834Y-61757543D01*
X114094353Y-61899997D01*
X114094353Y-61900002D01*
X114114833Y-62042454D01*
X114128286Y-62071911D01*
X114140553Y-62098771D01*
X114149500Y-62139897D01*
X114149500Y-62560102D01*
X114140553Y-62601229D01*
X114114834Y-62657543D01*
X114094353Y-62799997D01*
X114094353Y-62800000D01*
X108700500Y-62800000D01*
X108700500Y-59010002D01*
X117024353Y-59010002D01*
X117044834Y-59152456D01*
X117093699Y-59259453D01*
X117104623Y-59283373D01*
X117167381Y-59355800D01*
X117198873Y-59392144D01*
X117319942Y-59469950D01*
X117319947Y-59469953D01*
X117426403Y-59501211D01*
X117458035Y-59510499D01*
X117458036Y-59510499D01*
X117458039Y-59510500D01*
X117458041Y-59510500D01*
X117601959Y-59510500D01*
X117601961Y-59510500D01*
X117740053Y-59469953D01*
X117861128Y-59392143D01*
X117955377Y-59283373D01*
X118015165Y-59152457D01*
X118035647Y-59010000D01*
X118032115Y-58985436D01*
X118015165Y-58867543D01*
X117984091Y-58799502D01*
X125819353Y-58799502D01*
X125839834Y-58941956D01*
X125899622Y-59072871D01*
X125899623Y-59072873D01*
X125993872Y-59181643D01*
X125993873Y-59181644D01*
X126080549Y-59237347D01*
X126114947Y-59259453D01*
X126196412Y-59283373D01*
X126253035Y-59299999D01*
X126253036Y-59299999D01*
X126253039Y-59300000D01*
X126253041Y-59300000D01*
X126396959Y-59300000D01*
X126396961Y-59300000D01*
X126535053Y-59259453D01*
X126656128Y-59181643D01*
X126750377Y-59072873D01*
X126810165Y-58941957D01*
X126826930Y-58825354D01*
X126830647Y-58799502D01*
X126830647Y-58799497D01*
X126810165Y-58657043D01*
X126808618Y-58653656D01*
X136534392Y-58653656D01*
X136564666Y-58825350D01*
X136633720Y-58985436D01*
X136633721Y-58985438D01*
X136737831Y-59125282D01*
X136737833Y-59125284D01*
X136871383Y-59237347D01*
X136871384Y-59237347D01*
X136871386Y-59237349D01*
X137027185Y-59315594D01*
X137196829Y-59355800D01*
X137196832Y-59355800D01*
X137327433Y-59355800D01*
X137327436Y-59355800D01*
X137457164Y-59340637D01*
X137620993Y-59281008D01*
X137653771Y-59259450D01*
X137766648Y-59185209D01*
X137766648Y-59185208D01*
X137766654Y-59185205D01*
X137886296Y-59058393D01*
X137973467Y-58907407D01*
X138023469Y-58740388D01*
X138028521Y-58653656D01*
X138566392Y-58653656D01*
X138596666Y-58825350D01*
X138665720Y-58985436D01*
X138665721Y-58985438D01*
X138769831Y-59125282D01*
X138769833Y-59125284D01*
X138903383Y-59237347D01*
X138903384Y-59237347D01*
X138903386Y-59237349D01*
X139059185Y-59315594D01*
X139228829Y-59355800D01*
X139228832Y-59355800D01*
X139359433Y-59355800D01*
X139359436Y-59355800D01*
X139489164Y-59340637D01*
X139652993Y-59281008D01*
X139685771Y-59259450D01*
X139798648Y-59185209D01*
X139798648Y-59185208D01*
X139798654Y-59185205D01*
X139918296Y-59058393D01*
X140005467Y-58907407D01*
X140055469Y-58740388D01*
X140065607Y-58566340D01*
X140050314Y-58479612D01*
X140035333Y-58394649D01*
X140035332Y-58394646D01*
X139966279Y-58234562D01*
X139862168Y-58094717D01*
X139833099Y-58070325D01*
X139800677Y-58018437D01*
X139804946Y-57957401D01*
X139844276Y-57910531D01*
X139903644Y-57895729D01*
X139924633Y-57899500D01*
X139928034Y-57900499D01*
X139928037Y-57900499D01*
X139928039Y-57900500D01*
X139928041Y-57900500D01*
X140071959Y-57900500D01*
X140071961Y-57900500D01*
X140210053Y-57859953D01*
X140331128Y-57782143D01*
X140425377Y-57673373D01*
X140485165Y-57542457D01*
X140505647Y-57400000D01*
X140502764Y-57379950D01*
X140485165Y-57257543D01*
X140425377Y-57126628D01*
X140425377Y-57126627D01*
X140331128Y-57017857D01*
X140331127Y-57017856D01*
X140331126Y-57017855D01*
X140210057Y-56940049D01*
X140210054Y-56940047D01*
X140210053Y-56940047D01*
X140210050Y-56940046D01*
X140071964Y-56899500D01*
X140071961Y-56899500D01*
X139928039Y-56899500D01*
X139928035Y-56899500D01*
X139789949Y-56940046D01*
X139789942Y-56940049D01*
X139668873Y-57017855D01*
X139574622Y-57126628D01*
X139514834Y-57257543D01*
X139494353Y-57399997D01*
X139494353Y-57400002D01*
X139514834Y-57542456D01*
X139574622Y-57673371D01*
X139574623Y-57673373D01*
X139626043Y-57732715D01*
X139649860Y-57789075D01*
X139636001Y-57848670D01*
X139589760Y-57888738D01*
X139528799Y-57893973D01*
X139528393Y-57893878D01*
X139403171Y-57864200D01*
X139272564Y-57864200D01*
X139207699Y-57871781D01*
X139142833Y-57879363D01*
X139142828Y-57879365D01*
X138979008Y-57938991D01*
X138978998Y-57938996D01*
X138833351Y-58034790D01*
X138833345Y-58034795D01*
X138713705Y-58161605D01*
X138713704Y-58161605D01*
X138626533Y-58312592D01*
X138576531Y-58479608D01*
X138576530Y-58479616D01*
X138566392Y-58653656D01*
X138028521Y-58653656D01*
X138033607Y-58566340D01*
X138018314Y-58479612D01*
X138003333Y-58394649D01*
X138003332Y-58394646D01*
X137934279Y-58234562D01*
X137830168Y-58094717D01*
X137830166Y-58094715D01*
X137696616Y-57982652D01*
X137540816Y-57904406D01*
X137496393Y-57893878D01*
X137371171Y-57864200D01*
X137240564Y-57864200D01*
X137175699Y-57871781D01*
X137110833Y-57879363D01*
X137110828Y-57879365D01*
X136947008Y-57938991D01*
X136946998Y-57938996D01*
X136801351Y-58034790D01*
X136801345Y-58034795D01*
X136681705Y-58161605D01*
X136681704Y-58161605D01*
X136594533Y-58312592D01*
X136544531Y-58479608D01*
X136544530Y-58479616D01*
X136534392Y-58653656D01*
X126808618Y-58653656D01*
X126761301Y-58550047D01*
X126750377Y-58526127D01*
X126656128Y-58417357D01*
X126656127Y-58417356D01*
X126656126Y-58417355D01*
X126535057Y-58339549D01*
X126535054Y-58339547D01*
X126535053Y-58339547D01*
X126535050Y-58339546D01*
X126396964Y-58299000D01*
X126396961Y-58299000D01*
X126253039Y-58299000D01*
X126253035Y-58299000D01*
X126114949Y-58339546D01*
X126114942Y-58339549D01*
X125993873Y-58417355D01*
X125899622Y-58526128D01*
X125839834Y-58657043D01*
X125819353Y-58799497D01*
X125819353Y-58799502D01*
X117984091Y-58799502D01*
X117957096Y-58740391D01*
X117955377Y-58736627D01*
X117861128Y-58627857D01*
X117861127Y-58627856D01*
X117861126Y-58627855D01*
X117740057Y-58550049D01*
X117740054Y-58550047D01*
X117740053Y-58550047D01*
X117740050Y-58550046D01*
X117601964Y-58509500D01*
X117601961Y-58509500D01*
X117458039Y-58509500D01*
X117458035Y-58509500D01*
X117319949Y-58550046D01*
X117319942Y-58550049D01*
X117198873Y-58627855D01*
X117104622Y-58736628D01*
X117044834Y-58867543D01*
X117024353Y-59009997D01*
X117024353Y-59010002D01*
X108700500Y-59010002D01*
X108700500Y-56920002D01*
X123554353Y-56920002D01*
X123574834Y-57062456D01*
X123604141Y-57126628D01*
X123634623Y-57193373D01*
X123728872Y-57302143D01*
X123728873Y-57302144D01*
X123849942Y-57379950D01*
X123849947Y-57379953D01*
X123956403Y-57411211D01*
X123988035Y-57420499D01*
X123988036Y-57420499D01*
X123988039Y-57420500D01*
X123988041Y-57420500D01*
X124131959Y-57420500D01*
X124131961Y-57420500D01*
X124270053Y-57379953D01*
X124391128Y-57302143D01*
X124485377Y-57193373D01*
X124545165Y-57062457D01*
X124551992Y-57014971D01*
X124565647Y-56920002D01*
X124565647Y-56919997D01*
X124545165Y-56777543D01*
X124509744Y-56699983D01*
X124485377Y-56646627D01*
X124391128Y-56537857D01*
X124391127Y-56537856D01*
X124391126Y-56537855D01*
X124270057Y-56460049D01*
X124270054Y-56460047D01*
X124270053Y-56460047D01*
X124258157Y-56456554D01*
X124131964Y-56419500D01*
X124131961Y-56419500D01*
X123988039Y-56419500D01*
X123988035Y-56419500D01*
X123849949Y-56460046D01*
X123849942Y-56460049D01*
X123728873Y-56537855D01*
X123634622Y-56646628D01*
X123574834Y-56777543D01*
X123554353Y-56919997D01*
X123554353Y-56920002D01*
X108700500Y-56920002D01*
X108700500Y-56175502D01*
X130119353Y-56175502D01*
X130139834Y-56317956D01*
X130199622Y-56448871D01*
X130199623Y-56448873D01*
X130292516Y-56556078D01*
X130293873Y-56557644D01*
X130363778Y-56602569D01*
X130414947Y-56635453D01*
X130521403Y-56666711D01*
X130553035Y-56675999D01*
X130553036Y-56675999D01*
X130553039Y-56676000D01*
X130553041Y-56676000D01*
X130696959Y-56676000D01*
X130696961Y-56676000D01*
X130835053Y-56635453D01*
X130956128Y-56557643D01*
X131050377Y-56448873D01*
X131110165Y-56317957D01*
X131130647Y-56175500D01*
X131130647Y-56175497D01*
X131110166Y-56033045D01*
X131090179Y-55989280D01*
X131083205Y-55928494D01*
X131113292Y-55875217D01*
X131129530Y-55864454D01*
X131129097Y-55863781D01*
X131196247Y-55820625D01*
X131256128Y-55782143D01*
X131350377Y-55673373D01*
X131410165Y-55542457D01*
X131430647Y-55400000D01*
X131429928Y-55395002D01*
X142169353Y-55395002D01*
X142189834Y-55537456D01*
X142218398Y-55600001D01*
X142249623Y-55668373D01*
X142343872Y-55777143D01*
X142343873Y-55777144D01*
X142464942Y-55854950D01*
X142464947Y-55854953D01*
X142533961Y-55875217D01*
X142603035Y-55895499D01*
X142603036Y-55895499D01*
X142603039Y-55895500D01*
X142603041Y-55895500D01*
X142746959Y-55895500D01*
X142746961Y-55895500D01*
X142885053Y-55854953D01*
X143006128Y-55777143D01*
X143100377Y-55668373D01*
X143160165Y-55537457D01*
X143180647Y-55395000D01*
X143160165Y-55252543D01*
X143100377Y-55121627D01*
X143006128Y-55012857D01*
X143006127Y-55012856D01*
X143006126Y-55012855D01*
X142885057Y-54935049D01*
X142885054Y-54935047D01*
X142885053Y-54935047D01*
X142885050Y-54935046D01*
X142746964Y-54894500D01*
X142746961Y-54894500D01*
X142603039Y-54894500D01*
X142603035Y-54894500D01*
X142464949Y-54935046D01*
X142464942Y-54935049D01*
X142343873Y-55012855D01*
X142249622Y-55121628D01*
X142189834Y-55252543D01*
X142169353Y-55394997D01*
X142169353Y-55395002D01*
X131429928Y-55395002D01*
X131410165Y-55257543D01*
X131375731Y-55182144D01*
X131350377Y-55126627D01*
X131256128Y-55017857D01*
X131256127Y-55017856D01*
X131256126Y-55017855D01*
X131135057Y-54940049D01*
X131135054Y-54940047D01*
X131135053Y-54940047D01*
X131135050Y-54940046D01*
X130996964Y-54899500D01*
X130996961Y-54899500D01*
X130853039Y-54899500D01*
X130853035Y-54899500D01*
X130714949Y-54940046D01*
X130714942Y-54940049D01*
X130593873Y-55017855D01*
X130499622Y-55126628D01*
X130439834Y-55257543D01*
X130419353Y-55399997D01*
X130419353Y-55400002D01*
X130439833Y-55542454D01*
X130459820Y-55586218D01*
X130466794Y-55647005D01*
X130436707Y-55700281D01*
X130420473Y-55711050D01*
X130420903Y-55711719D01*
X130293873Y-55793355D01*
X130199622Y-55902128D01*
X130139834Y-56033043D01*
X130119353Y-56175497D01*
X130119353Y-56175502D01*
X108700500Y-56175502D01*
X108700500Y-54800002D01*
X139494353Y-54800002D01*
X139514834Y-54942456D01*
X139546985Y-55012855D01*
X139574623Y-55073373D01*
X139668872Y-55182143D01*
X139668873Y-55182144D01*
X139786197Y-55257543D01*
X139789947Y-55259953D01*
X139896403Y-55291211D01*
X139928035Y-55300499D01*
X139928036Y-55300499D01*
X139928039Y-55300500D01*
X139928041Y-55300500D01*
X140071959Y-55300500D01*
X140071961Y-55300500D01*
X140210053Y-55259953D01*
X140331128Y-55182143D01*
X140425377Y-55073373D01*
X140485165Y-54942457D01*
X140505647Y-54800000D01*
X140485165Y-54657543D01*
X140425377Y-54526627D01*
X140331128Y-54417857D01*
X140331127Y-54417856D01*
X140331126Y-54417855D01*
X140210057Y-54340049D01*
X140210054Y-54340047D01*
X140210053Y-54340047D01*
X140210050Y-54340046D01*
X140071964Y-54299500D01*
X140071961Y-54299500D01*
X139928039Y-54299500D01*
X139928035Y-54299500D01*
X139789949Y-54340046D01*
X139789942Y-54340049D01*
X139668873Y-54417855D01*
X139574622Y-54526628D01*
X139514834Y-54657543D01*
X139494353Y-54799997D01*
X139494353Y-54800002D01*
X108700500Y-54800002D01*
X108700500Y-54100002D01*
X130264353Y-54100002D01*
X130284834Y-54242456D01*
X130310886Y-54299500D01*
X130344623Y-54373373D01*
X130438872Y-54482143D01*
X130438873Y-54482144D01*
X130508092Y-54526628D01*
X130559947Y-54559953D01*
X130666403Y-54591211D01*
X130698035Y-54600499D01*
X130698036Y-54600499D01*
X130698039Y-54600500D01*
X130698041Y-54600500D01*
X130841959Y-54600500D01*
X130841961Y-54600500D01*
X130980053Y-54559953D01*
X131101128Y-54482143D01*
X131195377Y-54373373D01*
X131255165Y-54242457D01*
X131275647Y-54100000D01*
X131255165Y-53957543D01*
X131195377Y-53826627D01*
X131101128Y-53717857D01*
X131101127Y-53717856D01*
X131101126Y-53717855D01*
X130980057Y-53640049D01*
X130980054Y-53640047D01*
X130980053Y-53640047D01*
X130980050Y-53640046D01*
X130841964Y-53599500D01*
X130841961Y-53599500D01*
X130698039Y-53599500D01*
X130698035Y-53599500D01*
X130559949Y-53640046D01*
X130559942Y-53640049D01*
X130438873Y-53717855D01*
X130344622Y-53826628D01*
X130284834Y-53957543D01*
X130264353Y-54099997D01*
X130264353Y-54100002D01*
X108700500Y-54100002D01*
X108700500Y-53499500D01*
X108719407Y-53441309D01*
X108768907Y-53405345D01*
X108799500Y-53400500D01*
X110303244Y-53400500D01*
X110345440Y-53400935D01*
X110484401Y-53402371D01*
X110706064Y-53383789D01*
X110708172Y-53383658D01*
X110760668Y-53381557D01*
X110775084Y-53378003D01*
X110851943Y-53371560D01*
X111106279Y-53325865D01*
X111108037Y-53325584D01*
X111144258Y-53320450D01*
X111152477Y-53317566D01*
X111214962Y-53306340D01*
X111508200Y-53224584D01*
X111509627Y-53224210D01*
X111520238Y-53221594D01*
X111522228Y-53220673D01*
X111570243Y-53207287D01*
X111589249Y-53200002D01*
X118994853Y-53200002D01*
X119015334Y-53342456D01*
X119044055Y-53405345D01*
X119075123Y-53473373D01*
X119104385Y-53507143D01*
X119169373Y-53582144D01*
X119290442Y-53659950D01*
X119290447Y-53659953D01*
X119396903Y-53691211D01*
X119428535Y-53700499D01*
X119428536Y-53700499D01*
X119428539Y-53700500D01*
X119428541Y-53700500D01*
X119572459Y-53700500D01*
X119572461Y-53700500D01*
X119710553Y-53659953D01*
X119831628Y-53582143D01*
X119925877Y-53473373D01*
X119985665Y-53342457D01*
X120002606Y-53224628D01*
X120006147Y-53200002D01*
X120006147Y-53199997D01*
X119995364Y-53125002D01*
X122469353Y-53125002D01*
X122489834Y-53267456D01*
X122543973Y-53386001D01*
X122549623Y-53398373D01*
X122643872Y-53507143D01*
X122643873Y-53507144D01*
X122760576Y-53582144D01*
X122764947Y-53584953D01*
X122871403Y-53616211D01*
X122903035Y-53625499D01*
X122903036Y-53625499D01*
X122903039Y-53625500D01*
X122903041Y-53625500D01*
X123046959Y-53625500D01*
X123046961Y-53625500D01*
X123185053Y-53584953D01*
X123306128Y-53507143D01*
X123312316Y-53500002D01*
X136094353Y-53500002D01*
X136114834Y-53642456D01*
X136149268Y-53717855D01*
X136174623Y-53773373D01*
X136268872Y-53882143D01*
X136268873Y-53882144D01*
X136386197Y-53957543D01*
X136389947Y-53959953D01*
X136496403Y-53991211D01*
X136528035Y-54000499D01*
X136528036Y-54000499D01*
X136528039Y-54000500D01*
X136528041Y-54000500D01*
X136671959Y-54000500D01*
X136671961Y-54000500D01*
X136810053Y-53959953D01*
X136931128Y-53882143D01*
X137025377Y-53773373D01*
X137085165Y-53642457D01*
X137105647Y-53500000D01*
X137105575Y-53499500D01*
X137085165Y-53357543D01*
X137061781Y-53306340D01*
X137025377Y-53226627D01*
X136931128Y-53117857D01*
X136931127Y-53117856D01*
X136931126Y-53117855D01*
X136810057Y-53040049D01*
X136810054Y-53040047D01*
X136810053Y-53040047D01*
X136810050Y-53040046D01*
X136671964Y-52999500D01*
X136671961Y-52999500D01*
X136528039Y-52999500D01*
X136528035Y-52999500D01*
X136389949Y-53040046D01*
X136389942Y-53040049D01*
X136268873Y-53117855D01*
X136174622Y-53226628D01*
X136114834Y-53357543D01*
X136094353Y-53499997D01*
X136094353Y-53500002D01*
X123312316Y-53500002D01*
X123400377Y-53398373D01*
X123460165Y-53267457D01*
X123468816Y-53207287D01*
X123480647Y-53125002D01*
X123480647Y-53124997D01*
X123460165Y-52982543D01*
X123459232Y-52980499D01*
X123400377Y-52851627D01*
X123306128Y-52742857D01*
X123306127Y-52742856D01*
X123306126Y-52742855D01*
X123185057Y-52665049D01*
X123185054Y-52665047D01*
X123185053Y-52665047D01*
X123185050Y-52665046D01*
X123046964Y-52624500D01*
X123046961Y-52624500D01*
X122903039Y-52624500D01*
X122903035Y-52624500D01*
X122764949Y-52665046D01*
X122764942Y-52665049D01*
X122643873Y-52742855D01*
X122549622Y-52851628D01*
X122489834Y-52982543D01*
X122469353Y-53124997D01*
X122469353Y-53125002D01*
X119995364Y-53125002D01*
X119985665Y-53057543D01*
X119950480Y-52980499D01*
X119925877Y-52926627D01*
X119831628Y-52817857D01*
X119831627Y-52817856D01*
X119831626Y-52817855D01*
X119710557Y-52740049D01*
X119710554Y-52740047D01*
X119710553Y-52740047D01*
X119710550Y-52740046D01*
X119572464Y-52699500D01*
X119572461Y-52699500D01*
X119428539Y-52699500D01*
X119428535Y-52699500D01*
X119290449Y-52740046D01*
X119290442Y-52740049D01*
X119169373Y-52817855D01*
X119075122Y-52926628D01*
X119015334Y-53057543D01*
X118994853Y-53199997D01*
X118994853Y-53200002D01*
X111589249Y-53200002D01*
X111914642Y-53075278D01*
X112245107Y-52911483D01*
X112558715Y-52717352D01*
X112852687Y-52494604D01*
X112868597Y-52480002D01*
X127114353Y-52480002D01*
X127134834Y-52622456D01*
X127189820Y-52742857D01*
X127194623Y-52753373D01*
X127279760Y-52851627D01*
X127288873Y-52862144D01*
X127409942Y-52939950D01*
X127409947Y-52939953D01*
X127516403Y-52971211D01*
X127548035Y-52980499D01*
X127548036Y-52980499D01*
X127548039Y-52980500D01*
X127548041Y-52980500D01*
X127691959Y-52980500D01*
X127691961Y-52980500D01*
X127830053Y-52939953D01*
X127951128Y-52862143D01*
X128045377Y-52753373D01*
X128105165Y-52622457D01*
X128123547Y-52494607D01*
X128125647Y-52480002D01*
X128125647Y-52479997D01*
X128105165Y-52337543D01*
X128088019Y-52300000D01*
X139494353Y-52300000D01*
X139514834Y-52442456D01*
X139538661Y-52494628D01*
X139574623Y-52573373D01*
X139654060Y-52665049D01*
X139668873Y-52682144D01*
X139763342Y-52742855D01*
X139789947Y-52759953D01*
X139896403Y-52791211D01*
X139928035Y-52800499D01*
X139928036Y-52800499D01*
X139928039Y-52800500D01*
X139928041Y-52800500D01*
X140071959Y-52800500D01*
X140071961Y-52800500D01*
X140210053Y-52759953D01*
X140331128Y-52682143D01*
X140425377Y-52573373D01*
X140485165Y-52442457D01*
X140505647Y-52300000D01*
X140503483Y-52284950D01*
X140485165Y-52157543D01*
X140485164Y-52157543D01*
X140425377Y-52026627D01*
X140331128Y-51917857D01*
X140331127Y-51917856D01*
X140331126Y-51917855D01*
X140210057Y-51840049D01*
X140210054Y-51840047D01*
X140210053Y-51840047D01*
X140210050Y-51840046D01*
X140158815Y-51825002D01*
X143819353Y-51825002D01*
X143839834Y-51967456D01*
X143892439Y-52082643D01*
X143899623Y-52098373D01*
X143988548Y-52200999D01*
X143993873Y-52207144D01*
X144053138Y-52245231D01*
X144114947Y-52284953D01*
X144221403Y-52316211D01*
X144253035Y-52325499D01*
X144253036Y-52325499D01*
X144253039Y-52325500D01*
X144253041Y-52325500D01*
X144396959Y-52325500D01*
X144396961Y-52325500D01*
X144535053Y-52284953D01*
X144656128Y-52207143D01*
X144750377Y-52098373D01*
X144810165Y-51967457D01*
X144828065Y-51842957D01*
X144830647Y-51825002D01*
X144830647Y-51824997D01*
X144810165Y-51682543D01*
X144791858Y-51642456D01*
X144750377Y-51551627D01*
X144656128Y-51442857D01*
X144656127Y-51442856D01*
X144656126Y-51442855D01*
X144535057Y-51365049D01*
X144535054Y-51365047D01*
X144535053Y-51365047D01*
X144535050Y-51365046D01*
X144396964Y-51324500D01*
X144396961Y-51324500D01*
X144253039Y-51324500D01*
X144253035Y-51324500D01*
X144114949Y-51365046D01*
X144114942Y-51365049D01*
X143993873Y-51442855D01*
X143899622Y-51551628D01*
X143839834Y-51682543D01*
X143819353Y-51824997D01*
X143819353Y-51825002D01*
X140158815Y-51825002D01*
X140071964Y-51799500D01*
X140071961Y-51799500D01*
X139928039Y-51799500D01*
X139928035Y-51799500D01*
X139789949Y-51840046D01*
X139789942Y-51840049D01*
X139668873Y-51917855D01*
X139574622Y-52026628D01*
X139514834Y-52157543D01*
X139494353Y-52299997D01*
X139494353Y-52300000D01*
X128088019Y-52300000D01*
X128062997Y-52245210D01*
X128045377Y-52206627D01*
X127951128Y-52097857D01*
X127951127Y-52097856D01*
X127951126Y-52097855D01*
X127830057Y-52020049D01*
X127830054Y-52020047D01*
X127830053Y-52020047D01*
X127830050Y-52020046D01*
X127691964Y-51979500D01*
X127691961Y-51979500D01*
X127548039Y-51979500D01*
X127548035Y-51979500D01*
X127409949Y-52020046D01*
X127409942Y-52020049D01*
X127288873Y-52097855D01*
X127194622Y-52206628D01*
X127134834Y-52337543D01*
X127114353Y-52479997D01*
X127114353Y-52480002D01*
X112868597Y-52480002D01*
X113124420Y-52245210D01*
X113371510Y-51971380D01*
X113591768Y-51675537D01*
X113734832Y-51440002D01*
X119594353Y-51440002D01*
X119614834Y-51582456D01*
X119668743Y-51700497D01*
X119674623Y-51713373D01*
X119726613Y-51773373D01*
X119768873Y-51822144D01*
X119889942Y-51899950D01*
X119889947Y-51899953D01*
X119996403Y-51931211D01*
X120028035Y-51940499D01*
X120028036Y-51940499D01*
X120028039Y-51940500D01*
X120028041Y-51940500D01*
X120171959Y-51940500D01*
X120171961Y-51940500D01*
X120310053Y-51899953D01*
X120431128Y-51822143D01*
X120525377Y-51713373D01*
X120531256Y-51700500D01*
X129944353Y-51700500D01*
X129964834Y-51842956D01*
X130018266Y-51959953D01*
X130024623Y-51973873D01*
X130118872Y-52082643D01*
X130118873Y-52082644D01*
X130235419Y-52157543D01*
X130239947Y-52160453D01*
X130346403Y-52191711D01*
X130378035Y-52200999D01*
X130378036Y-52200999D01*
X130378039Y-52201000D01*
X130378041Y-52201000D01*
X130521959Y-52201000D01*
X130521961Y-52201000D01*
X130660053Y-52160453D01*
X130781128Y-52082643D01*
X130875377Y-51973873D01*
X130935165Y-51842957D01*
X130955647Y-51700500D01*
X130954941Y-51695593D01*
X130935165Y-51558043D01*
X130916619Y-51517433D01*
X130908658Y-51500002D01*
X136394353Y-51500002D01*
X136414834Y-51642456D01*
X136450539Y-51720637D01*
X136474623Y-51773373D01*
X136568872Y-51882143D01*
X136568873Y-51882144D01*
X136624441Y-51917855D01*
X136689947Y-51959953D01*
X136756519Y-51979500D01*
X136828035Y-52000499D01*
X136828036Y-52000499D01*
X136828039Y-52000500D01*
X136828041Y-52000500D01*
X136971959Y-52000500D01*
X136971961Y-52000500D01*
X137110053Y-51959953D01*
X137231128Y-51882143D01*
X137325377Y-51773373D01*
X137385165Y-51642457D01*
X137393792Y-51582456D01*
X137405647Y-51500002D01*
X137405647Y-51499997D01*
X137385165Y-51357543D01*
X137385164Y-51357542D01*
X137325377Y-51226627D01*
X137231128Y-51117857D01*
X137231127Y-51117856D01*
X137231126Y-51117855D01*
X137110057Y-51040049D01*
X137110054Y-51040047D01*
X137110053Y-51040047D01*
X137088301Y-51033660D01*
X137088287Y-51033656D01*
X137550392Y-51033656D01*
X137580666Y-51205350D01*
X137649720Y-51365436D01*
X137649721Y-51365438D01*
X137753831Y-51505282D01*
X137753833Y-51505284D01*
X137887383Y-51617347D01*
X137887384Y-51617347D01*
X137887386Y-51617349D01*
X138043185Y-51695594D01*
X138212829Y-51735800D01*
X138212832Y-51735800D01*
X138343433Y-51735800D01*
X138343436Y-51735800D01*
X138473164Y-51720637D01*
X138636993Y-51661008D01*
X138665199Y-51642457D01*
X138782648Y-51565209D01*
X138782648Y-51565208D01*
X138782654Y-51565205D01*
X138902296Y-51438393D01*
X138989467Y-51287407D01*
X139039469Y-51120388D01*
X139047644Y-50980046D01*
X139049607Y-50946343D01*
X139049607Y-50946340D01*
X139019333Y-50774649D01*
X138983938Y-50692593D01*
X138950279Y-50614562D01*
X138846168Y-50474717D01*
X138846166Y-50474715D01*
X138712616Y-50362652D01*
X138556816Y-50284406D01*
X138514404Y-50274354D01*
X138387171Y-50244200D01*
X138256564Y-50244200D01*
X138191699Y-50251781D01*
X138126833Y-50259363D01*
X138126828Y-50259365D01*
X137963008Y-50318991D01*
X137962998Y-50318996D01*
X137817351Y-50414790D01*
X137817345Y-50414795D01*
X137697705Y-50541605D01*
X137697704Y-50541605D01*
X137610533Y-50692592D01*
X137560531Y-50859608D01*
X137560530Y-50859616D01*
X137550392Y-51033656D01*
X137088287Y-51033656D01*
X136971964Y-50999500D01*
X136971961Y-50999500D01*
X136828039Y-50999500D01*
X136828035Y-50999500D01*
X136689949Y-51040046D01*
X136689942Y-51040049D01*
X136568873Y-51117855D01*
X136474622Y-51226628D01*
X136414834Y-51357543D01*
X136394353Y-51499997D01*
X136394353Y-51500002D01*
X130908658Y-51500002D01*
X130875377Y-51427127D01*
X130781128Y-51318357D01*
X130781127Y-51318356D01*
X130781126Y-51318355D01*
X130660057Y-51240549D01*
X130660054Y-51240547D01*
X130660053Y-51240547D01*
X130660050Y-51240546D01*
X130521964Y-51200000D01*
X130521961Y-51200000D01*
X130378039Y-51200000D01*
X130378035Y-51200000D01*
X130239949Y-51240546D01*
X130239942Y-51240549D01*
X130118873Y-51318355D01*
X130024622Y-51427128D01*
X129964834Y-51558043D01*
X129944353Y-51700497D01*
X129944353Y-51700500D01*
X120531256Y-51700500D01*
X120585165Y-51582457D01*
X120597020Y-51500002D01*
X120605647Y-51440002D01*
X120605647Y-51439997D01*
X120585165Y-51297543D01*
X120559136Y-51240549D01*
X120525377Y-51166627D01*
X120431128Y-51057857D01*
X120431127Y-51057856D01*
X120431126Y-51057855D01*
X120310057Y-50980049D01*
X120310054Y-50980047D01*
X120310053Y-50980047D01*
X120310050Y-50980046D01*
X120171964Y-50939500D01*
X120171961Y-50939500D01*
X120028039Y-50939500D01*
X120028035Y-50939500D01*
X119889949Y-50980046D01*
X119889942Y-50980049D01*
X119768873Y-51057855D01*
X119674622Y-51166628D01*
X119614834Y-51297543D01*
X119594353Y-51439997D01*
X119594353Y-51440002D01*
X113734832Y-51440002D01*
X113783243Y-51360301D01*
X113805000Y-51315456D01*
X113805860Y-51314561D01*
X113810743Y-51303670D01*
X113811337Y-51302394D01*
X113944241Y-51028464D01*
X113966465Y-50968984D01*
X113969549Y-50965105D01*
X113982311Y-50926668D01*
X113982904Y-50924986D01*
X114073336Y-50682963D01*
X114093415Y-50608517D01*
X114098064Y-50601383D01*
X114110958Y-50543654D01*
X114111468Y-50541585D01*
X114169384Y-50326857D01*
X114200282Y-50146299D01*
X114200633Y-50144463D01*
X114201680Y-50139505D01*
X114201912Y-50136770D01*
X114204019Y-50124425D01*
X114200500Y-50113263D01*
X114200500Y-47999500D01*
X114219407Y-47941309D01*
X114268907Y-47905345D01*
X114299500Y-47900500D01*
X153100500Y-47900500D01*
X153158691Y-47919407D01*
G37*
%TD.AperFunction*%
%TA.AperFunction,Conductor*%
G36*
X123566071Y-77679010D02*
G01*
X123620149Y-77694888D01*
X123645780Y-77706592D01*
X123693194Y-77737063D01*
X123714487Y-77755514D01*
X123751400Y-77798113D01*
X123766634Y-77821818D01*
X123807686Y-77911708D01*
X123807695Y-77911725D01*
X123839303Y-77960906D01*
X123839312Y-77960919D01*
X123866291Y-77992054D01*
X123885802Y-78014571D01*
X123903395Y-78032527D01*
X123983213Y-78077174D01*
X124051334Y-78097176D01*
X124070632Y-78099950D01*
X124109226Y-78105500D01*
X124109230Y-78105500D01*
X124819196Y-78105500D01*
X124819221Y-78105500D01*
X124826555Y-78105238D01*
X124826967Y-78105208D01*
X124828123Y-78105126D01*
X124831656Y-78105000D01*
X124968344Y-78105000D01*
X124971877Y-78105126D01*
X124973431Y-78105237D01*
X124973445Y-78105238D01*
X124980779Y-78105500D01*
X124980804Y-78105500D01*
X125160143Y-78105500D01*
X125198734Y-78099951D01*
X125218032Y-78097177D01*
X125286150Y-78077177D01*
X125309792Y-78068633D01*
X125383562Y-78014576D01*
X125402948Y-77992202D01*
X125403194Y-77992054D01*
X125429930Y-77961199D01*
X125495509Y-77885515D01*
X125516800Y-77867065D01*
X125564220Y-77836590D01*
X125589841Y-77824889D01*
X125643933Y-77809008D01*
X125671817Y-77805000D01*
X125728181Y-77805000D01*
X125756071Y-77809010D01*
X125810149Y-77824888D01*
X125835782Y-77836594D01*
X125883193Y-77867063D01*
X125904489Y-77885516D01*
X125973729Y-77965424D01*
X125974694Y-77966572D01*
X125986511Y-77981075D01*
X125987147Y-77981631D01*
X125991978Y-77986483D01*
X125996379Y-77991563D01*
X125997145Y-77992313D01*
X126016413Y-78014548D01*
X126016435Y-78014573D01*
X126034026Y-78032527D01*
X126113844Y-78077174D01*
X126181965Y-78097176D01*
X126201263Y-78099950D01*
X126239857Y-78105500D01*
X126239861Y-78105500D01*
X126419196Y-78105500D01*
X126419221Y-78105500D01*
X126426555Y-78105238D01*
X126426967Y-78105208D01*
X126428123Y-78105126D01*
X126431656Y-78105000D01*
X126568344Y-78105000D01*
X126571877Y-78105126D01*
X126573431Y-78105237D01*
X126573445Y-78105238D01*
X126580779Y-78105500D01*
X126580804Y-78105500D01*
X129168495Y-78105500D01*
X129168500Y-78105500D01*
X129212181Y-78100804D01*
X129263353Y-78089672D01*
X129324229Y-78095777D01*
X129369894Y-78136500D01*
X129371284Y-78138961D01*
X129373877Y-78143709D01*
X129393241Y-78179170D01*
X129456211Y-78263286D01*
X129479464Y-78294347D01*
X130091554Y-78906437D01*
X130119331Y-78960954D01*
X130109760Y-79021386D01*
X130066495Y-79064651D01*
X130006063Y-79074222D01*
X129981285Y-79066883D01*
X129972036Y-79062765D01*
X129972034Y-79062764D01*
X129972031Y-79062763D01*
X129972030Y-79062763D01*
X129925135Y-79052795D01*
X129792019Y-79024500D01*
X129607981Y-79024500D01*
X129510797Y-79045157D01*
X129427969Y-79062763D01*
X129427963Y-79062765D01*
X129259845Y-79137615D01*
X129259842Y-79137617D01*
X129110948Y-79245794D01*
X128987803Y-79382562D01*
X128987803Y-79382563D01*
X128895790Y-79541931D01*
X128895784Y-79541945D01*
X128838916Y-79716965D01*
X128838915Y-79716969D01*
X128838915Y-79716971D01*
X128829048Y-79810849D01*
X128804162Y-79866744D01*
X128751174Y-79897337D01*
X128730591Y-79899500D01*
X128669409Y-79899500D01*
X128611218Y-79880593D01*
X128575254Y-79831093D01*
X128570952Y-79810853D01*
X128561085Y-79716971D01*
X128504214Y-79541941D01*
X128504211Y-79541936D01*
X128504209Y-79541931D01*
X128456935Y-79460052D01*
X128412195Y-79382560D01*
X128289050Y-79245793D01*
X128140161Y-79137619D01*
X128140157Y-79137617D01*
X128140154Y-79137615D01*
X127972036Y-79062765D01*
X127972034Y-79062764D01*
X127972031Y-79062763D01*
X127972030Y-79062763D01*
X127925135Y-79052795D01*
X127792019Y-79024500D01*
X127607981Y-79024500D01*
X127510797Y-79045157D01*
X127427969Y-79062763D01*
X127427963Y-79062765D01*
X127259845Y-79137615D01*
X127259842Y-79137617D01*
X127110948Y-79245794D01*
X127058073Y-79304519D01*
X126987805Y-79382560D01*
X126965469Y-79421245D01*
X126959760Y-79431135D01*
X126914289Y-79472075D01*
X126853439Y-79478469D01*
X126800451Y-79447876D01*
X126785403Y-79425761D01*
X126710119Y-79274570D01*
X126710114Y-79274561D01*
X126577991Y-79099603D01*
X126415970Y-78951901D01*
X126229565Y-78836485D01*
X126025130Y-78757286D01*
X126025124Y-78757284D01*
X125954000Y-78743989D01*
X125954000Y-79588314D01*
X125938045Y-79572359D01*
X125825148Y-79514835D01*
X125731481Y-79500000D01*
X125668519Y-79500000D01*
X125574852Y-79514835D01*
X125461955Y-79572359D01*
X125445999Y-79588314D01*
X125445999Y-78743989D01*
X125445998Y-78743989D01*
X125374875Y-78757284D01*
X125374869Y-78757286D01*
X125170434Y-78836485D01*
X124984029Y-78951901D01*
X124822008Y-79099603D01*
X124689885Y-79274561D01*
X124689880Y-79274570D01*
X124614596Y-79425761D01*
X124571733Y-79469424D01*
X124511392Y-79479553D01*
X124456621Y-79452280D01*
X124440239Y-79431133D01*
X124432832Y-79418304D01*
X124412195Y-79382560D01*
X124289050Y-79245793D01*
X124140161Y-79137619D01*
X124140157Y-79137617D01*
X124140154Y-79137615D01*
X123972036Y-79062765D01*
X123972034Y-79062764D01*
X123972031Y-79062763D01*
X123972030Y-79062763D01*
X123925135Y-79052795D01*
X123792019Y-79024500D01*
X123607981Y-79024500D01*
X123510797Y-79045157D01*
X123427969Y-79062763D01*
X123427963Y-79062765D01*
X123259845Y-79137615D01*
X123259842Y-79137617D01*
X123110948Y-79245794D01*
X122987804Y-79382561D01*
X122955262Y-79438925D01*
X122909792Y-79479866D01*
X122848941Y-79486260D01*
X122795954Y-79455667D01*
X122780905Y-79433552D01*
X122755513Y-79382559D01*
X122703712Y-79278528D01*
X122572427Y-79104678D01*
X122411432Y-78957912D01*
X122226210Y-78843228D01*
X122023069Y-78764530D01*
X122023068Y-78764529D01*
X122023066Y-78764529D01*
X121808926Y-78724500D01*
X121591074Y-78724500D01*
X121376933Y-78764529D01*
X121173789Y-78843228D01*
X121173784Y-78843231D01*
X121156614Y-78853862D01*
X121097186Y-78868418D01*
X121040551Y-78845263D01*
X121008342Y-78793242D01*
X121005500Y-78769689D01*
X121005500Y-78370310D01*
X120996980Y-78294346D01*
X120992940Y-78258326D01*
X120991684Y-78252797D01*
X120985695Y-78226431D01*
X120991242Y-78165498D01*
X121031545Y-78119462D01*
X121082235Y-78105500D01*
X122910774Y-78105500D01*
X122943853Y-78100743D01*
X122968666Y-78097176D01*
X123036787Y-78077174D01*
X123060431Y-78068629D01*
X123134199Y-78014570D01*
X123180690Y-77960915D01*
X123212311Y-77911712D01*
X123253365Y-77821814D01*
X123268597Y-77798113D01*
X123305511Y-77755513D01*
X123326797Y-77737067D01*
X123374220Y-77706590D01*
X123399841Y-77694889D01*
X123453933Y-77679008D01*
X123481817Y-77675000D01*
X123538181Y-77675000D01*
X123566071Y-77679010D01*
G37*
%TD.AperFunction*%
%TA.AperFunction,Conductor*%
G36*
X127856071Y-74409010D02*
G01*
X127910149Y-74424888D01*
X127935780Y-74436592D01*
X127983194Y-74467063D01*
X128004487Y-74485514D01*
X128041400Y-74528113D01*
X128056633Y-74551817D01*
X128060887Y-74561130D01*
X128080049Y-74603089D01*
X128087987Y-74630125D01*
X128096008Y-74685909D01*
X128096008Y-74714088D01*
X128087988Y-74769871D01*
X128080049Y-74796909D01*
X128056633Y-74848182D01*
X128041398Y-74871887D01*
X128004489Y-74914481D01*
X127983194Y-74932933D01*
X127935780Y-74963404D01*
X127910151Y-74975109D01*
X127856073Y-74990989D01*
X127828179Y-74995000D01*
X127771819Y-74995000D01*
X127743926Y-74990989D01*
X127689846Y-74975109D01*
X127664217Y-74963405D01*
X127616805Y-74932936D01*
X127595511Y-74914486D01*
X127558595Y-74871881D01*
X127543365Y-74848182D01*
X127519948Y-74796907D01*
X127512011Y-74769873D01*
X127512011Y-74769871D01*
X127503990Y-74714083D01*
X127503990Y-74685914D01*
X127512011Y-74630120D01*
X127519945Y-74603097D01*
X127543367Y-74551811D01*
X127558591Y-74528121D01*
X127595515Y-74485508D01*
X127616805Y-74467062D01*
X127664216Y-74436592D01*
X127689848Y-74424888D01*
X127743928Y-74409010D01*
X127771817Y-74405000D01*
X127828181Y-74405000D01*
X127856071Y-74409010D01*
G37*
%TD.AperFunction*%
%TA.AperFunction,Conductor*%
G36*
X137156071Y-74109010D02*
G01*
X137210149Y-74124888D01*
X137235780Y-74136592D01*
X137283194Y-74167063D01*
X137304485Y-74185512D01*
X137309039Y-74190767D01*
X137316606Y-74199500D01*
X137338905Y-74225234D01*
X137341398Y-74228111D01*
X137356634Y-74251818D01*
X137371727Y-74284868D01*
X137380049Y-74303090D01*
X137387988Y-74330128D01*
X137396008Y-74385911D01*
X137396008Y-74414089D01*
X137387988Y-74469871D01*
X137380049Y-74496909D01*
X137356633Y-74548182D01*
X137341398Y-74571887D01*
X137304489Y-74614481D01*
X137283194Y-74632933D01*
X137235780Y-74663404D01*
X137210151Y-74675109D01*
X137156073Y-74690989D01*
X137128179Y-74695000D01*
X137071819Y-74695000D01*
X137043926Y-74690989D01*
X136989846Y-74675109D01*
X136964217Y-74663405D01*
X136916805Y-74632936D01*
X136895511Y-74614486D01*
X136858595Y-74571881D01*
X136843365Y-74548182D01*
X136819948Y-74496907D01*
X136812011Y-74469873D01*
X136811607Y-74467062D01*
X136803990Y-74414084D01*
X136803990Y-74385915D01*
X136812011Y-74330122D01*
X136819950Y-74303086D01*
X136843367Y-74251811D01*
X136858596Y-74228115D01*
X136895511Y-74185513D01*
X136916797Y-74167067D01*
X136964220Y-74136590D01*
X136989841Y-74124889D01*
X137043933Y-74109008D01*
X137071817Y-74105000D01*
X137128181Y-74105000D01*
X137156071Y-74109010D01*
G37*
%TD.AperFunction*%
%TA.AperFunction,Conductor*%
G36*
X142556071Y-73908510D02*
G01*
X142610149Y-73924388D01*
X142635780Y-73936092D01*
X142683194Y-73966563D01*
X142704487Y-73985014D01*
X142741400Y-74027613D01*
X142756635Y-74051319D01*
X142780049Y-74102589D01*
X142787987Y-74129625D01*
X142796008Y-74185409D01*
X142796008Y-74213588D01*
X142787988Y-74269371D01*
X142780049Y-74296409D01*
X142756633Y-74347682D01*
X142741398Y-74371387D01*
X142704489Y-74413981D01*
X142683194Y-74432433D01*
X142635780Y-74462904D01*
X142610151Y-74474609D01*
X142556073Y-74490489D01*
X142528179Y-74494500D01*
X142471819Y-74494500D01*
X142443926Y-74490489D01*
X142389846Y-74474609D01*
X142364217Y-74462905D01*
X142316805Y-74432436D01*
X142295511Y-74413986D01*
X142258595Y-74371381D01*
X142243365Y-74347682D01*
X142219948Y-74296407D01*
X142212011Y-74269373D01*
X142209487Y-74251818D01*
X142203990Y-74213584D01*
X142203990Y-74185415D01*
X142212011Y-74129622D01*
X142219950Y-74102586D01*
X142243367Y-74051311D01*
X142258598Y-74027613D01*
X142295511Y-73985013D01*
X142316797Y-73966567D01*
X142364220Y-73936090D01*
X142389841Y-73924389D01*
X142443933Y-73908508D01*
X142471817Y-73904500D01*
X142528181Y-73904500D01*
X142556071Y-73908510D01*
G37*
%TD.AperFunction*%
%TA.AperFunction,Conductor*%
G36*
X111656071Y-72909010D02*
G01*
X111710149Y-72924888D01*
X111735780Y-72936592D01*
X111783194Y-72967063D01*
X111804487Y-72985514D01*
X111841400Y-73028113D01*
X111856635Y-73051819D01*
X111880049Y-73103089D01*
X111887987Y-73130125D01*
X111896008Y-73185909D01*
X111896008Y-73214088D01*
X111887988Y-73269871D01*
X111880049Y-73296909D01*
X111856633Y-73348182D01*
X111841398Y-73371887D01*
X111804489Y-73414481D01*
X111783194Y-73432933D01*
X111735780Y-73463404D01*
X111710151Y-73475109D01*
X111656073Y-73490989D01*
X111628179Y-73495000D01*
X111571819Y-73495000D01*
X111543926Y-73490989D01*
X111489846Y-73475109D01*
X111464217Y-73463405D01*
X111416805Y-73432936D01*
X111395511Y-73414486D01*
X111358595Y-73371881D01*
X111343365Y-73348182D01*
X111319948Y-73296907D01*
X111312011Y-73269873D01*
X111312011Y-73269871D01*
X111303990Y-73214083D01*
X111303990Y-73185914D01*
X111312011Y-73130120D01*
X111319945Y-73103097D01*
X111343367Y-73051811D01*
X111358591Y-73028121D01*
X111395515Y-72985508D01*
X111416805Y-72967062D01*
X111464216Y-72936592D01*
X111489848Y-72924888D01*
X111543928Y-72909010D01*
X111571817Y-72905000D01*
X111628181Y-72905000D01*
X111656071Y-72909010D01*
G37*
%TD.AperFunction*%
%TA.AperFunction,Conductor*%
G36*
X149966071Y-71549010D02*
G01*
X150020149Y-71564888D01*
X150045780Y-71576592D01*
X150093194Y-71607063D01*
X150114487Y-71625514D01*
X150151400Y-71668113D01*
X150166635Y-71691819D01*
X150190049Y-71743089D01*
X150197987Y-71770125D01*
X150206008Y-71825909D01*
X150206009Y-71854084D01*
X150203053Y-71874645D01*
X150201986Y-71924379D01*
X150201987Y-71924394D01*
X150208029Y-71984650D01*
X150208031Y-71984669D01*
X150210314Y-72000896D01*
X150199696Y-72061152D01*
X150155687Y-72103660D01*
X150112279Y-72113684D01*
X150054553Y-72113684D01*
X149996663Y-72122007D01*
X149996659Y-72122008D01*
X149966071Y-72130990D01*
X149938180Y-72135000D01*
X149881819Y-72135000D01*
X149853926Y-72130989D01*
X149799846Y-72115109D01*
X149774217Y-72103405D01*
X149726805Y-72072936D01*
X149705511Y-72054486D01*
X149668595Y-72011881D01*
X149653366Y-71988185D01*
X149629948Y-71936907D01*
X149622011Y-71909873D01*
X149613990Y-71854084D01*
X149613990Y-71825915D01*
X149622011Y-71770122D01*
X149629950Y-71743086D01*
X149653367Y-71691811D01*
X149668598Y-71668113D01*
X149705511Y-71625513D01*
X149726797Y-71607067D01*
X149774220Y-71576590D01*
X149799841Y-71564889D01*
X149853933Y-71549008D01*
X149881817Y-71545000D01*
X149938181Y-71545000D01*
X149966071Y-71549010D01*
G37*
%TD.AperFunction*%
%TA.AperFunction,Conductor*%
G36*
X112867147Y-70916811D02*
G01*
X112887572Y-70943186D01*
X112900734Y-70967884D01*
X112910880Y-70986923D01*
X112910881Y-70986924D01*
X112957358Y-71040561D01*
X112957376Y-71040579D01*
X112984831Y-71064368D01*
X112994820Y-71074357D01*
X113041399Y-71128112D01*
X113056634Y-71151817D01*
X113080049Y-71203089D01*
X113087987Y-71230125D01*
X113096008Y-71285909D01*
X113096008Y-71314088D01*
X113087988Y-71369871D01*
X113080049Y-71396909D01*
X113056633Y-71448182D01*
X113041398Y-71471887D01*
X113004489Y-71514481D01*
X112983194Y-71532933D01*
X112935780Y-71563404D01*
X112910151Y-71575109D01*
X112856073Y-71590989D01*
X112828179Y-71595000D01*
X112771819Y-71595000D01*
X112743926Y-71590989D01*
X112689846Y-71575109D01*
X112664217Y-71563405D01*
X112640511Y-71548170D01*
X112616803Y-71532935D01*
X112595511Y-71514486D01*
X112558595Y-71471881D01*
X112543365Y-71448182D01*
X112519948Y-71396907D01*
X112512011Y-71369873D01*
X112512011Y-71369871D01*
X112503990Y-71314083D01*
X112503990Y-71285914D01*
X112512011Y-71230122D01*
X112519950Y-71203089D01*
X112543364Y-71151820D01*
X112558598Y-71128115D01*
X112599534Y-71080872D01*
X112615026Y-71066448D01*
X112621900Y-71061304D01*
X112649004Y-71037818D01*
X112701358Y-70967881D01*
X112710152Y-70948622D01*
X112751524Y-70903546D01*
X112811490Y-70891394D01*
X112867147Y-70916811D01*
G37*
%TD.AperFunction*%
%TA.AperFunction,Conductor*%
G36*
X112983081Y-69958194D02*
G01*
X112983151Y-69957957D01*
X112986475Y-69958932D01*
X112988838Y-69959447D01*
X112989939Y-69959950D01*
X112989945Y-69959951D01*
X112989947Y-69959953D01*
X112999829Y-69962854D01*
X113050335Y-69997388D01*
X113070898Y-70055014D01*
X113070609Y-70065912D01*
X113067258Y-70106895D01*
X113077361Y-70177164D01*
X113077362Y-70177169D01*
X113081268Y-70190471D01*
X113084270Y-70204272D01*
X113096008Y-70285909D01*
X113096008Y-70314088D01*
X113087988Y-70369871D01*
X113080050Y-70396908D01*
X113056633Y-70448184D01*
X113041399Y-70471887D01*
X113009450Y-70508759D01*
X113000467Y-70519126D01*
X112984982Y-70533543D01*
X112978102Y-70538693D01*
X112950997Y-70562180D01*
X112950995Y-70562182D01*
X112898635Y-70632129D01*
X112889844Y-70651379D01*
X112848471Y-70696455D01*
X112788504Y-70708604D01*
X112732849Y-70683185D01*
X112712422Y-70656805D01*
X112689127Y-70613088D01*
X112689126Y-70613086D01*
X112689125Y-70613084D01*
X112642632Y-70559428D01*
X112638091Y-70555493D01*
X112615160Y-70535622D01*
X112605176Y-70525637D01*
X112558600Y-70471887D01*
X112543365Y-70448182D01*
X112519949Y-70396909D01*
X112512011Y-70369876D01*
X112503990Y-70314084D01*
X112503989Y-70285915D01*
X112515728Y-70204269D01*
X112518730Y-70190472D01*
X112518730Y-70190471D01*
X112522639Y-70177160D01*
X112532741Y-70106889D01*
X112534789Y-70081839D01*
X112533811Y-70077112D01*
X112540534Y-70016299D01*
X112581719Y-69971051D01*
X112602863Y-69962063D01*
X112610053Y-69959953D01*
X112610056Y-69959950D01*
X112610059Y-69959950D01*
X112611162Y-69959447D01*
X112613528Y-69958932D01*
X112616854Y-69957956D01*
X112616923Y-69958193D01*
X112652288Y-69950500D01*
X112947712Y-69950500D01*
X112983081Y-69958194D01*
G37*
%TD.AperFunction*%
%TA.AperFunction,Conductor*%
G36*
X126326071Y-69719010D02*
G01*
X126380149Y-69734888D01*
X126405780Y-69746592D01*
X126453194Y-69777063D01*
X126474487Y-69795514D01*
X126511399Y-69838112D01*
X126526634Y-69861819D01*
X126550048Y-69913090D01*
X126557986Y-69940124D01*
X126565157Y-69989994D01*
X126566007Y-69995903D01*
X126566008Y-70024088D01*
X126557988Y-70079871D01*
X126550049Y-70106909D01*
X126526633Y-70158182D01*
X126511398Y-70181887D01*
X126474489Y-70224481D01*
X126453194Y-70242933D01*
X126405780Y-70273404D01*
X126380151Y-70285109D01*
X126326073Y-70300989D01*
X126298179Y-70305000D01*
X126241819Y-70305000D01*
X126213926Y-70300989D01*
X126159846Y-70285109D01*
X126134217Y-70273405D01*
X126086805Y-70242936D01*
X126065511Y-70224486D01*
X126028595Y-70181881D01*
X126013365Y-70158182D01*
X125989948Y-70106907D01*
X125982011Y-70079873D01*
X125982011Y-70079871D01*
X125973990Y-70024083D01*
X125973990Y-69995914D01*
X125982011Y-69940120D01*
X125989950Y-69913086D01*
X125993171Y-69906034D01*
X126013367Y-69861811D01*
X126028596Y-69838115D01*
X126065511Y-69795513D01*
X126086797Y-69777067D01*
X126134220Y-69746590D01*
X126159841Y-69734889D01*
X126213933Y-69719008D01*
X126241817Y-69715000D01*
X126298181Y-69715000D01*
X126326071Y-69719010D01*
G37*
%TD.AperFunction*%
%TA.AperFunction,Conductor*%
G36*
X137406071Y-69699010D02*
G01*
X137460149Y-69714888D01*
X137485780Y-69726592D01*
X137533194Y-69757063D01*
X137554487Y-69775514D01*
X137591400Y-69818113D01*
X137606633Y-69841817D01*
X137609855Y-69848870D01*
X137630049Y-69893089D01*
X137637987Y-69920125D01*
X137646008Y-69975909D01*
X137646008Y-70004088D01*
X137637988Y-70059871D01*
X137630049Y-70086909D01*
X137606633Y-70138182D01*
X137591398Y-70161887D01*
X137554489Y-70204481D01*
X137533194Y-70222933D01*
X137485780Y-70253404D01*
X137460151Y-70265109D01*
X137406073Y-70280989D01*
X137378179Y-70285000D01*
X137321819Y-70285000D01*
X137293926Y-70280989D01*
X137239846Y-70265109D01*
X137214217Y-70253405D01*
X137166805Y-70222936D01*
X137145511Y-70204486D01*
X137108595Y-70161881D01*
X137093365Y-70138182D01*
X137069948Y-70086907D01*
X137062011Y-70059873D01*
X137062011Y-70059871D01*
X137053990Y-70004084D01*
X137053990Y-69975915D01*
X137062011Y-69920122D01*
X137069950Y-69893086D01*
X137093367Y-69841811D01*
X137108598Y-69818113D01*
X137145511Y-69775513D01*
X137166797Y-69757067D01*
X137214220Y-69726590D01*
X137239841Y-69714889D01*
X137293933Y-69699008D01*
X137321817Y-69695000D01*
X137378181Y-69695000D01*
X137406071Y-69699010D01*
G37*
%TD.AperFunction*%
%TA.AperFunction,Conductor*%
G36*
X140756071Y-66108510D02*
G01*
X140810149Y-66124388D01*
X140835780Y-66136092D01*
X140883194Y-66166563D01*
X140904487Y-66185014D01*
X140941400Y-66227613D01*
X140956635Y-66251319D01*
X140980049Y-66302589D01*
X140987987Y-66329625D01*
X140996008Y-66385409D01*
X140996008Y-66413588D01*
X140987988Y-66469371D01*
X140980049Y-66496409D01*
X140956633Y-66547682D01*
X140941398Y-66571387D01*
X140904489Y-66613981D01*
X140883194Y-66632433D01*
X140835780Y-66662904D01*
X140810151Y-66674609D01*
X140756073Y-66690489D01*
X140728179Y-66694500D01*
X140671819Y-66694500D01*
X140643926Y-66690489D01*
X140589846Y-66674609D01*
X140564217Y-66662905D01*
X140516805Y-66632436D01*
X140495511Y-66613986D01*
X140458595Y-66571381D01*
X140443365Y-66547682D01*
X140419948Y-66496407D01*
X140412011Y-66469373D01*
X140408141Y-66442456D01*
X140403990Y-66413583D01*
X140403990Y-66385414D01*
X140412011Y-66329620D01*
X140419950Y-66302586D01*
X140421131Y-66300000D01*
X140443367Y-66251311D01*
X140458598Y-66227613D01*
X140495511Y-66185013D01*
X140516797Y-66166567D01*
X140564220Y-66136090D01*
X140589841Y-66124389D01*
X140643933Y-66108508D01*
X140671817Y-66104500D01*
X140728181Y-66104500D01*
X140756071Y-66108510D01*
G37*
%TD.AperFunction*%
%TA.AperFunction,Conductor*%
G36*
X129656071Y-66009010D02*
G01*
X129710149Y-66024888D01*
X129735780Y-66036592D01*
X129783194Y-66067063D01*
X129804487Y-66085514D01*
X129841400Y-66128113D01*
X129856635Y-66151819D01*
X129880049Y-66203089D01*
X129887987Y-66230125D01*
X129896008Y-66285909D01*
X129896008Y-66314088D01*
X129887988Y-66369871D01*
X129880053Y-66396900D01*
X129878868Y-66399496D01*
X129856633Y-66448182D01*
X129841398Y-66471887D01*
X129804489Y-66514481D01*
X129783194Y-66532933D01*
X129735780Y-66563404D01*
X129710151Y-66575109D01*
X129656073Y-66590989D01*
X129628179Y-66595000D01*
X129571819Y-66595000D01*
X129543926Y-66590989D01*
X129489846Y-66575109D01*
X129464217Y-66563405D01*
X129416805Y-66532936D01*
X129395511Y-66514486D01*
X129358595Y-66471881D01*
X129343365Y-66448182D01*
X129319948Y-66396907D01*
X129312011Y-66369873D01*
X129308892Y-66348181D01*
X129303990Y-66314083D01*
X129303990Y-66285914D01*
X129312011Y-66230120D01*
X129319945Y-66203097D01*
X129343367Y-66151811D01*
X129358591Y-66128121D01*
X129395515Y-66085508D01*
X129416805Y-66067062D01*
X129464216Y-66036592D01*
X129489848Y-66024888D01*
X129543928Y-66009010D01*
X129571817Y-66005000D01*
X129628181Y-66005000D01*
X129656071Y-66009010D01*
G37*
%TD.AperFunction*%
%TA.AperFunction,Conductor*%
G36*
X118656071Y-65909010D02*
G01*
X118710149Y-65924888D01*
X118735780Y-65936592D01*
X118783194Y-65967063D01*
X118804487Y-65985514D01*
X118841400Y-66028113D01*
X118856635Y-66051819D01*
X118880049Y-66103089D01*
X118887987Y-66130125D01*
X118896008Y-66185909D01*
X118896008Y-66214089D01*
X118887987Y-66269873D01*
X118880060Y-66296883D01*
X118878643Y-66299989D01*
X118856634Y-66348181D01*
X118841399Y-66371886D01*
X118804489Y-66414481D01*
X118783194Y-66432933D01*
X118735780Y-66463404D01*
X118710151Y-66475109D01*
X118656073Y-66490989D01*
X118628179Y-66495000D01*
X118571819Y-66495000D01*
X118543926Y-66490989D01*
X118489846Y-66475109D01*
X118464217Y-66463405D01*
X118440511Y-66448170D01*
X118416803Y-66432935D01*
X118395511Y-66414486D01*
X118358595Y-66371881D01*
X118343366Y-66348185D01*
X118319948Y-66296907D01*
X118312011Y-66269873D01*
X118303990Y-66214083D01*
X118303990Y-66185914D01*
X118312011Y-66130120D01*
X118319950Y-66103086D01*
X118336402Y-66067062D01*
X118343367Y-66051811D01*
X118358598Y-66028113D01*
X118395511Y-65985513D01*
X118416797Y-65967067D01*
X118464220Y-65936590D01*
X118489841Y-65924889D01*
X118543933Y-65909008D01*
X118571817Y-65905000D01*
X118628181Y-65905000D01*
X118656071Y-65909010D01*
G37*
%TD.AperFunction*%
%TA.AperFunction,Conductor*%
G36*
X140726071Y-62319010D02*
G01*
X140780149Y-62334888D01*
X140805780Y-62346592D01*
X140853194Y-62377063D01*
X140874487Y-62395514D01*
X140911400Y-62438113D01*
X140926633Y-62461817D01*
X140940234Y-62491598D01*
X140950049Y-62513089D01*
X140957987Y-62540125D01*
X140966008Y-62595909D01*
X140966008Y-62624088D01*
X140957988Y-62679871D01*
X140950049Y-62706909D01*
X140926633Y-62758182D01*
X140911398Y-62781887D01*
X140874489Y-62824481D01*
X140853194Y-62842933D01*
X140805780Y-62873404D01*
X140780151Y-62885109D01*
X140726073Y-62900989D01*
X140698179Y-62905000D01*
X140641819Y-62905000D01*
X140613926Y-62900989D01*
X140559846Y-62885109D01*
X140534217Y-62873405D01*
X140486805Y-62842936D01*
X140465511Y-62824486D01*
X140428595Y-62781881D01*
X140413365Y-62758182D01*
X140389948Y-62706907D01*
X140382011Y-62679873D01*
X140382011Y-62679871D01*
X140373990Y-62624084D01*
X140373990Y-62595915D01*
X140382011Y-62540122D01*
X140389950Y-62513086D01*
X140397238Y-62497128D01*
X140413367Y-62461811D01*
X140428598Y-62438113D01*
X140465511Y-62395513D01*
X140486797Y-62377067D01*
X140534220Y-62346590D01*
X140559841Y-62334889D01*
X140613933Y-62319008D01*
X140641817Y-62315000D01*
X140698181Y-62315000D01*
X140726071Y-62319010D01*
G37*
%TD.AperFunction*%
%TA.AperFunction,Conductor*%
G36*
X143656071Y-61809010D02*
G01*
X143710149Y-61824888D01*
X143735783Y-61836594D01*
X143820780Y-61891218D01*
X143873983Y-61915514D01*
X143942102Y-61935516D01*
X143942115Y-61935519D01*
X143942118Y-61935520D01*
X143949728Y-61937256D01*
X143966610Y-61941110D01*
X144057895Y-61935517D01*
X144126016Y-61915515D01*
X144179221Y-61891217D01*
X144264220Y-61836590D01*
X144289841Y-61824889D01*
X144343933Y-61809008D01*
X144371817Y-61805000D01*
X144428181Y-61805000D01*
X144456071Y-61809010D01*
X144510149Y-61824888D01*
X144535783Y-61836594D01*
X144620780Y-61891218D01*
X144673983Y-61915514D01*
X144742102Y-61935516D01*
X144742115Y-61935519D01*
X144742118Y-61935520D01*
X144749728Y-61937256D01*
X144766610Y-61941110D01*
X144857895Y-61935517D01*
X144926016Y-61915515D01*
X144979221Y-61891217D01*
X145064220Y-61836590D01*
X145089841Y-61824889D01*
X145143933Y-61809008D01*
X145171817Y-61805000D01*
X145228181Y-61805000D01*
X145256071Y-61809010D01*
X145310149Y-61824888D01*
X145335780Y-61836592D01*
X145383194Y-61867063D01*
X145404487Y-61885514D01*
X145441400Y-61928113D01*
X145456635Y-61951819D01*
X145480049Y-62003089D01*
X145487987Y-62030125D01*
X145496008Y-62085909D01*
X145496008Y-62114088D01*
X145487988Y-62169871D01*
X145480049Y-62196909D01*
X145456633Y-62248182D01*
X145441398Y-62271887D01*
X145404489Y-62314481D01*
X145383194Y-62332933D01*
X145335780Y-62363404D01*
X145310151Y-62375109D01*
X145256073Y-62390989D01*
X145228179Y-62395000D01*
X145171819Y-62395000D01*
X145143926Y-62390989D01*
X145089846Y-62375109D01*
X145064216Y-62363404D01*
X144979229Y-62308787D01*
X144979223Y-62308783D01*
X144979221Y-62308782D01*
X144926016Y-62284484D01*
X144926011Y-62284482D01*
X144926010Y-62284482D01*
X144857899Y-62264482D01*
X144833390Y-62258889D01*
X144833386Y-62258888D01*
X144742106Y-62264481D01*
X144742103Y-62264482D01*
X144673989Y-62284482D01*
X144673985Y-62284483D01*
X144673984Y-62284484D01*
X144640967Y-62299561D01*
X144620783Y-62308780D01*
X144620773Y-62308785D01*
X144535779Y-62363406D01*
X144510149Y-62375111D01*
X144456072Y-62390990D01*
X144428180Y-62395000D01*
X144371819Y-62395000D01*
X144343926Y-62390989D01*
X144289846Y-62375109D01*
X144264216Y-62363404D01*
X144179229Y-62308787D01*
X144179223Y-62308783D01*
X144179221Y-62308782D01*
X144126016Y-62284484D01*
X144126011Y-62284482D01*
X144126010Y-62284482D01*
X144057899Y-62264482D01*
X144033390Y-62258889D01*
X144033386Y-62258888D01*
X143942106Y-62264481D01*
X143942103Y-62264482D01*
X143873989Y-62284482D01*
X143873985Y-62284483D01*
X143873984Y-62284484D01*
X143840967Y-62299561D01*
X143820783Y-62308780D01*
X143820773Y-62308785D01*
X143735779Y-62363406D01*
X143710149Y-62375111D01*
X143656072Y-62390990D01*
X143628180Y-62395000D01*
X143571819Y-62395000D01*
X143543926Y-62390989D01*
X143489846Y-62375109D01*
X143464217Y-62363405D01*
X143438056Y-62346593D01*
X143416803Y-62332935D01*
X143395511Y-62314486D01*
X143358595Y-62271881D01*
X143343365Y-62248182D01*
X143319948Y-62196907D01*
X143312011Y-62169873D01*
X143307701Y-62139897D01*
X143303990Y-62114083D01*
X143303990Y-62085914D01*
X143312011Y-62030120D01*
X143319950Y-62003086D01*
X143343367Y-61951811D01*
X143358598Y-61928113D01*
X143395511Y-61885513D01*
X143416797Y-61867067D01*
X143464220Y-61836590D01*
X143489841Y-61824889D01*
X143543933Y-61809008D01*
X143571817Y-61805000D01*
X143628181Y-61805000D01*
X143656071Y-61809010D01*
G37*
%TD.AperFunction*%
%TA.AperFunction,Conductor*%
G36*
X146956071Y-61809010D02*
G01*
X147010149Y-61824888D01*
X147035783Y-61836594D01*
X147120780Y-61891218D01*
X147173983Y-61915514D01*
X147242102Y-61935516D01*
X147242115Y-61935519D01*
X147242118Y-61935520D01*
X147249728Y-61937256D01*
X147266610Y-61941110D01*
X147357895Y-61935517D01*
X147426016Y-61915515D01*
X147479221Y-61891217D01*
X147564220Y-61836590D01*
X147589841Y-61824889D01*
X147643933Y-61809008D01*
X147671817Y-61805000D01*
X147728181Y-61805000D01*
X147756071Y-61809010D01*
X147810149Y-61824888D01*
X147835783Y-61836594D01*
X147920780Y-61891218D01*
X147973983Y-61915514D01*
X148042102Y-61935516D01*
X148042115Y-61935519D01*
X148042118Y-61935520D01*
X148049728Y-61937256D01*
X148066610Y-61941110D01*
X148157895Y-61935517D01*
X148226016Y-61915515D01*
X148279221Y-61891217D01*
X148364220Y-61836590D01*
X148389841Y-61824889D01*
X148443933Y-61809008D01*
X148471817Y-61805000D01*
X148528181Y-61805000D01*
X148556071Y-61809010D01*
X148610149Y-61824888D01*
X148635780Y-61836592D01*
X148683194Y-61867063D01*
X148704487Y-61885514D01*
X148741400Y-61928113D01*
X148756635Y-61951819D01*
X148780049Y-62003089D01*
X148787987Y-62030125D01*
X148796008Y-62085909D01*
X148796008Y-62114088D01*
X148787988Y-62169871D01*
X148780049Y-62196909D01*
X148756633Y-62248182D01*
X148741398Y-62271887D01*
X148704489Y-62314481D01*
X148683194Y-62332933D01*
X148635780Y-62363404D01*
X148610151Y-62375109D01*
X148556073Y-62390989D01*
X148528179Y-62395000D01*
X148471819Y-62395000D01*
X148443926Y-62390989D01*
X148389846Y-62375109D01*
X148364216Y-62363404D01*
X148279229Y-62308787D01*
X148279223Y-62308783D01*
X148279221Y-62308782D01*
X148226016Y-62284484D01*
X148226011Y-62284482D01*
X148226010Y-62284482D01*
X148157899Y-62264482D01*
X148133390Y-62258889D01*
X148133386Y-62258888D01*
X148042106Y-62264481D01*
X148042103Y-62264482D01*
X147973989Y-62284482D01*
X147973985Y-62284483D01*
X147973984Y-62284484D01*
X147940967Y-62299561D01*
X147920783Y-62308780D01*
X147920773Y-62308785D01*
X147835779Y-62363406D01*
X147810149Y-62375111D01*
X147756072Y-62390990D01*
X147728180Y-62395000D01*
X147671819Y-62395000D01*
X147643926Y-62390989D01*
X147589846Y-62375109D01*
X147564216Y-62363404D01*
X147479229Y-62308787D01*
X147479223Y-62308783D01*
X147479221Y-62308782D01*
X147426016Y-62284484D01*
X147426011Y-62284482D01*
X147426010Y-62284482D01*
X147357899Y-62264482D01*
X147333390Y-62258889D01*
X147333386Y-62258888D01*
X147242106Y-62264481D01*
X147242103Y-62264482D01*
X147173989Y-62284482D01*
X147173985Y-62284483D01*
X147173984Y-62284484D01*
X147140967Y-62299561D01*
X147120783Y-62308780D01*
X147120773Y-62308785D01*
X147035779Y-62363406D01*
X147010149Y-62375111D01*
X146956072Y-62390990D01*
X146928180Y-62395000D01*
X146871819Y-62395000D01*
X146843926Y-62390989D01*
X146789846Y-62375109D01*
X146764217Y-62363405D01*
X146738056Y-62346593D01*
X146716803Y-62332935D01*
X146695511Y-62314486D01*
X146658595Y-62271881D01*
X146643365Y-62248182D01*
X146619948Y-62196907D01*
X146612011Y-62169873D01*
X146607701Y-62139897D01*
X146603990Y-62114083D01*
X146603990Y-62085914D01*
X146612011Y-62030120D01*
X146619950Y-62003086D01*
X146643367Y-61951811D01*
X146658598Y-61928113D01*
X146695511Y-61885513D01*
X146716797Y-61867067D01*
X146764220Y-61836590D01*
X146789841Y-61824889D01*
X146843933Y-61809008D01*
X146871817Y-61805000D01*
X146928181Y-61805000D01*
X146956071Y-61809010D01*
G37*
%TD.AperFunction*%
%TD*%
%TA.AperFunction,Conductor*%
%TO.N,VBATT*%
G36*
X155559191Y-72518907D02*
G01*
X155595155Y-72568407D01*
X155600000Y-72599000D01*
X155600000Y-75801000D01*
X155581093Y-75859191D01*
X155531593Y-75895155D01*
X155501000Y-75900000D01*
X153500000Y-75900000D01*
X153500000Y-75900001D01*
X153500000Y-77193598D01*
X153481093Y-77251789D01*
X153431593Y-77287753D01*
X153370407Y-77287753D01*
X153368303Y-77287043D01*
X153304256Y-77264632D01*
X153304257Y-77264632D01*
X153184751Y-77251167D01*
X153125000Y-77244435D01*
X153124999Y-77244435D01*
X152945742Y-77264632D01*
X152945738Y-77264633D01*
X152775477Y-77324211D01*
X152775476Y-77324211D01*
X152622741Y-77420181D01*
X152495181Y-77547741D01*
X152399211Y-77700476D01*
X152399211Y-77700477D01*
X152339633Y-77870738D01*
X152339632Y-77870742D01*
X152319435Y-78050000D01*
X152339632Y-78229257D01*
X152339633Y-78229261D01*
X152399211Y-78399522D01*
X152399211Y-78399523D01*
X152495181Y-78552258D01*
X152495184Y-78552262D01*
X152622738Y-78679816D01*
X152622740Y-78679817D01*
X152622741Y-78679818D01*
X152681998Y-78717052D01*
X152775478Y-78775789D01*
X152843657Y-78799646D01*
X152945738Y-78835366D01*
X152945742Y-78835367D01*
X152945745Y-78835368D01*
X153125000Y-78855565D01*
X153304255Y-78835368D01*
X153368301Y-78812957D01*
X153429472Y-78811583D01*
X153479766Y-78846427D01*
X153499975Y-78904179D01*
X153500000Y-78906401D01*
X153500000Y-79800500D01*
X153481093Y-79858691D01*
X153431593Y-79894655D01*
X153401000Y-79899500D01*
X146982000Y-79899500D01*
X146923809Y-79880593D01*
X146887845Y-79831093D01*
X146883000Y-79800500D01*
X146883000Y-79176412D01*
X146876495Y-79115911D01*
X146876493Y-79115901D01*
X146825447Y-78979039D01*
X146737907Y-78862100D01*
X146737899Y-78862092D01*
X146620960Y-78774552D01*
X146484098Y-78723506D01*
X146484088Y-78723504D01*
X146423587Y-78717000D01*
X145954001Y-78717000D01*
X145954000Y-78717001D01*
X145954000Y-79588314D01*
X145938045Y-79572359D01*
X145825148Y-79514835D01*
X145731481Y-79500000D01*
X145668519Y-79500000D01*
X145574852Y-79514835D01*
X145461955Y-79572359D01*
X145446000Y-79588314D01*
X145446000Y-78717001D01*
X145445999Y-78717000D01*
X144976413Y-78717000D01*
X144909748Y-78724167D01*
X144909421Y-78721127D01*
X144860670Y-78717052D01*
X144814338Y-78677089D01*
X144800000Y-78625773D01*
X144800000Y-76354552D01*
X144818907Y-76296361D01*
X144828988Y-76284557D01*
X146204049Y-74909495D01*
X146258566Y-74881719D01*
X146274053Y-74880500D01*
X146342279Y-74880500D01*
X147688116Y-74880500D01*
X147702463Y-74881545D01*
X147728023Y-74885289D01*
X147780624Y-74880687D01*
X147784923Y-74880500D01*
X148574278Y-74880500D01*
X148606976Y-74886056D01*
X148690738Y-74915366D01*
X148690742Y-74915367D01*
X148690745Y-74915368D01*
X148870000Y-74935565D01*
X149049255Y-74915368D01*
X149219522Y-74855789D01*
X149372262Y-74759816D01*
X149499816Y-74632262D01*
X149595789Y-74479522D01*
X149620417Y-74409138D01*
X149635407Y-74366302D01*
X149672472Y-74317622D01*
X149728851Y-74300000D01*
X150699999Y-74300000D01*
X150700000Y-74300000D01*
X150700000Y-72598999D01*
X150718907Y-72540809D01*
X150768407Y-72504845D01*
X150799000Y-72500000D01*
X155501000Y-72500000D01*
X155559191Y-72518907D01*
G37*
%TD.AperFunction*%
%TD*%
%TA.AperFunction,Conductor*%
%TO.N,/BEMF_Feedback/pW*%
G36*
X120061152Y-78029222D02*
G01*
X120117311Y-78063873D01*
X120431986Y-78258034D01*
X120440163Y-78263079D01*
X120487633Y-78315872D01*
X120500000Y-78370310D01*
X120500000Y-79773500D01*
X120479998Y-79841621D01*
X120426342Y-79888114D01*
X120374000Y-79899500D01*
X119146000Y-79899500D01*
X119077879Y-79879498D01*
X119031386Y-79825842D01*
X119020000Y-79773500D01*
X119020000Y-78326155D01*
X119040002Y-78258034D01*
X119049813Y-78244766D01*
X119202877Y-78063871D01*
X119262148Y-78024791D01*
X119297464Y-78019272D01*
X119993395Y-78010463D01*
X120061152Y-78029222D01*
G37*
%TD.AperFunction*%
%TD*%
%TA.AperFunction,Conductor*%
%TO.N,/BEMF_Feedback/pV*%
G36*
X132842121Y-76520002D02*
G01*
X132888614Y-76573658D01*
X132900000Y-76626000D01*
X132900000Y-78747809D01*
X132879998Y-78815930D01*
X132863095Y-78836904D01*
X132600000Y-79099998D01*
X132600000Y-79453094D01*
X132595190Y-79487576D01*
X132539564Y-79683080D01*
X132530108Y-79785126D01*
X132503906Y-79851111D01*
X132446189Y-79892454D01*
X132404646Y-79899500D01*
X130995354Y-79899500D01*
X130927233Y-79879498D01*
X130880740Y-79825842D01*
X130869892Y-79785126D01*
X130860435Y-79683080D01*
X130860435Y-79683077D01*
X130804809Y-79487573D01*
X130800000Y-79453094D01*
X130800000Y-78899999D01*
X129836905Y-77936904D01*
X129802879Y-77874592D01*
X129800000Y-77847809D01*
X129800000Y-76626000D01*
X129820002Y-76557879D01*
X129873658Y-76511386D01*
X129926000Y-76500000D01*
X132774000Y-76500000D01*
X132842121Y-76520002D01*
G37*
%TD.AperFunction*%
%TD*%
%TA.AperFunction,Conductor*%
%TO.N,/BEMF_Feedback/pU*%
G36*
X140884381Y-77420002D02*
G01*
X140894822Y-77427491D01*
X140897740Y-77429818D01*
X141050473Y-77525786D01*
X141050478Y-77525789D01*
X141115616Y-77548582D01*
X141173306Y-77589959D01*
X141199469Y-77655959D01*
X141200000Y-77667510D01*
X141200000Y-78439441D01*
X141179998Y-78507562D01*
X141152712Y-78537830D01*
X140700000Y-78899999D01*
X140700000Y-79241438D01*
X140686791Y-79297601D01*
X140599183Y-79473541D01*
X140599180Y-79473549D01*
X140539564Y-79683078D01*
X140530108Y-79785126D01*
X140503906Y-79851111D01*
X140446189Y-79892454D01*
X140404646Y-79899500D01*
X138995354Y-79899500D01*
X138927233Y-79879498D01*
X138880740Y-79825842D01*
X138869892Y-79785126D01*
X138860435Y-79683080D01*
X138860435Y-79683077D01*
X138804809Y-79487573D01*
X138800000Y-79453094D01*
X138800000Y-77526000D01*
X138820002Y-77457879D01*
X138873658Y-77411386D01*
X138926000Y-77400000D01*
X140816260Y-77400000D01*
X140884381Y-77420002D01*
G37*
%TD.AperFunction*%
%TD*%
%TA.AperFunction,Conductor*%
%TO.N,+12V*%
G36*
X152142121Y-56720002D02*
G01*
X152188614Y-56773658D01*
X152200000Y-56826000D01*
X152200000Y-71868500D01*
X152179998Y-71936621D01*
X152126342Y-71983114D01*
X152074000Y-71994500D01*
X150799000Y-71994500D01*
X150779232Y-71996055D01*
X150719927Y-72000722D01*
X150689358Y-72005562D01*
X150689332Y-72005568D01*
X150598542Y-72028739D01*
X150598530Y-72028744D01*
X150589978Y-72033257D01*
X150520395Y-72047356D01*
X150454236Y-72021597D01*
X150412506Y-71964159D01*
X150406462Y-71903886D01*
X150415647Y-71840003D01*
X150415647Y-71840002D01*
X150415647Y-71840000D01*
X150395165Y-71697543D01*
X150335377Y-71566627D01*
X150241128Y-71457857D01*
X150241127Y-71457856D01*
X150241126Y-71457855D01*
X150120053Y-71380047D01*
X149981961Y-71339500D01*
X149838039Y-71339500D01*
X149699946Y-71380047D01*
X149578873Y-71457855D01*
X149484623Y-71566626D01*
X149446329Y-71650478D01*
X149424835Y-71697543D01*
X149404353Y-71840000D01*
X149424835Y-71982457D01*
X149484623Y-72113373D01*
X149552160Y-72191316D01*
X149578873Y-72222144D01*
X149630750Y-72255483D01*
X149699947Y-72299953D01*
X149838039Y-72340500D01*
X149981960Y-72340500D01*
X149981961Y-72340500D01*
X150054557Y-72319184D01*
X150125549Y-72319184D01*
X150185276Y-72357567D01*
X150214769Y-72422147D01*
X150214770Y-72458010D01*
X150194500Y-72599000D01*
X150194500Y-73668500D01*
X150174498Y-73736621D01*
X150120842Y-73783114D01*
X150068500Y-73794500D01*
X149728819Y-73794500D01*
X149720085Y-73794575D01*
X149697662Y-73798197D01*
X149627223Y-73789312D01*
X149572771Y-73743755D01*
X149570885Y-73740844D01*
X149556835Y-73718484D01*
X149533677Y-73681628D01*
X149499815Y-73627736D01*
X149372262Y-73500183D01*
X149372260Y-73500182D01*
X149219525Y-73404212D01*
X149219522Y-73404211D01*
X149160016Y-73383389D01*
X149049255Y-73344632D01*
X148870000Y-73324435D01*
X148869998Y-73324435D01*
X148862968Y-73323643D01*
X148863314Y-73320563D01*
X148808379Y-73304433D01*
X148761886Y-73250777D01*
X148750500Y-73198435D01*
X148750500Y-72300309D01*
X148757571Y-72258694D01*
X148758695Y-72255483D01*
X148785368Y-72179255D01*
X148805565Y-72000000D01*
X148785368Y-71820745D01*
X148725789Y-71650478D01*
X148725787Y-71650475D01*
X148725787Y-71650474D01*
X148629817Y-71497739D01*
X148629816Y-71497737D01*
X148502262Y-71370183D01*
X148502260Y-71370182D01*
X148349525Y-71274212D01*
X148349522Y-71274211D01*
X148349522Y-71274210D01*
X148179255Y-71214632D01*
X148000000Y-71194435D01*
X147820745Y-71214632D01*
X147820742Y-71214632D01*
X147820742Y-71214633D01*
X147650477Y-71274211D01*
X147650474Y-71274212D01*
X147497739Y-71370182D01*
X147497737Y-71370183D01*
X147370183Y-71497737D01*
X147370182Y-71497739D01*
X147274212Y-71650474D01*
X147274211Y-71650477D01*
X147257742Y-71697543D01*
X147214632Y-71820745D01*
X147194435Y-72000000D01*
X147214632Y-72179255D01*
X147229639Y-72222143D01*
X147242429Y-72258694D01*
X147249500Y-72300309D01*
X147249500Y-73253500D01*
X147229498Y-73321621D01*
X147175842Y-73368114D01*
X147123500Y-73379500D01*
X145986030Y-73379500D01*
X145967771Y-73378170D01*
X145944156Y-73374711D01*
X145944155Y-73374711D01*
X145937803Y-73375266D01*
X145892153Y-73379260D01*
X145886660Y-73379500D01*
X145878466Y-73379500D01*
X145846788Y-73383202D01*
X145845004Y-73383385D01*
X145813458Y-73386145D01*
X145769382Y-73390001D01*
X145762197Y-73391485D01*
X145762181Y-73391409D01*
X145755043Y-73392991D01*
X145755061Y-73393067D01*
X145747921Y-73394759D01*
X145676613Y-73420712D01*
X145674884Y-73421313D01*
X145602848Y-73445183D01*
X145596200Y-73448284D01*
X145596167Y-73448214D01*
X145589583Y-73451401D01*
X145589618Y-73451470D01*
X145583059Y-73454764D01*
X145519668Y-73496455D01*
X145518125Y-73497438D01*
X145453523Y-73537288D01*
X145447765Y-73541841D01*
X145447716Y-73541780D01*
X145442055Y-73546391D01*
X145442105Y-73546451D01*
X145436484Y-73551167D01*
X145384397Y-73606375D01*
X145383121Y-73607689D01*
X141730573Y-77260235D01*
X141668261Y-77294261D01*
X141597445Y-77289196D01*
X141554219Y-77262035D01*
X141467925Y-77179193D01*
X141467922Y-77179190D01*
X141410232Y-77137813D01*
X141282574Y-77071449D01*
X141282563Y-77071445D01*
X141278439Y-77069662D01*
X141278607Y-77069272D01*
X141259171Y-77059913D01*
X141184059Y-77012717D01*
X141180874Y-77010578D01*
X141179016Y-77009246D01*
X141179008Y-77009240D01*
X141173030Y-77005179D01*
X141157678Y-76994750D01*
X141026795Y-76934977D01*
X140958683Y-76914978D01*
X140958676Y-76914976D01*
X140930191Y-76910880D01*
X140816260Y-76894500D01*
X138926000Y-76894500D01*
X138925990Y-76894500D01*
X138818554Y-76906051D01*
X138818532Y-76906055D01*
X138766219Y-76917435D01*
X138766198Y-76917441D01*
X138663665Y-76951567D01*
X138663664Y-76951567D01*
X138542624Y-77029356D01*
X138490258Y-77074731D01*
X138489143Y-77075645D01*
X138394751Y-77184582D01*
X138394749Y-77184584D01*
X138394748Y-77184585D01*
X138394748Y-77184586D01*
X138346975Y-77289196D01*
X138334977Y-77315467D01*
X138314978Y-77383576D01*
X138314976Y-77383583D01*
X138307156Y-77437976D01*
X138302624Y-77469500D01*
X138294500Y-77526003D01*
X138294500Y-77774000D01*
X138274498Y-77842121D01*
X138220842Y-77888614D01*
X138168500Y-77900000D01*
X133576500Y-77900000D01*
X133508379Y-77879998D01*
X133461886Y-77826342D01*
X133450500Y-77774000D01*
X133450500Y-76463056D01*
X133470502Y-76394935D01*
X133487400Y-76373966D01*
X135461365Y-74400000D01*
X136594353Y-74400000D01*
X136614835Y-74542457D01*
X136645453Y-74609500D01*
X136674623Y-74673373D01*
X136768873Y-74782144D01*
X136829409Y-74821048D01*
X136889947Y-74859953D01*
X137028039Y-74900500D01*
X137171961Y-74900500D01*
X137310053Y-74859953D01*
X137431128Y-74782143D01*
X137525377Y-74673373D01*
X137585165Y-74542457D01*
X137605647Y-74400000D01*
X137585165Y-74257543D01*
X137558657Y-74199500D01*
X141994353Y-74199500D01*
X142014835Y-74341957D01*
X142053503Y-74426627D01*
X142074623Y-74472873D01*
X142168873Y-74581644D01*
X142212218Y-74609500D01*
X142289947Y-74659453D01*
X142428039Y-74700000D01*
X142571961Y-74700000D01*
X142710053Y-74659453D01*
X142831128Y-74581643D01*
X142925377Y-74472873D01*
X142985165Y-74341957D01*
X143005647Y-74199500D01*
X142985165Y-74057043D01*
X142925377Y-73926127D01*
X142831128Y-73817357D01*
X142831127Y-73817356D01*
X142831126Y-73817355D01*
X142710053Y-73739547D01*
X142571961Y-73699000D01*
X142428039Y-73699000D01*
X142289946Y-73739547D01*
X142168873Y-73817355D01*
X142074623Y-73926126D01*
X142063932Y-73949536D01*
X142014835Y-74057043D01*
X141994353Y-74199500D01*
X137558657Y-74199500D01*
X137525377Y-74126627D01*
X137431128Y-74017857D01*
X137431127Y-74017856D01*
X137431126Y-74017855D01*
X137310053Y-73940047D01*
X137171961Y-73899500D01*
X137028039Y-73899500D01*
X136889946Y-73940047D01*
X136768873Y-74017855D01*
X136674623Y-74126626D01*
X136634006Y-74215564D01*
X136614835Y-74257543D01*
X136594353Y-74400000D01*
X135461365Y-74400000D01*
X136142885Y-73718480D01*
X136164941Y-73700891D01*
X136277262Y-73630316D01*
X136404816Y-73502762D01*
X136500789Y-73350022D01*
X136560368Y-73179755D01*
X136580565Y-73000500D01*
X136560368Y-72821245D01*
X136500789Y-72650978D01*
X136500787Y-72650975D01*
X136500787Y-72650974D01*
X136404817Y-72498239D01*
X136404816Y-72498237D01*
X136277262Y-72370683D01*
X136277260Y-72370682D01*
X136124525Y-72274712D01*
X136124522Y-72274711D01*
X136078748Y-72258694D01*
X135954255Y-72215132D01*
X135775000Y-72194935D01*
X135595745Y-72215132D01*
X135595742Y-72215132D01*
X135595742Y-72215133D01*
X135425477Y-72274711D01*
X135425474Y-72274712D01*
X135272739Y-72370682D01*
X135272737Y-72370683D01*
X135145183Y-72498237D01*
X135145182Y-72498239D01*
X135049210Y-72650977D01*
X135049210Y-72650978D01*
X135038014Y-72682973D01*
X135008181Y-72730450D01*
X132214464Y-75524166D01*
X132200615Y-75536135D01*
X132181476Y-75550384D01*
X132181467Y-75550392D01*
X132147923Y-75590368D01*
X132144216Y-75594413D01*
X132138413Y-75600217D01*
X132138411Y-75600220D01*
X132118634Y-75625231D01*
X132117478Y-75626649D01*
X132068697Y-75684787D01*
X132064664Y-75690919D01*
X132064600Y-75690877D01*
X132060676Y-75697037D01*
X132060741Y-75697077D01*
X132056890Y-75703320D01*
X132024813Y-75772107D01*
X132024015Y-75773754D01*
X131989959Y-75841567D01*
X131987450Y-75848463D01*
X131987377Y-75848436D01*
X131984978Y-75855336D01*
X131985051Y-75855360D01*
X131982744Y-75862321D01*
X131976207Y-75893981D01*
X131942842Y-75956649D01*
X131880893Y-75991331D01*
X131852810Y-75994500D01*
X129925990Y-75994500D01*
X129818554Y-76006051D01*
X129818532Y-76006055D01*
X129766219Y-76017435D01*
X129766198Y-76017441D01*
X129663665Y-76051567D01*
X129663664Y-76051567D01*
X129542624Y-76129356D01*
X129490258Y-76174731D01*
X129489143Y-76175645D01*
X129394751Y-76284582D01*
X129394749Y-76284584D01*
X129394748Y-76284585D01*
X129394748Y-76284586D01*
X129337078Y-76410867D01*
X129334977Y-76415467D01*
X129314978Y-76483576D01*
X129314976Y-76483583D01*
X129294500Y-76626003D01*
X129294500Y-77774000D01*
X129274498Y-77842121D01*
X129220842Y-77888614D01*
X129168500Y-77900000D01*
X126584449Y-77900000D01*
X126577460Y-77899500D01*
X126571961Y-77899500D01*
X126428039Y-77899500D01*
X126422540Y-77899500D01*
X126415551Y-77900000D01*
X126239861Y-77900000D01*
X126171740Y-77879998D01*
X126131413Y-77833459D01*
X126130249Y-77834208D01*
X126125376Y-77826626D01*
X126064238Y-77756068D01*
X126031128Y-77717857D01*
X126031127Y-77717856D01*
X126031126Y-77717855D01*
X125910053Y-77640047D01*
X125771961Y-77599500D01*
X125628039Y-77599500D01*
X125489946Y-77640047D01*
X125368873Y-77717855D01*
X125274623Y-77826626D01*
X125269751Y-77834208D01*
X125268586Y-77833459D01*
X125228257Y-77880000D01*
X125160139Y-77900000D01*
X124984449Y-77900000D01*
X124977460Y-77899500D01*
X124971961Y-77899500D01*
X124828039Y-77899500D01*
X124822540Y-77899500D01*
X124815551Y-77900000D01*
X124109230Y-77900000D01*
X124041109Y-77879998D01*
X123994617Y-77826343D01*
X123935377Y-77696627D01*
X123841128Y-77587857D01*
X123841127Y-77587856D01*
X123841126Y-77587855D01*
X123720053Y-77510047D01*
X123581961Y-77469500D01*
X123438039Y-77469500D01*
X123299946Y-77510047D01*
X123178873Y-77587855D01*
X123084623Y-77696626D01*
X123074928Y-77717855D01*
X123025382Y-77826343D01*
X122978891Y-77879998D01*
X122910770Y-77900000D01*
X120831683Y-77900000D01*
X120763562Y-77879998D01*
X120750933Y-77870723D01*
X120705604Y-77832880D01*
X120326593Y-77599023D01*
X120301000Y-77587855D01*
X120196029Y-77542048D01*
X120196026Y-77542047D01*
X120128273Y-77523289D01*
X120092953Y-77518717D01*
X119986997Y-77505003D01*
X119986994Y-77505003D01*
X119578094Y-77510178D01*
X119509726Y-77491039D01*
X119462558Y-77437976D01*
X119450500Y-77384188D01*
X119450500Y-75463058D01*
X119470502Y-75394937D01*
X119487405Y-75373963D01*
X120161368Y-74700000D01*
X127294353Y-74700000D01*
X127314835Y-74842457D01*
X127374623Y-74973372D01*
X127374623Y-74973373D01*
X127468873Y-75082144D01*
X127512218Y-75110000D01*
X127589947Y-75159953D01*
X127728039Y-75200500D01*
X127871961Y-75200500D01*
X128010053Y-75159953D01*
X128131128Y-75082143D01*
X128225377Y-74973373D01*
X128285165Y-74842457D01*
X128305647Y-74700000D01*
X128285165Y-74557543D01*
X128225377Y-74426627D01*
X128131128Y-74317857D01*
X128131127Y-74317856D01*
X128131126Y-74317855D01*
X128010053Y-74240047D01*
X127871961Y-74199500D01*
X127728039Y-74199500D01*
X127589946Y-74240047D01*
X127468873Y-74317855D01*
X127374623Y-74426626D01*
X127374623Y-74426627D01*
X127314835Y-74557543D01*
X127294353Y-74700000D01*
X120161368Y-74700000D01*
X121173963Y-73687405D01*
X121236275Y-73653379D01*
X121263058Y-73650500D01*
X124499691Y-73650500D01*
X124541305Y-73657570D01*
X124620745Y-73685368D01*
X124800000Y-73705565D01*
X124979255Y-73685368D01*
X125149522Y-73625789D01*
X125302262Y-73529816D01*
X125429816Y-73402262D01*
X125525789Y-73249522D01*
X125585368Y-73079255D01*
X125605565Y-72900000D01*
X125585368Y-72720745D01*
X125525789Y-72550478D01*
X125525787Y-72550475D01*
X125525787Y-72550474D01*
X125429817Y-72397739D01*
X125429816Y-72397737D01*
X125302262Y-72270183D01*
X125302260Y-72270182D01*
X125149525Y-72174212D01*
X125149522Y-72174211D01*
X125078902Y-72149500D01*
X124979255Y-72114632D01*
X124800000Y-72094435D01*
X124799999Y-72094435D01*
X124787113Y-72095887D01*
X124620745Y-72114632D01*
X124620742Y-72114632D01*
X124620742Y-72114633D01*
X124541306Y-72142429D01*
X124499691Y-72149500D01*
X120963852Y-72149500D01*
X120945593Y-72148170D01*
X120921977Y-72144711D01*
X120869973Y-72149260D01*
X120864480Y-72149500D01*
X120856286Y-72149500D01*
X120827714Y-72152839D01*
X120824618Y-72153201D01*
X120822817Y-72153385D01*
X120797109Y-72155634D01*
X120747209Y-72160000D01*
X120747205Y-72160000D01*
X120747203Y-72160001D01*
X120747201Y-72160001D01*
X120740016Y-72161485D01*
X120740000Y-72161409D01*
X120732858Y-72162993D01*
X120732876Y-72163069D01*
X120725743Y-72164759D01*
X120654427Y-72190715D01*
X120652698Y-72191316D01*
X120580660Y-72215188D01*
X120574017Y-72218286D01*
X120573984Y-72218216D01*
X120567402Y-72221403D01*
X120567437Y-72221471D01*
X120560886Y-72224761D01*
X120497474Y-72266466D01*
X120495931Y-72267449D01*
X120431343Y-72307288D01*
X120425593Y-72311836D01*
X120425544Y-72311775D01*
X120419877Y-72316391D01*
X120419927Y-72316451D01*
X120414306Y-72321167D01*
X120362219Y-72376375D01*
X120360943Y-72377689D01*
X118789094Y-73949536D01*
X118726782Y-73983562D01*
X118655966Y-73978497D01*
X118610904Y-73949536D01*
X117585834Y-72924466D01*
X117573863Y-72910615D01*
X117559610Y-72891470D01*
X117519614Y-72857909D01*
X117515593Y-72854225D01*
X117509777Y-72848409D01*
X117509771Y-72848404D01*
X117484739Y-72828611D01*
X117483319Y-72827454D01*
X117425216Y-72778699D01*
X117419084Y-72774666D01*
X117419127Y-72774600D01*
X117412961Y-72770672D01*
X117412920Y-72770739D01*
X117406678Y-72766889D01*
X117337892Y-72734813D01*
X117336244Y-72734015D01*
X117268436Y-72699961D01*
X117261541Y-72697452D01*
X117261567Y-72697378D01*
X117254656Y-72694975D01*
X117254632Y-72695050D01*
X117247677Y-72692745D01*
X117247673Y-72692743D01*
X117238126Y-72690771D01*
X117173331Y-72677392D01*
X117171543Y-72676995D01*
X117097721Y-72659500D01*
X117090431Y-72658648D01*
X117090440Y-72658569D01*
X117083176Y-72657827D01*
X117083170Y-72657906D01*
X117075856Y-72657266D01*
X116999988Y-72659473D01*
X116998156Y-72659500D01*
X116570309Y-72659500D01*
X116528694Y-72652429D01*
X116449255Y-72624632D01*
X116270000Y-72604435D01*
X116269999Y-72604435D01*
X116243926Y-72607372D01*
X116090745Y-72624632D01*
X116090742Y-72624632D01*
X116090742Y-72624633D01*
X115920477Y-72684211D01*
X115920474Y-72684212D01*
X115767739Y-72780182D01*
X115767737Y-72780183D01*
X115640183Y-72907737D01*
X115640182Y-72907739D01*
X115544212Y-73060474D01*
X115544211Y-73060477D01*
X115537640Y-73079257D01*
X115484632Y-73230745D01*
X115464435Y-73410000D01*
X115484632Y-73589255D01*
X115523558Y-73700500D01*
X115544211Y-73759522D01*
X115544212Y-73759525D01*
X115640182Y-73912260D01*
X115640183Y-73912262D01*
X115767737Y-74039816D01*
X115767739Y-74039817D01*
X115920474Y-74135787D01*
X115920475Y-74135787D01*
X115920478Y-74135789D01*
X116090745Y-74195368D01*
X116270000Y-74215565D01*
X116449255Y-74195368D01*
X116528694Y-74167570D01*
X116570309Y-74160500D01*
X116646942Y-74160500D01*
X116715063Y-74180502D01*
X116736037Y-74197405D01*
X117912595Y-75373962D01*
X117946620Y-75436274D01*
X117949500Y-75463057D01*
X117949500Y-77774000D01*
X117929498Y-77842121D01*
X117875842Y-77888614D01*
X117823500Y-77900000D01*
X110224608Y-77900000D01*
X110156487Y-77879998D01*
X110109994Y-77826342D01*
X110098616Y-77775400D01*
X110047778Y-73200000D01*
X111094353Y-73200000D01*
X111114835Y-73342457D01*
X111174623Y-73473373D01*
X111236773Y-73545099D01*
X111268873Y-73582144D01*
X111306578Y-73606375D01*
X111389947Y-73659953D01*
X111528039Y-73700500D01*
X111671961Y-73700500D01*
X111810053Y-73659953D01*
X111931128Y-73582143D01*
X112025377Y-73473373D01*
X112085165Y-73342457D01*
X112105647Y-73200000D01*
X112085165Y-73057543D01*
X112025377Y-72926627D01*
X111931128Y-72817857D01*
X111931127Y-72817856D01*
X111931126Y-72817855D01*
X111810053Y-72740047D01*
X111671961Y-72699500D01*
X111528039Y-72699500D01*
X111389946Y-72740047D01*
X111268873Y-72817855D01*
X111174623Y-72926626D01*
X111174623Y-72926627D01*
X111114835Y-73057543D01*
X111094353Y-73200000D01*
X110047778Y-73200000D01*
X110001416Y-69027400D01*
X110020660Y-68959061D01*
X110073796Y-68911975D01*
X110127408Y-68900000D01*
X111982473Y-68900000D01*
X112050594Y-68920002D01*
X112097087Y-68973658D01*
X112107191Y-69043932D01*
X112077697Y-69108512D01*
X112072243Y-69113966D01*
X111974623Y-69226626D01*
X111974623Y-69226627D01*
X111914835Y-69357543D01*
X111894353Y-69500000D01*
X111914835Y-69642457D01*
X111974623Y-69773372D01*
X111974623Y-69773373D01*
X112068873Y-69882144D01*
X112129409Y-69921048D01*
X112189947Y-69959953D01*
X112233676Y-69972792D01*
X112240113Y-69974683D01*
X112299839Y-70013066D01*
X112329332Y-70077647D01*
X112319230Y-70147918D01*
X112314836Y-70157538D01*
X112314835Y-70157543D01*
X112296744Y-70283373D01*
X112294353Y-70300000D01*
X112314835Y-70442457D01*
X112336776Y-70490500D01*
X112374623Y-70573373D01*
X112468872Y-70682143D01*
X112487325Y-70694002D01*
X112533818Y-70747658D01*
X112543922Y-70817932D01*
X112514429Y-70882512D01*
X112487325Y-70905998D01*
X112468872Y-70917856D01*
X112374623Y-71026626D01*
X112374623Y-71026627D01*
X112314835Y-71157543D01*
X112294353Y-71300000D01*
X112314835Y-71442457D01*
X112374623Y-71573373D01*
X112441433Y-71650477D01*
X112468873Y-71682144D01*
X112492835Y-71697543D01*
X112589947Y-71759953D01*
X112728039Y-71800500D01*
X112871961Y-71800500D01*
X113010053Y-71759953D01*
X113131128Y-71682143D01*
X113225377Y-71573373D01*
X113285165Y-71442457D01*
X113305647Y-71300000D01*
X113285165Y-71157543D01*
X113225377Y-71026627D01*
X113131128Y-70917857D01*
X113131127Y-70917856D01*
X113121848Y-70911893D01*
X113112675Y-70905998D01*
X113066182Y-70852344D01*
X113056077Y-70782071D01*
X113085569Y-70717489D01*
X113112674Y-70694002D01*
X113131128Y-70682143D01*
X113225377Y-70573373D01*
X113285165Y-70442457D01*
X113305647Y-70300000D01*
X113285165Y-70157543D01*
X113280770Y-70147920D01*
X113270666Y-70077649D01*
X113300158Y-70013068D01*
X113304932Y-70010000D01*
X125764353Y-70010000D01*
X125784835Y-70152457D01*
X125787158Y-70157543D01*
X125844623Y-70283373D01*
X125938873Y-70392144D01*
X125999409Y-70431048D01*
X126059947Y-70469953D01*
X126198039Y-70510500D01*
X126341961Y-70510500D01*
X126480053Y-70469953D01*
X126601128Y-70392143D01*
X126695377Y-70283373D01*
X126755165Y-70152457D01*
X126775647Y-70010000D01*
X126772771Y-69990000D01*
X136844353Y-69990000D01*
X136864835Y-70132457D01*
X136876292Y-70157543D01*
X136924623Y-70263373D01*
X137018873Y-70372144D01*
X137049994Y-70392144D01*
X137139947Y-70449953D01*
X137278039Y-70490500D01*
X137421961Y-70490500D01*
X137560053Y-70449953D01*
X137681128Y-70372143D01*
X137775377Y-70263373D01*
X137835165Y-70132457D01*
X137855647Y-69990000D01*
X137835165Y-69847543D01*
X137775377Y-69716627D01*
X137681128Y-69607857D01*
X137681127Y-69607856D01*
X137681126Y-69607855D01*
X137560053Y-69530047D01*
X137421961Y-69489500D01*
X137278039Y-69489500D01*
X137139946Y-69530047D01*
X137018873Y-69607855D01*
X136924623Y-69716626D01*
X136864835Y-69847542D01*
X136864835Y-69847543D01*
X136844353Y-69990000D01*
X126772771Y-69990000D01*
X126755165Y-69867543D01*
X126695377Y-69736627D01*
X126601128Y-69627857D01*
X126601127Y-69627856D01*
X126601126Y-69627855D01*
X126480053Y-69550047D01*
X126341961Y-69509500D01*
X126198039Y-69509500D01*
X126059946Y-69550047D01*
X125938873Y-69627855D01*
X125844623Y-69736626D01*
X125784835Y-69867543D01*
X125767229Y-69990000D01*
X125764353Y-70010000D01*
X113304932Y-70010000D01*
X113359881Y-69974684D01*
X113410053Y-69959953D01*
X113410053Y-69959952D01*
X113418700Y-69957414D01*
X113419160Y-69958982D01*
X113458162Y-69950500D01*
X113741838Y-69950500D01*
X113780839Y-69958982D01*
X113781300Y-69957414D01*
X113789946Y-69959952D01*
X113789947Y-69959953D01*
X113928039Y-70000500D01*
X114071961Y-70000500D01*
X114210053Y-69959953D01*
X114331128Y-69882143D01*
X114425377Y-69773373D01*
X114485165Y-69642457D01*
X114505647Y-69500000D01*
X114485165Y-69357543D01*
X114425377Y-69226627D01*
X114331128Y-69117857D01*
X114331127Y-69117856D01*
X114325226Y-69111046D01*
X114327310Y-69109239D01*
X114296629Y-69061490D01*
X114296633Y-68990494D01*
X114335021Y-68930770D01*
X114399604Y-68901281D01*
X114417527Y-68900000D01*
X116500000Y-68900000D01*
X116500000Y-66200000D01*
X118094353Y-66200000D01*
X118114835Y-66342457D01*
X118140886Y-66399500D01*
X118174623Y-66473373D01*
X118268873Y-66582144D01*
X118329409Y-66621048D01*
X118389947Y-66659953D01*
X118528039Y-66700500D01*
X118671961Y-66700500D01*
X118810053Y-66659953D01*
X118931128Y-66582143D01*
X119025377Y-66473373D01*
X119085165Y-66342457D01*
X119091269Y-66300000D01*
X129094353Y-66300000D01*
X129114835Y-66442457D01*
X129174623Y-66573373D01*
X129249644Y-66659953D01*
X129268873Y-66682144D01*
X129297436Y-66700500D01*
X129389947Y-66759953D01*
X129528039Y-66800500D01*
X129671961Y-66800500D01*
X129810053Y-66759953D01*
X129931128Y-66682143D01*
X130025377Y-66573373D01*
X130085165Y-66442457D01*
X130091341Y-66399500D01*
X140194353Y-66399500D01*
X140214835Y-66541957D01*
X140233188Y-66582143D01*
X140274623Y-66672873D01*
X140368873Y-66781644D01*
X140384865Y-66791921D01*
X140489947Y-66859453D01*
X140628039Y-66900000D01*
X140771961Y-66900000D01*
X140910053Y-66859453D01*
X141031128Y-66781643D01*
X141125377Y-66672873D01*
X141185165Y-66541957D01*
X141205647Y-66399500D01*
X141185165Y-66257043D01*
X141125377Y-66126127D01*
X141031128Y-66017357D01*
X141031127Y-66017356D01*
X141031126Y-66017355D01*
X140910053Y-65939547D01*
X140771961Y-65899000D01*
X140628039Y-65899000D01*
X140489946Y-65939547D01*
X140368873Y-66017355D01*
X140274623Y-66126126D01*
X140240886Y-66199999D01*
X140214835Y-66257043D01*
X140194353Y-66399500D01*
X130091341Y-66399500D01*
X130105647Y-66300000D01*
X130085165Y-66157543D01*
X130025377Y-66026627D01*
X129931128Y-65917857D01*
X129931127Y-65917856D01*
X129931126Y-65917855D01*
X129810053Y-65840047D01*
X129671961Y-65799500D01*
X129528039Y-65799500D01*
X129389946Y-65840047D01*
X129268873Y-65917855D01*
X129174623Y-66026626D01*
X129174623Y-66026627D01*
X129114835Y-66157543D01*
X129094353Y-66300000D01*
X119091269Y-66300000D01*
X119105647Y-66200000D01*
X119085165Y-66057543D01*
X119025377Y-65926627D01*
X118931128Y-65817857D01*
X118931127Y-65817856D01*
X118931126Y-65817855D01*
X118810053Y-65740047D01*
X118671961Y-65699500D01*
X118528039Y-65699500D01*
X118389946Y-65740047D01*
X118268873Y-65817855D01*
X118174623Y-65926626D01*
X118132872Y-66018048D01*
X118114835Y-66057543D01*
X118094353Y-66200000D01*
X116500000Y-66200000D01*
X116500000Y-65199999D01*
X124994353Y-65199999D01*
X125014835Y-65342456D01*
X125074623Y-65473373D01*
X125168873Y-65582144D01*
X125229409Y-65621048D01*
X125289947Y-65659953D01*
X125428039Y-65700500D01*
X125571961Y-65700500D01*
X125710053Y-65659953D01*
X125831128Y-65582143D01*
X125925377Y-65473373D01*
X125985165Y-65342457D01*
X126005647Y-65200000D01*
X126005647Y-65199999D01*
X135994353Y-65199999D01*
X136014835Y-65342456D01*
X136074623Y-65473373D01*
X136168873Y-65582144D01*
X136229409Y-65621047D01*
X136289947Y-65659953D01*
X136428039Y-65700500D01*
X136571961Y-65700500D01*
X136710053Y-65659953D01*
X136831128Y-65582143D01*
X136925377Y-65473373D01*
X136985165Y-65342457D01*
X136991269Y-65300000D01*
X147094353Y-65300000D01*
X147114835Y-65442457D01*
X147174623Y-65573373D01*
X147249644Y-65659953D01*
X147268873Y-65682144D01*
X147286346Y-65693373D01*
X147389947Y-65759953D01*
X147528039Y-65800500D01*
X147671961Y-65800500D01*
X147810053Y-65759953D01*
X147931128Y-65682143D01*
X148025377Y-65573373D01*
X148085165Y-65442457D01*
X148105647Y-65300000D01*
X148085165Y-65157543D01*
X148025377Y-65026627D01*
X147931128Y-64917857D01*
X147931127Y-64917856D01*
X147931126Y-64917855D01*
X147810053Y-64840047D01*
X147671961Y-64799500D01*
X147528039Y-64799500D01*
X147389946Y-64840047D01*
X147268873Y-64917855D01*
X147174623Y-65026626D01*
X147174623Y-65026627D01*
X147114835Y-65157543D01*
X147094353Y-65300000D01*
X136991269Y-65300000D01*
X137005647Y-65200000D01*
X136985165Y-65057543D01*
X136925377Y-64926627D01*
X136831128Y-64817857D01*
X136831127Y-64817856D01*
X136831126Y-64817855D01*
X136710053Y-64740047D01*
X136571961Y-64699500D01*
X136428039Y-64699500D01*
X136289946Y-64740047D01*
X136168873Y-64817855D01*
X136074623Y-64926626D01*
X136014835Y-65057543D01*
X135994353Y-65199999D01*
X126005647Y-65199999D01*
X125985165Y-65057543D01*
X125925377Y-64926627D01*
X125831128Y-64817857D01*
X125831127Y-64817856D01*
X125831126Y-64817855D01*
X125710053Y-64740047D01*
X125571961Y-64699500D01*
X125428039Y-64699500D01*
X125289946Y-64740047D01*
X125168873Y-64817855D01*
X125074623Y-64926626D01*
X125014835Y-65057543D01*
X124994353Y-65199999D01*
X116500000Y-65199999D01*
X116500000Y-63626644D01*
X116520002Y-63558523D01*
X116573658Y-63512030D01*
X116626642Y-63500646D01*
X134757007Y-63593147D01*
X136099998Y-63600000D01*
X136099998Y-63599999D01*
X136100000Y-63600000D01*
X137072321Y-62610000D01*
X140164353Y-62610000D01*
X140184835Y-62752457D01*
X140244623Y-62883373D01*
X140270257Y-62912957D01*
X140338873Y-62992144D01*
X140399409Y-63031047D01*
X140459947Y-63069953D01*
X140598039Y-63110500D01*
X140741961Y-63110500D01*
X140880053Y-63069953D01*
X141001128Y-62992143D01*
X141095377Y-62883373D01*
X141155165Y-62752457D01*
X141175647Y-62610000D01*
X141155165Y-62467543D01*
X141095377Y-62336627D01*
X141001128Y-62227857D01*
X141001127Y-62227856D01*
X141001126Y-62227855D01*
X140880053Y-62150047D01*
X140741961Y-62109500D01*
X140598039Y-62109500D01*
X140459946Y-62150047D01*
X140338873Y-62227855D01*
X140244623Y-62336626D01*
X140187523Y-62461658D01*
X140184835Y-62467543D01*
X140164353Y-62610000D01*
X137072321Y-62610000D01*
X137573214Y-62100000D01*
X143094353Y-62100000D01*
X143114835Y-62242457D01*
X143174623Y-62373373D01*
X143268453Y-62481660D01*
X143268873Y-62482144D01*
X143329409Y-62521047D01*
X143389947Y-62559953D01*
X143528039Y-62600500D01*
X143671961Y-62600500D01*
X143810053Y-62559953D01*
X143908590Y-62496627D01*
X143931880Y-62481660D01*
X144000000Y-62461658D01*
X144068120Y-62481660D01*
X144121635Y-62516052D01*
X144189947Y-62559953D01*
X144328039Y-62600500D01*
X144471961Y-62600500D01*
X144610053Y-62559953D01*
X144708590Y-62496627D01*
X144731880Y-62481660D01*
X144800000Y-62461658D01*
X144868120Y-62481660D01*
X144921635Y-62516052D01*
X144989947Y-62559953D01*
X145128039Y-62600500D01*
X145271961Y-62600500D01*
X145410053Y-62559953D01*
X145531128Y-62482143D01*
X145625377Y-62373373D01*
X145685165Y-62242457D01*
X145705647Y-62100000D01*
X146394353Y-62100000D01*
X146414835Y-62242457D01*
X146474623Y-62373373D01*
X146568453Y-62481660D01*
X146568873Y-62482144D01*
X146629409Y-62521048D01*
X146689947Y-62559953D01*
X146828039Y-62600500D01*
X146971961Y-62600500D01*
X147110053Y-62559953D01*
X147208590Y-62496627D01*
X147231880Y-62481660D01*
X147300000Y-62461658D01*
X147368120Y-62481660D01*
X147421635Y-62516052D01*
X147489947Y-62559953D01*
X147628039Y-62600500D01*
X147771961Y-62600500D01*
X147910053Y-62559953D01*
X148008590Y-62496627D01*
X148031880Y-62481660D01*
X148100000Y-62461658D01*
X148168120Y-62481660D01*
X148221635Y-62516052D01*
X148289947Y-62559953D01*
X148428039Y-62600500D01*
X148571961Y-62600500D01*
X148710053Y-62559953D01*
X148831128Y-62482143D01*
X148925377Y-62373373D01*
X148985165Y-62242457D01*
X149005647Y-62100000D01*
X148985165Y-61957543D01*
X148925377Y-61826627D01*
X148831128Y-61717857D01*
X148831127Y-61717856D01*
X148831126Y-61717855D01*
X148710053Y-61640047D01*
X148571961Y-61599500D01*
X148428039Y-61599500D01*
X148289946Y-61640047D01*
X148168120Y-61718339D01*
X148099999Y-61738341D01*
X148031880Y-61718339D01*
X147910053Y-61640047D01*
X147771961Y-61599500D01*
X147628039Y-61599500D01*
X147489946Y-61640047D01*
X147368120Y-61718339D01*
X147299999Y-61738341D01*
X147231880Y-61718339D01*
X147110053Y-61640047D01*
X146971961Y-61599500D01*
X146828039Y-61599500D01*
X146689946Y-61640047D01*
X146568873Y-61717855D01*
X146474623Y-61826626D01*
X146441114Y-61900000D01*
X146414835Y-61957543D01*
X146394353Y-62100000D01*
X145705647Y-62100000D01*
X145685165Y-61957543D01*
X145625377Y-61826627D01*
X145531128Y-61717857D01*
X145531127Y-61717856D01*
X145531126Y-61717855D01*
X145410053Y-61640047D01*
X145271961Y-61599500D01*
X145128039Y-61599500D01*
X144989946Y-61640047D01*
X144868120Y-61718339D01*
X144799999Y-61738341D01*
X144731880Y-61718339D01*
X144610053Y-61640047D01*
X144471961Y-61599500D01*
X144328039Y-61599500D01*
X144189946Y-61640047D01*
X144068120Y-61718339D01*
X143999999Y-61738341D01*
X143931880Y-61718339D01*
X143810053Y-61640047D01*
X143671961Y-61599500D01*
X143528039Y-61599500D01*
X143389946Y-61640047D01*
X143268873Y-61717855D01*
X143174623Y-61826626D01*
X143141114Y-61900000D01*
X143114835Y-61957543D01*
X143094353Y-62100000D01*
X137573214Y-62100000D01*
X141600000Y-58000000D01*
X141600000Y-56825999D01*
X141620002Y-56757879D01*
X141673658Y-56711386D01*
X141726000Y-56700000D01*
X152074000Y-56700000D01*
X152142121Y-56720002D01*
G37*
%TD.AperFunction*%
%TD*%
M02*
