%TF.GenerationSoftware,KiCad,Pcbnew,7.0.5*%
%TF.CreationDate,2023-08-21T12:06:50+01:00*%
%TF.ProjectId,ESC_Control_Board_STM32G071_V2,4553435f-436f-46e7-9472-6f6c5f426f61,rev?*%
%TF.SameCoordinates,Original*%
%TF.FileFunction,Copper,L3,Inr*%
%TF.FilePolarity,Positive*%
%FSLAX46Y46*%
G04 Gerber Fmt 4.6, Leading zero omitted, Abs format (unit mm)*
G04 Created by KiCad (PCBNEW 7.0.5) date 2023-08-21 12:06:50*
%MOMM*%
%LPD*%
G01*
G04 APERTURE LIST*
%TA.AperFunction,ComponentPad*%
%ADD10R,1.350000X1.350000*%
%TD*%
%TA.AperFunction,ComponentPad*%
%ADD11O,1.350000X1.350000*%
%TD*%
%TA.AperFunction,ViaPad*%
%ADD12C,0.600000*%
%TD*%
%TA.AperFunction,Conductor*%
%ADD13C,0.200000*%
%TD*%
G04 APERTURE END LIST*
D10*
%TO.N,VBATT*%
%TO.C,J6*%
X145700000Y-79900000D03*
D11*
%TO.N,unconnected-(J6-Pin_2-Pad2)*%
X143700000Y-79900000D03*
%TO.N,/Gate_Drive/U_H*%
X141700000Y-79900000D03*
%TO.N,/BEMF_Feedback/pU*%
X139700000Y-79900000D03*
%TO.N,/Gate_Drive/U_L*%
X137700000Y-79900000D03*
%TO.N,unconnected-(J6-Pin_6-Pad6)*%
X135700000Y-79900000D03*
%TO.N,/Gate_Drive/V_H*%
X133700000Y-79900000D03*
%TO.N,/BEMF_Feedback/pV*%
X131700000Y-79900000D03*
%TO.N,/Gate_Drive/V_L*%
X129700000Y-79900000D03*
%TO.N,unconnected-(J6-Pin_10-Pad10)*%
X127700000Y-79900000D03*
%TO.N,GND*%
X125700000Y-79900000D03*
%TO.N,unconnected-(J6-Pin_12-Pad12)*%
X123700000Y-79900000D03*
%TO.N,/Gate_Drive/W_H*%
X121700000Y-79900000D03*
%TO.N,/BEMF_Feedback/pW*%
X119700000Y-79900000D03*
%TO.N,/Gate_Drive/W_L*%
X117700000Y-79900000D03*
%TD*%
D12*
%TO.N,GND*%
X137350000Y-69990000D03*
X126270000Y-70010000D03*
X154800000Y-70920000D03*
X127240000Y-60560000D03*
%TO.N,/BEMF_Feedback/pW*%
X116270000Y-73410000D03*
%TO.N,/BEMF_Feedback/pU*%
X148870000Y-74130000D03*
%TO.N,GND*%
X140740000Y-48640000D03*
X115680000Y-64470000D03*
X140670000Y-62610000D03*
X133350000Y-59260000D03*
X131390000Y-59250000D03*
X132560000Y-51700000D03*
X112530000Y-56530000D03*
X120990000Y-53670000D03*
X121770000Y-55640000D03*
X124900000Y-78400000D03*
X111600000Y-73200000D03*
X115310000Y-48990000D03*
X116470000Y-51780000D03*
X115660000Y-61810000D03*
X125700000Y-78100000D03*
X129600000Y-66300000D03*
X144400000Y-62100000D03*
X109460000Y-59820000D03*
X147700000Y-62100000D03*
X116470000Y-50130000D03*
X144300000Y-49000000D03*
X110000000Y-78700000D03*
X115630000Y-54870000D03*
X109300000Y-65420000D03*
X137100000Y-74400000D03*
X115590000Y-58080000D03*
X120900000Y-61420000D03*
X111190000Y-59830000D03*
X140700000Y-66399500D03*
X142500000Y-74199500D03*
X126435571Y-56033554D03*
X134800000Y-62300000D03*
X122990000Y-56900000D03*
X112800000Y-70300000D03*
X110000000Y-58100000D03*
X110330000Y-59810000D03*
X118600000Y-66200000D03*
X123510000Y-77970000D03*
X146900000Y-62100000D03*
X128250000Y-56040000D03*
X136490000Y-54770000D03*
X115520000Y-56480000D03*
X127800000Y-74700000D03*
X155300000Y-78300000D03*
X157000000Y-78600000D03*
X157330000Y-54580000D03*
X128300000Y-54290000D03*
X109210000Y-64470000D03*
X145200000Y-62100000D03*
X126450000Y-54330000D03*
X115610000Y-53410000D03*
X126500000Y-78400000D03*
X148500000Y-62100000D03*
X140130000Y-53570000D03*
X115570000Y-60200000D03*
X143600000Y-62100000D03*
X136500000Y-57340000D03*
X109240000Y-66370000D03*
X134640000Y-48740000D03*
X109550000Y-75110000D03*
X154300000Y-78300000D03*
X149910000Y-71840000D03*
X110000000Y-55100000D03*
X112800000Y-71300000D03*
%TO.N,/MCU/PA1*%
X117530000Y-59010000D03*
X153125000Y-78050000D03*
%TO.N,+3V3*%
X113200000Y-69500000D03*
X136900000Y-51500000D03*
X113100000Y-64500000D03*
X113200000Y-66300000D03*
X112400000Y-69500000D03*
X114000000Y-69500000D03*
X114600000Y-61900000D03*
X114006428Y-66291421D03*
X112400000Y-66300000D03*
X142675000Y-55395000D03*
X114600000Y-62800000D03*
X114600000Y-61000000D03*
X122975000Y-53125000D03*
%TO.N,/BEMF_Feedback/pU*%
X148000000Y-72000000D03*
X139440000Y-78290000D03*
X140220000Y-78290000D03*
%TO.N,/BEMF_Feedback/pV*%
X131200000Y-78300000D03*
X132000000Y-78300000D03*
X135775000Y-73000500D03*
%TO.N,/BEMF_Feedback/bW*%
X117540000Y-62770000D03*
X125500000Y-65200000D03*
%TO.N,/BEMF_Feedback/pW*%
X124800000Y-72900000D03*
X119320000Y-78430000D03*
X120040000Y-78420000D03*
%TO.N,+12V*%
X149800000Y-62900000D03*
X128295000Y-68290000D03*
X150600000Y-60900000D03*
X142500000Y-57400000D03*
X110800000Y-70300000D03*
X149800000Y-57300000D03*
X122900000Y-64800000D03*
X145300000Y-59200000D03*
X133900000Y-64800000D03*
X151400000Y-61100000D03*
X148500000Y-59200000D03*
X143600000Y-59200000D03*
X134700000Y-64800000D03*
X147700000Y-58900000D03*
X146900000Y-59200000D03*
X139395000Y-68290000D03*
X117280000Y-68310000D03*
X139395000Y-67520000D03*
X150600000Y-57500000D03*
X145000000Y-64900000D03*
X117280000Y-67590000D03*
X114880000Y-73200000D03*
X151400000Y-57300000D03*
X145800000Y-64900000D03*
X128295000Y-67510000D03*
X141400000Y-76800000D03*
X149800000Y-61100000D03*
X122400000Y-74300000D03*
X142500000Y-58300000D03*
X109900000Y-70300000D03*
X144400000Y-58900000D03*
X123700000Y-64800000D03*
%TO.N,/BEMF_Feedback/bV*%
X119500500Y-53200000D03*
X136500000Y-65200000D03*
%TO.N,/BEMF_Feedback/bU*%
X120100000Y-51440000D03*
X147600000Y-65300000D03*
%TO.N,/MCU/PB4*%
X127620000Y-52480000D03*
X144325000Y-51825000D03*
%TO.N,/Gate_Drive/V_HIN*%
X130925000Y-55400000D03*
X132120111Y-62770500D03*
%TO.N,/Gate_Drive/W_HIN*%
X130625000Y-56175500D03*
X122600000Y-62770500D03*
%TO.N,VBATT*%
X153325000Y-73525000D03*
X149750000Y-78675000D03*
X155125000Y-73525000D03*
X148650000Y-78675000D03*
X150850000Y-78675000D03*
X154225000Y-73525000D03*
%TO.N,/MCU/NRST*%
X140000000Y-52300000D03*
X124060000Y-56920000D03*
%TO.N,/MCU/SWO*%
X126325000Y-58799500D03*
X140000000Y-57400000D03*
%TO.N,/MCU/SWDIO*%
X136600000Y-53500000D03*
X130770000Y-54100000D03*
%TO.N,/MCU/TDI*%
X130450000Y-51700500D03*
X140000000Y-54800000D03*
%TD*%
D13*
%TO.N,/MCU/PA1*%
X152850000Y-77775000D02*
X153125000Y-78050000D01*
X144670500Y-72100500D02*
X150345000Y-77775000D01*
X116940000Y-63691471D02*
X125349029Y-72100500D01*
X150345000Y-77775000D02*
X152850000Y-77775000D01*
X116940000Y-59600000D02*
X116940000Y-63691471D01*
X117530000Y-59010000D02*
X116940000Y-59600000D01*
X125349029Y-72100500D02*
X144670500Y-72100500D01*
%TO.N,/BEMF_Feedback/bW*%
X124470000Y-64170000D02*
X125500000Y-65200000D01*
X120842178Y-64170000D02*
X124470000Y-64170000D01*
X119442178Y-62770000D02*
X120842178Y-64170000D01*
X117540000Y-62770000D02*
X119442178Y-62770000D01*
%TO.N,/MCU/PB4*%
X142100000Y-49600000D02*
X144325000Y-51825000D01*
X136151471Y-49600000D02*
X142100000Y-49600000D01*
X135161471Y-50590000D02*
X136151471Y-49600000D01*
X127620000Y-52480000D02*
X129510000Y-50590000D01*
X129510000Y-50590000D02*
X135161471Y-50590000D01*
%TO.N,/BEMF_Feedback/bV*%
X119500500Y-53200000D02*
X119500500Y-61980500D01*
X121290000Y-63770000D02*
X135070000Y-63770000D01*
X135070000Y-63770000D02*
X136500000Y-65200000D01*
X119500500Y-61980500D02*
X121290000Y-63770000D01*
%TO.N,/BEMF_Feedback/bU*%
X120100000Y-61570000D02*
X121900000Y-63370000D01*
X120100000Y-51440000D02*
X120100000Y-61570000D01*
X145670000Y-63370000D02*
X147600000Y-65300000D01*
X121900000Y-63370000D02*
X145670000Y-63370000D01*
%TO.N,/Gate_Drive/V_HIN*%
X132120111Y-62770500D02*
X132125000Y-62765611D01*
X132125000Y-56600000D02*
X130925000Y-55400000D01*
X132125000Y-62765611D02*
X132125000Y-56600000D01*
%TO.N,/Gate_Drive/W_HIN*%
X128780000Y-62770500D02*
X130625000Y-60925500D01*
X122600000Y-62770500D02*
X128780000Y-62770500D01*
X130625000Y-60925500D02*
X130625000Y-56175500D01*
%TO.N,/MCU/SWO*%
X128721471Y-54720000D02*
X135560000Y-54720000D01*
X127190000Y-56251471D02*
X128721471Y-54720000D01*
X126325000Y-58799500D02*
X126325000Y-57133529D01*
X138240000Y-57400000D02*
X140000000Y-57400000D01*
X126325000Y-57133529D02*
X127190000Y-56268529D01*
X135560000Y-54720000D02*
X138240000Y-57400000D01*
X127190000Y-56268529D02*
X127190000Y-56251471D01*
%TO.N,/MCU/SWDIO*%
X131370000Y-53500000D02*
X136600000Y-53500000D01*
X130770000Y-54100000D02*
X131370000Y-53500000D01*
%TO.N,/MCU/TDI*%
X131569500Y-52820000D02*
X138020000Y-52820000D01*
X138020000Y-52820000D02*
X140000000Y-54800000D01*
X130450000Y-51700500D02*
X131569500Y-52820000D01*
%TD*%
%TA.AperFunction,Conductor*%
%TO.N,GND*%
G36*
X131262385Y-56169841D02*
G01*
X131288709Y-56188680D01*
X131795504Y-56695474D01*
X131823281Y-56749991D01*
X131824500Y-56765478D01*
X131824500Y-62312369D01*
X131805593Y-62370560D01*
X131790334Y-62387186D01*
X131788985Y-62388354D01*
X131694733Y-62497128D01*
X131634945Y-62628043D01*
X131614464Y-62770497D01*
X131614464Y-62770502D01*
X131634944Y-62912954D01*
X131642443Y-62929372D01*
X131649419Y-62990158D01*
X131619333Y-63043436D01*
X131563677Y-63068854D01*
X131552390Y-63069500D01*
X129144978Y-63069500D01*
X129086787Y-63050593D01*
X129050823Y-63001093D01*
X129050823Y-62939907D01*
X129074974Y-62900496D01*
X129933014Y-62042456D01*
X130791405Y-61184064D01*
X130802664Y-61175993D01*
X130801905Y-61174987D01*
X130809221Y-61169461D01*
X130809228Y-61169458D01*
X130841632Y-61133911D01*
X130843186Y-61132283D01*
X130857174Y-61118297D01*
X130859181Y-61115365D01*
X130863440Y-61109990D01*
X130884916Y-61086433D01*
X130888465Y-61077270D01*
X130899106Y-61057082D01*
X130904656Y-61048981D01*
X130911955Y-61017943D01*
X130913977Y-61011414D01*
X130925500Y-60981673D01*
X130925500Y-60971848D01*
X130928129Y-60949183D01*
X130930379Y-60939619D01*
X130925973Y-60908033D01*
X130925499Y-60901214D01*
X130925499Y-56629394D01*
X130944406Y-56571204D01*
X130951741Y-56563212D01*
X130951490Y-56562995D01*
X130956126Y-56557643D01*
X130956128Y-56557643D01*
X131050377Y-56448873D01*
X131110165Y-56317957D01*
X131110164Y-56317957D01*
X131110166Y-56317955D01*
X131120713Y-56244596D01*
X131147708Y-56189688D01*
X131201823Y-56161134D01*
X131262385Y-56169841D01*
G37*
%TD.AperFunction*%
%TA.AperFunction,Conductor*%
G36*
X153158691Y-47919407D02*
G01*
X153194655Y-47968907D01*
X153199500Y-47999500D01*
X153199500Y-50113263D01*
X153195953Y-50124510D01*
X153230583Y-50326856D01*
X153230585Y-50326867D01*
X153288472Y-50541487D01*
X153288991Y-50543591D01*
X153300447Y-50594902D01*
X153306555Y-50608527D01*
X153326631Y-50682963D01*
X153326634Y-50682972D01*
X153405025Y-50892773D01*
X153417036Y-50924917D01*
X153417645Y-50926644D01*
X153429189Y-50961410D01*
X153433504Y-50968993D01*
X153455730Y-51028476D01*
X153500324Y-51120391D01*
X153588580Y-51302297D01*
X153589213Y-51303654D01*
X153593701Y-51313665D01*
X153594969Y-51315466D01*
X153616729Y-51360317D01*
X153808195Y-51675537D01*
X153808206Y-51675555D01*
X153826778Y-51700500D01*
X154028463Y-51971398D01*
X154241188Y-52207144D01*
X154275557Y-52245233D01*
X154547293Y-52494628D01*
X154547306Y-52494638D01*
X154547311Y-52494642D01*
X154841262Y-52717376D01*
X154841267Y-52717379D01*
X155154877Y-52911511D01*
X155485346Y-53075308D01*
X155829747Y-53207317D01*
X155877764Y-53220704D01*
X155878798Y-53221390D01*
X155890389Y-53224247D01*
X155891830Y-53224626D01*
X156050642Y-53268903D01*
X156185031Y-53306371D01*
X156247526Y-53317599D01*
X156251890Y-53319937D01*
X156291959Y-53325616D01*
X156293733Y-53325900D01*
X156548053Y-53371592D01*
X156624893Y-53378033D01*
X156632742Y-53381331D01*
X156691840Y-53383692D01*
X156693971Y-53383824D01*
X156915598Y-53402403D01*
X157058752Y-53400924D01*
X157099935Y-53400500D01*
X157100005Y-53400500D01*
X158600500Y-53400500D01*
X158658691Y-53419407D01*
X158694655Y-53468907D01*
X158699500Y-53499500D01*
X158699500Y-79800500D01*
X158680593Y-79858691D01*
X158631093Y-79894655D01*
X158600500Y-79899500D01*
X146974499Y-79899500D01*
X146916308Y-79880593D01*
X146880344Y-79831093D01*
X146875499Y-79800500D01*
X146875499Y-79177132D01*
X146875499Y-79177128D01*
X146869091Y-79117517D01*
X146864305Y-79104684D01*
X146818797Y-78982670D01*
X146732549Y-78867458D01*
X146732548Y-78867457D01*
X146732546Y-78867454D01*
X146732541Y-78867450D01*
X146617329Y-78781202D01*
X146482488Y-78730910D01*
X146482483Y-78730909D01*
X146482481Y-78730908D01*
X146482477Y-78730908D01*
X146451249Y-78727550D01*
X146422873Y-78724500D01*
X146422870Y-78724500D01*
X144977133Y-78724500D01*
X144977129Y-78724500D01*
X144977128Y-78724501D01*
X144969949Y-78725272D01*
X144917519Y-78730908D01*
X144917514Y-78730909D01*
X144782670Y-78781202D01*
X144667458Y-78867450D01*
X144667450Y-78867458D01*
X144581202Y-78982670D01*
X144530910Y-79117511D01*
X144530908Y-79117522D01*
X144524500Y-79177129D01*
X144524500Y-79249382D01*
X144505593Y-79307573D01*
X144456093Y-79343537D01*
X144394907Y-79343537D01*
X144351929Y-79315626D01*
X144289055Y-79245797D01*
X144289054Y-79245796D01*
X144289050Y-79245793D01*
X144140161Y-79137619D01*
X144140157Y-79137617D01*
X144140154Y-79137615D01*
X143972036Y-79062765D01*
X143972034Y-79062764D01*
X143972031Y-79062763D01*
X143972030Y-79062763D01*
X143911119Y-79049816D01*
X143792019Y-79024500D01*
X143607981Y-79024500D01*
X143510797Y-79045157D01*
X143427969Y-79062763D01*
X143427963Y-79062765D01*
X143259845Y-79137615D01*
X143259842Y-79137617D01*
X143110948Y-79245794D01*
X142987804Y-79382561D01*
X142955262Y-79438925D01*
X142909792Y-79479866D01*
X142848941Y-79486260D01*
X142795954Y-79455667D01*
X142780905Y-79433552D01*
X142755513Y-79382559D01*
X142703712Y-79278528D01*
X142572427Y-79104678D01*
X142411432Y-78957912D01*
X142226210Y-78843228D01*
X142023069Y-78764530D01*
X142023068Y-78764529D01*
X142023066Y-78764529D01*
X141808926Y-78724500D01*
X141591074Y-78724500D01*
X141376933Y-78764529D01*
X141338230Y-78779523D01*
X141173790Y-78843228D01*
X140988568Y-78957912D01*
X140988565Y-78957914D01*
X140827573Y-79104678D01*
X140779003Y-79168995D01*
X140728847Y-79204037D01*
X140667672Y-79202906D01*
X140620998Y-79168996D01*
X140609271Y-79153468D01*
X140590980Y-79129246D01*
X140571000Y-79071418D01*
X140588827Y-79012887D01*
X140617310Y-78985761D01*
X140722262Y-78919816D01*
X140849816Y-78792262D01*
X140945789Y-78639522D01*
X141005368Y-78469255D01*
X141025565Y-78290000D01*
X141005368Y-78110745D01*
X140999131Y-78092922D01*
X140949288Y-77950478D01*
X140945789Y-77940478D01*
X140931502Y-77917741D01*
X140849818Y-77787741D01*
X140849817Y-77787740D01*
X140849816Y-77787738D01*
X140722262Y-77660184D01*
X140722259Y-77660182D01*
X140722258Y-77660181D01*
X140569523Y-77564211D01*
X140399261Y-77504633D01*
X140399257Y-77504632D01*
X140220000Y-77484435D01*
X140040742Y-77504632D01*
X140040738Y-77504633D01*
X139865231Y-77566047D01*
X139864570Y-77564159D01*
X139812297Y-77571226D01*
X139794931Y-77565583D01*
X139794769Y-77566047D01*
X139619261Y-77504633D01*
X139619257Y-77504632D01*
X139440000Y-77484435D01*
X139260742Y-77504632D01*
X139260738Y-77504633D01*
X139090477Y-77564211D01*
X139090476Y-77564211D01*
X138937741Y-77660181D01*
X138810181Y-77787741D01*
X138714211Y-77940476D01*
X138714211Y-77940477D01*
X138654633Y-78110738D01*
X138654632Y-78110742D01*
X138634435Y-78290000D01*
X138654632Y-78469257D01*
X138654633Y-78469261D01*
X138714211Y-78639522D01*
X138714211Y-78639523D01*
X138810181Y-78792258D01*
X138810184Y-78792262D01*
X138908593Y-78890671D01*
X138936369Y-78945186D01*
X138926798Y-79005618D01*
X138905284Y-79033834D01*
X138827576Y-79104674D01*
X138696289Y-79278526D01*
X138696286Y-79278531D01*
X138619094Y-79433553D01*
X138576231Y-79477215D01*
X138515890Y-79487344D01*
X138461119Y-79460071D01*
X138444737Y-79438924D01*
X138437137Y-79425761D01*
X138412195Y-79382560D01*
X138289050Y-79245793D01*
X138140161Y-79137619D01*
X138140157Y-79137617D01*
X138140154Y-79137615D01*
X137972036Y-79062765D01*
X137972034Y-79062764D01*
X137972031Y-79062763D01*
X137972030Y-79062763D01*
X137911119Y-79049816D01*
X137792019Y-79024500D01*
X137607981Y-79024500D01*
X137510797Y-79045157D01*
X137427969Y-79062763D01*
X137427963Y-79062765D01*
X137259845Y-79137615D01*
X137259842Y-79137617D01*
X137110948Y-79245794D01*
X136987803Y-79382562D01*
X136987803Y-79382563D01*
X136895790Y-79541931D01*
X136895784Y-79541945D01*
X136838916Y-79716965D01*
X136838915Y-79716969D01*
X136838915Y-79716971D01*
X136829048Y-79810849D01*
X136804162Y-79866744D01*
X136751174Y-79897337D01*
X136730591Y-79899500D01*
X136669409Y-79899500D01*
X136611218Y-79880593D01*
X136575254Y-79831093D01*
X136570952Y-79810853D01*
X136561085Y-79716971D01*
X136504214Y-79541941D01*
X136504211Y-79541936D01*
X136504209Y-79541931D01*
X136456935Y-79460052D01*
X136412195Y-79382560D01*
X136289050Y-79245793D01*
X136140161Y-79137619D01*
X136140157Y-79137617D01*
X136140154Y-79137615D01*
X135972036Y-79062765D01*
X135972034Y-79062764D01*
X135972031Y-79062763D01*
X135972030Y-79062763D01*
X135911119Y-79049816D01*
X135792019Y-79024500D01*
X135607981Y-79024500D01*
X135510797Y-79045157D01*
X135427969Y-79062763D01*
X135427963Y-79062765D01*
X135259845Y-79137615D01*
X135259842Y-79137617D01*
X135110948Y-79245794D01*
X134987804Y-79382561D01*
X134955262Y-79438925D01*
X134909792Y-79479866D01*
X134848941Y-79486260D01*
X134795954Y-79455667D01*
X134780905Y-79433552D01*
X134755513Y-79382559D01*
X134703712Y-79278528D01*
X134572427Y-79104678D01*
X134411432Y-78957912D01*
X134226210Y-78843228D01*
X134023069Y-78764530D01*
X134023068Y-78764529D01*
X134023066Y-78764529D01*
X133808926Y-78724500D01*
X133591074Y-78724500D01*
X133376933Y-78764529D01*
X133338230Y-78779523D01*
X133173790Y-78843228D01*
X132988568Y-78957912D01*
X132988565Y-78957914D01*
X132827573Y-79104678D01*
X132779003Y-79168995D01*
X132728847Y-79204037D01*
X132667672Y-79202906D01*
X132620997Y-79168995D01*
X132598159Y-79138753D01*
X132572427Y-79104678D01*
X132520870Y-79057678D01*
X132490605Y-79004503D01*
X132497376Y-78943693D01*
X132517561Y-78914516D01*
X132629816Y-78802262D01*
X132725789Y-78649522D01*
X132785368Y-78479255D01*
X132805565Y-78300000D01*
X132785368Y-78120745D01*
X132781866Y-78110738D01*
X132757843Y-78042084D01*
X132725789Y-77950478D01*
X132719504Y-77940476D01*
X132629818Y-77797741D01*
X132629817Y-77797740D01*
X132629816Y-77797738D01*
X132502262Y-77670184D01*
X132502259Y-77670182D01*
X132502258Y-77670181D01*
X132349523Y-77574211D01*
X132179261Y-77514633D01*
X132179257Y-77514632D01*
X132000000Y-77494435D01*
X131820742Y-77514632D01*
X131820738Y-77514633D01*
X131650474Y-77574212D01*
X131645466Y-77576624D01*
X131644618Y-77574863D01*
X131593333Y-77587782D01*
X131555136Y-77575371D01*
X131554534Y-77576624D01*
X131549525Y-77574212D01*
X131379261Y-77514633D01*
X131379257Y-77514632D01*
X131200000Y-77494435D01*
X131020742Y-77514632D01*
X131020738Y-77514633D01*
X130850477Y-77574211D01*
X130850476Y-77574211D01*
X130697741Y-77670181D01*
X130570181Y-77797741D01*
X130474211Y-77950476D01*
X130474211Y-77950477D01*
X130414633Y-78120738D01*
X130414632Y-78120742D01*
X130394435Y-78300000D01*
X130414632Y-78479257D01*
X130414633Y-78479261D01*
X130474211Y-78649522D01*
X130474211Y-78649523D01*
X130570181Y-78802258D01*
X130570184Y-78802262D01*
X130697738Y-78929816D01*
X130784002Y-78984019D01*
X130823213Y-79030986D01*
X130827329Y-79092033D01*
X130810334Y-79127504D01*
X130696293Y-79278520D01*
X130696286Y-79278531D01*
X130619094Y-79433553D01*
X130576231Y-79477215D01*
X130515890Y-79487344D01*
X130461119Y-79460071D01*
X130444737Y-79438924D01*
X130437137Y-79425761D01*
X130412195Y-79382560D01*
X130289050Y-79245793D01*
X130140161Y-79137619D01*
X130140157Y-79137617D01*
X130140154Y-79137615D01*
X129972036Y-79062765D01*
X129972034Y-79062764D01*
X129972031Y-79062763D01*
X129972030Y-79062763D01*
X129911119Y-79049816D01*
X129792019Y-79024500D01*
X129607981Y-79024500D01*
X129510797Y-79045157D01*
X129427969Y-79062763D01*
X129427963Y-79062765D01*
X129259845Y-79137615D01*
X129259842Y-79137617D01*
X129110948Y-79245794D01*
X128987803Y-79382562D01*
X128987803Y-79382563D01*
X128895790Y-79541931D01*
X128895784Y-79541945D01*
X128838916Y-79716965D01*
X128838915Y-79716969D01*
X128838915Y-79716971D01*
X128829048Y-79810849D01*
X128804162Y-79866744D01*
X128751174Y-79897337D01*
X128730591Y-79899500D01*
X128669409Y-79899500D01*
X128611218Y-79880593D01*
X128575254Y-79831093D01*
X128570952Y-79810853D01*
X128561085Y-79716971D01*
X128504214Y-79541941D01*
X128504211Y-79541936D01*
X128504209Y-79541931D01*
X128456935Y-79460052D01*
X128412195Y-79382560D01*
X128289050Y-79245793D01*
X128140161Y-79137619D01*
X128140157Y-79137617D01*
X128140154Y-79137615D01*
X127972036Y-79062765D01*
X127972034Y-79062764D01*
X127972031Y-79062763D01*
X127972030Y-79062763D01*
X127911119Y-79049816D01*
X127792019Y-79024500D01*
X127607981Y-79024500D01*
X127510797Y-79045157D01*
X127427969Y-79062763D01*
X127427963Y-79062765D01*
X127259845Y-79137615D01*
X127259842Y-79137617D01*
X127110948Y-79245794D01*
X127055323Y-79307573D01*
X126987805Y-79382560D01*
X126965469Y-79421245D01*
X126959760Y-79431135D01*
X126914289Y-79472075D01*
X126853439Y-79478469D01*
X126800451Y-79447876D01*
X126785403Y-79425761D01*
X126710119Y-79274570D01*
X126710114Y-79274561D01*
X126577991Y-79099603D01*
X126415970Y-78951901D01*
X126229565Y-78836485D01*
X126025130Y-78757286D01*
X126025124Y-78757284D01*
X125954000Y-78743989D01*
X125954000Y-79588314D01*
X125938045Y-79572359D01*
X125825148Y-79514835D01*
X125731481Y-79500000D01*
X125668519Y-79500000D01*
X125574852Y-79514835D01*
X125461955Y-79572359D01*
X125445999Y-79588314D01*
X125445999Y-78743989D01*
X125445998Y-78743989D01*
X125374875Y-78757284D01*
X125374869Y-78757286D01*
X125170434Y-78836485D01*
X124984029Y-78951901D01*
X124822008Y-79099603D01*
X124689885Y-79274561D01*
X124689880Y-79274570D01*
X124614596Y-79425761D01*
X124571733Y-79469424D01*
X124511392Y-79479553D01*
X124456621Y-79452280D01*
X124440239Y-79431133D01*
X124432832Y-79418304D01*
X124412195Y-79382560D01*
X124289050Y-79245793D01*
X124140161Y-79137619D01*
X124140157Y-79137617D01*
X124140154Y-79137615D01*
X123972036Y-79062765D01*
X123972034Y-79062764D01*
X123972031Y-79062763D01*
X123972030Y-79062763D01*
X123911119Y-79049816D01*
X123792019Y-79024500D01*
X123607981Y-79024500D01*
X123510797Y-79045157D01*
X123427969Y-79062763D01*
X123427963Y-79062765D01*
X123259845Y-79137615D01*
X123259842Y-79137617D01*
X123110948Y-79245794D01*
X122987804Y-79382561D01*
X122955262Y-79438925D01*
X122909792Y-79479866D01*
X122848941Y-79486260D01*
X122795954Y-79455667D01*
X122780905Y-79433552D01*
X122755513Y-79382559D01*
X122703712Y-79278528D01*
X122572427Y-79104678D01*
X122411432Y-78957912D01*
X122226210Y-78843228D01*
X122023069Y-78764530D01*
X122023068Y-78764529D01*
X122023066Y-78764529D01*
X121808926Y-78724500D01*
X121591074Y-78724500D01*
X121376933Y-78764529D01*
X121338230Y-78779523D01*
X121173790Y-78843228D01*
X120988568Y-78957912D01*
X120988565Y-78957914D01*
X120827574Y-79104677D01*
X120827568Y-79104684D01*
X120779002Y-79168995D01*
X120728846Y-79204037D01*
X120667671Y-79202906D01*
X120620994Y-79168992D01*
X120587759Y-79124980D01*
X120567781Y-79067149D01*
X120585611Y-79008619D01*
X120596754Y-78995323D01*
X120669816Y-78922262D01*
X120765789Y-78769522D01*
X120825368Y-78599255D01*
X120845565Y-78420000D01*
X120825368Y-78240745D01*
X120820618Y-78227171D01*
X120783377Y-78120742D01*
X120765789Y-78070478D01*
X120676099Y-77927738D01*
X120669818Y-77917741D01*
X120669817Y-77917740D01*
X120669816Y-77917738D01*
X120542262Y-77790184D01*
X120542259Y-77790182D01*
X120542258Y-77790181D01*
X120389523Y-77694211D01*
X120219261Y-77634633D01*
X120219257Y-77634632D01*
X120040000Y-77614435D01*
X119860742Y-77634632D01*
X119698407Y-77691436D01*
X119637237Y-77692808D01*
X119633012Y-77691435D01*
X119499261Y-77644633D01*
X119499257Y-77644632D01*
X119320000Y-77624435D01*
X119140742Y-77644632D01*
X119140738Y-77644633D01*
X118970477Y-77704211D01*
X118970476Y-77704211D01*
X118817741Y-77800181D01*
X118690181Y-77927741D01*
X118594211Y-78080476D01*
X118594211Y-78080477D01*
X118534633Y-78250738D01*
X118534632Y-78250742D01*
X118514435Y-78430000D01*
X118534632Y-78609257D01*
X118534633Y-78609261D01*
X118594211Y-78779522D01*
X118594211Y-78779523D01*
X118688647Y-78929816D01*
X118690184Y-78932262D01*
X118781728Y-79023806D01*
X118809504Y-79078321D01*
X118799933Y-79138753D01*
X118790727Y-79153468D01*
X118696293Y-79278520D01*
X118696286Y-79278531D01*
X118619094Y-79433553D01*
X118576231Y-79477215D01*
X118515890Y-79487344D01*
X118461119Y-79460071D01*
X118444737Y-79438924D01*
X118437137Y-79425761D01*
X118412195Y-79382560D01*
X118289050Y-79245793D01*
X118140161Y-79137619D01*
X118140157Y-79137617D01*
X118140154Y-79137615D01*
X117972036Y-79062765D01*
X117972034Y-79062764D01*
X117972031Y-79062763D01*
X117972030Y-79062763D01*
X117911119Y-79049816D01*
X117792019Y-79024500D01*
X117607981Y-79024500D01*
X117510797Y-79045157D01*
X117427969Y-79062763D01*
X117427963Y-79062765D01*
X117259845Y-79137615D01*
X117259842Y-79137617D01*
X117110948Y-79245794D01*
X116987803Y-79382562D01*
X116987803Y-79382563D01*
X116895790Y-79541931D01*
X116895784Y-79541945D01*
X116838916Y-79716965D01*
X116838915Y-79716969D01*
X116838915Y-79716971D01*
X116829048Y-79810849D01*
X116804162Y-79866744D01*
X116751174Y-79897337D01*
X116730591Y-79899500D01*
X108799500Y-79899500D01*
X108741309Y-79880593D01*
X108705345Y-79831093D01*
X108700500Y-79800500D01*
X108700500Y-76800002D01*
X140894353Y-76800002D01*
X140914834Y-76942456D01*
X140974622Y-77073371D01*
X140974623Y-77073373D01*
X141068872Y-77182143D01*
X141068873Y-77182144D01*
X141189942Y-77259950D01*
X141189947Y-77259953D01*
X141296403Y-77291211D01*
X141328035Y-77300499D01*
X141328036Y-77300499D01*
X141328039Y-77300500D01*
X141328041Y-77300500D01*
X141471959Y-77300500D01*
X141471961Y-77300500D01*
X141610053Y-77259953D01*
X141731128Y-77182143D01*
X141825377Y-77073373D01*
X141885165Y-76942457D01*
X141905647Y-76800000D01*
X141885165Y-76657543D01*
X141825377Y-76526627D01*
X141731128Y-76417857D01*
X141731127Y-76417856D01*
X141731126Y-76417855D01*
X141610057Y-76340049D01*
X141610054Y-76340047D01*
X141610053Y-76340047D01*
X141610050Y-76340046D01*
X141471964Y-76299500D01*
X141471961Y-76299500D01*
X141328039Y-76299500D01*
X141328035Y-76299500D01*
X141189949Y-76340046D01*
X141189942Y-76340049D01*
X141068873Y-76417855D01*
X140974622Y-76526628D01*
X140914834Y-76657543D01*
X140894353Y-76799997D01*
X140894353Y-76800002D01*
X108700500Y-76800002D01*
X108700500Y-74300002D01*
X121894353Y-74300002D01*
X121914834Y-74442456D01*
X121974622Y-74573371D01*
X121974623Y-74573373D01*
X122068872Y-74682143D01*
X122068873Y-74682144D01*
X122189737Y-74759818D01*
X122189947Y-74759953D01*
X122296403Y-74791211D01*
X122328035Y-74800499D01*
X122328036Y-74800499D01*
X122328039Y-74800500D01*
X122328041Y-74800500D01*
X122471959Y-74800500D01*
X122471961Y-74800500D01*
X122610053Y-74759953D01*
X122731128Y-74682143D01*
X122825377Y-74573373D01*
X122885165Y-74442457D01*
X122891992Y-74394971D01*
X122905647Y-74300002D01*
X122905647Y-74299997D01*
X122885165Y-74157543D01*
X122825377Y-74026628D01*
X122825377Y-74026627D01*
X122731128Y-73917857D01*
X122731127Y-73917856D01*
X122731126Y-73917855D01*
X122610057Y-73840049D01*
X122610054Y-73840047D01*
X122610053Y-73840047D01*
X122610050Y-73840046D01*
X122471964Y-73799500D01*
X122471961Y-73799500D01*
X122328039Y-73799500D01*
X122328035Y-73799500D01*
X122189949Y-73840046D01*
X122189942Y-73840049D01*
X122068873Y-73917855D01*
X121974622Y-74026628D01*
X121914834Y-74157543D01*
X121894353Y-74299997D01*
X121894353Y-74300002D01*
X108700500Y-74300002D01*
X108700500Y-73200002D01*
X114374353Y-73200002D01*
X114394834Y-73342456D01*
X114454622Y-73473371D01*
X114454623Y-73473373D01*
X114548872Y-73582143D01*
X114548873Y-73582144D01*
X114623834Y-73630318D01*
X114669947Y-73659953D01*
X114756504Y-73685368D01*
X114808035Y-73700499D01*
X114808036Y-73700499D01*
X114808039Y-73700500D01*
X114808041Y-73700500D01*
X114951959Y-73700500D01*
X114951961Y-73700500D01*
X115090053Y-73659953D01*
X115211128Y-73582143D01*
X115304544Y-73474333D01*
X115356938Y-73442739D01*
X115417899Y-73447974D01*
X115464140Y-73488042D01*
X115477739Y-73528079D01*
X115482422Y-73569647D01*
X115484632Y-73589257D01*
X115484633Y-73589261D01*
X115544211Y-73759522D01*
X115544211Y-73759523D01*
X115640181Y-73912258D01*
X115640184Y-73912262D01*
X115767738Y-74039816D01*
X115767740Y-74039817D01*
X115767741Y-74039818D01*
X115911264Y-74130000D01*
X115920478Y-74135789D01*
X115974854Y-74154816D01*
X116090738Y-74195366D01*
X116090742Y-74195367D01*
X116090745Y-74195368D01*
X116270000Y-74215565D01*
X116449255Y-74195368D01*
X116619522Y-74135789D01*
X116772262Y-74039816D01*
X116899816Y-73912262D01*
X116995789Y-73759522D01*
X117055368Y-73589255D01*
X117075565Y-73410000D01*
X117055368Y-73230745D01*
X116995789Y-73060478D01*
X116972075Y-73022738D01*
X116899818Y-72907741D01*
X116899817Y-72907740D01*
X116899816Y-72907738D01*
X116772262Y-72780184D01*
X116772259Y-72780182D01*
X116772258Y-72780181D01*
X116619523Y-72684211D01*
X116449261Y-72624633D01*
X116449257Y-72624632D01*
X116270000Y-72604435D01*
X116090742Y-72624632D01*
X116090738Y-72624633D01*
X115920477Y-72684211D01*
X115920476Y-72684211D01*
X115767741Y-72780181D01*
X115640181Y-72907741D01*
X115541253Y-73065185D01*
X115540067Y-73064440D01*
X115502277Y-73103954D01*
X115442073Y-73114869D01*
X115386951Y-73088312D01*
X115365325Y-73057893D01*
X115305378Y-72926629D01*
X115305377Y-72926628D01*
X115305377Y-72926627D01*
X115211128Y-72817857D01*
X115211127Y-72817856D01*
X115211126Y-72817855D01*
X115090057Y-72740049D01*
X115090054Y-72740047D01*
X115090053Y-72740047D01*
X115088640Y-72739632D01*
X114951964Y-72699500D01*
X114951961Y-72699500D01*
X114808039Y-72699500D01*
X114808035Y-72699500D01*
X114669949Y-72740046D01*
X114669942Y-72740049D01*
X114548873Y-72817855D01*
X114454622Y-72926628D01*
X114394834Y-73057543D01*
X114374353Y-73199997D01*
X114374353Y-73200002D01*
X108700500Y-73200002D01*
X108700500Y-70300002D01*
X109394353Y-70300002D01*
X109414834Y-70442456D01*
X109474622Y-70573371D01*
X109474623Y-70573373D01*
X109568872Y-70682143D01*
X109568873Y-70682144D01*
X109689942Y-70759950D01*
X109689947Y-70759953D01*
X109796403Y-70791211D01*
X109828035Y-70800499D01*
X109828036Y-70800499D01*
X109828039Y-70800500D01*
X109828041Y-70800500D01*
X109971959Y-70800500D01*
X109971961Y-70800500D01*
X110110053Y-70759953D01*
X110231128Y-70682143D01*
X110275181Y-70631302D01*
X110327576Y-70599707D01*
X110388537Y-70604942D01*
X110424817Y-70631301D01*
X110468872Y-70682143D01*
X110468873Y-70682144D01*
X110589942Y-70759950D01*
X110589947Y-70759953D01*
X110696403Y-70791211D01*
X110728035Y-70800499D01*
X110728036Y-70800499D01*
X110728039Y-70800500D01*
X110728041Y-70800500D01*
X110871959Y-70800500D01*
X110871961Y-70800500D01*
X111010053Y-70759953D01*
X111131128Y-70682143D01*
X111225377Y-70573373D01*
X111285165Y-70442457D01*
X111305647Y-70300000D01*
X111285165Y-70157543D01*
X111225377Y-70026627D01*
X111131128Y-69917857D01*
X111131127Y-69917856D01*
X111131126Y-69917855D01*
X111010057Y-69840049D01*
X111010054Y-69840047D01*
X111010053Y-69840047D01*
X111010050Y-69840046D01*
X110871964Y-69799500D01*
X110871961Y-69799500D01*
X110728039Y-69799500D01*
X110728035Y-69799500D01*
X110589949Y-69840046D01*
X110589942Y-69840049D01*
X110468872Y-69917856D01*
X110468870Y-69917858D01*
X110424819Y-69968696D01*
X110372423Y-70000292D01*
X110311462Y-69995056D01*
X110275181Y-69968696D01*
X110231129Y-69917858D01*
X110231127Y-69917856D01*
X110110057Y-69840049D01*
X110110054Y-69840047D01*
X110110053Y-69840047D01*
X110110050Y-69840046D01*
X109971964Y-69799500D01*
X109971961Y-69799500D01*
X109828039Y-69799500D01*
X109828035Y-69799500D01*
X109689949Y-69840046D01*
X109689942Y-69840049D01*
X109568873Y-69917855D01*
X109474622Y-70026628D01*
X109414834Y-70157543D01*
X109394353Y-70299997D01*
X109394353Y-70300002D01*
X108700500Y-70300002D01*
X108700500Y-69500002D01*
X111894353Y-69500002D01*
X111914834Y-69642456D01*
X111974622Y-69773371D01*
X111974623Y-69773373D01*
X112065840Y-69878644D01*
X112068873Y-69882144D01*
X112189942Y-69959950D01*
X112189947Y-69959953D01*
X112296403Y-69991211D01*
X112328035Y-70000499D01*
X112328036Y-70000499D01*
X112328039Y-70000500D01*
X112328041Y-70000500D01*
X112471959Y-70000500D01*
X112471961Y-70000500D01*
X112610053Y-69959953D01*
X112731128Y-69882143D01*
X112731136Y-69882133D01*
X112735165Y-69878644D01*
X112791523Y-69854824D01*
X112851119Y-69868679D01*
X112864835Y-69878644D01*
X112868866Y-69882137D01*
X112868872Y-69882143D01*
X112989947Y-69959953D01*
X113096403Y-69991211D01*
X113128035Y-70000499D01*
X113128036Y-70000499D01*
X113128039Y-70000500D01*
X113128041Y-70000500D01*
X113271959Y-70000500D01*
X113271961Y-70000500D01*
X113410053Y-69959953D01*
X113531128Y-69882143D01*
X113531136Y-69882133D01*
X113535165Y-69878644D01*
X113591523Y-69854824D01*
X113651119Y-69868679D01*
X113664835Y-69878644D01*
X113668866Y-69882137D01*
X113668872Y-69882143D01*
X113789947Y-69959953D01*
X113896403Y-69991211D01*
X113928035Y-70000499D01*
X113928036Y-70000499D01*
X113928039Y-70000500D01*
X113928041Y-70000500D01*
X114071959Y-70000500D01*
X114071961Y-70000500D01*
X114210053Y-69959953D01*
X114331128Y-69882143D01*
X114425377Y-69773373D01*
X114485165Y-69642457D01*
X114505647Y-69500000D01*
X114485165Y-69357543D01*
X114425377Y-69226627D01*
X114331128Y-69117857D01*
X114331127Y-69117856D01*
X114331126Y-69117855D01*
X114210057Y-69040049D01*
X114210054Y-69040047D01*
X114210053Y-69040047D01*
X114210050Y-69040046D01*
X114071964Y-68999500D01*
X114071961Y-68999500D01*
X113928039Y-68999500D01*
X113928035Y-68999500D01*
X113789949Y-69040046D01*
X113789942Y-69040049D01*
X113668872Y-69117856D01*
X113664830Y-69121359D01*
X113608471Y-69145176D01*
X113548876Y-69131317D01*
X113535170Y-69121359D01*
X113531127Y-69117856D01*
X113410057Y-69040049D01*
X113410054Y-69040047D01*
X113410053Y-69040047D01*
X113410050Y-69040046D01*
X113271964Y-68999500D01*
X113271961Y-68999500D01*
X113128039Y-68999500D01*
X113128035Y-68999500D01*
X112989949Y-69040046D01*
X112989942Y-69040049D01*
X112868872Y-69117856D01*
X112864830Y-69121359D01*
X112808471Y-69145176D01*
X112748876Y-69131317D01*
X112735170Y-69121359D01*
X112731127Y-69117856D01*
X112610057Y-69040049D01*
X112610054Y-69040047D01*
X112610053Y-69040047D01*
X112610050Y-69040046D01*
X112471964Y-68999500D01*
X112471961Y-68999500D01*
X112328039Y-68999500D01*
X112328035Y-68999500D01*
X112189949Y-69040046D01*
X112189942Y-69040049D01*
X112068873Y-69117855D01*
X111974622Y-69226628D01*
X111914834Y-69357543D01*
X111894353Y-69499997D01*
X111894353Y-69500002D01*
X108700500Y-69500002D01*
X108700500Y-68310002D01*
X116774353Y-68310002D01*
X116794834Y-68452456D01*
X116845488Y-68563371D01*
X116854623Y-68583373D01*
X116931542Y-68672143D01*
X116948873Y-68692144D01*
X117038826Y-68749953D01*
X117069947Y-68769953D01*
X117176403Y-68801211D01*
X117208035Y-68810499D01*
X117208036Y-68810499D01*
X117208039Y-68810500D01*
X117208041Y-68810500D01*
X117351959Y-68810500D01*
X117351961Y-68810500D01*
X117490053Y-68769953D01*
X117611128Y-68692143D01*
X117705377Y-68583373D01*
X117765165Y-68452457D01*
X117785647Y-68310000D01*
X117782771Y-68290000D01*
X117765165Y-68167543D01*
X117705377Y-68036628D01*
X117705377Y-68036627D01*
X117686491Y-68014831D01*
X117662673Y-67958472D01*
X117676531Y-67898877D01*
X117686492Y-67885167D01*
X117705377Y-67863373D01*
X117765165Y-67732457D01*
X117785647Y-67590000D01*
X117774144Y-67509997D01*
X117765165Y-67447543D01*
X117765164Y-67447543D01*
X117705377Y-67316627D01*
X117611128Y-67207857D01*
X117611127Y-67207856D01*
X117611126Y-67207855D01*
X117490057Y-67130049D01*
X117490054Y-67130047D01*
X117490053Y-67130047D01*
X117490050Y-67130046D01*
X117351964Y-67089500D01*
X117351961Y-67089500D01*
X117208039Y-67089500D01*
X117208035Y-67089500D01*
X117069949Y-67130046D01*
X117069942Y-67130049D01*
X116948873Y-67207855D01*
X116854622Y-67316628D01*
X116794834Y-67447543D01*
X116774353Y-67589997D01*
X116774353Y-67590002D01*
X116794834Y-67732456D01*
X116844026Y-67840169D01*
X116854623Y-67863373D01*
X116872859Y-67884419D01*
X116873510Y-67885170D01*
X116897326Y-67941530D01*
X116883466Y-68001125D01*
X116873510Y-68014830D01*
X116854622Y-68036628D01*
X116794834Y-68167543D01*
X116774353Y-68309997D01*
X116774353Y-68310002D01*
X108700500Y-68310002D01*
X108700500Y-66300002D01*
X111894353Y-66300002D01*
X111914834Y-66442456D01*
X111970704Y-66564792D01*
X111974623Y-66573373D01*
X112068872Y-66682143D01*
X112068873Y-66682144D01*
X112189942Y-66759950D01*
X112189947Y-66759953D01*
X112296403Y-66791211D01*
X112328035Y-66800499D01*
X112328036Y-66800499D01*
X112328039Y-66800500D01*
X112328041Y-66800500D01*
X112471959Y-66800500D01*
X112471961Y-66800500D01*
X112610053Y-66759953D01*
X112731128Y-66682143D01*
X112731136Y-66682133D01*
X112735165Y-66678644D01*
X112791523Y-66654824D01*
X112851119Y-66668679D01*
X112864835Y-66678644D01*
X112868866Y-66682137D01*
X112868872Y-66682143D01*
X112989947Y-66759953D01*
X113096403Y-66791211D01*
X113128035Y-66800499D01*
X113128036Y-66800499D01*
X113128039Y-66800500D01*
X113128041Y-66800500D01*
X113271959Y-66800500D01*
X113271961Y-66800500D01*
X113410053Y-66759953D01*
X113531128Y-66682143D01*
X113532364Y-66680716D01*
X113533715Y-66679901D01*
X113536481Y-66677505D01*
X113536895Y-66677983D01*
X113584756Y-66649115D01*
X113645717Y-66654345D01*
X113672026Y-66670726D01*
X113675294Y-66673558D01*
X113675300Y-66673564D01*
X113796375Y-66751374D01*
X113902831Y-66782632D01*
X113934463Y-66791920D01*
X113934464Y-66791920D01*
X113934467Y-66791921D01*
X113934469Y-66791921D01*
X114078387Y-66791921D01*
X114078389Y-66791921D01*
X114216481Y-66751374D01*
X114337556Y-66673564D01*
X114431805Y-66564794D01*
X114491593Y-66433878D01*
X114498420Y-66386392D01*
X114512075Y-66291423D01*
X114512075Y-66291418D01*
X114491593Y-66148964D01*
X114431805Y-66018049D01*
X114431805Y-66018048D01*
X114337556Y-65909278D01*
X114337555Y-65909277D01*
X114337554Y-65909276D01*
X114216485Y-65831470D01*
X114216482Y-65831468D01*
X114216481Y-65831468D01*
X114216478Y-65831467D01*
X114078392Y-65790921D01*
X114078389Y-65790921D01*
X113934467Y-65790921D01*
X113934463Y-65790921D01*
X113796377Y-65831467D01*
X113796370Y-65831470D01*
X113675299Y-65909277D01*
X113675298Y-65909279D01*
X113674053Y-65910716D01*
X113672695Y-65911534D01*
X113669948Y-65913915D01*
X113669535Y-65913439D01*
X113621655Y-65942309D01*
X113560694Y-65937069D01*
X113534402Y-65920695D01*
X113531123Y-65917853D01*
X113410057Y-65840049D01*
X113410054Y-65840047D01*
X113410053Y-65840047D01*
X113410050Y-65840046D01*
X113271964Y-65799500D01*
X113271961Y-65799500D01*
X113128039Y-65799500D01*
X113128035Y-65799500D01*
X112989949Y-65840046D01*
X112989942Y-65840049D01*
X112868872Y-65917856D01*
X112864830Y-65921359D01*
X112808471Y-65945176D01*
X112748876Y-65931317D01*
X112735170Y-65921359D01*
X112731127Y-65917856D01*
X112610057Y-65840049D01*
X112610054Y-65840047D01*
X112610053Y-65840047D01*
X112610050Y-65840046D01*
X112471964Y-65799500D01*
X112471961Y-65799500D01*
X112328039Y-65799500D01*
X112328035Y-65799500D01*
X112189949Y-65840046D01*
X112189942Y-65840049D01*
X112068873Y-65917855D01*
X111974622Y-66026628D01*
X111914834Y-66157543D01*
X111894353Y-66299997D01*
X111894353Y-66300002D01*
X108700500Y-66300002D01*
X108700500Y-64500002D01*
X112594353Y-64500002D01*
X112614834Y-64642456D01*
X112673313Y-64770504D01*
X112674623Y-64773373D01*
X112732395Y-64840046D01*
X112768873Y-64882144D01*
X112889942Y-64959950D01*
X112889947Y-64959953D01*
X112996403Y-64991211D01*
X113028035Y-65000499D01*
X113028036Y-65000499D01*
X113028039Y-65000500D01*
X113028041Y-65000500D01*
X113171959Y-65000500D01*
X113171961Y-65000500D01*
X113310053Y-64959953D01*
X113431128Y-64882143D01*
X113525377Y-64773373D01*
X113585165Y-64642457D01*
X113600053Y-64538907D01*
X113605647Y-64500002D01*
X113605647Y-64499997D01*
X113585165Y-64357543D01*
X113555234Y-64292005D01*
X113525377Y-64226627D01*
X113431128Y-64117857D01*
X113431127Y-64117856D01*
X113431126Y-64117855D01*
X113310057Y-64040049D01*
X113310054Y-64040047D01*
X113310053Y-64040047D01*
X113310050Y-64040046D01*
X113171964Y-63999500D01*
X113171961Y-63999500D01*
X113028039Y-63999500D01*
X113028035Y-63999500D01*
X112889949Y-64040046D01*
X112889942Y-64040049D01*
X112768873Y-64117855D01*
X112674622Y-64226628D01*
X112614834Y-64357543D01*
X112594353Y-64499997D01*
X112594353Y-64500002D01*
X108700500Y-64500002D01*
X108700500Y-62800000D01*
X114094353Y-62800000D01*
X114114834Y-62942456D01*
X114166488Y-63055561D01*
X114174623Y-63073373D01*
X114261271Y-63173371D01*
X114268873Y-63182144D01*
X114389942Y-63259950D01*
X114389947Y-63259953D01*
X114496403Y-63291211D01*
X114528035Y-63300499D01*
X114528036Y-63300499D01*
X114528039Y-63300500D01*
X114528041Y-63300500D01*
X114671959Y-63300500D01*
X114671961Y-63300500D01*
X114810053Y-63259953D01*
X114931128Y-63182143D01*
X115025377Y-63073373D01*
X115085165Y-62942457D01*
X115105647Y-62800000D01*
X115101406Y-62770504D01*
X115085165Y-62657543D01*
X115071046Y-62626627D01*
X115025377Y-62526627D01*
X114931128Y-62417857D01*
X114928506Y-62414831D01*
X114904688Y-62358472D01*
X114918547Y-62298876D01*
X114928506Y-62285169D01*
X114993499Y-62210162D01*
X115025377Y-62173373D01*
X115085165Y-62042457D01*
X115100145Y-61938266D01*
X115105647Y-61900002D01*
X115105647Y-61899997D01*
X115085165Y-61757543D01*
X115063660Y-61710455D01*
X115025377Y-61626627D01*
X114931128Y-61517857D01*
X114928506Y-61514831D01*
X114904688Y-61458472D01*
X114918547Y-61398876D01*
X114928506Y-61385169D01*
X114943364Y-61368022D01*
X115025377Y-61273373D01*
X115085165Y-61142457D01*
X115098605Y-61048980D01*
X115105647Y-61000002D01*
X115105647Y-60999997D01*
X115085165Y-60857543D01*
X115067202Y-60818211D01*
X115025377Y-60726627D01*
X114931128Y-60617857D01*
X114931127Y-60617856D01*
X114931126Y-60617855D01*
X114810057Y-60540049D01*
X114810054Y-60540047D01*
X114810053Y-60540047D01*
X114810050Y-60540046D01*
X114671964Y-60499500D01*
X114671961Y-60499500D01*
X114528039Y-60499500D01*
X114528035Y-60499500D01*
X114389949Y-60540046D01*
X114389942Y-60540049D01*
X114268873Y-60617855D01*
X114174622Y-60726628D01*
X114114834Y-60857543D01*
X114094353Y-60999997D01*
X114094353Y-61000002D01*
X114114834Y-61142456D01*
X114160504Y-61242457D01*
X114174623Y-61273373D01*
X114256636Y-61368022D01*
X114271494Y-61385169D01*
X114295311Y-61441529D01*
X114281452Y-61501124D01*
X114271494Y-61514831D01*
X114174622Y-61626628D01*
X114114834Y-61757543D01*
X114094353Y-61899997D01*
X114094353Y-61900002D01*
X114114834Y-62042456D01*
X114172321Y-62168333D01*
X114174623Y-62173373D01*
X114204396Y-62207733D01*
X114271494Y-62285169D01*
X114295311Y-62341529D01*
X114281452Y-62401124D01*
X114271494Y-62414831D01*
X114174622Y-62526628D01*
X114114834Y-62657543D01*
X114094353Y-62799997D01*
X114094353Y-62800000D01*
X108700500Y-62800000D01*
X108700500Y-59585879D01*
X116634621Y-59585879D01*
X116639025Y-59617452D01*
X116639500Y-59624298D01*
X116639500Y-63626306D01*
X116637280Y-63639984D01*
X116638494Y-63640154D01*
X116637226Y-63649237D01*
X116639447Y-63697254D01*
X116639500Y-63699540D01*
X116639500Y-63719313D01*
X116640152Y-63722803D01*
X116640943Y-63729620D01*
X116642414Y-63761458D01*
X116642415Y-63761465D01*
X116646384Y-63770453D01*
X116653133Y-63792244D01*
X116654939Y-63801904D01*
X116671717Y-63829004D01*
X116674915Y-63835071D01*
X116676873Y-63839504D01*
X116687794Y-63864236D01*
X116694745Y-63871187D01*
X116708907Y-63889067D01*
X116714081Y-63897423D01*
X116739511Y-63916627D01*
X116744690Y-63921133D01*
X124760680Y-71937122D01*
X124788457Y-71991639D01*
X124778886Y-72052071D01*
X124735621Y-72095336D01*
X124701761Y-72105503D01*
X124620750Y-72114630D01*
X124620738Y-72114633D01*
X124450477Y-72174211D01*
X124450476Y-72174211D01*
X124297741Y-72270181D01*
X124170181Y-72397741D01*
X124074211Y-72550476D01*
X124074211Y-72550477D01*
X124014633Y-72720738D01*
X124014632Y-72720742D01*
X123994435Y-72900000D01*
X124014632Y-73079257D01*
X124014633Y-73079261D01*
X124074211Y-73249522D01*
X124074211Y-73249523D01*
X124170181Y-73402258D01*
X124170184Y-73402262D01*
X124297738Y-73529816D01*
X124297740Y-73529817D01*
X124297741Y-73529818D01*
X124392337Y-73589257D01*
X124450478Y-73625789D01*
X124518657Y-73649646D01*
X124620738Y-73685366D01*
X124620742Y-73685367D01*
X124620745Y-73685368D01*
X124800000Y-73705565D01*
X124979255Y-73685368D01*
X125149522Y-73625789D01*
X125302262Y-73529816D01*
X125429816Y-73402262D01*
X125525789Y-73249522D01*
X125585368Y-73079255D01*
X125605565Y-72900000D01*
X125585368Y-72720745D01*
X125525789Y-72550478D01*
X125525786Y-72550474D01*
X125523374Y-72545462D01*
X125525139Y-72544612D01*
X125512217Y-72493350D01*
X125534990Y-72436561D01*
X125586794Y-72404003D01*
X125610993Y-72401000D01*
X135027155Y-72401000D01*
X135085346Y-72419907D01*
X135121310Y-72469407D01*
X135121310Y-72530593D01*
X135110981Y-72552671D01*
X135049211Y-72650976D01*
X135049211Y-72650977D01*
X134989633Y-72821238D01*
X134989632Y-72821242D01*
X134969435Y-73000499D01*
X134989632Y-73179757D01*
X134989633Y-73179761D01*
X135049211Y-73350022D01*
X135049211Y-73350023D01*
X135143562Y-73500181D01*
X135145184Y-73502762D01*
X135272738Y-73630316D01*
X135272740Y-73630317D01*
X135272741Y-73630318D01*
X135390420Y-73704261D01*
X135425478Y-73726289D01*
X135493657Y-73750146D01*
X135595738Y-73785866D01*
X135595742Y-73785867D01*
X135595745Y-73785868D01*
X135775000Y-73806065D01*
X135954255Y-73785868D01*
X136124522Y-73726289D01*
X136277262Y-73630316D01*
X136404816Y-73502762D01*
X136500789Y-73350022D01*
X136560368Y-73179755D01*
X136580565Y-73000500D01*
X136560368Y-72821245D01*
X136559182Y-72817857D01*
X136531810Y-72739632D01*
X136500789Y-72650978D01*
X136500788Y-72650976D01*
X136439019Y-72552671D01*
X136424069Y-72493340D01*
X136446848Y-72436553D01*
X136498655Y-72404001D01*
X136522845Y-72401000D01*
X144505021Y-72401000D01*
X144563212Y-72419907D01*
X144575025Y-72429996D01*
X149847986Y-77702957D01*
X149875763Y-77757474D01*
X149866192Y-77817906D01*
X149822927Y-77861171D01*
X149766899Y-77871339D01*
X149750000Y-77869435D01*
X149570742Y-77889632D01*
X149570738Y-77889633D01*
X149400477Y-77949211D01*
X149400476Y-77949211D01*
X149252671Y-78042084D01*
X149193340Y-78057034D01*
X149147329Y-78042084D01*
X148999523Y-77949211D01*
X148829261Y-77889633D01*
X148829257Y-77889632D01*
X148650000Y-77869435D01*
X148470742Y-77889632D01*
X148470738Y-77889633D01*
X148300477Y-77949211D01*
X148300476Y-77949211D01*
X148147741Y-78045181D01*
X148020181Y-78172741D01*
X147924211Y-78325476D01*
X147924211Y-78325477D01*
X147864633Y-78495738D01*
X147864632Y-78495742D01*
X147844435Y-78675000D01*
X147864632Y-78854257D01*
X147864633Y-78854261D01*
X147924211Y-79024522D01*
X147924211Y-79024523D01*
X148020100Y-79177129D01*
X148020184Y-79177262D01*
X148147738Y-79304816D01*
X148147740Y-79304817D01*
X148147741Y-79304818D01*
X148300474Y-79400787D01*
X148300478Y-79400789D01*
X148368657Y-79424646D01*
X148470738Y-79460366D01*
X148470742Y-79460367D01*
X148470745Y-79460368D01*
X148650000Y-79480565D01*
X148829255Y-79460368D01*
X148999522Y-79400789D01*
X148999524Y-79400787D01*
X148999526Y-79400787D01*
X149147328Y-79307916D01*
X149206659Y-79292965D01*
X149252672Y-79307916D01*
X149400473Y-79400787D01*
X149400476Y-79400787D01*
X149400478Y-79400789D01*
X149471844Y-79425761D01*
X149570738Y-79460366D01*
X149570742Y-79460367D01*
X149570745Y-79460368D01*
X149750000Y-79480565D01*
X149929255Y-79460368D01*
X150099522Y-79400789D01*
X150247329Y-79307915D01*
X150306658Y-79292965D01*
X150352670Y-79307915D01*
X150500474Y-79400787D01*
X150500478Y-79400789D01*
X150568657Y-79424646D01*
X150670738Y-79460366D01*
X150670742Y-79460367D01*
X150670745Y-79460368D01*
X150850000Y-79480565D01*
X151029255Y-79460368D01*
X151199522Y-79400789D01*
X151352262Y-79304816D01*
X151479816Y-79177262D01*
X151575789Y-79024522D01*
X151635368Y-78854255D01*
X151655565Y-78675000D01*
X151635368Y-78495745D01*
X151626099Y-78469257D01*
X151608864Y-78420000D01*
X151575789Y-78325478D01*
X151575788Y-78325476D01*
X151514019Y-78227171D01*
X151499069Y-78167840D01*
X151521848Y-78111053D01*
X151573655Y-78078501D01*
X151597845Y-78075500D01*
X152537235Y-78075500D01*
X152595426Y-78094407D01*
X152631390Y-78143907D01*
X152635227Y-78160411D01*
X152639834Y-78192456D01*
X152684382Y-78290000D01*
X152699623Y-78323373D01*
X152783350Y-78420000D01*
X152793873Y-78432144D01*
X152914942Y-78509950D01*
X152914947Y-78509953D01*
X153021403Y-78541211D01*
X153053035Y-78550499D01*
X153053036Y-78550499D01*
X153053039Y-78550500D01*
X153053041Y-78550500D01*
X153196959Y-78550500D01*
X153196961Y-78550500D01*
X153335053Y-78509953D01*
X153456128Y-78432143D01*
X153550377Y-78323373D01*
X153610165Y-78192457D01*
X153630647Y-78050000D01*
X153629954Y-78045181D01*
X153610165Y-77907543D01*
X153588987Y-77861171D01*
X153550377Y-77776627D01*
X153456128Y-77667857D01*
X153456127Y-77667856D01*
X153456126Y-77667855D01*
X153335057Y-77590049D01*
X153335054Y-77590047D01*
X153335053Y-77590047D01*
X153333684Y-77589645D01*
X153196964Y-77549500D01*
X153196961Y-77549500D01*
X153087038Y-77549500D01*
X153028847Y-77530593D01*
X153020343Y-77523662D01*
X153010934Y-77515085D01*
X153010933Y-77515084D01*
X153001762Y-77511531D01*
X152981586Y-77500895D01*
X152973484Y-77495345D01*
X152973479Y-77495343D01*
X152942457Y-77488046D01*
X152935902Y-77486016D01*
X152906177Y-77474501D01*
X152906174Y-77474500D01*
X152906173Y-77474500D01*
X152906172Y-77474500D01*
X152896348Y-77474500D01*
X152873683Y-77471870D01*
X152864119Y-77469621D01*
X152864118Y-77469621D01*
X152832547Y-77474025D01*
X152825701Y-77474500D01*
X150510479Y-77474500D01*
X150452288Y-77455593D01*
X150440475Y-77445504D01*
X147124971Y-74130000D01*
X148064435Y-74130000D01*
X148084632Y-74309257D01*
X148084633Y-74309261D01*
X148144211Y-74479522D01*
X148144211Y-74479523D01*
X148240181Y-74632258D01*
X148240184Y-74632262D01*
X148367738Y-74759816D01*
X148367740Y-74759817D01*
X148367741Y-74759818D01*
X148432484Y-74800499D01*
X148520478Y-74855789D01*
X148588657Y-74879646D01*
X148690738Y-74915366D01*
X148690742Y-74915367D01*
X148690745Y-74915368D01*
X148870000Y-74935565D01*
X149049255Y-74915368D01*
X149219522Y-74855789D01*
X149372262Y-74759816D01*
X149499816Y-74632262D01*
X149595789Y-74479522D01*
X149655368Y-74309255D01*
X149675565Y-74130000D01*
X149655368Y-73950745D01*
X149643859Y-73917855D01*
X149616633Y-73840047D01*
X149595789Y-73780478D01*
X149582621Y-73759522D01*
X149499818Y-73627741D01*
X149499817Y-73627740D01*
X149499816Y-73627738D01*
X149397078Y-73525000D01*
X152519435Y-73525000D01*
X152539632Y-73704257D01*
X152539633Y-73704261D01*
X152599211Y-73874522D01*
X152599211Y-73874523D01*
X152695181Y-74027258D01*
X152695184Y-74027262D01*
X152822738Y-74154816D01*
X152822740Y-74154817D01*
X152822741Y-74154818D01*
X152919417Y-74215564D01*
X152975478Y-74250789D01*
X153043657Y-74274646D01*
X153145738Y-74310366D01*
X153145742Y-74310367D01*
X153145745Y-74310368D01*
X153325000Y-74330565D01*
X153504255Y-74310368D01*
X153533880Y-74300002D01*
X153674522Y-74250789D01*
X153674521Y-74250788D01*
X153722329Y-74220749D01*
X153781658Y-74205799D01*
X153827670Y-74220749D01*
X153855763Y-74238401D01*
X153875477Y-74250789D01*
X154045738Y-74310366D01*
X154045742Y-74310367D01*
X154045745Y-74310368D01*
X154225000Y-74330565D01*
X154404255Y-74310368D01*
X154433880Y-74300002D01*
X154574522Y-74250789D01*
X154574524Y-74250788D01*
X154622329Y-74220749D01*
X154681658Y-74205799D01*
X154727670Y-74220749D01*
X154755763Y-74238401D01*
X154775477Y-74250789D01*
X154945738Y-74310366D01*
X154945742Y-74310367D01*
X154945745Y-74310368D01*
X155125000Y-74330565D01*
X155304255Y-74310368D01*
X155474522Y-74250789D01*
X155627262Y-74154816D01*
X155754816Y-74027262D01*
X155850789Y-73874522D01*
X155910368Y-73704255D01*
X155930565Y-73525000D01*
X155910368Y-73345745D01*
X155909217Y-73342457D01*
X155876698Y-73249522D01*
X155850789Y-73175478D01*
X155805847Y-73103954D01*
X155754818Y-73022741D01*
X155754817Y-73022740D01*
X155754816Y-73022738D01*
X155627262Y-72895184D01*
X155627259Y-72895182D01*
X155627258Y-72895181D01*
X155474523Y-72799211D01*
X155304261Y-72739633D01*
X155304257Y-72739632D01*
X155181385Y-72725788D01*
X155125000Y-72719435D01*
X155124999Y-72719435D01*
X154945742Y-72739632D01*
X154945738Y-72739633D01*
X154775479Y-72799210D01*
X154727670Y-72829250D01*
X154668339Y-72844199D01*
X154622330Y-72829250D01*
X154574520Y-72799210D01*
X154404261Y-72739633D01*
X154404257Y-72739632D01*
X154281385Y-72725788D01*
X154225000Y-72719435D01*
X154224999Y-72719435D01*
X154045742Y-72739632D01*
X154045738Y-72739633D01*
X153875479Y-72799210D01*
X153827670Y-72829250D01*
X153768339Y-72844199D01*
X153722330Y-72829250D01*
X153674520Y-72799210D01*
X153504261Y-72739633D01*
X153504257Y-72739632D01*
X153381385Y-72725788D01*
X153325000Y-72719435D01*
X153324999Y-72719435D01*
X153145742Y-72739632D01*
X153145738Y-72739633D01*
X152975477Y-72799211D01*
X152975476Y-72799211D01*
X152822741Y-72895181D01*
X152695181Y-73022741D01*
X152599211Y-73175476D01*
X152599211Y-73175477D01*
X152539633Y-73345738D01*
X152539632Y-73345742D01*
X152519435Y-73525000D01*
X149397078Y-73525000D01*
X149372262Y-73500184D01*
X149372259Y-73500182D01*
X149372258Y-73500181D01*
X149219523Y-73404211D01*
X149049261Y-73344633D01*
X149049257Y-73344632D01*
X148870000Y-73324435D01*
X148690742Y-73344632D01*
X148690738Y-73344633D01*
X148520477Y-73404211D01*
X148520476Y-73404211D01*
X148367741Y-73500181D01*
X148240181Y-73627741D01*
X148144211Y-73780476D01*
X148144211Y-73780477D01*
X148084633Y-73950738D01*
X148084632Y-73950742D01*
X148064435Y-74130000D01*
X147124971Y-74130000D01*
X144994971Y-72000000D01*
X147194435Y-72000000D01*
X147214632Y-72179257D01*
X147214633Y-72179261D01*
X147274211Y-72349522D01*
X147274211Y-72349523D01*
X147370181Y-72502258D01*
X147370184Y-72502262D01*
X147497738Y-72629816D01*
X147497740Y-72629817D01*
X147497741Y-72629818D01*
X147642450Y-72720745D01*
X147650478Y-72725789D01*
X147691225Y-72740047D01*
X147820738Y-72785366D01*
X147820742Y-72785367D01*
X147820745Y-72785368D01*
X148000000Y-72805565D01*
X148179255Y-72785368D01*
X148349522Y-72725789D01*
X148502262Y-72629816D01*
X148629816Y-72502262D01*
X148725789Y-72349522D01*
X148785368Y-72179255D01*
X148805565Y-72000000D01*
X148785368Y-71820745D01*
X148778109Y-71800001D01*
X148761014Y-71751145D01*
X148725789Y-71650478D01*
X148629816Y-71497738D01*
X148502262Y-71370184D01*
X148502259Y-71370182D01*
X148502258Y-71370181D01*
X148349523Y-71274211D01*
X148179261Y-71214633D01*
X148179257Y-71214632D01*
X148000000Y-71194435D01*
X147820742Y-71214632D01*
X147820738Y-71214633D01*
X147650477Y-71274211D01*
X147650476Y-71274211D01*
X147497741Y-71370181D01*
X147370181Y-71497741D01*
X147274211Y-71650476D01*
X147274211Y-71650477D01*
X147214633Y-71820738D01*
X147214632Y-71820742D01*
X147194435Y-72000000D01*
X144994971Y-72000000D01*
X144929065Y-71934094D01*
X144920979Y-71922844D01*
X144919987Y-71923594D01*
X144914458Y-71916272D01*
X144878928Y-71883882D01*
X144877275Y-71882304D01*
X144863297Y-71868326D01*
X144860359Y-71866313D01*
X144854996Y-71862064D01*
X144831433Y-71840584D01*
X144822262Y-71837031D01*
X144802086Y-71826395D01*
X144793984Y-71820845D01*
X144793979Y-71820843D01*
X144762957Y-71813546D01*
X144756402Y-71811516D01*
X144726677Y-71800001D01*
X144726674Y-71800000D01*
X144726673Y-71800000D01*
X144726672Y-71800000D01*
X144716848Y-71800000D01*
X144694183Y-71797370D01*
X144684619Y-71795121D01*
X144684618Y-71795121D01*
X144653047Y-71799525D01*
X144646201Y-71800000D01*
X125514508Y-71800000D01*
X125456317Y-71781093D01*
X125444504Y-71771004D01*
X121963502Y-68290002D01*
X127789353Y-68290002D01*
X127809834Y-68432456D01*
X127869622Y-68563371D01*
X127869623Y-68563373D01*
X127963872Y-68672143D01*
X127963873Y-68672144D01*
X127994994Y-68692144D01*
X128084947Y-68749953D01*
X128153062Y-68769953D01*
X128223035Y-68790499D01*
X128223036Y-68790499D01*
X128223039Y-68790500D01*
X128223041Y-68790500D01*
X128366959Y-68790500D01*
X128366961Y-68790500D01*
X128505053Y-68749953D01*
X128626128Y-68672143D01*
X128720377Y-68563373D01*
X128780165Y-68432457D01*
X128797771Y-68310002D01*
X128800647Y-68290002D01*
X138889353Y-68290002D01*
X138909834Y-68432456D01*
X138969622Y-68563371D01*
X138969623Y-68563373D01*
X139063872Y-68672143D01*
X139063873Y-68672144D01*
X139094994Y-68692144D01*
X139184947Y-68749953D01*
X139253062Y-68769953D01*
X139323035Y-68790499D01*
X139323036Y-68790499D01*
X139323039Y-68790500D01*
X139323041Y-68790500D01*
X139466959Y-68790500D01*
X139466961Y-68790500D01*
X139605053Y-68749953D01*
X139726128Y-68672143D01*
X139820377Y-68563373D01*
X139880165Y-68432457D01*
X139897771Y-68310002D01*
X139900647Y-68290002D01*
X139900647Y-68289997D01*
X139880165Y-68147543D01*
X139829511Y-68036628D01*
X139820377Y-68016627D01*
X139779826Y-67969829D01*
X139756010Y-67913472D01*
X139769868Y-67853877D01*
X139779821Y-67840176D01*
X139820377Y-67793373D01*
X139880165Y-67662457D01*
X139900647Y-67520000D01*
X139899209Y-67510000D01*
X139880165Y-67377543D01*
X139820377Y-67246628D01*
X139820377Y-67246627D01*
X139726128Y-67137857D01*
X139726127Y-67137856D01*
X139726126Y-67137855D01*
X139605057Y-67060049D01*
X139605054Y-67060047D01*
X139605053Y-67060047D01*
X139605050Y-67060046D01*
X139466964Y-67019500D01*
X139466961Y-67019500D01*
X139323039Y-67019500D01*
X139323035Y-67019500D01*
X139184949Y-67060046D01*
X139184942Y-67060049D01*
X139063873Y-67137855D01*
X138969622Y-67246628D01*
X138909834Y-67377543D01*
X138889353Y-67519997D01*
X138889353Y-67520002D01*
X138909834Y-67662456D01*
X138941803Y-67732456D01*
X138969623Y-67793373D01*
X139005840Y-67835170D01*
X139010172Y-67840169D01*
X139033989Y-67896529D01*
X139020130Y-67956124D01*
X139010172Y-67969831D01*
X138969622Y-68016628D01*
X138909834Y-68147543D01*
X138889353Y-68289997D01*
X138889353Y-68290002D01*
X128800647Y-68290002D01*
X128800647Y-68289997D01*
X128780165Y-68147543D01*
X128729511Y-68036628D01*
X128720377Y-68016627D01*
X128675493Y-67964828D01*
X128651677Y-67908473D01*
X128665535Y-67848877D01*
X128675486Y-67835180D01*
X128720377Y-67783373D01*
X128780165Y-67652457D01*
X128800647Y-67510000D01*
X128780165Y-67367543D01*
X128720377Y-67236627D01*
X128626128Y-67127857D01*
X128626127Y-67127856D01*
X128626126Y-67127855D01*
X128505057Y-67050049D01*
X128505054Y-67050047D01*
X128505053Y-67050047D01*
X128505050Y-67050046D01*
X128366964Y-67009500D01*
X128366961Y-67009500D01*
X128223039Y-67009500D01*
X128223035Y-67009500D01*
X128084949Y-67050046D01*
X128084942Y-67050049D01*
X127963873Y-67127855D01*
X127869622Y-67236628D01*
X127809834Y-67367543D01*
X127789353Y-67509997D01*
X127789353Y-67510002D01*
X127809834Y-67652456D01*
X127869623Y-67783373D01*
X127914504Y-67835170D01*
X127938321Y-67891529D01*
X127924462Y-67951124D01*
X127914504Y-67964830D01*
X127869623Y-68016626D01*
X127809834Y-68147543D01*
X127789353Y-68289997D01*
X127789353Y-68290002D01*
X121963502Y-68290002D01*
X117269496Y-63595996D01*
X117241719Y-63541479D01*
X117240500Y-63525993D01*
X117240500Y-63469500D01*
X117240500Y-63335934D01*
X117259406Y-63277747D01*
X117308906Y-63241783D01*
X117367390Y-63240947D01*
X117468035Y-63270499D01*
X117468036Y-63270499D01*
X117468039Y-63270500D01*
X117468041Y-63270500D01*
X117611959Y-63270500D01*
X117611961Y-63270500D01*
X117750053Y-63229953D01*
X117871128Y-63152143D01*
X117912264Y-63104668D01*
X117964660Y-63073073D01*
X117987083Y-63070500D01*
X119276699Y-63070500D01*
X119334890Y-63089407D01*
X119346703Y-63099496D01*
X120583614Y-64336407D01*
X120591715Y-64347647D01*
X120592694Y-64346909D01*
X120598222Y-64354230D01*
X120633747Y-64386616D01*
X120635401Y-64388195D01*
X120642909Y-64395702D01*
X120649381Y-64402174D01*
X120652306Y-64404178D01*
X120657683Y-64408437D01*
X120681242Y-64429914D01*
X120681243Y-64429914D01*
X120681245Y-64429916D01*
X120690408Y-64433466D01*
X120710594Y-64444105D01*
X120718697Y-64449656D01*
X120749731Y-64456955D01*
X120756268Y-64458979D01*
X120786005Y-64470500D01*
X120795830Y-64470500D01*
X120818494Y-64473129D01*
X120828059Y-64475379D01*
X120852672Y-64471945D01*
X120859631Y-64470975D01*
X120866477Y-64470500D01*
X122346208Y-64470500D01*
X122404399Y-64489407D01*
X122440363Y-64538907D01*
X122440363Y-64600093D01*
X122436261Y-64610627D01*
X122414834Y-64657543D01*
X122394353Y-64799997D01*
X122394353Y-64800002D01*
X122414834Y-64942456D01*
X122474622Y-65073371D01*
X122474623Y-65073373D01*
X122561271Y-65173371D01*
X122568873Y-65182144D01*
X122672812Y-65248941D01*
X122689947Y-65259953D01*
X122765527Y-65282145D01*
X122828035Y-65300499D01*
X122828036Y-65300499D01*
X122828039Y-65300500D01*
X122828041Y-65300500D01*
X122971959Y-65300500D01*
X122971961Y-65300500D01*
X123110053Y-65259953D01*
X123231128Y-65182143D01*
X123231136Y-65182133D01*
X123235165Y-65178644D01*
X123291523Y-65154824D01*
X123351119Y-65168679D01*
X123364835Y-65178644D01*
X123368866Y-65182137D01*
X123368872Y-65182143D01*
X123489947Y-65259953D01*
X123565527Y-65282145D01*
X123628035Y-65300499D01*
X123628036Y-65300499D01*
X123628039Y-65300500D01*
X123628041Y-65300500D01*
X123771959Y-65300500D01*
X123771961Y-65300500D01*
X123910053Y-65259953D01*
X124031128Y-65182143D01*
X124125377Y-65073373D01*
X124185165Y-64942457D01*
X124205647Y-64800000D01*
X124205575Y-64799500D01*
X124185165Y-64657543D01*
X124163739Y-64610627D01*
X124156764Y-64549841D01*
X124186850Y-64496563D01*
X124242506Y-64471145D01*
X124253792Y-64470500D01*
X124304521Y-64470500D01*
X124362712Y-64489407D01*
X124374525Y-64499496D01*
X124969453Y-65094424D01*
X124997230Y-65148941D01*
X124997441Y-65178514D01*
X124994354Y-65199997D01*
X124994353Y-65200002D01*
X125014834Y-65342456D01*
X125060504Y-65442457D01*
X125074623Y-65473373D01*
X125161271Y-65573371D01*
X125168873Y-65582144D01*
X125289942Y-65659950D01*
X125289947Y-65659953D01*
X125396403Y-65691211D01*
X125428035Y-65700499D01*
X125428036Y-65700499D01*
X125428039Y-65700500D01*
X125428041Y-65700500D01*
X125571959Y-65700500D01*
X125571961Y-65700500D01*
X125710053Y-65659953D01*
X125831128Y-65582143D01*
X125925377Y-65473373D01*
X125985165Y-65342457D01*
X125991992Y-65294971D01*
X126005647Y-65200002D01*
X126005647Y-65199997D01*
X125985165Y-65057543D01*
X125959114Y-65000500D01*
X125925377Y-64926627D01*
X125831128Y-64817857D01*
X125831127Y-64817856D01*
X125831126Y-64817855D01*
X125710057Y-64740049D01*
X125710054Y-64740047D01*
X125710053Y-64740047D01*
X125710050Y-64740046D01*
X125571964Y-64699500D01*
X125571961Y-64699500D01*
X125465479Y-64699500D01*
X125407288Y-64680593D01*
X125395475Y-64670504D01*
X124964475Y-64239504D01*
X124936698Y-64184987D01*
X124946269Y-64124555D01*
X124989534Y-64081290D01*
X125034479Y-64070500D01*
X134904521Y-64070500D01*
X134962712Y-64089407D01*
X134974525Y-64099496D01*
X135112517Y-64237488D01*
X135140294Y-64292005D01*
X135130723Y-64352437D01*
X135087458Y-64395702D01*
X135027026Y-64405273D01*
X134988990Y-64390776D01*
X134910057Y-64340049D01*
X134910054Y-64340047D01*
X134910053Y-64340047D01*
X134901338Y-64337488D01*
X134771964Y-64299500D01*
X134771961Y-64299500D01*
X134628039Y-64299500D01*
X134628035Y-64299500D01*
X134489949Y-64340046D01*
X134489942Y-64340049D01*
X134368872Y-64417856D01*
X134364830Y-64421359D01*
X134308471Y-64445176D01*
X134248876Y-64431317D01*
X134235170Y-64421359D01*
X134231127Y-64417856D01*
X134110057Y-64340049D01*
X134110054Y-64340047D01*
X134110053Y-64340047D01*
X134101338Y-64337488D01*
X133971964Y-64299500D01*
X133971961Y-64299500D01*
X133828039Y-64299500D01*
X133828035Y-64299500D01*
X133689949Y-64340046D01*
X133689942Y-64340049D01*
X133568873Y-64417855D01*
X133474622Y-64526628D01*
X133414834Y-64657543D01*
X133394353Y-64799997D01*
X133394353Y-64800002D01*
X133414834Y-64942456D01*
X133474622Y-65073371D01*
X133474623Y-65073373D01*
X133561271Y-65173371D01*
X133568873Y-65182144D01*
X133672812Y-65248941D01*
X133689947Y-65259953D01*
X133765527Y-65282145D01*
X133828035Y-65300499D01*
X133828036Y-65300499D01*
X133828039Y-65300500D01*
X133828041Y-65300500D01*
X133971959Y-65300500D01*
X133971961Y-65300500D01*
X134110053Y-65259953D01*
X134231128Y-65182143D01*
X134231136Y-65182133D01*
X134235165Y-65178644D01*
X134291523Y-65154824D01*
X134351119Y-65168679D01*
X134364835Y-65178644D01*
X134368866Y-65182137D01*
X134368872Y-65182143D01*
X134489947Y-65259953D01*
X134565527Y-65282145D01*
X134628035Y-65300499D01*
X134628036Y-65300499D01*
X134628039Y-65300500D01*
X134628041Y-65300500D01*
X134771959Y-65300500D01*
X134771961Y-65300500D01*
X134910053Y-65259953D01*
X135031128Y-65182143D01*
X135125377Y-65073373D01*
X135185165Y-64942457D01*
X135205647Y-64800000D01*
X135205575Y-64799500D01*
X135185165Y-64657543D01*
X135122436Y-64520187D01*
X135124059Y-64519445D01*
X135110786Y-64468957D01*
X135132982Y-64411939D01*
X135184453Y-64378858D01*
X135245539Y-64382348D01*
X135279629Y-64404600D01*
X135969453Y-65094424D01*
X135997230Y-65148941D01*
X135997441Y-65178514D01*
X135994354Y-65199997D01*
X135994353Y-65200002D01*
X136014834Y-65342456D01*
X136060504Y-65442457D01*
X136074623Y-65473373D01*
X136161271Y-65573371D01*
X136168873Y-65582144D01*
X136289942Y-65659950D01*
X136289947Y-65659953D01*
X136396403Y-65691211D01*
X136428035Y-65700499D01*
X136428036Y-65700499D01*
X136428039Y-65700500D01*
X136428041Y-65700500D01*
X136571959Y-65700500D01*
X136571961Y-65700500D01*
X136710053Y-65659953D01*
X136831128Y-65582143D01*
X136925377Y-65473373D01*
X136985165Y-65342457D01*
X136991992Y-65294971D01*
X137005647Y-65200002D01*
X137005647Y-65199997D01*
X136985165Y-65057543D01*
X136959114Y-65000500D01*
X136925377Y-64926627D01*
X136831128Y-64817857D01*
X136831127Y-64817856D01*
X136831126Y-64817855D01*
X136710057Y-64740049D01*
X136710054Y-64740047D01*
X136710053Y-64740047D01*
X136710050Y-64740046D01*
X136571964Y-64699500D01*
X136571961Y-64699500D01*
X136465480Y-64699500D01*
X136407289Y-64680593D01*
X136395476Y-64670504D01*
X136016977Y-64292005D01*
X135564474Y-63839503D01*
X135536698Y-63784987D01*
X135546269Y-63724555D01*
X135589534Y-63681290D01*
X135634479Y-63670500D01*
X145504521Y-63670500D01*
X145562712Y-63689407D01*
X145574525Y-63699496D01*
X146212517Y-64337488D01*
X146240294Y-64392005D01*
X146230723Y-64452437D01*
X146187458Y-64495702D01*
X146127026Y-64505273D01*
X146088990Y-64490776D01*
X146010057Y-64440049D01*
X146010054Y-64440047D01*
X146010053Y-64440047D01*
X146010050Y-64440046D01*
X145871964Y-64399500D01*
X145871961Y-64399500D01*
X145728039Y-64399500D01*
X145728035Y-64399500D01*
X145589949Y-64440046D01*
X145589942Y-64440049D01*
X145468872Y-64517856D01*
X145464830Y-64521359D01*
X145408471Y-64545176D01*
X145348876Y-64531317D01*
X145335170Y-64521359D01*
X145331127Y-64517856D01*
X145210057Y-64440049D01*
X145210054Y-64440047D01*
X145210053Y-64440047D01*
X145210050Y-64440046D01*
X145071964Y-64399500D01*
X145071961Y-64399500D01*
X144928039Y-64399500D01*
X144928035Y-64399500D01*
X144789949Y-64440046D01*
X144789942Y-64440049D01*
X144668873Y-64517855D01*
X144574622Y-64626628D01*
X144514834Y-64757543D01*
X144494353Y-64899997D01*
X144494353Y-64900002D01*
X144514834Y-65042456D01*
X144572479Y-65168679D01*
X144574623Y-65173373D01*
X144665728Y-65278515D01*
X144668873Y-65282144D01*
X144789942Y-65359950D01*
X144789947Y-65359953D01*
X144896403Y-65391211D01*
X144928035Y-65400499D01*
X144928036Y-65400499D01*
X144928039Y-65400500D01*
X144928041Y-65400500D01*
X145071959Y-65400500D01*
X145071961Y-65400500D01*
X145210053Y-65359953D01*
X145331128Y-65282143D01*
X145331136Y-65282133D01*
X145335165Y-65278644D01*
X145391523Y-65254824D01*
X145451119Y-65268679D01*
X145464835Y-65278644D01*
X145468866Y-65282137D01*
X145468872Y-65282143D01*
X145589947Y-65359953D01*
X145696403Y-65391211D01*
X145728035Y-65400499D01*
X145728036Y-65400499D01*
X145728039Y-65400500D01*
X145728041Y-65400500D01*
X145871959Y-65400500D01*
X145871961Y-65400500D01*
X146010053Y-65359953D01*
X146131128Y-65282143D01*
X146225377Y-65173373D01*
X146285165Y-65042457D01*
X146305647Y-64900000D01*
X146297027Y-64840049D01*
X146285165Y-64757543D01*
X146222436Y-64620187D01*
X146224059Y-64619445D01*
X146210786Y-64568957D01*
X146232982Y-64511939D01*
X146284453Y-64478858D01*
X146345539Y-64482348D01*
X146379629Y-64504600D01*
X147069453Y-65194424D01*
X147097230Y-65248941D01*
X147097441Y-65278514D01*
X147094354Y-65299997D01*
X147094353Y-65300002D01*
X147114834Y-65442456D01*
X147128953Y-65473371D01*
X147174623Y-65573373D01*
X147268872Y-65682143D01*
X147268873Y-65682144D01*
X147297436Y-65700500D01*
X147389947Y-65759953D01*
X147495416Y-65790921D01*
X147528035Y-65800499D01*
X147528036Y-65800499D01*
X147528039Y-65800500D01*
X147528041Y-65800500D01*
X147671959Y-65800500D01*
X147671961Y-65800500D01*
X147810053Y-65759953D01*
X147931128Y-65682143D01*
X148025377Y-65573373D01*
X148085165Y-65442457D01*
X148105575Y-65300500D01*
X148105647Y-65300002D01*
X148105647Y-65299997D01*
X148085165Y-65157543D01*
X148046725Y-65073373D01*
X148025377Y-65026627D01*
X147931128Y-64917857D01*
X147931127Y-64917856D01*
X147931126Y-64917855D01*
X147810057Y-64840049D01*
X147810054Y-64840047D01*
X147810053Y-64840047D01*
X147810050Y-64840046D01*
X147671964Y-64799500D01*
X147671961Y-64799500D01*
X147565479Y-64799500D01*
X147507288Y-64780593D01*
X147495475Y-64770504D01*
X145928565Y-63203594D01*
X145920479Y-63192344D01*
X145919487Y-63193094D01*
X145913958Y-63185772D01*
X145878428Y-63153382D01*
X145876775Y-63151804D01*
X145862797Y-63137826D01*
X145859859Y-63135813D01*
X145854496Y-63131564D01*
X145830933Y-63110084D01*
X145821762Y-63106531D01*
X145801586Y-63095895D01*
X145793484Y-63090345D01*
X145793479Y-63090343D01*
X145762457Y-63083046D01*
X145755902Y-63081016D01*
X145726177Y-63069501D01*
X145726174Y-63069500D01*
X145726173Y-63069500D01*
X145726172Y-63069500D01*
X145716348Y-63069500D01*
X145693683Y-63066870D01*
X145684119Y-63064621D01*
X145684118Y-63064621D01*
X145652547Y-63069025D01*
X145645701Y-63069500D01*
X132687832Y-63069500D01*
X132629641Y-63050593D01*
X132593677Y-63001093D01*
X132593677Y-62939907D01*
X132597779Y-62929372D01*
X132605277Y-62912954D01*
X132607139Y-62900002D01*
X149294353Y-62900002D01*
X149314834Y-63042456D01*
X149364927Y-63152143D01*
X149374623Y-63173373D01*
X149465063Y-63277747D01*
X149468873Y-63282144D01*
X149589942Y-63359950D01*
X149589947Y-63359953D01*
X149696403Y-63391211D01*
X149728035Y-63400499D01*
X149728036Y-63400499D01*
X149728039Y-63400500D01*
X149728041Y-63400500D01*
X149871959Y-63400500D01*
X149871961Y-63400500D01*
X150010053Y-63359953D01*
X150131128Y-63282143D01*
X150225377Y-63173373D01*
X150285165Y-63042457D01*
X150305647Y-62900000D01*
X150287028Y-62770504D01*
X150285165Y-62757543D01*
X150239496Y-62657543D01*
X150225377Y-62626627D01*
X150131128Y-62517857D01*
X150131127Y-62517856D01*
X150131126Y-62517855D01*
X150010057Y-62440049D01*
X150010054Y-62440047D01*
X150010053Y-62440047D01*
X150010050Y-62440046D01*
X149871964Y-62399500D01*
X149871961Y-62399500D01*
X149728039Y-62399500D01*
X149728035Y-62399500D01*
X149589949Y-62440046D01*
X149589942Y-62440049D01*
X149468873Y-62517855D01*
X149374622Y-62626628D01*
X149314834Y-62757543D01*
X149294353Y-62899997D01*
X149294353Y-62900002D01*
X132607139Y-62900002D01*
X132625758Y-62770502D01*
X132625758Y-62770497D01*
X132605276Y-62628043D01*
X132560837Y-62530736D01*
X132545488Y-62497127D01*
X132451239Y-62388357D01*
X132451238Y-62388356D01*
X132449680Y-62386558D01*
X132425863Y-62330198D01*
X132425500Y-62321727D01*
X132425500Y-61100002D01*
X149294353Y-61100002D01*
X149314834Y-61242456D01*
X149354852Y-61330082D01*
X149374623Y-61373373D01*
X149441020Y-61450000D01*
X149468873Y-61482144D01*
X149524444Y-61517857D01*
X149589947Y-61559953D01*
X149696403Y-61591211D01*
X149728035Y-61600499D01*
X149728036Y-61600499D01*
X149728039Y-61600500D01*
X149728041Y-61600500D01*
X149871959Y-61600500D01*
X149871961Y-61600500D01*
X150010053Y-61559953D01*
X150131128Y-61482143D01*
X150225377Y-61373373D01*
X150225381Y-61373363D01*
X150226051Y-61372322D01*
X150226861Y-61371659D01*
X150230013Y-61368022D01*
X150230641Y-61368566D01*
X150273411Y-61333584D01*
X150334496Y-61330082D01*
X150362863Y-61342547D01*
X150389947Y-61359953D01*
X150475826Y-61385169D01*
X150528035Y-61400499D01*
X150528036Y-61400499D01*
X150528039Y-61400500D01*
X150528041Y-61400500D01*
X150671959Y-61400500D01*
X150671961Y-61400500D01*
X150810053Y-61359953D01*
X150837133Y-61342549D01*
X150896308Y-61326995D01*
X150953324Y-61349194D01*
X150973939Y-61372309D01*
X150974620Y-61373369D01*
X150974622Y-61373371D01*
X150974623Y-61373373D01*
X151033680Y-61441529D01*
X151068873Y-61482144D01*
X151124444Y-61517857D01*
X151189947Y-61559953D01*
X151296403Y-61591211D01*
X151328035Y-61600499D01*
X151328036Y-61600499D01*
X151328039Y-61600500D01*
X151328041Y-61600500D01*
X151471959Y-61600500D01*
X151471961Y-61600500D01*
X151610053Y-61559953D01*
X151731128Y-61482143D01*
X151825377Y-61373373D01*
X151885165Y-61242457D01*
X151901009Y-61132260D01*
X151905647Y-61100002D01*
X151905647Y-61099997D01*
X151885165Y-60957543D01*
X151825377Y-60826628D01*
X151825377Y-60826627D01*
X151731128Y-60717857D01*
X151731127Y-60717856D01*
X151731126Y-60717855D01*
X151610057Y-60640049D01*
X151610054Y-60640047D01*
X151610053Y-60640047D01*
X151610050Y-60640046D01*
X151471964Y-60599500D01*
X151471961Y-60599500D01*
X151328039Y-60599500D01*
X151328035Y-60599500D01*
X151189949Y-60640046D01*
X151189943Y-60640048D01*
X151162865Y-60657451D01*
X151103690Y-60673004D01*
X151046674Y-60650805D01*
X151026054Y-60627682D01*
X151025378Y-60626630D01*
X151025377Y-60626627D01*
X150931128Y-60517857D01*
X150931127Y-60517856D01*
X150931126Y-60517855D01*
X150810057Y-60440049D01*
X150810054Y-60440047D01*
X150810053Y-60440047D01*
X150810050Y-60440046D01*
X150671964Y-60399500D01*
X150671961Y-60399500D01*
X150528039Y-60399500D01*
X150528035Y-60399500D01*
X150389949Y-60440046D01*
X150389942Y-60440049D01*
X150268873Y-60517855D01*
X150204031Y-60592687D01*
X150198129Y-60599500D01*
X150174619Y-60626632D01*
X150173936Y-60627695D01*
X150173120Y-60628361D01*
X150169987Y-60631978D01*
X150169360Y-60631435D01*
X150126566Y-60666422D01*
X150065481Y-60669910D01*
X150037134Y-60657450D01*
X150010056Y-60640049D01*
X150010053Y-60640047D01*
X150010050Y-60640046D01*
X149871964Y-60599500D01*
X149871961Y-60599500D01*
X149728039Y-60599500D01*
X149728035Y-60599500D01*
X149589949Y-60640046D01*
X149589942Y-60640049D01*
X149468873Y-60717855D01*
X149374622Y-60826628D01*
X149314834Y-60957543D01*
X149294353Y-61099997D01*
X149294353Y-61100002D01*
X132425500Y-61100002D01*
X132425500Y-58653656D01*
X136534392Y-58653656D01*
X136564666Y-58825350D01*
X136633720Y-58985436D01*
X136633721Y-58985438D01*
X136737831Y-59125282D01*
X136737833Y-59125284D01*
X136871383Y-59237347D01*
X136871384Y-59237347D01*
X136871386Y-59237349D01*
X137027185Y-59315594D01*
X137196829Y-59355800D01*
X137196832Y-59355800D01*
X137327433Y-59355800D01*
X137327436Y-59355800D01*
X137457164Y-59340637D01*
X137620993Y-59281008D01*
X137653771Y-59259450D01*
X137766648Y-59185209D01*
X137766648Y-59185208D01*
X137766654Y-59185205D01*
X137886296Y-59058393D01*
X137973467Y-58907407D01*
X138023469Y-58740388D01*
X138033197Y-58573373D01*
X138033607Y-58566343D01*
X138033607Y-58566340D01*
X138003333Y-58394649D01*
X137967938Y-58312593D01*
X137934279Y-58234562D01*
X137830168Y-58094717D01*
X137830166Y-58094715D01*
X137696616Y-57982652D01*
X137540816Y-57904406D01*
X137498404Y-57894354D01*
X137371171Y-57864200D01*
X137240564Y-57864200D01*
X137175699Y-57871781D01*
X137110833Y-57879363D01*
X137110828Y-57879365D01*
X136947008Y-57938991D01*
X136946998Y-57938996D01*
X136801351Y-58034790D01*
X136801345Y-58034795D01*
X136681705Y-58161605D01*
X136681704Y-58161605D01*
X136594533Y-58312592D01*
X136544531Y-58479608D01*
X136544530Y-58479616D01*
X136534392Y-58653656D01*
X132425500Y-58653656D01*
X132425500Y-56665168D01*
X132427731Y-56651495D01*
X132426505Y-56651324D01*
X132427773Y-56642232D01*
X132425553Y-56594215D01*
X132425500Y-56591928D01*
X132425500Y-56572160D01*
X132425500Y-56572156D01*
X132424846Y-56568664D01*
X132424056Y-56561859D01*
X132422585Y-56530008D01*
X132418615Y-56521017D01*
X132411864Y-56499215D01*
X132410061Y-56489568D01*
X132410061Y-56489567D01*
X132393276Y-56462458D01*
X132390084Y-56456401D01*
X132377206Y-56427235D01*
X132377205Y-56427233D01*
X132370256Y-56420284D01*
X132356090Y-56402399D01*
X132350919Y-56394048D01*
X132325483Y-56374839D01*
X132320306Y-56370334D01*
X131455546Y-55505575D01*
X131427769Y-55451058D01*
X131427558Y-55421482D01*
X131430647Y-55400000D01*
X131429928Y-55395002D01*
X131410165Y-55257543D01*
X131410165Y-55257541D01*
X131365905Y-55160626D01*
X131358930Y-55099840D01*
X131389016Y-55046563D01*
X131444673Y-55021145D01*
X131455958Y-55020500D01*
X135394521Y-55020500D01*
X135452712Y-55039407D01*
X135464525Y-55049496D01*
X137981436Y-57566407D01*
X137989537Y-57577647D01*
X137990516Y-57576909D01*
X137996044Y-57584230D01*
X138031569Y-57616616D01*
X138033223Y-57618195D01*
X138047201Y-57632172D01*
X138047203Y-57632174D01*
X138050128Y-57634178D01*
X138055505Y-57638437D01*
X138079064Y-57659914D01*
X138079065Y-57659914D01*
X138079067Y-57659916D01*
X138088230Y-57663466D01*
X138108416Y-57674105D01*
X138116519Y-57679656D01*
X138147553Y-57686955D01*
X138154090Y-57688979D01*
X138183827Y-57700500D01*
X138193652Y-57700500D01*
X138216316Y-57703129D01*
X138225881Y-57705379D01*
X138250494Y-57701945D01*
X138257453Y-57700975D01*
X138264299Y-57700500D01*
X139072801Y-57700500D01*
X139130992Y-57719407D01*
X139166956Y-57768907D01*
X139166956Y-57830093D01*
X139130992Y-57879593D01*
X139106661Y-57892529D01*
X138979010Y-57938990D01*
X138978998Y-57938996D01*
X138833351Y-58034790D01*
X138833345Y-58034795D01*
X138713705Y-58161605D01*
X138713704Y-58161605D01*
X138626533Y-58312592D01*
X138576531Y-58479608D01*
X138576530Y-58479616D01*
X138566392Y-58653656D01*
X138596666Y-58825350D01*
X138665720Y-58985436D01*
X138665721Y-58985438D01*
X138769831Y-59125282D01*
X138769833Y-59125284D01*
X138903383Y-59237347D01*
X138903384Y-59237347D01*
X138903386Y-59237349D01*
X139059185Y-59315594D01*
X139228829Y-59355800D01*
X139228832Y-59355800D01*
X139359433Y-59355800D01*
X139359436Y-59355800D01*
X139489164Y-59340637D01*
X139652993Y-59281008D01*
X139685771Y-59259450D01*
X139776157Y-59200002D01*
X143094353Y-59200002D01*
X143114834Y-59342456D01*
X143148195Y-59415504D01*
X143174623Y-59473373D01*
X143263825Y-59576318D01*
X143268873Y-59582144D01*
X143389942Y-59659950D01*
X143389947Y-59659953D01*
X143496403Y-59691211D01*
X143528035Y-59700499D01*
X143528036Y-59700499D01*
X143528039Y-59700500D01*
X143528041Y-59700500D01*
X143671959Y-59700500D01*
X143671961Y-59700500D01*
X143810053Y-59659953D01*
X143931128Y-59582143D01*
X144025377Y-59473373D01*
X144055510Y-59407390D01*
X144096881Y-59362314D01*
X144156848Y-59350163D01*
X144186694Y-59358467D01*
X144189947Y-59359953D01*
X144328035Y-59400499D01*
X144328036Y-59400499D01*
X144328039Y-59400500D01*
X144328041Y-59400500D01*
X144471959Y-59400500D01*
X144471961Y-59400500D01*
X144610053Y-59359953D01*
X144678434Y-59316007D01*
X144737606Y-59300453D01*
X144794623Y-59322652D01*
X144822008Y-59358165D01*
X144858955Y-59439065D01*
X144874623Y-59473373D01*
X144963825Y-59576318D01*
X144968873Y-59582144D01*
X145089942Y-59659950D01*
X145089947Y-59659953D01*
X145196403Y-59691211D01*
X145228035Y-59700499D01*
X145228036Y-59700499D01*
X145228039Y-59700500D01*
X145228041Y-59700500D01*
X145371959Y-59700500D01*
X145371961Y-59700500D01*
X145510053Y-59659953D01*
X145631128Y-59582143D01*
X145725377Y-59473373D01*
X145785165Y-59342457D01*
X145797099Y-59259453D01*
X145805647Y-59200002D01*
X146394353Y-59200002D01*
X146414834Y-59342456D01*
X146448195Y-59415504D01*
X146474623Y-59473373D01*
X146563825Y-59576318D01*
X146568873Y-59582144D01*
X146689942Y-59659950D01*
X146689947Y-59659953D01*
X146796403Y-59691211D01*
X146828035Y-59700499D01*
X146828036Y-59700499D01*
X146828039Y-59700500D01*
X146828041Y-59700500D01*
X146971959Y-59700500D01*
X146971961Y-59700500D01*
X147110053Y-59659953D01*
X147231128Y-59582143D01*
X147325377Y-59473373D01*
X147355510Y-59407390D01*
X147396881Y-59362314D01*
X147456848Y-59350163D01*
X147486694Y-59358467D01*
X147489947Y-59359953D01*
X147628035Y-59400499D01*
X147628036Y-59400499D01*
X147628039Y-59400500D01*
X147628041Y-59400500D01*
X147771959Y-59400500D01*
X147771961Y-59400500D01*
X147910053Y-59359953D01*
X147910059Y-59359948D01*
X147913302Y-59358468D01*
X147916271Y-59358127D01*
X147916847Y-59357958D01*
X147916876Y-59358057D01*
X147974088Y-59351488D01*
X148027367Y-59381570D01*
X148044489Y-59407391D01*
X148063145Y-59448240D01*
X148074623Y-59473373D01*
X148163825Y-59576318D01*
X148168873Y-59582144D01*
X148289942Y-59659950D01*
X148289947Y-59659953D01*
X148396403Y-59691211D01*
X148428035Y-59700499D01*
X148428036Y-59700499D01*
X148428039Y-59700500D01*
X148428041Y-59700500D01*
X148571959Y-59700500D01*
X148571961Y-59700500D01*
X148710053Y-59659953D01*
X148831128Y-59582143D01*
X148925377Y-59473373D01*
X148985165Y-59342457D01*
X148997099Y-59259453D01*
X149005647Y-59200002D01*
X149005647Y-59199997D01*
X148985165Y-59057543D01*
X148963454Y-59010003D01*
X148925377Y-58926627D01*
X148831128Y-58817857D01*
X148831127Y-58817856D01*
X148831126Y-58817855D01*
X148710057Y-58740049D01*
X148710054Y-58740047D01*
X148710053Y-58740047D01*
X148710050Y-58740046D01*
X148571964Y-58699500D01*
X148571961Y-58699500D01*
X148428039Y-58699500D01*
X148428035Y-58699500D01*
X148289945Y-58740047D01*
X148286686Y-58741536D01*
X148283715Y-58741876D01*
X148283153Y-58742042D01*
X148283124Y-58741944D01*
X148225899Y-58748509D01*
X148172623Y-58718420D01*
X148155510Y-58692608D01*
X148139268Y-58657043D01*
X148125377Y-58626627D01*
X148031128Y-58517857D01*
X148031127Y-58517856D01*
X148031126Y-58517855D01*
X147910057Y-58440049D01*
X147910054Y-58440047D01*
X147910053Y-58440047D01*
X147910050Y-58440046D01*
X147771964Y-58399500D01*
X147771961Y-58399500D01*
X147628039Y-58399500D01*
X147628035Y-58399500D01*
X147489949Y-58440046D01*
X147489942Y-58440049D01*
X147368873Y-58517855D01*
X147274622Y-58626627D01*
X147244489Y-58692609D01*
X147203116Y-58737686D01*
X147143149Y-58749836D01*
X147113309Y-58741534D01*
X147110053Y-58740047D01*
X146971964Y-58699500D01*
X146971961Y-58699500D01*
X146828039Y-58699500D01*
X146828035Y-58699500D01*
X146689949Y-58740046D01*
X146689942Y-58740049D01*
X146568873Y-58817855D01*
X146474622Y-58926628D01*
X146414834Y-59057543D01*
X146394353Y-59199997D01*
X146394353Y-59200002D01*
X145805647Y-59200002D01*
X145805647Y-59199997D01*
X145785165Y-59057543D01*
X145763454Y-59010003D01*
X145725377Y-58926627D01*
X145631128Y-58817857D01*
X145631127Y-58817856D01*
X145631126Y-58817855D01*
X145510057Y-58740049D01*
X145510054Y-58740047D01*
X145510053Y-58740047D01*
X145510050Y-58740046D01*
X145371964Y-58699500D01*
X145371961Y-58699500D01*
X145228039Y-58699500D01*
X145228035Y-58699500D01*
X145089949Y-58740046D01*
X145089947Y-58740047D01*
X145021567Y-58783992D01*
X144962391Y-58799545D01*
X144905375Y-58777347D01*
X144877991Y-58741834D01*
X144850731Y-58682144D01*
X144825377Y-58626627D01*
X144731128Y-58517857D01*
X144731127Y-58517856D01*
X144731126Y-58517855D01*
X144610057Y-58440049D01*
X144610054Y-58440047D01*
X144610053Y-58440047D01*
X144610050Y-58440046D01*
X144471964Y-58399500D01*
X144471961Y-58399500D01*
X144328039Y-58399500D01*
X144328035Y-58399500D01*
X144189949Y-58440046D01*
X144189942Y-58440049D01*
X144068873Y-58517855D01*
X143974622Y-58626627D01*
X143944489Y-58692609D01*
X143903116Y-58737686D01*
X143843149Y-58749836D01*
X143813309Y-58741534D01*
X143810053Y-58740047D01*
X143671964Y-58699500D01*
X143671961Y-58699500D01*
X143528039Y-58699500D01*
X143528035Y-58699500D01*
X143389949Y-58740046D01*
X143389942Y-58740049D01*
X143268873Y-58817855D01*
X143174622Y-58926628D01*
X143114834Y-59057543D01*
X143094353Y-59199997D01*
X143094353Y-59200002D01*
X139776157Y-59200002D01*
X139798648Y-59185209D01*
X139798648Y-59185208D01*
X139798654Y-59185205D01*
X139918296Y-59058393D01*
X140005467Y-58907407D01*
X140055469Y-58740388D01*
X140065197Y-58573373D01*
X140065607Y-58566343D01*
X140065607Y-58566340D01*
X140035333Y-58394649D01*
X139999938Y-58312593D01*
X139994507Y-58300002D01*
X141994353Y-58300002D01*
X142014834Y-58442456D01*
X142063970Y-58550046D01*
X142074623Y-58573373D01*
X142144188Y-58653656D01*
X142168873Y-58682144D01*
X142286197Y-58757543D01*
X142289947Y-58759953D01*
X142396403Y-58791211D01*
X142428035Y-58800499D01*
X142428036Y-58800499D01*
X142428039Y-58800500D01*
X142428041Y-58800500D01*
X142571959Y-58800500D01*
X142571961Y-58800500D01*
X142710053Y-58759953D01*
X142831128Y-58682143D01*
X142925377Y-58573373D01*
X142985165Y-58442457D01*
X142999090Y-58345605D01*
X143005647Y-58300002D01*
X143005647Y-58299997D01*
X142985165Y-58157543D01*
X142929107Y-58034795D01*
X142925377Y-58026627D01*
X142831128Y-57917857D01*
X142828506Y-57914831D01*
X142804688Y-57858472D01*
X142818547Y-57798876D01*
X142828506Y-57785169D01*
X142843364Y-57768022D01*
X142925377Y-57673373D01*
X142985165Y-57542457D01*
X143005647Y-57400000D01*
X143002764Y-57379950D01*
X142991270Y-57300002D01*
X149294353Y-57300002D01*
X149314834Y-57442456D01*
X149360504Y-57542457D01*
X149374623Y-57573373D01*
X149452688Y-57663465D01*
X149468873Y-57682144D01*
X149589942Y-57759950D01*
X149589947Y-57759953D01*
X149675826Y-57785169D01*
X149728035Y-57800499D01*
X149728036Y-57800499D01*
X149728039Y-57800500D01*
X149728041Y-57800500D01*
X149871959Y-57800500D01*
X149871961Y-57800500D01*
X150010053Y-57759953D01*
X150037133Y-57742549D01*
X150096308Y-57726995D01*
X150153324Y-57749194D01*
X150173939Y-57772309D01*
X150174620Y-57773369D01*
X150174622Y-57773371D01*
X150174623Y-57773373D01*
X150268872Y-57882143D01*
X150268873Y-57882144D01*
X150357329Y-57938991D01*
X150389947Y-57959953D01*
X150467254Y-57982652D01*
X150528035Y-58000499D01*
X150528036Y-58000499D01*
X150528039Y-58000500D01*
X150528041Y-58000500D01*
X150671959Y-58000500D01*
X150671961Y-58000500D01*
X150810053Y-57959953D01*
X150931128Y-57882143D01*
X151025377Y-57773373D01*
X151025381Y-57773363D01*
X151026051Y-57772322D01*
X151026861Y-57771659D01*
X151030013Y-57768022D01*
X151030641Y-57768566D01*
X151073411Y-57733584D01*
X151134496Y-57730082D01*
X151162863Y-57742547D01*
X151189947Y-57759953D01*
X151275826Y-57785169D01*
X151328035Y-57800499D01*
X151328036Y-57800499D01*
X151328039Y-57800500D01*
X151328041Y-57800500D01*
X151471959Y-57800500D01*
X151471961Y-57800500D01*
X151610053Y-57759953D01*
X151731128Y-57682143D01*
X151825377Y-57573373D01*
X151885165Y-57442457D01*
X151905647Y-57300000D01*
X151905504Y-57299007D01*
X151885165Y-57157543D01*
X151867750Y-57119410D01*
X151825377Y-57026627D01*
X151731128Y-56917857D01*
X151731127Y-56917856D01*
X151731126Y-56917855D01*
X151610057Y-56840049D01*
X151610054Y-56840047D01*
X151610053Y-56840047D01*
X151610050Y-56840046D01*
X151471964Y-56799500D01*
X151471961Y-56799500D01*
X151328039Y-56799500D01*
X151328035Y-56799500D01*
X151189949Y-56840046D01*
X151189942Y-56840049D01*
X151068873Y-56917855D01*
X151044057Y-56946495D01*
X150982222Y-57017858D01*
X150974619Y-57026632D01*
X150973936Y-57027695D01*
X150973120Y-57028361D01*
X150969987Y-57031978D01*
X150969360Y-57031435D01*
X150926566Y-57066422D01*
X150865481Y-57069910D01*
X150837134Y-57057450D01*
X150810056Y-57040049D01*
X150810053Y-57040047D01*
X150810050Y-57040046D01*
X150671964Y-56999500D01*
X150671961Y-56999500D01*
X150528039Y-56999500D01*
X150528035Y-56999500D01*
X150389949Y-57040046D01*
X150389943Y-57040048D01*
X150362865Y-57057451D01*
X150303690Y-57073004D01*
X150246674Y-57050805D01*
X150226054Y-57027682D01*
X150225377Y-57026628D01*
X150225377Y-57026627D01*
X150131128Y-56917857D01*
X150131127Y-56917856D01*
X150131126Y-56917855D01*
X150010057Y-56840049D01*
X150010054Y-56840047D01*
X150010053Y-56840047D01*
X150010050Y-56840046D01*
X149871964Y-56799500D01*
X149871961Y-56799500D01*
X149728039Y-56799500D01*
X149728035Y-56799500D01*
X149589949Y-56840046D01*
X149589942Y-56840049D01*
X149468873Y-56917855D01*
X149374622Y-57026628D01*
X149314834Y-57157543D01*
X149294353Y-57299997D01*
X149294353Y-57300002D01*
X142991270Y-57300002D01*
X142985165Y-57257543D01*
X142939496Y-57157543D01*
X142925377Y-57126627D01*
X142831128Y-57017857D01*
X142831127Y-57017856D01*
X142831126Y-57017855D01*
X142710057Y-56940049D01*
X142710054Y-56940047D01*
X142710053Y-56940047D01*
X142710050Y-56940046D01*
X142571964Y-56899500D01*
X142571961Y-56899500D01*
X142428039Y-56899500D01*
X142428035Y-56899500D01*
X142289949Y-56940046D01*
X142289942Y-56940049D01*
X142168873Y-57017855D01*
X142074622Y-57126628D01*
X142014834Y-57257543D01*
X141994353Y-57399997D01*
X141994353Y-57400002D01*
X142014834Y-57542456D01*
X142055807Y-57632172D01*
X142074623Y-57673373D01*
X142156636Y-57768022D01*
X142171494Y-57785169D01*
X142195311Y-57841529D01*
X142181452Y-57901124D01*
X142171494Y-57914831D01*
X142074622Y-58026628D01*
X142014834Y-58157543D01*
X141994353Y-58299997D01*
X141994353Y-58300002D01*
X139994507Y-58300002D01*
X139966279Y-58234562D01*
X139862168Y-58094717D01*
X139833099Y-58070325D01*
X139800677Y-58018437D01*
X139804946Y-57957401D01*
X139844276Y-57910531D01*
X139903644Y-57895729D01*
X139924633Y-57899500D01*
X139928034Y-57900499D01*
X139928037Y-57900499D01*
X139928039Y-57900500D01*
X139928041Y-57900500D01*
X140071959Y-57900500D01*
X140071961Y-57900500D01*
X140210053Y-57859953D01*
X140331128Y-57782143D01*
X140425377Y-57673373D01*
X140485165Y-57542457D01*
X140505647Y-57400000D01*
X140502764Y-57379950D01*
X140485165Y-57257543D01*
X140439496Y-57157543D01*
X140425377Y-57126627D01*
X140331128Y-57017857D01*
X140331127Y-57017856D01*
X140331126Y-57017855D01*
X140210057Y-56940049D01*
X140210054Y-56940047D01*
X140210053Y-56940047D01*
X140210050Y-56940046D01*
X140071964Y-56899500D01*
X140071961Y-56899500D01*
X139928039Y-56899500D01*
X139928035Y-56899500D01*
X139789949Y-56940046D01*
X139789942Y-56940049D01*
X139668876Y-57017854D01*
X139668875Y-57017855D01*
X139668872Y-57017857D01*
X139640323Y-57050805D01*
X139627736Y-57065331D01*
X139575340Y-57096927D01*
X139552917Y-57099500D01*
X138405480Y-57099500D01*
X138347289Y-57080593D01*
X138335476Y-57070504D01*
X136659973Y-55395002D01*
X142169353Y-55395002D01*
X142189834Y-55537456D01*
X142218398Y-55600001D01*
X142249623Y-55668373D01*
X142343872Y-55777143D01*
X142343873Y-55777144D01*
X142464942Y-55854950D01*
X142464947Y-55854953D01*
X142571403Y-55886211D01*
X142603035Y-55895499D01*
X142603036Y-55895499D01*
X142603039Y-55895500D01*
X142603041Y-55895500D01*
X142746959Y-55895500D01*
X142746961Y-55895500D01*
X142885053Y-55854953D01*
X143006128Y-55777143D01*
X143100377Y-55668373D01*
X143131602Y-55600000D01*
X152200000Y-55600000D01*
X152200000Y-62800000D01*
X152200001Y-62800000D01*
X155900000Y-62800000D01*
X156000000Y-55600000D01*
X152200000Y-55600000D01*
X143131602Y-55600000D01*
X143160165Y-55537457D01*
X143179928Y-55400000D01*
X143180647Y-55395002D01*
X143180647Y-55394997D01*
X143160165Y-55252543D01*
X143100377Y-55121628D01*
X143100377Y-55121627D01*
X143006128Y-55012857D01*
X143006127Y-55012856D01*
X143006126Y-55012855D01*
X142885057Y-54935049D01*
X142885054Y-54935047D01*
X142885053Y-54935047D01*
X142885050Y-54935046D01*
X142746964Y-54894500D01*
X142746961Y-54894500D01*
X142603039Y-54894500D01*
X142603035Y-54894500D01*
X142464949Y-54935046D01*
X142464942Y-54935049D01*
X142343873Y-55012855D01*
X142249622Y-55121628D01*
X142189834Y-55252543D01*
X142169353Y-55394997D01*
X142169353Y-55395002D01*
X136659973Y-55395002D01*
X135818565Y-54553594D01*
X135810479Y-54542344D01*
X135809487Y-54543094D01*
X135803958Y-54535772D01*
X135793928Y-54526628D01*
X135768423Y-54503377D01*
X135766775Y-54501804D01*
X135752797Y-54487826D01*
X135749859Y-54485813D01*
X135744496Y-54481564D01*
X135720933Y-54460084D01*
X135711762Y-54456531D01*
X135691586Y-54445895D01*
X135683484Y-54440345D01*
X135683479Y-54440343D01*
X135652457Y-54433046D01*
X135645902Y-54431016D01*
X135616177Y-54419501D01*
X135616174Y-54419500D01*
X135616173Y-54419500D01*
X135616172Y-54419500D01*
X135606348Y-54419500D01*
X135583683Y-54416870D01*
X135574119Y-54414621D01*
X135574118Y-54414621D01*
X135542547Y-54419025D01*
X135535701Y-54419500D01*
X131328359Y-54419500D01*
X131270168Y-54400593D01*
X131234204Y-54351093D01*
X131234204Y-54289907D01*
X131238306Y-54279373D01*
X131255165Y-54242456D01*
X131275647Y-54100002D01*
X131275647Y-54099998D01*
X131272558Y-54078516D01*
X131282991Y-54018227D01*
X131300543Y-53994426D01*
X131465474Y-53829496D01*
X131519992Y-53801719D01*
X131535478Y-53800500D01*
X136152917Y-53800500D01*
X136211108Y-53819407D01*
X136227733Y-53834667D01*
X136268872Y-53882143D01*
X136389947Y-53959953D01*
X136496403Y-53991211D01*
X136528035Y-54000499D01*
X136528036Y-54000499D01*
X136528039Y-54000500D01*
X136528041Y-54000500D01*
X136671959Y-54000500D01*
X136671961Y-54000500D01*
X136810053Y-53959953D01*
X136931128Y-53882143D01*
X137025377Y-53773373D01*
X137085165Y-53642457D01*
X137105647Y-53500000D01*
X137105575Y-53499500D01*
X137085165Y-53357543D01*
X137085165Y-53357541D01*
X137040905Y-53260626D01*
X137033930Y-53199840D01*
X137064016Y-53146563D01*
X137119673Y-53121145D01*
X137130958Y-53120500D01*
X137854521Y-53120500D01*
X137912712Y-53139407D01*
X137924525Y-53149496D01*
X139469453Y-54694424D01*
X139497230Y-54748941D01*
X139497441Y-54778514D01*
X139494354Y-54799997D01*
X139494353Y-54800002D01*
X139514834Y-54942456D01*
X139574622Y-55073371D01*
X139574623Y-55073373D01*
X139641101Y-55150093D01*
X139668873Y-55182144D01*
X139786194Y-55257541D01*
X139789947Y-55259953D01*
X139896403Y-55291211D01*
X139928035Y-55300499D01*
X139928036Y-55300499D01*
X139928039Y-55300500D01*
X139928041Y-55300500D01*
X140071959Y-55300500D01*
X140071961Y-55300500D01*
X140210053Y-55259953D01*
X140331128Y-55182143D01*
X140425377Y-55073373D01*
X140485165Y-54942457D01*
X140505647Y-54800000D01*
X140485165Y-54657543D01*
X140425377Y-54526627D01*
X140331128Y-54417857D01*
X140331127Y-54417856D01*
X140331126Y-54417855D01*
X140210057Y-54340049D01*
X140210054Y-54340047D01*
X140210053Y-54340047D01*
X140210050Y-54340046D01*
X140071964Y-54299500D01*
X140071961Y-54299500D01*
X139965479Y-54299500D01*
X139907288Y-54280593D01*
X139895475Y-54270504D01*
X138278565Y-52653594D01*
X138270479Y-52642344D01*
X138269487Y-52643094D01*
X138263958Y-52635772D01*
X138249351Y-52622456D01*
X138228423Y-52603377D01*
X138226775Y-52601804D01*
X138212797Y-52587826D01*
X138209859Y-52585813D01*
X138204496Y-52581564D01*
X138180933Y-52560084D01*
X138171762Y-52556531D01*
X138151586Y-52545895D01*
X138143484Y-52540345D01*
X138143479Y-52540343D01*
X138112457Y-52533046D01*
X138105902Y-52531016D01*
X138076177Y-52519501D01*
X138076174Y-52519500D01*
X138076173Y-52519500D01*
X138076172Y-52519500D01*
X138066348Y-52519500D01*
X138043683Y-52516870D01*
X138034119Y-52514621D01*
X138034118Y-52514621D01*
X138002547Y-52519025D01*
X137995701Y-52519500D01*
X131734979Y-52519500D01*
X131676788Y-52500593D01*
X131664975Y-52490504D01*
X131474471Y-52300000D01*
X139494353Y-52300000D01*
X139514834Y-52442456D01*
X139566932Y-52556533D01*
X139574623Y-52573373D01*
X139654060Y-52665049D01*
X139668873Y-52682144D01*
X139763342Y-52742855D01*
X139789947Y-52759953D01*
X139896403Y-52791211D01*
X139928035Y-52800499D01*
X139928036Y-52800499D01*
X139928039Y-52800500D01*
X139928041Y-52800500D01*
X140071959Y-52800500D01*
X140071961Y-52800500D01*
X140210053Y-52759953D01*
X140331128Y-52682143D01*
X140425377Y-52573373D01*
X140485165Y-52442457D01*
X140505647Y-52300000D01*
X140503483Y-52284950D01*
X140485165Y-52157543D01*
X140485164Y-52157543D01*
X140425377Y-52026627D01*
X140331128Y-51917857D01*
X140331127Y-51917856D01*
X140331126Y-51917855D01*
X140210057Y-51840049D01*
X140210054Y-51840047D01*
X140210053Y-51840047D01*
X140210050Y-51840046D01*
X140071964Y-51799500D01*
X140071961Y-51799500D01*
X139928039Y-51799500D01*
X139928035Y-51799500D01*
X139789949Y-51840046D01*
X139789942Y-51840049D01*
X139668873Y-51917855D01*
X139574622Y-52026628D01*
X139514834Y-52157543D01*
X139494353Y-52299997D01*
X139494353Y-52300000D01*
X131474471Y-52300000D01*
X130980546Y-51806075D01*
X130952769Y-51751558D01*
X130952558Y-51721982D01*
X130955647Y-51700500D01*
X130954941Y-51695593D01*
X130935165Y-51558043D01*
X130916619Y-51517433D01*
X130908658Y-51500002D01*
X136394353Y-51500002D01*
X136414834Y-51642456D01*
X136450539Y-51720637D01*
X136474623Y-51773373D01*
X136568872Y-51882143D01*
X136568873Y-51882144D01*
X136587155Y-51893893D01*
X136689947Y-51959953D01*
X136796403Y-51991211D01*
X136828035Y-52000499D01*
X136828036Y-52000499D01*
X136828039Y-52000500D01*
X136828041Y-52000500D01*
X136971959Y-52000500D01*
X136971961Y-52000500D01*
X137110053Y-51959953D01*
X137231128Y-51882143D01*
X137325377Y-51773373D01*
X137385165Y-51642457D01*
X137393792Y-51582456D01*
X137405647Y-51500002D01*
X137405647Y-51499997D01*
X137385165Y-51357543D01*
X137370444Y-51325309D01*
X137325377Y-51226627D01*
X137231128Y-51117857D01*
X137231127Y-51117856D01*
X137231126Y-51117855D01*
X137110057Y-51040049D01*
X137110054Y-51040047D01*
X137110053Y-51040047D01*
X137088301Y-51033660D01*
X137088287Y-51033656D01*
X137550392Y-51033656D01*
X137580666Y-51205350D01*
X137649720Y-51365436D01*
X137649721Y-51365438D01*
X137753831Y-51505282D01*
X137753833Y-51505284D01*
X137887383Y-51617347D01*
X137887384Y-51617347D01*
X137887386Y-51617349D01*
X138043185Y-51695594D01*
X138212829Y-51735800D01*
X138212832Y-51735800D01*
X138343433Y-51735800D01*
X138343436Y-51735800D01*
X138473164Y-51720637D01*
X138636993Y-51661008D01*
X138665199Y-51642457D01*
X138782648Y-51565209D01*
X138782648Y-51565208D01*
X138782654Y-51565205D01*
X138902296Y-51438393D01*
X138989467Y-51287407D01*
X139039469Y-51120388D01*
X139047644Y-50980046D01*
X139049607Y-50946343D01*
X139049607Y-50946340D01*
X139019333Y-50774649D01*
X138983938Y-50692593D01*
X138950279Y-50614562D01*
X138846168Y-50474717D01*
X138846166Y-50474715D01*
X138712616Y-50362652D01*
X138556816Y-50284406D01*
X138514404Y-50274354D01*
X138387171Y-50244200D01*
X138256564Y-50244200D01*
X138191699Y-50251781D01*
X138126833Y-50259363D01*
X138126828Y-50259365D01*
X137963008Y-50318991D01*
X137962998Y-50318996D01*
X137817351Y-50414790D01*
X137817345Y-50414795D01*
X137697705Y-50541605D01*
X137697704Y-50541605D01*
X137610533Y-50692592D01*
X137560531Y-50859608D01*
X137560530Y-50859616D01*
X137550392Y-51033656D01*
X137088287Y-51033656D01*
X136971964Y-50999500D01*
X136971961Y-50999500D01*
X136828039Y-50999500D01*
X136828035Y-50999500D01*
X136689949Y-51040046D01*
X136689942Y-51040049D01*
X136568873Y-51117855D01*
X136474622Y-51226628D01*
X136414834Y-51357543D01*
X136394353Y-51499997D01*
X136394353Y-51500002D01*
X130908658Y-51500002D01*
X130875377Y-51427127D01*
X130781128Y-51318357D01*
X130781127Y-51318356D01*
X130781126Y-51318355D01*
X130660057Y-51240549D01*
X130660054Y-51240547D01*
X130660053Y-51240547D01*
X130660050Y-51240546D01*
X130521964Y-51200000D01*
X130521961Y-51200000D01*
X130378039Y-51200000D01*
X130378035Y-51200000D01*
X130239949Y-51240546D01*
X130239942Y-51240549D01*
X130118873Y-51318355D01*
X130024622Y-51427128D01*
X129964834Y-51558043D01*
X129944353Y-51700497D01*
X129944353Y-51700500D01*
X129964834Y-51842956D01*
X130018266Y-51959953D01*
X130024623Y-51973873D01*
X130118872Y-52082643D01*
X130118873Y-52082644D01*
X130235419Y-52157543D01*
X130239947Y-52160453D01*
X130346403Y-52191711D01*
X130378035Y-52200999D01*
X130378036Y-52200999D01*
X130378039Y-52201000D01*
X130378041Y-52201000D01*
X130484521Y-52201000D01*
X130542712Y-52219907D01*
X130554525Y-52229996D01*
X131310936Y-52986407D01*
X131319037Y-52997647D01*
X131320016Y-52996909D01*
X131325544Y-53004230D01*
X131354588Y-53030707D01*
X131384854Y-53083883D01*
X131378083Y-53144693D01*
X131336863Y-53189909D01*
X131308426Y-53198143D01*
X131308937Y-53200315D01*
X131300006Y-53202415D01*
X131291015Y-53206385D01*
X131269227Y-53213132D01*
X131259570Y-53214937D01*
X131259564Y-53214939D01*
X131232466Y-53231717D01*
X131226399Y-53234915D01*
X131197237Y-53247792D01*
X131197233Y-53247795D01*
X131190284Y-53254744D01*
X131172409Y-53268903D01*
X131164048Y-53274080D01*
X131144839Y-53299515D01*
X131140335Y-53304692D01*
X130874524Y-53570503D01*
X130820007Y-53598281D01*
X130804520Y-53599500D01*
X130698035Y-53599500D01*
X130559949Y-53640046D01*
X130559942Y-53640049D01*
X130438873Y-53717855D01*
X130344622Y-53826628D01*
X130284834Y-53957543D01*
X130264353Y-54099997D01*
X130264353Y-54100002D01*
X130284834Y-54242456D01*
X130301694Y-54279373D01*
X130308669Y-54340159D01*
X130278583Y-54393437D01*
X130222927Y-54418855D01*
X130211641Y-54419500D01*
X128786635Y-54419500D01*
X128772959Y-54417267D01*
X128772788Y-54418494D01*
X128763704Y-54417226D01*
X128723357Y-54419092D01*
X128715677Y-54419447D01*
X128713401Y-54419500D01*
X128693624Y-54419500D01*
X128690129Y-54420153D01*
X128683316Y-54420943D01*
X128651481Y-54422414D01*
X128651477Y-54422415D01*
X128642486Y-54426385D01*
X128620698Y-54433132D01*
X128611041Y-54434937D01*
X128611035Y-54434939D01*
X128583937Y-54451717D01*
X128577870Y-54454915D01*
X128548708Y-54467792D01*
X128548704Y-54467795D01*
X128541755Y-54474744D01*
X128523880Y-54488903D01*
X128515519Y-54494080D01*
X128496310Y-54519515D01*
X128491806Y-54524692D01*
X127023590Y-55992908D01*
X127012361Y-56001021D01*
X127013090Y-56001986D01*
X127005771Y-56007512D01*
X126973372Y-56043051D01*
X126971796Y-56044702D01*
X126957830Y-56058669D01*
X126957817Y-56058684D01*
X126955813Y-56061609D01*
X126951561Y-56066975D01*
X126930084Y-56090536D01*
X126930083Y-56090537D01*
X126929445Y-56092186D01*
X126907137Y-56126419D01*
X126158590Y-56874966D01*
X126147361Y-56883079D01*
X126148090Y-56884044D01*
X126140771Y-56889570D01*
X126108372Y-56925109D01*
X126106796Y-56926760D01*
X126092830Y-56940727D01*
X126092817Y-56940742D01*
X126090813Y-56943667D01*
X126086561Y-56949033D01*
X126065084Y-56972594D01*
X126065083Y-56972596D01*
X126061529Y-56981769D01*
X126050896Y-57001941D01*
X126045346Y-57010044D01*
X126045342Y-57010053D01*
X126038045Y-57041074D01*
X126036016Y-57047627D01*
X126024500Y-57077353D01*
X126024500Y-57087180D01*
X126021870Y-57109847D01*
X126019620Y-57119409D01*
X126024024Y-57150983D01*
X126024499Y-57157828D01*
X126024500Y-58345605D01*
X126005593Y-58403796D01*
X125998258Y-58411789D01*
X125998509Y-58412006D01*
X125993872Y-58417356D01*
X125993872Y-58417357D01*
X125972124Y-58442456D01*
X125899622Y-58526128D01*
X125839834Y-58657043D01*
X125819353Y-58799497D01*
X125819353Y-58799502D01*
X125839834Y-58941956D01*
X125899622Y-59072871D01*
X125899623Y-59072873D01*
X125993872Y-59181643D01*
X125993873Y-59181644D01*
X126022431Y-59199997D01*
X126114947Y-59259453D01*
X126196412Y-59283373D01*
X126253035Y-59299999D01*
X126253036Y-59299999D01*
X126253039Y-59300000D01*
X126253041Y-59300000D01*
X126396959Y-59300000D01*
X126396961Y-59300000D01*
X126535053Y-59259453D01*
X126656128Y-59181643D01*
X126750377Y-59072873D01*
X126810165Y-58941957D01*
X126826930Y-58825354D01*
X126830647Y-58799502D01*
X126830647Y-58799497D01*
X126810165Y-58657043D01*
X126796274Y-58626627D01*
X126750377Y-58526127D01*
X126656128Y-58417357D01*
X126656127Y-58417356D01*
X126651491Y-58412006D01*
X126653527Y-58410241D01*
X126628073Y-58368031D01*
X126625500Y-58345613D01*
X126625500Y-57299006D01*
X126644407Y-57240816D01*
X126654496Y-57229003D01*
X127000420Y-56883079D01*
X127356405Y-56527093D01*
X127367664Y-56519022D01*
X127366905Y-56518016D01*
X127374221Y-56512490D01*
X127374228Y-56512487D01*
X127406632Y-56476940D01*
X127408186Y-56475312D01*
X127422174Y-56461326D01*
X127424181Y-56458394D01*
X127428440Y-56453019D01*
X127432220Y-56448873D01*
X127449916Y-56429462D01*
X127450549Y-56427826D01*
X127472861Y-56393579D01*
X128816945Y-55049496D01*
X128871463Y-55021719D01*
X128886950Y-55020500D01*
X130394042Y-55020500D01*
X130452233Y-55039407D01*
X130488197Y-55088907D01*
X130488197Y-55150093D01*
X130484095Y-55160626D01*
X130439834Y-55257541D01*
X130439834Y-55257543D01*
X130419353Y-55399997D01*
X130419353Y-55400002D01*
X130439833Y-55542454D01*
X130459820Y-55586218D01*
X130466794Y-55647005D01*
X130436707Y-55700281D01*
X130420473Y-55711050D01*
X130420903Y-55711719D01*
X130293873Y-55793355D01*
X130199622Y-55902128D01*
X130139834Y-56033043D01*
X130119353Y-56175497D01*
X130119353Y-56175502D01*
X130139834Y-56317956D01*
X130165812Y-56374839D01*
X130199623Y-56448873D01*
X130276727Y-56537857D01*
X130298509Y-56562994D01*
X130296471Y-56564759D01*
X130321925Y-56606958D01*
X130324500Y-56629393D01*
X130324500Y-60760020D01*
X130305593Y-60818211D01*
X130295504Y-60830024D01*
X128684525Y-62441004D01*
X128630008Y-62468781D01*
X128614521Y-62470000D01*
X123047083Y-62470000D01*
X122988892Y-62451093D01*
X122972264Y-62435831D01*
X122971831Y-62435331D01*
X122931128Y-62388357D01*
X122840631Y-62330198D01*
X122810057Y-62310549D01*
X122810054Y-62310547D01*
X122810053Y-62310547D01*
X122808357Y-62310049D01*
X122671964Y-62270000D01*
X122671961Y-62270000D01*
X122528039Y-62270000D01*
X122528035Y-62270000D01*
X122389949Y-62310546D01*
X122389942Y-62310549D01*
X122268873Y-62388355D01*
X122174622Y-62497128D01*
X122114834Y-62628043D01*
X122094353Y-62770497D01*
X122094353Y-62770504D01*
X122113963Y-62906903D01*
X122103529Y-62967192D01*
X122059651Y-63009834D01*
X121999088Y-63018541D01*
X121945967Y-62990995D01*
X120429496Y-61474524D01*
X120401719Y-61420007D01*
X120400500Y-61404520D01*
X120400500Y-56920002D01*
X123554353Y-56920002D01*
X123574834Y-57062456D01*
X123618260Y-57157543D01*
X123634623Y-57193373D01*
X123727015Y-57300000D01*
X123728873Y-57302144D01*
X123849942Y-57379950D01*
X123849947Y-57379953D01*
X123956403Y-57411211D01*
X123988035Y-57420499D01*
X123988036Y-57420499D01*
X123988039Y-57420500D01*
X123988041Y-57420500D01*
X124131959Y-57420500D01*
X124131961Y-57420500D01*
X124270053Y-57379953D01*
X124391128Y-57302143D01*
X124485377Y-57193373D01*
X124545165Y-57062457D01*
X124562667Y-56940727D01*
X124565647Y-56920002D01*
X124565647Y-56919997D01*
X124545165Y-56777543D01*
X124485377Y-56646628D01*
X124485377Y-56646627D01*
X124391128Y-56537857D01*
X124391127Y-56537856D01*
X124391126Y-56537855D01*
X124270057Y-56460049D01*
X124270054Y-56460047D01*
X124270053Y-56460047D01*
X124264451Y-56458402D01*
X124131964Y-56419500D01*
X124131961Y-56419500D01*
X123988039Y-56419500D01*
X123988035Y-56419500D01*
X123849949Y-56460046D01*
X123849942Y-56460049D01*
X123728873Y-56537855D01*
X123634622Y-56646628D01*
X123574834Y-56777543D01*
X123554353Y-56919997D01*
X123554353Y-56920002D01*
X120400500Y-56920002D01*
X120400500Y-53125002D01*
X122469353Y-53125002D01*
X122489834Y-53267456D01*
X122543973Y-53386001D01*
X122549623Y-53398373D01*
X122643872Y-53507143D01*
X122643873Y-53507144D01*
X122764942Y-53584950D01*
X122764947Y-53584953D01*
X122871403Y-53616211D01*
X122903035Y-53625499D01*
X122903036Y-53625499D01*
X122903039Y-53625500D01*
X122903041Y-53625500D01*
X123046959Y-53625500D01*
X123046961Y-53625500D01*
X123185053Y-53584953D01*
X123306128Y-53507143D01*
X123400377Y-53398373D01*
X123460165Y-53267457D01*
X123469751Y-53200784D01*
X123480647Y-53125002D01*
X123480647Y-53124997D01*
X123460165Y-52982543D01*
X123459232Y-52980499D01*
X123400377Y-52851627D01*
X123306128Y-52742857D01*
X123306127Y-52742856D01*
X123306126Y-52742855D01*
X123185057Y-52665049D01*
X123185054Y-52665047D01*
X123185053Y-52665047D01*
X123185050Y-52665046D01*
X123046964Y-52624500D01*
X123046961Y-52624500D01*
X122903039Y-52624500D01*
X122903035Y-52624500D01*
X122764949Y-52665046D01*
X122764942Y-52665049D01*
X122643873Y-52742855D01*
X122549622Y-52851628D01*
X122489834Y-52982543D01*
X122469353Y-53124997D01*
X122469353Y-53125002D01*
X120400500Y-53125002D01*
X120400500Y-52480002D01*
X127114353Y-52480002D01*
X127134834Y-52622456D01*
X127189820Y-52742857D01*
X127194623Y-52753373D01*
X127279760Y-52851627D01*
X127288873Y-52862144D01*
X127409942Y-52939950D01*
X127409947Y-52939953D01*
X127516403Y-52971211D01*
X127548035Y-52980499D01*
X127548036Y-52980499D01*
X127548039Y-52980500D01*
X127548041Y-52980500D01*
X127691959Y-52980500D01*
X127691961Y-52980500D01*
X127830053Y-52939953D01*
X127951128Y-52862143D01*
X128045377Y-52753373D01*
X128105165Y-52622457D01*
X128118020Y-52533046D01*
X128125647Y-52480002D01*
X128125647Y-52480000D01*
X128122558Y-52458518D01*
X128132990Y-52398228D01*
X128150547Y-52374423D01*
X129605477Y-50919496D01*
X129659993Y-50891719D01*
X129675480Y-50890500D01*
X135096307Y-50890500D01*
X135109982Y-50892732D01*
X135110154Y-50891506D01*
X135119235Y-50892772D01*
X135119236Y-50892773D01*
X135119236Y-50892772D01*
X135119237Y-50892773D01*
X135127978Y-50892368D01*
X135167264Y-50890552D01*
X135169541Y-50890500D01*
X135189312Y-50890500D01*
X135189315Y-50890500D01*
X135192808Y-50889846D01*
X135199612Y-50889056D01*
X135231463Y-50887585D01*
X135240447Y-50883617D01*
X135262248Y-50876865D01*
X135271904Y-50875061D01*
X135299014Y-50858274D01*
X135305060Y-50855088D01*
X135334236Y-50842206D01*
X135341180Y-50835260D01*
X135359072Y-50821089D01*
X135367423Y-50815919D01*
X135386636Y-50790474D01*
X135391133Y-50785308D01*
X136246947Y-49929496D01*
X136301463Y-49901719D01*
X136316950Y-49900500D01*
X141934521Y-49900500D01*
X141992712Y-49919407D01*
X142004525Y-49929496D01*
X143794453Y-51719424D01*
X143822230Y-51773941D01*
X143822441Y-51803514D01*
X143819354Y-51824997D01*
X143819353Y-51825002D01*
X143839834Y-51967456D01*
X143892439Y-52082643D01*
X143899623Y-52098373D01*
X143987847Y-52200190D01*
X143993873Y-52207144D01*
X144053138Y-52245231D01*
X144114947Y-52284953D01*
X144221403Y-52316211D01*
X144253035Y-52325499D01*
X144253036Y-52325499D01*
X144253039Y-52325500D01*
X144253041Y-52325500D01*
X144396959Y-52325500D01*
X144396961Y-52325500D01*
X144535053Y-52284953D01*
X144656128Y-52207143D01*
X144750377Y-52098373D01*
X144810165Y-51967457D01*
X144822431Y-51882143D01*
X144830647Y-51825002D01*
X144830647Y-51824997D01*
X144810165Y-51682543D01*
X144791858Y-51642456D01*
X144750377Y-51551627D01*
X144656128Y-51442857D01*
X144656127Y-51442856D01*
X144656126Y-51442855D01*
X144535057Y-51365049D01*
X144535054Y-51365047D01*
X144535053Y-51365047D01*
X144535050Y-51365046D01*
X144396964Y-51324500D01*
X144396961Y-51324500D01*
X144290479Y-51324500D01*
X144232288Y-51305593D01*
X144220475Y-51295504D01*
X142358565Y-49433594D01*
X142350479Y-49422344D01*
X142349487Y-49423094D01*
X142343958Y-49415772D01*
X142308428Y-49383382D01*
X142306775Y-49381804D01*
X142292797Y-49367826D01*
X142289859Y-49365813D01*
X142284496Y-49361564D01*
X142260933Y-49340084D01*
X142251762Y-49336531D01*
X142231586Y-49325895D01*
X142223484Y-49320345D01*
X142223479Y-49320343D01*
X142192457Y-49313046D01*
X142185902Y-49311016D01*
X142156177Y-49299501D01*
X142156174Y-49299500D01*
X142156173Y-49299500D01*
X142156172Y-49299500D01*
X142146348Y-49299500D01*
X142123683Y-49296870D01*
X142114119Y-49294621D01*
X142114118Y-49294621D01*
X142082547Y-49299025D01*
X142075701Y-49299500D01*
X136216635Y-49299500D01*
X136202959Y-49297267D01*
X136202788Y-49298494D01*
X136193704Y-49297226D01*
X136153357Y-49299092D01*
X136145677Y-49299447D01*
X136143401Y-49299500D01*
X136123624Y-49299500D01*
X136120129Y-49300153D01*
X136113316Y-49300943D01*
X136081480Y-49302414D01*
X136072476Y-49306389D01*
X136050697Y-49313132D01*
X136041039Y-49314937D01*
X136041037Y-49314938D01*
X136013942Y-49331714D01*
X136007874Y-49334913D01*
X135978705Y-49347793D01*
X135971751Y-49354747D01*
X135953874Y-49368907D01*
X135945519Y-49374080D01*
X135926310Y-49399515D01*
X135921806Y-49404692D01*
X135065997Y-50260503D01*
X135011480Y-50288281D01*
X134995993Y-50289500D01*
X129575165Y-50289500D01*
X129561489Y-50287267D01*
X129561318Y-50288494D01*
X129552234Y-50287226D01*
X129511887Y-50289092D01*
X129504207Y-50289447D01*
X129501931Y-50289500D01*
X129482153Y-50289500D01*
X129478658Y-50290153D01*
X129471845Y-50290943D01*
X129440011Y-50292414D01*
X129440007Y-50292415D01*
X129431013Y-50296386D01*
X129409228Y-50303132D01*
X129399571Y-50304937D01*
X129399565Y-50304940D01*
X129372465Y-50321718D01*
X129366396Y-50324917D01*
X129337238Y-50337792D01*
X129337231Y-50337796D01*
X129330286Y-50344742D01*
X129312406Y-50358905D01*
X129304048Y-50364080D01*
X129284839Y-50389515D01*
X129280335Y-50394692D01*
X127724524Y-51950504D01*
X127670007Y-51978281D01*
X127654520Y-51979500D01*
X127548035Y-51979500D01*
X127409949Y-52020046D01*
X127409942Y-52020049D01*
X127288873Y-52097855D01*
X127194622Y-52206628D01*
X127134834Y-52337543D01*
X127114353Y-52479997D01*
X127114353Y-52480002D01*
X120400500Y-52480002D01*
X120400500Y-51893893D01*
X120419407Y-51835702D01*
X120426741Y-51827711D01*
X120426491Y-51827494D01*
X120431128Y-51822143D01*
X120525377Y-51713373D01*
X120585165Y-51582457D01*
X120597020Y-51500002D01*
X120605647Y-51440002D01*
X120605647Y-51439997D01*
X120585165Y-51297543D01*
X120559136Y-51240549D01*
X120525377Y-51166627D01*
X120431128Y-51057857D01*
X120431127Y-51057856D01*
X120431126Y-51057855D01*
X120310057Y-50980049D01*
X120310054Y-50980047D01*
X120310053Y-50980047D01*
X120310050Y-50980046D01*
X120171964Y-50939500D01*
X120171961Y-50939500D01*
X120028039Y-50939500D01*
X120028035Y-50939500D01*
X119889949Y-50980046D01*
X119889942Y-50980049D01*
X119768873Y-51057855D01*
X119674622Y-51166628D01*
X119614834Y-51297543D01*
X119594353Y-51439997D01*
X119594353Y-51440002D01*
X119614834Y-51582456D01*
X119674623Y-51713373D01*
X119773509Y-51827494D01*
X119771471Y-51829259D01*
X119796925Y-51871458D01*
X119799500Y-51893893D01*
X119799500Y-52633915D01*
X119780593Y-52692106D01*
X119731093Y-52728070D01*
X119672609Y-52728905D01*
X119572464Y-52699500D01*
X119572461Y-52699500D01*
X119428539Y-52699500D01*
X119428535Y-52699500D01*
X119290449Y-52740046D01*
X119290442Y-52740049D01*
X119169373Y-52817855D01*
X119075122Y-52926628D01*
X119015334Y-53057543D01*
X118994853Y-53199997D01*
X118994853Y-53200002D01*
X119015334Y-53342456D01*
X119075123Y-53473373D01*
X119174009Y-53587494D01*
X119171971Y-53589259D01*
X119197425Y-53631458D01*
X119200000Y-53653893D01*
X119200000Y-61915335D01*
X119197780Y-61929013D01*
X119198994Y-61929183D01*
X119197726Y-61938266D01*
X119199947Y-61986283D01*
X119200000Y-61988569D01*
X119200000Y-62008342D01*
X119200652Y-62011832D01*
X119201443Y-62018649D01*
X119202914Y-62050487D01*
X119202915Y-62050494D01*
X119206884Y-62059482D01*
X119213633Y-62081273D01*
X119215439Y-62090933D01*
X119232217Y-62118033D01*
X119235415Y-62124100D01*
X119248293Y-62153263D01*
X119248294Y-62153265D01*
X119255245Y-62160216D01*
X119269407Y-62178096D01*
X119274581Y-62186452D01*
X119300011Y-62205656D01*
X119305190Y-62210162D01*
X119395525Y-62300496D01*
X119423302Y-62355013D01*
X119413731Y-62415445D01*
X119370466Y-62458710D01*
X119325521Y-62469500D01*
X117987083Y-62469500D01*
X117928892Y-62450593D01*
X117912264Y-62435331D01*
X117895033Y-62415445D01*
X117871128Y-62387857D01*
X117781409Y-62330198D01*
X117750057Y-62310049D01*
X117750054Y-62310047D01*
X117750053Y-62310047D01*
X117750050Y-62310046D01*
X117611964Y-62269500D01*
X117611961Y-62269500D01*
X117468039Y-62269500D01*
X117468035Y-62269500D01*
X117367391Y-62299052D01*
X117306230Y-62297304D01*
X117257778Y-62259941D01*
X117240500Y-62204062D01*
X117240500Y-59765478D01*
X117259407Y-59707287D01*
X117269496Y-59695474D01*
X117425474Y-59539496D01*
X117479991Y-59511719D01*
X117495478Y-59510500D01*
X117601959Y-59510500D01*
X117601961Y-59510500D01*
X117740053Y-59469953D01*
X117861128Y-59392143D01*
X117955377Y-59283373D01*
X118015165Y-59152457D01*
X118028689Y-59058393D01*
X118035647Y-59010002D01*
X118035647Y-59009997D01*
X118015165Y-58867543D01*
X117992473Y-58817855D01*
X117955377Y-58736627D01*
X117861128Y-58627857D01*
X117861127Y-58627856D01*
X117861126Y-58627855D01*
X117740057Y-58550049D01*
X117740054Y-58550047D01*
X117740053Y-58550047D01*
X117740050Y-58550046D01*
X117601964Y-58509500D01*
X117601961Y-58509500D01*
X117458039Y-58509500D01*
X117458035Y-58509500D01*
X117319949Y-58550046D01*
X117319942Y-58550049D01*
X117198873Y-58627855D01*
X117104622Y-58736628D01*
X117044834Y-58867543D01*
X117024353Y-59009997D01*
X117024353Y-59010003D01*
X117027441Y-59031482D01*
X117017007Y-59091771D01*
X116999453Y-59115574D01*
X116773590Y-59341437D01*
X116762361Y-59349550D01*
X116763090Y-59350515D01*
X116755771Y-59356041D01*
X116723372Y-59391580D01*
X116721796Y-59393231D01*
X116707830Y-59407198D01*
X116707817Y-59407213D01*
X116705813Y-59410138D01*
X116701561Y-59415504D01*
X116680084Y-59439065D01*
X116680083Y-59439067D01*
X116676529Y-59448240D01*
X116665896Y-59468412D01*
X116660346Y-59476515D01*
X116660342Y-59476524D01*
X116653045Y-59507545D01*
X116651016Y-59514098D01*
X116639500Y-59543824D01*
X116639500Y-59553651D01*
X116636870Y-59576318D01*
X116634621Y-59585879D01*
X108700500Y-59585879D01*
X108700500Y-53499500D01*
X108719407Y-53441309D01*
X108768907Y-53405345D01*
X108799500Y-53400500D01*
X110303244Y-53400500D01*
X110345440Y-53400935D01*
X110484401Y-53402371D01*
X110706064Y-53383789D01*
X110708172Y-53383658D01*
X110760668Y-53381557D01*
X110775084Y-53378003D01*
X110851943Y-53371560D01*
X111106279Y-53325865D01*
X111108037Y-53325584D01*
X111144258Y-53320450D01*
X111152477Y-53317566D01*
X111214962Y-53306340D01*
X111508200Y-53224584D01*
X111509627Y-53224210D01*
X111520238Y-53221594D01*
X111522228Y-53220673D01*
X111570243Y-53207287D01*
X111914642Y-53075278D01*
X112245107Y-52911483D01*
X112558715Y-52717352D01*
X112852687Y-52494604D01*
X113124420Y-52245210D01*
X113371510Y-51971380D01*
X113591768Y-51675537D01*
X113783243Y-51360301D01*
X113805000Y-51315456D01*
X113805860Y-51314561D01*
X113810743Y-51303670D01*
X113811337Y-51302394D01*
X113944241Y-51028464D01*
X113966465Y-50968984D01*
X113969549Y-50965105D01*
X113982311Y-50926668D01*
X113982904Y-50924986D01*
X114073336Y-50682963D01*
X114093415Y-50608517D01*
X114098064Y-50601383D01*
X114110958Y-50543654D01*
X114111468Y-50541585D01*
X114169384Y-50326857D01*
X114200282Y-50146299D01*
X114200633Y-50144463D01*
X114201680Y-50139505D01*
X114201912Y-50136770D01*
X114204019Y-50124425D01*
X114200500Y-50113263D01*
X114200500Y-47999500D01*
X114219407Y-47941309D01*
X114268907Y-47905345D01*
X114299500Y-47900500D01*
X153100500Y-47900500D01*
X153158691Y-47919407D01*
G37*
%TD.AperFunction*%
%TD*%
M02*
